G04 DesignSpark PCB Gerber Version 10.0 Build 5299*
G04 #@! TF.Part,Single*
G04 #@! TF.FileFunction,Paste,Top*
G04 #@! TF.FilePolarity,Positive*
%FSLAX35Y35*%
%MOIN*%
G04 #@! TA.AperFunction,SMDPad,CuDef*
%ADD90R,0.02400X0.03100*%
%ADD89R,0.04521X0.01175*%
%ADD91R,0.05600X0.05100*%
%ADD92R,0.12002X0.06608*%
G04 #@! TD.AperFunction*
X0Y0D02*
D02*
D89*
X60639Y133080D03*
Y135639D03*
Y138198D03*
Y140757D03*
Y143317D03*
Y145876D03*
Y148435D03*
Y150994D03*
Y153553D03*
Y156112D03*
Y158671D03*
Y161230D03*
Y247332D03*
Y249891D03*
Y252450D03*
Y255009D03*
Y257569D03*
Y260128D03*
Y262687D03*
Y265246D03*
Y267805D03*
Y270364D03*
Y272923D03*
Y275482D03*
X89183Y133080D03*
Y135639D03*
Y138198D03*
Y140757D03*
Y143317D03*
Y145876D03*
Y148435D03*
Y150994D03*
Y153553D03*
Y156112D03*
Y158671D03*
Y161230D03*
Y247332D03*
Y249891D03*
Y252450D03*
Y255009D03*
Y257569D03*
Y260128D03*
Y262687D03*
Y265246D03*
Y267805D03*
Y270364D03*
Y272923D03*
Y275482D03*
D02*
D90*
X54586Y249871D03*
Y254971D03*
X54635Y267833D03*
Y272933D03*
X54734Y133286D03*
Y138386D03*
Y153463D03*
Y158563D03*
D02*
D91*
X57616Y54635D03*
Y63494D03*
X66616Y54635D03*
Y63494D03*
X69427Y213592D03*
Y221958D03*
Y235246D03*
X69919Y170285D03*
Y179635D03*
Y188494D03*
X70411Y123533D03*
X70903Y292824D03*
Y301683D03*
X71084Y284458D03*
X78427Y213592D03*
Y221958D03*
Y235246D03*
X78919Y170285D03*
Y179635D03*
Y188494D03*
X79411Y123533D03*
X79903Y292824D03*
Y301683D03*
X80084Y284458D03*
D02*
D92*
X291446Y121112D03*
Y141702D03*
X0Y0D02*
M02*
