G04 DesignSpark PCB Gerber Version 10.0 Build 5299*
G04 #@! TF.Part,Single*
G04 #@! TF.FileFunction,Copper,L1,Top*
G04 #@! TF.FilePolarity,Positive*
%FSLAX35Y35*%
%MOIN*%
G04 #@! TA.AperFunction,ComponentPad*
%ADD76O,0.08858X0.17717*%
G04 #@! TA.AperFunction,SMDPad,CuDef*
%ADD77R,0.02800X0.03500*%
G04 #@! TA.AperFunction,ComponentPad*
%ADD73R,0.06024X0.06024*%
G04 #@! TD.AperFunction*
%ADD10C,0.01000*%
%ADD27C,0.01200*%
G04 #@! TA.AperFunction,ViaPad*
%ADD28C,0.04000*%
G04 #@! TA.AperFunction,ComponentPad*
%ADD14C,0.06000*%
%ADD72C,0.06024*%
%ADD75O,0.17717X0.08858*%
%ADD74O,0.19685X0.09843*%
G04 #@! TA.AperFunction,SMDPad,CuDef*
%ADD29R,0.04921X0.01575*%
%ADD78R,0.06000X0.05500*%
%ADD79R,0.12402X0.07008*%
G04 #@! TD.AperFunction*
X0Y0D02*
D02*
D10*
X32096Y157982D02*
X37509D01*
X32096D02*
X30620Y159458D01*
Y234754D01*
X33080Y237214D01*
X37509D01*
X35009Y78750D02*
X32909D01*
X35009Y157982D02*
X32909D01*
X35009Y237214D02*
X32909D01*
X35009Y316446D02*
X32909D01*
X37509Y63002D02*
X57124D01*
X57616Y63494D01*
X37509Y78750D02*
X84261D01*
X100994Y95482D01*
Y106761D01*
X101131Y106899D01*
X37509Y78750D02*
X32588D01*
X30620Y80718D01*
Y156506D01*
X32096Y157982D01*
X37509Y165856D02*
X46368D01*
X48336Y163887D01*
Y156506D01*
X51289Y153553D01*
X54644D01*
X54734Y153463D01*
X37509Y221466D02*
X68935D01*
X69427Y221958D01*
X37509Y229340D02*
X72521D01*
X78427Y235246D01*
X37509Y237214D02*
X67458D01*
X69427Y235246D01*
X37509Y316446D02*
X33572D01*
X30620Y313494D01*
Y240167D01*
X33572Y237214D01*
X37509D01*
Y324320D02*
X42923D01*
X45383Y321860D01*
Y271663D01*
X49320Y267726D01*
X54528D01*
X54635Y267833D01*
X37509Y332194D02*
X47352D01*
X51289Y328257D01*
Y284950D01*
X40009Y78750D02*
X42109D01*
X40009Y157982D02*
X42109D01*
X40009Y237214D02*
X42109D01*
X40009Y316446D02*
X42109D01*
X54586Y249871D02*
X49459D01*
X46368Y252962D01*
X37509D01*
X54586Y249871D02*
X60619D01*
X60639Y249891D01*
X54586Y254971D02*
Y261181D01*
X54734Y261328D01*
X54635Y272933D02*
X60629D01*
X60639Y272923D01*
X54734Y133286D02*
Y127962D01*
Y133286D02*
X60433D01*
X60639Y133080D01*
X54734Y138386D02*
X52855D01*
X50305Y135836D01*
Y89084D01*
X47844Y86624D01*
X37509D01*
X54734Y158563D02*
Y170777D01*
X51781Y173730D01*
X37509D01*
X54734Y158563D02*
X60532D01*
X60639Y158671D01*
X57616Y54635D02*
X38002D01*
X37509Y55128D01*
X60639Y135639D02*
Y133080D01*
Y138198D02*
X68120D01*
X69990Y136328D01*
Y123954D01*
X70411Y123533D01*
X60639Y138198D02*
Y140757D01*
X79832D01*
X84754Y145679D01*
X88986D01*
X89183Y145876D01*
X60639Y143317D02*
X56309D01*
X55226Y142234D01*
Y138878D01*
X54734Y138386D01*
X60639Y145876D02*
Y143317D01*
Y148435D02*
Y150994D01*
X57204D01*
X54734Y153463D01*
X60639Y153553D02*
X63592D01*
X65069Y152076D01*
Y141742D01*
X64084Y140757D01*
X60639D01*
Y156112D02*
X67628D01*
X69990Y158474D01*
Y169864D01*
X69919Y169935D01*
Y170285D01*
X60639Y156112D02*
Y153553D01*
Y158671D02*
Y161230D01*
Y249891D02*
Y247332D01*
Y252450D02*
X69478D01*
X69498Y252470D01*
X60639Y255009D02*
Y252450D01*
Y257569D02*
X57184D01*
X54586Y254971D01*
X60639Y260128D02*
Y257569D01*
Y265246D02*
X57223D01*
X54635Y267833D01*
X60639Y265246D02*
Y262687D01*
Y267805D02*
Y270364D01*
Y267805D02*
X64133D01*
X64934Y267004D01*
Y256382D01*
X63685Y255133D01*
X60763D01*
X60639Y255009D01*
Y275482D02*
Y276584D01*
X57194Y280029D01*
X52765D01*
X51289Y281506D01*
Y284950D01*
X60639Y275482D02*
Y272923D01*
X61131Y275108D02*
Y275482D01*
X60639D01*
X62600Y138198D02*
X64698D01*
X62600Y140757D02*
X64698D01*
X62600Y153553D02*
X64698D01*
X62600Y156112D02*
X64698D01*
X62600Y252450D02*
X64698D01*
X62600Y255009D02*
X64698D01*
X62600Y267805D02*
X64698D01*
X62600Y270364D02*
X64698D01*
X63100Y292824D02*
X70903D01*
X63100Y301683D02*
X70903D01*
X66616Y63494D02*
X91643D01*
X66927Y235246D02*
X64828D01*
X67419Y170285D02*
X65320D01*
X67911Y123533D02*
X65813D01*
X67998Y252470D02*
X65898D01*
X68584Y284458D02*
X66486D01*
X69427Y213592D02*
X37509D01*
X69427Y237496D02*
Y239596D01*
Y251907D02*
Y252399D01*
X69498Y252470D01*
Y250970D02*
Y248870D01*
Y252470D02*
Y235317D01*
X69427Y235246D01*
X69498Y253970D02*
Y256070D01*
X69919Y168035D02*
Y165935D01*
Y170285D02*
Y168950D01*
X69990Y168880D01*
X69919Y172535D02*
Y174635D01*
Y179635D02*
X62116D01*
X69919Y188494D02*
X62116D01*
X69970Y252450D02*
X69517D01*
X69498Y252470D01*
X70411Y121283D02*
Y119183D01*
Y123533D02*
Y113269D01*
X73435Y110246D01*
X91151D01*
X94596Y106801D01*
X101033D01*
X101131Y106899D01*
X70411Y125783D02*
Y127883D01*
X70998Y252470D02*
X73098D01*
X71084Y282208D02*
Y280108D01*
Y284458D02*
Y271337D01*
X70172Y270425D01*
X60907D01*
X60846Y270364D01*
X60639D01*
X74911Y116643D02*
X76880D01*
X79340Y119104D01*
Y123462D01*
X79411Y123533D01*
X78427Y221958D02*
X179242D01*
X181702Y219498D01*
Y169301D01*
X184163Y166840D01*
X191072D01*
X191131Y166899D01*
X78427Y235246D02*
Y262817D01*
X80855Y265246D01*
X89183D01*
X78919Y170285D02*
X83277D01*
X89183Y164380D01*
X78919Y188494D02*
X90167D01*
X97057Y181604D01*
X161033D01*
X185639Y156998D01*
X191033D01*
X191131Y156899D01*
X79340Y123462D02*
X79411Y123533D01*
X79903Y301683D02*
X182194D01*
X184655Y299222D01*
Y180128D01*
X187608Y177175D01*
X190856D01*
X191131Y176899D01*
X82982Y258549D02*
Y256449D01*
X87222Y145876D02*
X85124D01*
X88933Y275751D02*
Y275731D01*
X89183Y275482D01*
X89027Y267629D02*
Y267649D01*
X89183Y267805D01*
Y129439D02*
Y133080D01*
Y135639D02*
Y133080D01*
Y138198D02*
X94694D01*
X96072Y136820D01*
Y127470D01*
X96565Y126978D01*
X100718D01*
X100797Y126899D01*
X101131D01*
X89183Y140757D02*
X95088D01*
X96072Y141742D01*
Y141840D01*
X101131Y146899D01*
X89183Y143317D02*
X94694D01*
X96072Y144694D01*
Y151840D01*
X101131Y156899D01*
X89183Y150994D02*
X75009D01*
X74911Y151092D01*
X89183Y153553D02*
X94104D01*
X96072Y155521D01*
Y159458D01*
X98041Y161427D01*
X107883D01*
X109852Y163395D01*
Y168179D01*
X101131Y176899D01*
X89183Y158671D02*
X82982D01*
X82785Y158474D01*
X89183Y164380D02*
Y161230D01*
Y247332D02*
Y243886D01*
Y249891D02*
Y247332D01*
Y252450D02*
X95115D01*
X96174Y251391D01*
Y238579D01*
X97854Y236899D01*
X101131D01*
X89183Y257569D02*
Y255009D01*
Y257569D02*
X94861D01*
X96174Y258881D01*
Y265754D01*
X97424Y267004D01*
X101027D01*
X101131Y266899D01*
X89183Y260128D02*
X83061D01*
X82982Y260049D01*
X89183Y267805D02*
X83502D01*
X82429Y268878D01*
X89183Y270364D02*
X95161D01*
X96174Y271378D01*
Y275751D01*
X97424Y277001D01*
X100608D01*
X100710Y276899D01*
X101131D01*
X89183Y272923D02*
X92721D01*
X93675Y273877D01*
Y280125D01*
X95550Y281999D01*
X104922D01*
X106171Y280750D01*
Y248260D01*
X104811Y246899D01*
X101131D01*
X89183Y275482D02*
X89139Y275526D01*
X81058D01*
X80056Y276528D01*
X80084Y276557D01*
Y284458D01*
X89302Y279143D02*
Y275601D01*
X89183Y275482D01*
X98620Y106899D02*
X96520D01*
X99840Y117206D02*
X100147Y116899D01*
X101131D01*
X100246Y106801D02*
X100344Y106899D01*
X101131D01*
Y104387D02*
Y102287D01*
Y116899D02*
X181958D01*
X186624Y121565D01*
X204832D01*
X210738Y115659D01*
X223533D01*
X224261Y116387D01*
Y127962D01*
X101131Y116899D02*
Y117135D01*
Y166899D02*
Y166840D01*
X95088D01*
X93612Y165364D01*
Y156998D01*
X92628Y156013D01*
X89281D01*
X89183Y156112D01*
X103643Y106899D02*
X105743D01*
X188620D02*
X186520D01*
X188620Y116899D02*
X186520D01*
X188620Y316899D02*
X186520D01*
X191131Y104387D02*
Y102287D01*
Y106899D02*
Y105246D01*
X205817Y90561D01*
X209261D01*
X191131Y109411D02*
Y111511D01*
Y114387D02*
Y112287D01*
Y314387D02*
Y312287D01*
Y316899D02*
X203887D01*
X209261Y311525D01*
Y250009D01*
X191131Y319411D02*
Y321511D01*
X191624Y316407D02*
X191131Y316899D01*
X193643Y106899D02*
X195743D01*
X193643Y116899D02*
X195743D01*
X193643Y316899D02*
X195743D01*
X206761Y90561D02*
X204661D01*
X206761Y127962D02*
X204661D01*
X206761Y250009D02*
X204661D01*
X209261Y88061D02*
Y85961D01*
Y90561D02*
X224517Y105817D01*
X255521D01*
X209261Y93061D02*
Y95161D01*
Y125462D02*
Y123362D01*
Y127962D02*
Y139281D01*
X229931Y159950D01*
X239202D01*
X239261Y160009D01*
X209261Y130462D02*
Y132562D01*
Y247509D02*
Y245409D01*
Y250009D02*
X232883D01*
X239281Y243612D01*
Y162943D01*
X239261Y162923D01*
Y160009D01*
X209261Y252509D02*
Y254609D01*
X211761Y90561D02*
X213861D01*
X211761Y127962D02*
X213861D01*
X211761Y250009D02*
X213861D01*
X224261Y90561D02*
X217372Y83671D01*
X202372D01*
X174320Y111722D01*
X98533D01*
X89183Y121072D01*
Y129439D01*
X224261Y90561D02*
X274222D01*
X280128Y84655D01*
X291446D01*
X236761Y160009D02*
X234661D01*
X239261Y157509D02*
Y155409D01*
Y162509D02*
Y164609D01*
X241761Y160009D02*
X243861D01*
X247163Y105817D02*
X245065D01*
X255521Y101887D02*
Y99789D01*
Y105817D02*
X271761D01*
X283080Y94498D01*
X291112D01*
X291269Y94655D01*
X291446D01*
X255521Y109746D02*
Y111844D01*
Y129439D02*
Y136820D01*
X260443Y141742D01*
X290423D01*
X290462Y141702D01*
X291446D01*
X263880Y105817D02*
X265978D01*
X285746Y121112D02*
X283647D01*
X288946Y94655D02*
X286846D01*
X291446Y92155D02*
Y90055D01*
Y94655D02*
X295541D01*
X296860Y95974D01*
Y115698D01*
X291446Y121112D01*
Y97155D02*
Y99255D01*
Y118108D02*
Y116009D01*
Y124116D02*
Y126214D01*
X293946Y94655D02*
X296046D01*
X297147Y121112D02*
X299246D01*
D02*
D14*
X37509Y55128D03*
Y63002D03*
Y70876D03*
Y78750D03*
Y86624D03*
Y94498D03*
Y134360D03*
Y142234D03*
Y150108D03*
Y157982D03*
Y165856D03*
Y173730D03*
Y213592D03*
Y221466D03*
Y229340D03*
Y237214D03*
Y245088D03*
Y252962D03*
Y292824D03*
Y300698D03*
Y308572D03*
Y316446D03*
Y324320D03*
Y332194D03*
X209261Y90561D03*
Y127962D03*
Y160009D03*
Y250009D03*
X224261Y90561D03*
Y127962D03*
X239261Y160009D03*
X249261Y250009D03*
X259261Y160009D03*
X289261Y250009D03*
X291446Y84655D03*
Y94655D03*
Y104655D03*
D02*
D27*
X303257Y42332D02*
Y344990D01*
G75*
G03*
X292923Y355324I-10335J0D01*
G01*
X34065D01*
G75*
G03*
X24222Y345482I0J-9843D01*
G01*
Y42824D01*
G75*
G03*
X34557Y32490I10335J0D01*
G01*
X293415D01*
G75*
G03*
X303257Y42332I0J9843D01*
G01*
X186755Y298354D02*
G75*
G02*
X195743Y296899I4376J-1455D01*
G01*
G75*
G02*
X186755Y295444I-4612J0D01*
G01*
Y288354D01*
G75*
G02*
X195743Y286899I4376J-1455D01*
G01*
G75*
G02*
X186755Y285444I-4612J0D01*
G01*
Y278354D01*
G75*
G02*
X195743Y276899I4376J-1455D01*
G01*
G75*
G02*
X186755Y275444I-4612J0D01*
G01*
Y268354D01*
G75*
G02*
X195743Y266899I4376J-1455D01*
G01*
G75*
G02*
X186755Y265444I-4612J0D01*
G01*
Y258354D01*
G75*
G02*
X195743Y256899I4376J-1455D01*
G01*
G75*
G02*
X186755Y255444I-4612J0D01*
G01*
Y248354D01*
G75*
G02*
X195743Y246899I4376J-1455D01*
G01*
G75*
G02*
X186755Y245444I-4612J0D01*
G01*
Y238354D01*
G75*
G02*
X195743Y236899I4376J-1455D01*
G01*
G75*
G02*
X186755Y235444I-4612J0D01*
G01*
Y228354D01*
G75*
G02*
X195743Y226899I4376J-1455D01*
G01*
G75*
G02*
X186755Y225444I-4612J0D01*
G01*
Y218354D01*
G75*
G02*
X195743Y216899I4376J-1455D01*
G01*
G75*
G02*
X186755Y215444I-4612J0D01*
G01*
Y208354D01*
G75*
G02*
X195743Y206899I4376J-1455D01*
G01*
G75*
G02*
X186755Y205444I-4612J0D01*
G01*
Y198354D01*
G75*
G02*
X195743Y196899I4376J-1455D01*
G01*
G75*
G02*
X186755Y195444I-4612J0D01*
G01*
Y188354D01*
G75*
G02*
X195743Y186899I4376J-1455D01*
G01*
G75*
G02*
X186755Y185444I-4612J0D01*
G01*
Y180997D01*
X187734Y180018D01*
G75*
G02*
X195743Y176899I3397J-3119D01*
G01*
G75*
G02*
X186835Y175222I-4612J0D01*
G01*
G75*
G02*
X186123Y175690I772J1953D01*
G01*
X183802Y178011D01*
Y170170D01*
X185033Y168940D01*
X186996D01*
G75*
G02*
X195743Y166899I4135J-2041D01*
G01*
G75*
G02*
X187056Y164740I-4612J0D01*
G01*
X184165D01*
G75*
G02*
X182678Y165355I-3J2100D01*
G01*
X180217Y167816D01*
G75*
G02*
X179602Y169301I1485J1485D01*
G01*
Y218628D01*
X178372Y219858D01*
X104669D01*
G75*
G02*
X105743Y216899I-3537J-2959D01*
G01*
G75*
G02*
X96520I-4612J0D01*
G01*
G75*
G02*
X97594Y219858I4612J0D01*
G01*
X83025D01*
Y209242D01*
X64828D01*
Y211492D01*
X41602D01*
G75*
G02*
X32909Y213592I-4093J2100D01*
G01*
G75*
G02*
X35130Y217529I4600J0D01*
G01*
G75*
G02*
Y225403I2379J3937D01*
G01*
G75*
G02*
Y233277I2379J3937D01*
G01*
G75*
G02*
Y241151I2379J3937D01*
G01*
G75*
G02*
Y249025I2379J3937D01*
G01*
G75*
G02*
X32909Y252962I2379J3937D01*
G01*
G75*
G02*
X41602Y255062I4600J0D01*
G01*
X46365D01*
G75*
G02*
X47853Y254447I3J-2100D01*
G01*
X50329Y251971D01*
X51586D01*
Y258320D01*
X52486D01*
Y258516D01*
G75*
G02*
X52997Y264482I2248J2812D01*
G01*
X51635D01*
Y265626D01*
X49323D01*
G75*
G02*
X47835Y266241I-3J2100D01*
G01*
X43898Y270178D01*
G75*
G02*
X43283Y271663I1485J1485D01*
G01*
Y320990D01*
X42053Y322220D01*
X41602D01*
G75*
G02*
X39889Y320383I-4093J2100D01*
G01*
G75*
G02*
Y312509I-2379J-3937D01*
G01*
G75*
G02*
Y304635I-2379J-3937D01*
G01*
G75*
G02*
Y296761I-2379J-3937D01*
G01*
G75*
G02*
X42109Y292824I-2379J-3937D01*
G01*
G75*
G02*
X32909I-4600J0D01*
G01*
G75*
G02*
X35130Y296761I4600J0D01*
G01*
G75*
G02*
Y304635I2379J3937D01*
G01*
G75*
G02*
Y312509I2379J3937D01*
G01*
G75*
G02*
Y320383I2379J3937D01*
G01*
G75*
G02*
Y328257I2379J3937D01*
G01*
G75*
G02*
X32909Y332194I2379J3937D01*
G01*
G75*
G02*
X41602Y334294I4600J0D01*
G01*
X47350D01*
G75*
G02*
X48837Y333680I3J-2100D01*
G01*
X52774Y329743D01*
G75*
G02*
X53389Y328257I-1485J-1485D01*
G01*
Y282375D01*
X53635Y282129D01*
X57192D01*
G75*
G02*
X58680Y281514I3J-2100D01*
G01*
X62124Y278069D01*
G75*
G02*
X62302Y277868I-1486J-1485D01*
G01*
X64698D01*
Y244946D01*
X56580D01*
Y246521D01*
X51586D01*
Y247771D01*
X49461D01*
G75*
G02*
X47974Y248386I-3J2100D01*
G01*
X45498Y250862D01*
X41602D01*
G75*
G02*
X39889Y249025I-4093J2100D01*
G01*
G75*
G02*
Y241151I-2379J-3937D01*
G01*
G75*
G02*
Y233277I-2379J-3937D01*
G01*
G75*
G02*
X41602Y231440I-2379J-3937D01*
G01*
X64828D01*
Y239596D01*
X76327D01*
Y262817D01*
G75*
G02*
X76942Y264302I2100J0D01*
G01*
X79370Y266731D01*
G75*
G02*
X79472Y266826I1487J-1490D01*
G01*
G75*
G02*
X85124Y271265I2957J2053D01*
G01*
Y273426D01*
X81061D01*
G75*
G02*
X79573Y274041I-3J2100D01*
G01*
X78583Y275031D01*
G75*
G02*
X77956Y276528I1473J1496D01*
G01*
G75*
G02*
X77984Y276873I2102J0D01*
G01*
Y280108D01*
X66486D01*
Y288474D01*
X66305D01*
Y290724D01*
X66024D01*
G75*
G02*
X59500Y292824I-2924J2100D01*
G01*
G75*
G02*
X66024Y294924I3600J0D01*
G01*
X66305D01*
Y297175D01*
X84502D01*
Y288809D01*
X84683D01*
Y280108D01*
X82184D01*
Y277626D01*
X85124D01*
Y277868D01*
X85935D01*
G75*
G02*
X92056Y281462I3367J1276D01*
G01*
G75*
G02*
X92190Y281610I1620J-1338D01*
G01*
X94065Y283484D01*
G75*
G02*
X95552Y284099I1485J-1485D01*
G01*
X97467D01*
G75*
G02*
X96520Y286899I3665J2800D01*
G01*
G75*
G02*
X105743I4612J0D01*
G01*
G75*
G02*
X104796Y284099I-4612J0D01*
G01*
X104919D01*
G75*
G02*
X106407Y283484I3J-2100D01*
G01*
X107656Y282235D01*
G75*
G02*
X108271Y280750I-1485J-1485D01*
G01*
Y248260D01*
G75*
G02*
X107656Y246775I-2100J0D01*
G01*
X106296Y245414D01*
G75*
G02*
X105262Y244848I-1485J1485D01*
G01*
G75*
G02*
X98274Y243279I-4131J2051D01*
G01*
Y240519D01*
G75*
G02*
X105743Y236899I2857J-3620D01*
G01*
G75*
G02*
X96921Y235018I-4612J0D01*
G01*
G75*
G02*
X96366Y235417I934J1881D01*
G01*
X94693Y237091D01*
G75*
G02*
X94074Y238579I1482J1488D01*
G01*
Y250350D01*
X93242D01*
Y244946D01*
X92623D01*
G75*
G02*
X92783Y243886I-3440J-1061D01*
G01*
G75*
G02*
X85583I-3600J0D01*
G01*
G75*
G02*
X85743Y244946I3600J-1D01*
G01*
X85124D01*
Y257155D01*
G75*
G02*
X80527Y257416I-2142J2894D01*
G01*
Y239596D01*
X83025D01*
Y230895D01*
X77046D01*
X74006Y227855D01*
G75*
G02*
X72519Y227240I-1485J1485D01*
G01*
X41602D01*
G75*
G02*
X39889Y225403I-4093J2100D01*
G01*
G75*
G02*
X41602Y223566I-2379J-3937D01*
G01*
X64828D01*
Y226309D01*
X83025D01*
Y224058D01*
X97498D01*
G75*
G02*
X96520Y226899I3633J2841D01*
G01*
G75*
G02*
X105743I4612J0D01*
G01*
G75*
G02*
X104765Y224058I-4612J0D01*
G01*
X179239D01*
G75*
G02*
X180727Y223443I3J-2100D01*
G01*
X182555Y221615D01*
Y298352D01*
X181325Y299583D01*
X104882D01*
G75*
G02*
X105743Y296899I-3751J-2683D01*
G01*
G75*
G02*
X96520I-4612J0D01*
G01*
G75*
G02*
X97381Y299583I4612J0D01*
G01*
X84502D01*
Y297332D01*
X66305D01*
Y299583D01*
X66024D01*
G75*
G02*
X59500Y301683I-2924J2100D01*
G01*
G75*
G02*
X66024Y303783I3600J0D01*
G01*
X66305D01*
Y306033D01*
X84502D01*
Y303783D01*
X97732D01*
G75*
G02*
X96520Y306899I3400J3116D01*
G01*
G75*
G02*
X105743I4612J0D01*
G01*
G75*
G02*
X104531Y303783I-4612J0D01*
G01*
X182192D01*
G75*
G02*
X183680Y303168I3J-2100D01*
G01*
X186140Y300707D01*
G75*
G02*
X186755Y299222I-1485J-1485D01*
G01*
Y298354D01*
X287354Y86755D02*
G75*
G02*
X296046Y84655I4093J-2100D01*
G01*
G75*
G02*
X287354Y82555I-4600J0D01*
G01*
X280130D01*
G75*
G02*
X278643Y83170I-3J2100D01*
G01*
X273352Y88461D01*
X228354D01*
G75*
G02*
X222852Y86182I-4093J2100D01*
G01*
X218857Y82186D01*
G75*
G02*
X217369Y81571I-1485J1485D01*
G01*
X202374D01*
G75*
G02*
X200887Y82186I-3J2100D01*
G01*
X173451Y109622D01*
X104854D01*
G75*
G02*
X105743Y106899I-3722J-2723D01*
G01*
G75*
G02*
X96520I-4612J0D01*
G01*
G75*
G02*
X97585Y109848I4612J0D01*
G01*
G75*
G02*
X97048Y110237I947J1874D01*
G01*
X87698Y119587D01*
G75*
G02*
X87083Y121072I1485J1485D01*
G01*
Y126515D01*
G75*
G02*
X85809Y130694I2100J2924D01*
G01*
X85124D01*
Y148894D01*
X77762D01*
G75*
G02*
X71311Y151092I-2851J2198D01*
G01*
G75*
G02*
X77903Y153094I3600J0D01*
G01*
X85124D01*
Y155737D01*
G75*
G02*
X79185Y158474I-2339J2737D01*
G01*
G75*
G02*
X85124Y161211I3600J0D01*
G01*
Y163616D01*
X85665D01*
G75*
G02*
X85630Y164962I3518J763D01*
G01*
X83517Y167075D01*
Y165935D01*
X65320D01*
Y174635D01*
X83517D01*
Y172371D01*
G75*
G02*
X84762Y171770I-240J-2086D01*
G01*
X88600Y167932D01*
G75*
G02*
X91964Y166665I583J-3552D01*
G01*
G75*
G02*
X92127Y166849I1649J-1301D01*
G01*
X93603Y168325D01*
G75*
G02*
X95091Y168940I1485J-1485D01*
G01*
X96996D01*
G75*
G02*
X105743Y166899I4135J-2041D01*
G01*
G75*
G02*
X104277Y163527I-4612J0D01*
G01*
X107014D01*
X107752Y164265D01*
Y167309D01*
X102550Y172511D01*
G75*
G02*
X97326Y179504I-1419J4388D01*
G01*
X97059D01*
G75*
G02*
X95572Y180119I-3J2100D01*
G01*
X89297Y186394D01*
X83517D01*
Y184143D01*
X65320D01*
Y186394D01*
X65040D01*
G75*
G02*
X58516Y188494I-2924J2100D01*
G01*
G75*
G02*
X65040Y190594I3600J0D01*
G01*
X65320D01*
Y192844D01*
X83517D01*
Y190594D01*
X90165D01*
G75*
G02*
X91652Y189979I3J-2100D01*
G01*
X97304Y184326D01*
G75*
G02*
X96520Y186899I3828J2573D01*
G01*
G75*
G02*
X105743I4612J0D01*
G01*
G75*
G02*
X104457Y183704I-4612J0D01*
G01*
X161031D01*
G75*
G02*
X162518Y183089I3J-2100D01*
G01*
X186509Y159098D01*
X187078D01*
G75*
G02*
X195743Y156899I4054J-2198D01*
G01*
G75*
G02*
X186977Y154898I-4612J0D01*
G01*
X185642D01*
G75*
G02*
X184154Y155513I-3J2100D01*
G01*
X160163Y179504D01*
X104937D01*
G75*
G02*
X105520Y175481I-3806J-2605D01*
G01*
X111337Y169664D01*
G75*
G02*
X111952Y168179I-1485J-1485D01*
G01*
Y163395D01*
G75*
G02*
X111337Y161910I-2100J0D01*
G01*
X109369Y159942D01*
G75*
G02*
X107881Y159327I-1485J1485D01*
G01*
X105053D01*
G75*
G02*
X99713Y152511I-3921J-2428D01*
G01*
X98172Y150970D01*
Y150437D01*
G75*
G02*
X105743Y146899I2959J-3537D01*
G01*
G75*
G02*
X99713Y142511I-4612J0D01*
G01*
X97887Y140685D01*
G75*
G02*
X97557Y140257I-1815J1057D01*
G01*
X96581Y139281D01*
X96972Y138891D01*
G75*
G02*
X105743Y136899I4159J-1992D01*
G01*
G75*
G02*
X98172Y133362I-4612J0D01*
G01*
Y130437D01*
G75*
G02*
X105743Y126899I2959J-3537D01*
G01*
G75*
G02*
X96986Y124878I-4612J0D01*
G01*
X96565D01*
G75*
G02*
X95077Y125496I0J2100D01*
G01*
X94591Y125982D01*
G75*
G02*
X93972Y127470I1482J1488D01*
G01*
Y135951D01*
X93825Y136098D01*
X93242D01*
Y130694D01*
X92557D01*
G75*
G02*
X91283Y126515I-3374J-1256D01*
G01*
Y121942D01*
X96524Y116701D01*
G75*
G02*
X96520Y116899I4604J200D01*
G01*
G75*
G02*
X105237Y118999I4612J0D01*
G01*
X181089D01*
X185139Y123050D01*
G75*
G02*
X186626Y123665I1485J-1485D01*
G01*
X187844D01*
G75*
G02*
X186520Y126899I3287J3234D01*
G01*
G75*
G02*
X195743I4612J0D01*
G01*
G75*
G02*
X194419Y123665I-4612J0D01*
G01*
X204830D01*
G75*
G02*
X206317Y123050I3J-2100D01*
G01*
X211607Y117759D01*
X222161D01*
Y123870D01*
G75*
G02*
X224261Y132562I2100J4093D01*
G01*
G75*
G02*
X226361Y123870I0J-4600D01*
G01*
Y116387D01*
G75*
G02*
X225743Y114900I-2100J0D01*
G01*
X225021Y114177D01*
G75*
G02*
X223533Y113559I-1488J1482D01*
G01*
X210740D01*
G75*
G02*
X209253Y114174I-3J2100D01*
G01*
X203963Y119465D01*
X194964D01*
G75*
G02*
X195743Y116899I-3832J-2566D01*
G01*
G75*
G02*
X186520I-4612J0D01*
G01*
G75*
G02*
X187023Y118994I4612J0D01*
G01*
X183443Y115414D01*
G75*
G02*
X181956Y114799I-1485J1485D01*
G01*
X105237D01*
G75*
G02*
X104567Y113822I-4106J2100D01*
G01*
X174318D01*
G75*
G02*
X175806Y113207I3J-2100D01*
G01*
X203241Y85771D01*
X216502D01*
X219883Y89152D01*
G75*
G02*
X228354Y92661I4379J1409D01*
G01*
X274220D01*
G75*
G02*
X275707Y92046I3J-2100D01*
G01*
X280997Y86755D01*
X287354D01*
X186520Y136899D02*
G75*
G02*
X195743I4612J0D01*
G01*
G75*
G02*
X186520I-4612J0D01*
G01*
Y146899D02*
G75*
G02*
X195743I4612J0D01*
G01*
G75*
G02*
X186520I-4612J0D01*
G01*
X209261Y95161D02*
G75*
G02*
X213861Y90561I0J-4600D01*
G01*
G75*
G02*
X209261Y85961I-4600J0D01*
G01*
G75*
G02*
X204661Y90561I0J4600D01*
G01*
G75*
G02*
X209261Y95161I4600J0D01*
G01*
X186520Y106899D02*
G75*
G02*
X195743I4612J0D01*
G01*
G75*
G02*
X186520I-4612J0D01*
G01*
X65813Y127883D02*
X84009D01*
Y119183D01*
X81440D01*
Y119104D01*
G75*
G02*
X80825Y117619I-2100J0D01*
G01*
X78365Y115158D01*
G75*
G02*
X78067Y114911I-1483J1486D01*
G01*
G75*
G02*
X71311Y116643I-3156J1732D01*
G01*
G75*
G02*
X72359Y119183I3600J0D01*
G01*
X65813D01*
Y127883D01*
X96520Y196899D02*
G75*
G02*
X105743I4612J0D01*
G01*
G75*
G02*
X96520I-4612J0D01*
G01*
Y206899D02*
G75*
G02*
X105743I4612J0D01*
G01*
G75*
G02*
X96520I-4612J0D01*
G01*
X65320Y183986D02*
X83517D01*
Y175285D01*
X65320D01*
Y177535D01*
X65040D01*
G75*
G02*
X58516Y179635I-2924J2100D01*
G01*
G75*
G02*
X65040Y181735I3600J0D01*
G01*
X65320D01*
Y183986D01*
X65898Y252470D02*
G75*
G02*
X73098I3600J0D01*
G01*
G75*
G02*
X65898I-3600J0D01*
G01*
X96521Y321509D02*
X105742D01*
Y312289D01*
X96521D01*
Y321509D01*
X186520Y306899D02*
G75*
G02*
X195743I4612J0D01*
G01*
G75*
G02*
X186520I-4612J0D01*
G01*
Y316899D02*
G75*
G02*
X195743I4612J0D01*
G01*
G75*
G02*
X186520I-4612J0D01*
G01*
X209261Y132562D02*
G75*
G02*
X213861Y127962I0J-4600D01*
G01*
G75*
G02*
X209261Y123362I-4600J0D01*
G01*
G75*
G02*
X204661Y127962I0J4600D01*
G01*
G75*
G02*
X209261Y132562I4600J0D01*
G01*
X204661Y160009D02*
G75*
G02*
X213861I4600J0D01*
G01*
G75*
G02*
X204661I-4600J0D01*
G01*
Y250009D02*
G75*
G02*
X213861I4600J0D01*
G01*
G75*
G02*
X204661I-4600J0D01*
G01*
X234661Y160009D02*
G75*
G02*
X243861I4600J0D01*
G01*
G75*
G02*
X234661I-4600J0D01*
G01*
X283647Y146805D02*
X299246D01*
Y136600D01*
X283647D01*
Y139642D01*
X261312D01*
X257629Y135958D01*
X260443D01*
G75*
G02*
Y122919I0J-6520D01*
G01*
X250600D01*
G75*
G02*
Y135958I0J6520D01*
G01*
X253421D01*
Y136820D01*
G75*
G02*
X254036Y138306I2100J0D01*
G01*
X258957Y143227D01*
G75*
G02*
X260445Y143842I1485J-1485D01*
G01*
X283647D01*
Y146805D01*
X267998Y122057D02*
G75*
G02*
X280053I6028J0D01*
G01*
Y113198D01*
G75*
G02*
X267998I-6028J0D01*
G01*
Y122057D01*
X283647Y126214D02*
X299246D01*
Y116009D01*
X283647D01*
Y126214D01*
X286846Y94655D02*
G75*
G02*
X296046I4600J0D01*
G01*
G75*
G02*
X286846I-4600J0D01*
G01*
Y104655D02*
G75*
G02*
X296046I4600J0D01*
G01*
G75*
G02*
X286846I-4600J0D01*
G01*
X259950Y111844D02*
G75*
G02*
Y99789I0J-6028D01*
G01*
X251092D01*
G75*
G02*
Y111844I0J6028D01*
G01*
X259950D01*
X244661Y250009D02*
G75*
G02*
X253861I4600J0D01*
G01*
G75*
G02*
X244661I-4600J0D01*
G01*
X254661Y160009D02*
G75*
G02*
X263861I4600J0D01*
G01*
G75*
G02*
X254661I-4600J0D01*
G01*
X284661Y250009D02*
G75*
G02*
X293861I4600J0D01*
G01*
G75*
G02*
X284661I-4600J0D01*
G01*
X88719Y65594D02*
G75*
G02*
X95243Y63494I2924J-2100D01*
G01*
G75*
G02*
X88719Y61394I-3600J0D01*
G01*
X71214D01*
Y59143D01*
X53017D01*
Y60902D01*
X41602D01*
G75*
G02*
X39889Y59065I-4093J2100D01*
G01*
G75*
G02*
X41819Y56735I-2379J-3937D01*
G01*
X53017D01*
Y58986D01*
X71214D01*
Y50285D01*
X53017D01*
Y52535D01*
X41309D01*
G75*
G02*
X32909Y55128I-3800J2592D01*
G01*
G75*
G02*
X35130Y59065I4600J0D01*
G01*
G75*
G02*
Y66939I2379J3937D01*
G01*
G75*
G02*
Y74813I2379J3937D01*
G01*
G75*
G02*
Y82687I2379J3937D01*
G01*
G75*
G02*
Y90561I2379J3937D01*
G01*
G75*
G02*
X32909Y94498I2379J3937D01*
G01*
G75*
G02*
X42109I4600J0D01*
G01*
G75*
G02*
X39889Y90561I-4600J0D01*
G01*
G75*
G02*
X41602Y88724I-2379J-3937D01*
G01*
X46974D01*
X48205Y89954D01*
Y135836D01*
G75*
G02*
X48820Y137321I2100J0D01*
G01*
X51370Y139871D01*
G75*
G02*
X51734Y140162I1485J-1485D01*
G01*
Y141738D01*
X53126D01*
Y142234D01*
G75*
G02*
X53744Y143722I2100J0D01*
G01*
X54821Y144798D01*
G75*
G02*
X56309Y145417I1488J-1482D01*
G01*
X56580D01*
Y148988D01*
G75*
G02*
X55719Y149509I623J2006D01*
G01*
X55116Y150112D01*
X51734D01*
Y151453D01*
X51291D01*
G75*
G02*
X49804Y152068I-3J2100D01*
G01*
X46851Y155020D01*
G75*
G02*
X46236Y156506I1485J1485D01*
G01*
Y163018D01*
X45498Y163756D01*
X41602D01*
G75*
G02*
X39889Y161919I-4093J2100D01*
G01*
G75*
G02*
Y154045I-2379J-3937D01*
G01*
G75*
G02*
Y146171I-2379J-3937D01*
G01*
G75*
G02*
Y138297I-2379J-3937D01*
G01*
G75*
G02*
X42109Y134360I-2379J-3937D01*
G01*
G75*
G02*
X32909I-4600J0D01*
G01*
G75*
G02*
X35130Y138297I4600J0D01*
G01*
G75*
G02*
Y146171I2379J3937D01*
G01*
G75*
G02*
Y154045I2379J3937D01*
G01*
G75*
G02*
Y161919I2379J3937D01*
G01*
G75*
G02*
Y169793I2379J3937D01*
G01*
G75*
G02*
X32909Y173730I2379J3937D01*
G01*
G75*
G02*
X41602Y175830I4600J0D01*
G01*
X51779D01*
G75*
G02*
X53266Y175215I3J-2100D01*
G01*
X56219Y172262D01*
G75*
G02*
X56834Y170777I-1485J-1485D01*
G01*
Y163616D01*
X64698D01*
Y130694D01*
X57734D01*
Y129952D01*
G75*
G02*
X52405Y125217I-3000J-1990D01*
G01*
Y89084D01*
G75*
G02*
X51790Y87599I-2100J0D01*
G01*
X49329Y85139D01*
G75*
G02*
X47842Y84524I-1485J1485D01*
G01*
X41602D01*
G75*
G02*
X39889Y82687I-4093J2100D01*
G01*
G75*
G02*
Y74813I-2379J-3937D01*
G01*
G75*
G02*
Y66939I-2379J-3937D01*
G01*
G75*
G02*
X41602Y65102I-2379J-3937D01*
G01*
X53017D01*
Y67844D01*
X71214D01*
Y65594D01*
X88719D01*
X24822Y90561D02*
G36*
X24822Y90561D02*
Y39354D01*
G75*
G03*
X31087Y33090I9735J3470D01*
G01*
X296799D01*
G75*
G03*
X302657Y38948I-3384J9242D01*
G01*
Y90561D01*
X293543D01*
G75*
G02*
X289350I-2096J4094D01*
G01*
X277192D01*
X280997Y86755D01*
X287354D01*
G75*
G02*
X296046Y84655I4093J-2100D01*
G01*
G75*
G02*
X287354Y82555I-4600J0D01*
G01*
X280130D01*
G75*
G02*
X278643Y83170I-2J2101D01*
G01*
X273352Y88461D01*
X228354D01*
G75*
G02*
X222852Y86182I-4093J2100D01*
G01*
X218857Y82186D01*
G75*
G02*
X217369Y81571I-1485J1486D01*
G01*
X202374D01*
G75*
G02*
X200887Y82186I-2J2101D01*
G01*
X192512Y90561D01*
X52405D01*
Y89084D01*
G75*
G02*
X51790Y87599I-2102J0D01*
G01*
X49329Y85139D01*
G75*
G02*
X47842Y84524I-1485J1486D01*
G01*
X41602D01*
G75*
G02*
X39889Y82687I-4090J2097D01*
G01*
G75*
G02*
X42109Y78750I-2379J-3937D01*
G01*
G75*
G02*
X39889Y74813I-4600J0D01*
G01*
G75*
G02*
X42109Y70876I-2379J-3937D01*
G01*
G75*
G02*
X39889Y66939I-4600J0D01*
G01*
G75*
G02*
X41602Y65102I-2377J-3934D01*
G01*
X53017D01*
Y67844D01*
X71214D01*
Y65594D01*
X88719D01*
G75*
G02*
X95243Y63494I2924J-2100D01*
G01*
G75*
G02*
X88719Y61394I-3600J0D01*
G01*
X71214D01*
Y59143D01*
X53017D01*
Y60902D01*
X41602D01*
G75*
G02*
X39889Y59065I-4090J2097D01*
G01*
G75*
G02*
X41819Y56735I-2379J-3937D01*
G01*
X53017D01*
Y58986D01*
X71214D01*
Y50285D01*
X53017D01*
Y52535D01*
X41309D01*
G75*
G02*
X32909Y55128I-3800J2593D01*
G01*
G75*
G02*
X35130Y59065I4599J1D01*
G01*
G75*
G02*
X32909Y63002I2379J3937D01*
G01*
G75*
G02*
X35130Y66939I4600J0D01*
G01*
G75*
G02*
X32909Y70876I2379J3937D01*
G01*
G75*
G02*
X35130Y74813I4600J0D01*
G01*
G75*
G02*
X32909Y78750I2379J3937D01*
G01*
G75*
G02*
X35130Y82687I4600J0D01*
G01*
G75*
G02*
X32909Y86624I2379J3937D01*
G01*
G75*
G02*
X35130Y90561I4600J0D01*
G01*
X24822D01*
G37*
X39889D02*
G36*
X39889Y90561D02*
G75*
G02*
X41602Y88724I-2377J-3934D01*
G01*
X46974D01*
X48205Y89954D01*
Y90561D01*
X39889D01*
G37*
X198452D02*
G36*
X198452Y90561D02*
X203241Y85771D01*
X216502D01*
X219883Y89152D01*
G75*
G02*
X219661Y90561I4379J1409D01*
G01*
X213861D01*
Y90560D01*
G75*
G02*
X209261Y85961I-4600J0D01*
G01*
G75*
G02*
X204661Y90560I0J4600D01*
G01*
Y90561D01*
X198452D01*
G37*
X24822Y94655D02*
G36*
X24822Y94655D02*
Y90561D01*
X35130D01*
G75*
G02*
X32909Y94497I2378J3936D01*
G01*
G75*
G02*
Y94498I4101J0D01*
G01*
G75*
G02*
X32912Y94655I4602J-2D01*
G01*
X24822D01*
G37*
X42107D02*
G36*
X42107Y94655D02*
G75*
G02*
X42109Y94498I-4599J-159D01*
G01*
G75*
G02*
Y94497I-4101J0D01*
G01*
G75*
G02*
X39889Y90561I-4599J0D01*
G01*
X48205D01*
Y94655D01*
X42107D01*
G37*
X52405D02*
G36*
X52405Y94655D02*
Y90561D01*
X192512D01*
X188417Y94655D01*
X52405D01*
G37*
X194357D02*
G36*
X194357Y94655D02*
X198452Y90561D01*
X204661D01*
Y90561D01*
G75*
G02*
X207165Y94655I4600J0D01*
G01*
X194357D01*
G37*
X213861Y90561D02*
G36*
X213861Y90561D02*
Y90561D01*
X219661D01*
G75*
G02*
X222165Y94655I4600J0D01*
G01*
X211358D01*
G75*
G02*
X213861Y90561I-2096J-4094D01*
G01*
G37*
X226357Y94655D02*
G36*
X226357Y94655D02*
G75*
G02*
X228354Y92661I-2096J-4094D01*
G01*
X274220D01*
G75*
G02*
X275707Y92046I2J-2101D01*
G01*
X277192Y90561D01*
X289350D01*
G75*
G02*
X286846Y94655I2096J4094D01*
G01*
X226357D01*
G37*
X296046D02*
G36*
X296046Y94655D02*
G75*
G02*
X293543Y90561I-4600J0D01*
G01*
X302657D01*
Y94655D01*
X296046D01*
G37*
X24822Y106899D02*
G36*
X24822Y106899D02*
Y94655D01*
X32912D01*
G75*
G02*
X42107I4597J-157D01*
G01*
X48205D01*
Y106899D01*
X24822D01*
G37*
X52405D02*
G36*
X52405Y106899D02*
Y94655D01*
X188417D01*
X176174Y106899D01*
X105743D01*
G75*
G02*
X96520I-4612J0D01*
G01*
X52405D01*
G37*
X186520D02*
G36*
X186520Y106899D02*
X182113D01*
X194357Y94655D01*
X207165D01*
G75*
G02*
X209261Y95161I2096J-4094D01*
G01*
G75*
G02*
X211358Y94655I0J-4600D01*
G01*
X222165D01*
G75*
G02*
X226357I2096J-4095D01*
G01*
X286846D01*
G75*
G02*
X296046I4600J0D01*
G01*
X302657D01*
Y106899D01*
X295462D01*
G75*
G02*
X296046Y104655I-4015J-2244D01*
G01*
G75*
G02*
X286846I-4600J0D01*
G01*
G75*
G02*
X287431Y106899I4600J0D01*
G01*
X265880D01*
G75*
G02*
X265978Y105817I-5930J-1083D01*
G01*
G75*
G02*
X259950Y99789I-6028J0D01*
G01*
X251092D01*
G75*
G02*
X245065Y105817I0J6028D01*
G01*
G75*
G02*
X245163Y106899I6028J0D01*
G01*
X195743D01*
G75*
G02*
X186520I-4612J0D01*
G01*
G37*
X24822Y120463D02*
G36*
X24822Y120463D02*
Y106899D01*
X48205D01*
Y120463D01*
X24822D01*
G37*
X52405D02*
G36*
X52405Y120463D02*
Y106899D01*
X96520D01*
G75*
G02*
Y106900I5639J1D01*
G01*
G75*
G02*
X97585Y109848I4609J0D01*
G01*
G75*
G02*
X97048Y110237I948J1876D01*
G01*
X87698Y119587D01*
G75*
G02*
X87173Y120463I1486J1486D01*
G01*
X84009D01*
Y119183D01*
X81440D01*
Y119104D01*
G75*
G02*
X80825Y117619I-2102J0D01*
G01*
X78365Y115158D01*
G75*
G02*
X78067Y114911I-1499J1504D01*
G01*
G75*
G02*
X71311Y116643I-3156J1732D01*
G01*
G75*
G02*
X72359Y119183I3602J0D01*
G01*
X65813D01*
Y120463D01*
X52405D01*
G37*
X92761D02*
G36*
X92761Y120463D02*
X96524Y116701D01*
G75*
G02*
X96520Y116899I4961J207D01*
G01*
G75*
G02*
X98205Y120463I4612J0D01*
G01*
X92761D01*
G37*
X105237Y114799D02*
G36*
X105237Y114799D02*
G75*
G02*
X104567Y113822I-4107J2101D01*
G01*
X174318D01*
G75*
G02*
X175806Y113207I2J-2101D01*
G01*
X182113Y106899D01*
X186520D01*
G75*
G02*
X195743I4612J0D01*
G01*
X245163D01*
G75*
G02*
X251092Y111844I5930J-1083D01*
G01*
X259950D01*
G75*
G02*
X265880Y106899I0J-6028D01*
G01*
X287431D01*
G75*
G02*
X295462I4015J-2244D01*
G01*
X302657D01*
Y120463D01*
X299246D01*
Y116009D01*
X283647D01*
Y120463D01*
X280053D01*
Y113198D01*
G75*
G02*
X267998I-6028J0D01*
G01*
Y120463D01*
X226361D01*
Y116387D01*
G75*
G02*
X225743Y114900I-2100J0D01*
G01*
X225021Y114177D01*
G75*
G02*
X223533Y113559I-1488J1481D01*
G01*
X210740D01*
G75*
G02*
X209253Y114174I-2J2101D01*
G01*
X203963Y119465D01*
X194964D01*
G75*
G02*
X195743Y116899I-3832J-2566D01*
G01*
G75*
G02*
X186520I-4612J0D01*
G01*
G75*
G02*
X187023Y118994I4613J0D01*
G01*
X183443Y115414D01*
G75*
G02*
X181956Y114799I-1485J1486D01*
G01*
X105237D01*
G37*
X104058Y120463D02*
G36*
X104058Y120463D02*
G75*
G02*
X105237Y118999I-2926J-3565D01*
G01*
X181089D01*
X182553Y120463D01*
X104058D01*
G37*
X105743Y106900D02*
G36*
X105743Y106900D02*
G75*
G02*
Y106899I-4511J0D01*
G01*
X176174D01*
X173451Y109622D01*
X104854D01*
G75*
G02*
X105743Y106900I-3719J-2722D01*
G01*
G37*
X208904Y120463D02*
G36*
X208904Y120463D02*
X211607Y117759D01*
X222161D01*
Y120463D01*
X208904D01*
G37*
X24822Y127962D02*
G36*
X24822Y127962D02*
Y120463D01*
X48205D01*
Y127962D01*
X24822D01*
G37*
X52405Y125217D02*
G36*
X52405Y125217D02*
Y120463D01*
X65813D01*
Y127883D01*
X84009D01*
Y120463D01*
X87173D01*
G75*
G02*
X87083Y121072I2011J609D01*
G01*
Y126515D01*
G75*
G02*
X85899Y127962I2100J2924D01*
G01*
X58334D01*
G75*
G02*
X52405Y125217I-3600J0D01*
G01*
G37*
X91283Y126515D02*
G36*
X91283Y126515D02*
Y121942D01*
X92761Y120463D01*
X98205D01*
G75*
G02*
X104058I2926J-3564D01*
G01*
X182553D01*
X185139Y123050D01*
G75*
G02*
X186626Y123665I1485J-1486D01*
G01*
X187844D01*
G75*
G02*
X186520Y126898I3285J3233D01*
G01*
G75*
G02*
Y126899I5206J1D01*
G01*
G75*
G02*
X186644Y127962I4612J1D01*
G01*
X105619D01*
G75*
G02*
X105743Y126900I-4487J-1062D01*
G01*
Y126899D01*
G75*
G02*
X96986Y124878I-4612J0D01*
G01*
X96565D01*
G75*
G02*
X95077Y125496I0J2099D01*
G01*
X94591Y125982D01*
G75*
G02*
X93972Y127470I1481J1488D01*
G01*
Y127962D01*
X92466D01*
G75*
G02*
X91283Y126515I-3283J1476D01*
G01*
G37*
X195619Y127962D02*
G36*
X195619Y127962D02*
G75*
G02*
X195743Y126899I-4488J-1062D01*
G01*
G75*
G02*
Y126898I-5206J0D01*
G01*
G75*
G02*
X194419Y123665I-4609J0D01*
G01*
X204830D01*
G75*
G02*
X206317Y123050I2J-2101D01*
G01*
X208904Y120463D01*
X222161D01*
Y123870D01*
G75*
G02*
X219661Y127962I2100J4093D01*
G01*
X213861D01*
Y127962D01*
G75*
G02*
X209261Y123362I-4600J0D01*
G01*
G75*
G02*
X204661Y127962I0J4600D01*
G01*
Y127962D01*
X195619D01*
G37*
X226361Y123870D02*
G36*
X226361Y123870D02*
Y120463D01*
X267998D01*
Y122057D01*
G75*
G02*
X272819Y127962I6028J0D01*
G01*
X266793D01*
G75*
G02*
X260443Y122919I-6350J1476D01*
G01*
X250600D01*
G75*
G02*
X244250Y127962I0J6520D01*
G01*
X228861D01*
G75*
G02*
X226361Y123870I-4600J0D01*
G01*
G37*
X280053Y122057D02*
G36*
X280053Y122057D02*
Y120463D01*
X283647D01*
Y126214D01*
X299246D01*
Y120463D01*
X302657D01*
Y127962D01*
X275232D01*
G75*
G02*
X280053Y122057I-1207J-5906D01*
G01*
G37*
X24822Y136450D02*
G36*
X24822Y136450D02*
Y127962D01*
X48205D01*
Y135836D01*
G75*
G02*
X48296Y136450I2102J-1D01*
G01*
X41607D01*
G75*
G02*
X42109Y134361I-4097J-2089D01*
G01*
G75*
G02*
Y134360I-4101J0D01*
G01*
G75*
G02*
X32909I-4600J0D01*
G01*
G75*
G02*
Y134361I4101J0D01*
G01*
G75*
G02*
X33411Y136450I4599J0D01*
G01*
X24822D01*
G37*
X57734Y130694D02*
G36*
X57734Y130694D02*
Y129952D01*
G75*
G02*
X58334Y127962I-3000J-1990D01*
G01*
X85899D01*
G75*
G02*
X85583Y129439I3283J1476D01*
G01*
G75*
G02*
X85809Y130694I3600J0D01*
G01*
X85124D01*
Y136450D01*
X64698D01*
Y130694D01*
X57734D01*
G37*
X92783Y129439D02*
G36*
X92783Y129439D02*
G75*
G02*
X92466Y127962I-3600J0D01*
G01*
X93972D01*
Y135951D01*
X93825Y136098D01*
X93242D01*
Y130694D01*
X92557D01*
G75*
G02*
X92783Y129439I-3374J-1256D01*
G01*
G37*
X98172Y133362D02*
G36*
X98172Y133362D02*
Y130437D01*
G75*
G02*
X105619Y127962I2959J-3537D01*
G01*
X186644D01*
G75*
G02*
X195619I4488J-1063D01*
G01*
X204661D01*
Y127963D01*
G75*
G02*
X209261Y132562I4600J0D01*
G01*
G75*
G02*
X213861Y127963I0J-4600D01*
G01*
Y127962D01*
X219661D01*
G75*
G02*
X224261Y132562I4600J0D01*
G01*
G75*
G02*
X228861Y127962I0J-4600D01*
G01*
X244250D01*
G75*
G02*
X244080Y129439I6350J1476D01*
G01*
G75*
G02*
X250600Y135958I6520J0D01*
G01*
X253421D01*
Y136450D01*
X195721D01*
G75*
G02*
X186542I-4590J450D01*
G01*
X105721D01*
G75*
G02*
X98172Y133362I-4590J449D01*
G01*
G37*
X258120Y136450D02*
G36*
X258120Y136450D02*
X257629Y135958D01*
X260443D01*
G75*
G02*
X266962Y129439I0J-6520D01*
G01*
G75*
G02*
X266793Y127962I-6520J0D01*
G01*
X272819D01*
G75*
G02*
X275232I1207J-5905D01*
G01*
X302657D01*
Y136450D01*
X258120D01*
G37*
X24822Y146899D02*
G36*
X24822Y146899D02*
Y136450D01*
X33411D01*
G75*
G02*
X35130Y138297I4096J-2089D01*
G01*
G75*
G02*
X32909Y142234I2379J3937D01*
G01*
G75*
G02*
X35130Y146171I4600J0D01*
G01*
G75*
G02*
X34213Y146899I2380J3937D01*
G01*
X24822D01*
G37*
X40806D02*
G36*
X40806Y146899D02*
G75*
G02*
X39889Y146171I-3296J3209D01*
G01*
G75*
G02*
X42109Y142234I-2379J-3937D01*
G01*
G75*
G02*
X39889Y138297I-4600J0D01*
G01*
G75*
G02*
X41607Y136450I-2378J-3936D01*
G01*
X48296D01*
G75*
G02*
X48820Y137321I2010J-613D01*
G01*
X51370Y139871D01*
G75*
G02*
X51734Y140162I1494J-1497D01*
G01*
Y141738D01*
X53126D01*
Y142234D01*
G75*
G02*
X53744Y143722I2100J0D01*
G01*
X54821Y144798D01*
G75*
G02*
X56309Y145417I1488J-1481D01*
G01*
X56580D01*
Y146899D01*
X40806D01*
G37*
X64698D02*
G36*
X64698Y146899D02*
Y136450D01*
X85124D01*
Y146899D01*
X64698D01*
G37*
X96581Y139281D02*
G36*
X96581Y139281D02*
X96972Y138891D01*
G75*
G02*
X105743Y136899I4159J-1992D01*
G01*
Y136899D01*
G75*
G02*
X105721Y136450I-4611J1D01*
G01*
X186542D01*
G75*
G02*
X186520Y136899I4590J450D01*
G01*
G75*
G02*
X195743I4612J0D01*
G01*
G75*
G02*
X195721Y136450I-4612J1D01*
G01*
X253421D01*
Y136820D01*
G75*
G02*
X254036Y138306I2102J0D01*
G01*
X258957Y143227D01*
G75*
G02*
X260445Y143842I1485J-1486D01*
G01*
X283647D01*
Y146805D01*
X299246D01*
Y136600D01*
X283647D01*
Y139642D01*
X261312D01*
X258120Y136450D01*
X302657D01*
Y146899D01*
X195743D01*
G75*
G02*
X186520I-4612J0D01*
G01*
X105743D01*
G75*
G02*
X99713Y142511I-4612J1D01*
G01*
X97887Y140685D01*
G75*
G02*
X97557Y140257I-1822J1062D01*
G01*
X96581Y139281D01*
G37*
X24822Y160009D02*
G36*
X24822Y160009D02*
Y146899D01*
X34213D01*
G75*
G02*
X32909Y150108I3296J3209D01*
G01*
G75*
G02*
X35130Y154045I4600J0D01*
G01*
G75*
G02*
X32909Y157982I2379J3937D01*
G01*
G75*
G02*
X33380Y160009I4600J0D01*
G01*
X24822D01*
G37*
X42109Y150108D02*
G36*
X42109Y150108D02*
G75*
G02*
X40806Y146899I-4600J0D01*
G01*
X56580D01*
Y148988D01*
G75*
G02*
X55719Y149509I624J2006D01*
G01*
X55116Y150112D01*
X51734D01*
Y151453D01*
X51291D01*
G75*
G02*
X49804Y152068I-2J2101D01*
G01*
X46851Y155020D01*
G75*
G02*
X46236Y156506I1487J1485D01*
G01*
Y160009D01*
X41639D01*
G75*
G02*
X42109Y157982I-4129J-2028D01*
G01*
G75*
G02*
X39889Y154045I-4600J0D01*
G01*
G75*
G02*
X42109Y150108I-2379J-3937D01*
G01*
G37*
X64698Y160009D02*
G36*
X64698Y160009D02*
Y146899D01*
X85124D01*
Y148894D01*
X77762D01*
G75*
G02*
X71311Y151092I-2851J2198D01*
G01*
G75*
G02*
X77903Y153094I3600J0D01*
G01*
X85124D01*
Y155737D01*
G75*
G02*
X79185Y158474I-2339J2737D01*
G01*
G75*
G02*
X79529Y160009I3600J0D01*
G01*
X64698D01*
G37*
X98172Y150970D02*
G36*
X98172Y150970D02*
Y150437D01*
G75*
G02*
X105743Y146900I2959J-3537D01*
G01*
Y146899D01*
X186520D01*
G75*
G02*
X195743I4612J0D01*
G01*
X302657D01*
Y160009D01*
X263861D01*
G75*
G02*
X254661I-4600J0D01*
G01*
X243861D01*
G75*
G02*
X234661I-4600J0D01*
G01*
X213861D01*
G75*
G02*
X204661I-4600J0D01*
G01*
X194537D01*
G75*
G02*
X195743Y156899I-3405J-3110D01*
G01*
G75*
G02*
X186977Y154898I-4612J0D01*
G01*
X185642D01*
G75*
G02*
X184154Y155513I-2J2101D01*
G01*
X179657Y160009D01*
X109436D01*
X109369Y159942D01*
G75*
G02*
X107881Y159327I-1485J1486D01*
G01*
X105053D01*
G75*
G02*
X105743Y156899I-3922J-2428D01*
G01*
G75*
G02*
X99713Y152511I-4612J0D01*
G01*
X98172Y150970D01*
G37*
X185597Y160009D02*
G36*
X185597Y160009D02*
X186509Y159098D01*
X187078D01*
G75*
G02*
X187726Y160009I4054J-2198D01*
G01*
X185597D01*
G37*
X24822Y179635D02*
G36*
X24822Y179635D02*
Y160009D01*
X33380D01*
G75*
G02*
X35130Y161919I4129J-2028D01*
G01*
G75*
G02*
X32909Y165856I2379J3937D01*
G01*
G75*
G02*
X35130Y169793I4600J0D01*
G01*
G75*
G02*
X32909Y173729I2378J3936D01*
G01*
G75*
G02*
Y173730I4101J0D01*
G01*
G75*
G02*
X41602Y175830I4600J0D01*
G01*
X51779D01*
G75*
G02*
X53266Y175215I2J-2101D01*
G01*
X56219Y172262D01*
G75*
G02*
X56834Y170777I-1487J-1485D01*
G01*
Y163616D01*
X64698D01*
Y160009D01*
X79529D01*
G75*
G02*
X85124Y161211I3256J-1536D01*
G01*
Y163616D01*
X85665D01*
G75*
G02*
X85583Y164379I3515J763D01*
G01*
G75*
G02*
X85630Y164962I3598J0D01*
G01*
X83517Y167075D01*
Y165935D01*
X65320D01*
Y174635D01*
X83517D01*
Y172371D01*
G75*
G02*
X84762Y171770I-241J-2088D01*
G01*
X88600Y167932D01*
G75*
G02*
X91964Y166665I583J-3553D01*
G01*
G75*
G02*
X92127Y166849I1631J-1285D01*
G01*
X93603Y168325D01*
G75*
G02*
X95091Y168940I1485J-1486D01*
G01*
X96996D01*
G75*
G02*
X105743Y166899I4135J-2041D01*
G01*
Y166899D01*
G75*
G02*
X104277Y163527I-4611J0D01*
G01*
X107014D01*
X107752Y164265D01*
Y167309D01*
X102550Y172511D01*
G75*
G02*
X96520Y176899I-1419J4388D01*
G01*
G75*
G02*
X97326Y179504I4612J0D01*
G01*
X97059D01*
G75*
G02*
X96325Y179635I-2J2100D01*
G01*
X83517D01*
Y175285D01*
X65320D01*
Y177535D01*
X65040D01*
G75*
G02*
X58516Y179635I-2924J2100D01*
G01*
X24822D01*
G37*
X41602Y163756D02*
G36*
X41602Y163756D02*
G75*
G02*
X39889Y161919I-4090J2097D01*
G01*
G75*
G02*
X41639Y160009I-2379J-3937D01*
G01*
X46236D01*
Y163018D01*
X45498Y163756D01*
X41602D01*
G37*
X105743Y176899D02*
G36*
X105743Y176899D02*
G75*
G02*
X105520Y175481I-4613J0D01*
G01*
X111337Y169664D01*
G75*
G02*
X111952Y168179I-1487J-1485D01*
G01*
Y163395D01*
G75*
G02*
X111337Y161910I-2102J0D01*
G01*
X109436Y160009D01*
X179657D01*
X160163Y179504D01*
X104937D01*
G75*
G02*
X105743Y176899I-3807J-2605D01*
G01*
G37*
X179602Y169301D02*
G36*
X179602Y169301D02*
Y179635D01*
X165972D01*
X185597Y160009D01*
X187726D01*
G75*
G02*
X194537I3405J-3110D01*
G01*
X204661D01*
G75*
G02*
X213861I4600J0D01*
G01*
X234661D01*
G75*
G02*
X243861I4600J0D01*
G01*
X254661D01*
G75*
G02*
X263861I4600J0D01*
G01*
X302657D01*
Y179635D01*
X194844D01*
G75*
G02*
X195743Y176899I-3713J-2737D01*
G01*
G75*
G02*
X186835Y175222I-4612J0D01*
G01*
G75*
G02*
X186123Y175690I770J1950D01*
G01*
X183802Y178011D01*
Y170170D01*
X185033Y168940D01*
X186996D01*
G75*
G02*
X195743Y166899I4135J-2041D01*
G01*
G75*
G02*
X187056Y164740I-4612J0D01*
G01*
X184165D01*
G75*
G02*
X182678Y165355I-2J2101D01*
G01*
X180217Y167816D01*
G75*
G02*
X179602Y169301I1487J1485D01*
G01*
G37*
X24822Y196899D02*
G36*
X24822Y196899D02*
Y179635D01*
X58516D01*
G75*
G02*
X65040Y181735I3600J0D01*
G01*
X65320D01*
Y183986D01*
X83517D01*
Y179635D01*
X96325D01*
G75*
G02*
X95572Y180119I731J1969D01*
G01*
X89297Y186394D01*
X83517D01*
Y184143D01*
X65320D01*
Y186394D01*
X65040D01*
G75*
G02*
X58516Y188494I-2924J2100D01*
G01*
G75*
G02*
X65040Y190594I3600J0D01*
G01*
X65320D01*
Y192844D01*
X83517D01*
Y190594D01*
X90165D01*
G75*
G02*
X91652Y189979I2J-2101D01*
G01*
X97304Y184326D01*
G75*
G02*
X96520Y186899I3827J2572D01*
G01*
Y186899D01*
G75*
G02*
X105743I4612J0D01*
G01*
Y186899D01*
G75*
G02*
X104457Y183704I-4611J0D01*
G01*
X161031D01*
G75*
G02*
X162518Y183089I2J-2101D01*
G01*
X165972Y179635D01*
X179602D01*
Y196899D01*
X105743D01*
G75*
G02*
X96520I-4612J0D01*
G01*
X24822D01*
G37*
X186755Y185444D02*
G36*
X186755Y185444D02*
Y180997D01*
X187734Y180018D01*
G75*
G02*
X194844Y179635I3397J-3119D01*
G01*
X302657D01*
Y196899D01*
X195743D01*
Y196899D01*
G75*
G02*
X186755Y195444I-4612J0D01*
G01*
Y188354D01*
G75*
G02*
X195743Y186899I4376J-1455D01*
G01*
Y186899D01*
G75*
G02*
X186755Y185444I-4612J0D01*
G01*
G37*
X24822Y206899D02*
G36*
X24822Y206899D02*
Y196899D01*
X96520D01*
G75*
G02*
X105743I4612J0D01*
G01*
X179602D01*
Y206899D01*
X105743D01*
G75*
G02*
X96520I-4612J0D01*
G01*
X24822D01*
G37*
X186755Y205444D02*
G36*
X186755Y205444D02*
Y198354D01*
G75*
G02*
X195743Y196899I4376J-1455D01*
G01*
X302657D01*
Y206899D01*
X195743D01*
Y206899D01*
G75*
G02*
X186755Y205444I-4612J0D01*
G01*
G37*
X24822Y249541D02*
G36*
X24822Y249541D02*
Y206899D01*
X96520D01*
G75*
G02*
X105743I4612J0D01*
G01*
X179602D01*
Y218628D01*
X178372Y219858D01*
X104669D01*
G75*
G02*
X105743Y216900I-3535J-2958D01*
G01*
G75*
G02*
Y216899I-5013J0D01*
G01*
G75*
G02*
X96520I-4612J0D01*
G01*
G75*
G02*
Y216900I5013J0D01*
G01*
G75*
G02*
X97594Y219858I4610J0D01*
G01*
X83025D01*
Y209242D01*
X64828D01*
Y211492D01*
X41602D01*
G75*
G02*
X32909Y213592I-4093J2100D01*
G01*
G75*
G02*
Y213593I4101J0D01*
G01*
G75*
G02*
X35130Y217529I4599J0D01*
G01*
G75*
G02*
X32909Y221466I2379J3937D01*
G01*
G75*
G02*
X35130Y225403I4600J0D01*
G01*
G75*
G02*
X32909Y229340I2379J3937D01*
G01*
G75*
G02*
X35130Y233277I4600J0D01*
G01*
G75*
G02*
X32909Y237214I2379J3937D01*
G01*
G75*
G02*
X35130Y241151I4600J0D01*
G01*
G75*
G02*
X32909Y245088I2379J3937D01*
G01*
G75*
G02*
X35130Y249025I4600J0D01*
G01*
G75*
G02*
X34434Y249541I2378J3937D01*
G01*
X24822D01*
G37*
X40585D02*
G36*
X40585Y249541D02*
G75*
G02*
X39889Y249025I-3073J3419D01*
G01*
G75*
G02*
X42109Y245088I-2379J-3937D01*
G01*
G75*
G02*
X39889Y241151I-4600J0D01*
G01*
G75*
G02*
X42109Y237214I-2379J-3937D01*
G01*
G75*
G02*
X39889Y233277I-4600J0D01*
G01*
G75*
G02*
X41602Y231440I-2377J-3934D01*
G01*
X64828D01*
Y239596D01*
X76327D01*
Y249541D01*
X71591D01*
G75*
G02*
X67405I-2093J2929D01*
G01*
X64698D01*
Y244946D01*
X56580D01*
Y246521D01*
X51586D01*
Y247771D01*
X49461D01*
G75*
G02*
X47974Y248386I-2J2101D01*
G01*
X46819Y249541D01*
X40585D01*
G37*
X39889Y225403D02*
G36*
X39889Y225403D02*
G75*
G02*
X41602Y223566I-2377J-3934D01*
G01*
X64828D01*
Y226309D01*
X83025D01*
Y224058D01*
X97498D01*
G75*
G02*
X96520Y226899I3635J2841D01*
G01*
G75*
G02*
X105743I4612J0D01*
G01*
G75*
G02*
X104765Y224058I-4613J0D01*
G01*
X179239D01*
G75*
G02*
X180727Y223443I2J-2101D01*
G01*
X182555Y221615D01*
Y249541D01*
X108271D01*
Y248260D01*
G75*
G02*
X107656Y246775I-2102J0D01*
G01*
X106296Y245414D01*
G75*
G02*
X105262Y244848I-1487J1489D01*
G01*
G75*
G02*
X98274Y243279I-4131J2051D01*
G01*
Y240519D01*
G75*
G02*
X105743Y236899I2857J-3620D01*
G01*
Y236899D01*
G75*
G02*
X96921Y235018I-4612J0D01*
G01*
G75*
G02*
X96366Y235417I938J1887D01*
G01*
X94693Y237091D01*
G75*
G02*
X94074Y238579I1481J1488D01*
G01*
Y249541D01*
X93242D01*
Y244946D01*
X92623D01*
G75*
G02*
X92783Y243887I-3433J-1060D01*
G01*
Y243886D01*
G75*
G02*
X85583I-3600J0D01*
G01*
Y243887D01*
G75*
G02*
X85743Y244946I3593J0D01*
G01*
X85124D01*
Y249541D01*
X80527D01*
Y239596D01*
X83025D01*
Y230895D01*
X77046D01*
X74006Y227855D01*
G75*
G02*
X72519Y227240I-1485J1486D01*
G01*
X41602D01*
G75*
G02*
X39889Y225403I-4090J2097D01*
G01*
G37*
X186755Y215444D02*
G36*
X186755Y215444D02*
Y208354D01*
G75*
G02*
X195743Y206899I4376J-1455D01*
G01*
X302657D01*
Y249541D01*
X293837D01*
G75*
G02*
X284685I-4576J469D01*
G01*
X253837D01*
G75*
G02*
X244685I-4576J469D01*
G01*
X213837D01*
G75*
G02*
X204685I-4576J469D01*
G01*
X194912D01*
G75*
G02*
X195743Y246899I-3781J-2642D01*
G01*
Y246899D01*
G75*
G02*
X186755Y245444I-4612J0D01*
G01*
Y238354D01*
G75*
G02*
X195743Y236899I4376J-1455D01*
G01*
Y236899D01*
G75*
G02*
X186755Y235444I-4612J0D01*
G01*
Y228354D01*
G75*
G02*
X195743Y226899I4376J-1455D01*
G01*
Y226899D01*
G75*
G02*
X186755Y225444I-4612J0D01*
G01*
Y218354D01*
G75*
G02*
X195743Y216899I4376J-1455D01*
G01*
Y216899D01*
G75*
G02*
X186755Y215444I-4612J0D01*
G01*
G37*
Y249541D02*
G36*
X186755Y249541D02*
Y248354D01*
G75*
G02*
X187351Y249541I4376J-1455D01*
G01*
X186755D01*
G37*
X24822Y306899D02*
G36*
X24822Y306899D02*
Y249541D01*
X34434D01*
G75*
G02*
X32909Y252961I3074J3420D01*
G01*
G75*
G02*
Y252962I4101J0D01*
G01*
G75*
G02*
X41602Y255062I4600J0D01*
G01*
X46365D01*
G75*
G02*
X47853Y254447I2J-2101D01*
G01*
X50329Y251971D01*
X51586D01*
Y258320D01*
X52486D01*
Y258516D01*
G75*
G02*
X51134Y261328I2248J2812D01*
G01*
G75*
G02*
X52997Y264482I3600J0D01*
G01*
X51635D01*
Y265626D01*
X49323D01*
G75*
G02*
X47835Y266241I-2J2101D01*
G01*
X43898Y270178D01*
G75*
G02*
X43283Y271663I1487J1485D01*
G01*
Y306899D01*
X41794D01*
G75*
G02*
X39889Y304635I-4285J1674D01*
G01*
G75*
G02*
X42109Y300698I-2379J-3937D01*
G01*
G75*
G02*
X39889Y296761I-4600J0D01*
G01*
G75*
G02*
X42109Y292825I-2378J-3936D01*
G01*
G75*
G02*
Y292824I-4101J0D01*
G01*
G75*
G02*
X32909I-4600J0D01*
G01*
G75*
G02*
Y292825I4101J0D01*
G01*
G75*
G02*
X35130Y296761I4599J0D01*
G01*
G75*
G02*
X32909Y300698I2379J3937D01*
G01*
G75*
G02*
X35130Y304635I4600J0D01*
G01*
G75*
G02*
X33224Y306899I2379J3937D01*
G01*
X24822D01*
G37*
X41602Y250862D02*
G36*
X41602Y250862D02*
G75*
G02*
X40585Y249541I-4090J2097D01*
G01*
X46819D01*
X45498Y250862D01*
X41602D01*
G37*
X53389Y306899D02*
G36*
X53389Y306899D02*
Y282375D01*
X53635Y282129D01*
X57192D01*
G75*
G02*
X58680Y281514I2J-2101D01*
G01*
X62124Y278069D01*
G75*
G02*
X62302Y277868I-1526J-1520D01*
G01*
X64698D01*
Y249541D01*
X67405D01*
G75*
G02*
X65898Y252470I2093J2929D01*
G01*
G75*
G02*
X73098I3600J0D01*
G01*
G75*
G02*
X71591Y249541I-3600J0D01*
G01*
X76327D01*
Y262817D01*
G75*
G02*
X76942Y264302I2102J0D01*
G01*
X79370Y266731D01*
G75*
G02*
X79472Y266826I1362J-1357D01*
G01*
G75*
G02*
X78829Y268878I2957J2053D01*
G01*
G75*
G02*
X85124Y271265I3600J0D01*
G01*
Y273426D01*
X81061D01*
G75*
G02*
X79573Y274041I-2J2101D01*
G01*
X78583Y275031D01*
G75*
G02*
X77956Y276528I1474J1497D01*
G01*
Y276529D01*
G75*
G02*
X77984Y276873I2103J0D01*
G01*
Y280108D01*
X66486D01*
Y288474D01*
X66305D01*
Y290724D01*
X66024D01*
G75*
G02*
X59500Y292824I-2924J2100D01*
G01*
G75*
G02*
X66024Y294924I3600J0D01*
G01*
X66305D01*
Y297175D01*
X84502D01*
Y288809D01*
X84683D01*
Y280108D01*
X82184D01*
Y277626D01*
X85124D01*
Y277868D01*
X85935D01*
G75*
G02*
X85702Y279143I3367J1275D01*
G01*
G75*
G02*
X92056Y281462I3600J0D01*
G01*
G75*
G02*
X92190Y281610I1731J-1439D01*
G01*
X94065Y283484D01*
G75*
G02*
X95552Y284099I1485J-1486D01*
G01*
X97467D01*
G75*
G02*
X96520Y286899I3666J2800D01*
G01*
G75*
G02*
X105743I4612J0D01*
G01*
G75*
G02*
X104796Y284099I-4613J0D01*
G01*
X104919D01*
G75*
G02*
X106407Y283484I2J-2101D01*
G01*
X107656Y282235D01*
G75*
G02*
X108271Y280750I-1487J-1485D01*
G01*
Y249541D01*
X182555D01*
Y298352D01*
X181325Y299583D01*
X104882D01*
G75*
G02*
X105743Y296900I-3750J-2683D01*
G01*
Y296899D01*
G75*
G02*
X96520I-4612J0D01*
G01*
Y296900D01*
G75*
G02*
X97381Y299583I4611J0D01*
G01*
X84502D01*
Y297332D01*
X66305D01*
Y299583D01*
X66024D01*
G75*
G02*
X59500Y301683I-2924J2100D01*
G01*
G75*
G02*
X66024Y303783I3600J0D01*
G01*
X66305D01*
Y306033D01*
X84502D01*
Y303783D01*
X97732D01*
G75*
G02*
X96520Y306899I3401J3117D01*
G01*
X53389D01*
G37*
X80527Y257416D02*
G36*
X80527Y257416D02*
Y249541D01*
X85124D01*
Y257155D01*
G75*
G02*
X80527Y257416I-2142J2893D01*
G01*
G37*
X93242Y250350D02*
G36*
X93242Y250350D02*
Y249541D01*
X94074D01*
Y250350D01*
X93242D01*
G37*
X105743Y306899D02*
G36*
X105743Y306899D02*
G75*
G02*
X104531Y303783I-4613J0D01*
G01*
X182192D01*
G75*
G02*
X183680Y303168I2J-2101D01*
G01*
X186140Y300707D01*
G75*
G02*
X186755Y299222I-1487J-1485D01*
G01*
Y298354D01*
G75*
G02*
X195743Y296899I4376J-1455D01*
G01*
Y296899D01*
G75*
G02*
X186755Y295444I-4612J0D01*
G01*
Y288354D01*
G75*
G02*
X195743Y286899I4376J-1455D01*
G01*
Y286899D01*
G75*
G02*
X186755Y285444I-4612J0D01*
G01*
Y278354D01*
G75*
G02*
X195743Y276899I4376J-1455D01*
G01*
Y276899D01*
G75*
G02*
X186755Y275444I-4612J0D01*
G01*
Y268354D01*
G75*
G02*
X195743Y266899I4376J-1455D01*
G01*
Y266899D01*
G75*
G02*
X186755Y265444I-4612J0D01*
G01*
Y258354D01*
G75*
G02*
X195743Y256899I4376J-1455D01*
G01*
Y256899D01*
G75*
G02*
X186755Y255444I-4612J0D01*
G01*
Y249541D01*
X187351D01*
G75*
G02*
X194912I3780J-2642D01*
G01*
X204685D01*
G75*
G02*
X204661Y250009I4576J469D01*
G01*
G75*
G02*
X213861I4600J0D01*
G01*
G75*
G02*
X213837Y249541I-4600J1D01*
G01*
X244685D01*
G75*
G02*
X244661Y250009I4576J469D01*
G01*
G75*
G02*
X253861I4600J0D01*
G01*
G75*
G02*
X253837Y249541I-4600J1D01*
G01*
X284685D01*
G75*
G02*
X284661Y250009I4576J469D01*
G01*
G75*
G02*
X293861I4600J0D01*
G01*
G75*
G02*
X293837Y249541I-4600J1D01*
G01*
X302657D01*
Y306899D01*
X195743D01*
G75*
G02*
X186520I-4612J0D01*
G01*
X105743D01*
G37*
X24822Y316899D02*
G36*
X24822Y316899D02*
Y306899D01*
X33224D01*
G75*
G02*
X32909Y308572I4285J1673D01*
G01*
G75*
G02*
X35130Y312509I4600J0D01*
G01*
G75*
G02*
X32909Y316446I2379J3937D01*
G01*
G75*
G02*
X32932Y316899I4600J-1D01*
G01*
X24822D01*
G37*
X42109Y308572D02*
G36*
X42109Y308572D02*
G75*
G02*
X41794Y306899I-4600J0D01*
G01*
X43283D01*
Y316899D01*
X42087D01*
G75*
G02*
X42109Y316446I-4578J-454D01*
G01*
G75*
G02*
X39889Y312509I-4600J0D01*
G01*
G75*
G02*
X42109Y308572I-2379J-3937D01*
G01*
G37*
X53389Y316899D02*
G36*
X53389Y316899D02*
Y306899D01*
X96520D01*
G75*
G02*
X105743I4612J0D01*
G01*
X186520D01*
G75*
G02*
X195743I4612J0D01*
G01*
X302657D01*
Y316899D01*
X195743D01*
G75*
G02*
X186520I-4612J0D01*
G01*
X105742D01*
Y312289D01*
X96521D01*
Y316899D01*
X53389D01*
G37*
X24822Y348866D02*
G36*
X24822Y348866D02*
Y316899D01*
X32932D01*
G75*
G02*
X35130Y320383I4578J-453D01*
G01*
G75*
G02*
X32909Y324320I2379J3937D01*
G01*
G75*
G02*
X35130Y328257I4600J0D01*
G01*
G75*
G02*
X32909Y332194I2378J3936D01*
G01*
G75*
G02*
X41602Y334294I4600J1D01*
G01*
X47350D01*
G75*
G02*
X48837Y333680I2J-2101D01*
G01*
X52774Y329743D01*
G75*
G02*
X53389Y328257I-1487J-1485D01*
G01*
Y316899D01*
X96521D01*
Y321509D01*
X105742D01*
Y316899D01*
X186520D01*
G75*
G02*
X195743I4612J0D01*
G01*
X302657D01*
Y348460D01*
G75*
G03*
X296393Y354724I-9735J-3470D01*
G01*
X30680D01*
G75*
G03*
X24822Y348866I3384J-9242D01*
G01*
G37*
X41602Y322220D02*
G36*
X41602Y322220D02*
G75*
G02*
X39889Y320383I-4090J2097D01*
G01*
G75*
G02*
X42087Y316899I-2379J-3937D01*
G01*
X43283D01*
Y320990D01*
X42053Y322220D01*
X41602D01*
G37*
D02*
D28*
X54734Y127962D03*
Y261328D03*
X62116Y179635D03*
Y188494D03*
X63100Y292824D03*
Y301683D03*
X69498Y252470D03*
X74911Y116643D03*
Y151092D03*
X82429Y268878D03*
X82785Y158474D03*
X82982Y260049D03*
X89183Y129439D03*
Y164380D03*
Y243886D03*
X89302Y279143D03*
X91643Y63494D03*
D02*
D29*
X60639Y133080D03*
Y135639D03*
Y138198D03*
Y140757D03*
Y143317D03*
Y145876D03*
Y148435D03*
Y150994D03*
Y153553D03*
Y156112D03*
Y158671D03*
Y161230D03*
Y247332D03*
Y249891D03*
Y252450D03*
Y255009D03*
Y257569D03*
Y260128D03*
Y262687D03*
Y265246D03*
Y267805D03*
Y270364D03*
Y272923D03*
Y275482D03*
X89183Y133080D03*
Y135639D03*
Y138198D03*
Y140757D03*
Y143317D03*
Y145876D03*
Y148435D03*
Y150994D03*
Y153553D03*
Y156112D03*
Y158671D03*
Y161230D03*
Y247332D03*
Y249891D03*
Y252450D03*
Y255009D03*
Y257569D03*
Y260128D03*
Y262687D03*
Y265246D03*
Y267805D03*
Y270364D03*
Y272923D03*
Y275482D03*
D02*
D72*
X101131Y106899D03*
Y116899D03*
Y126899D03*
Y136899D03*
Y146899D03*
Y156899D03*
Y166899D03*
Y176899D03*
Y186899D03*
Y196899D03*
Y206899D03*
Y216899D03*
Y226899D03*
Y236899D03*
Y246899D03*
Y256899D03*
Y266899D03*
Y276899D03*
Y286899D03*
Y296899D03*
Y306899D03*
X191131Y106899D03*
Y116899D03*
Y126899D03*
Y136899D03*
Y146899D03*
Y156899D03*
Y166899D03*
Y176899D03*
Y186899D03*
Y196899D03*
Y206899D03*
Y216899D03*
Y226899D03*
Y236899D03*
Y246899D03*
Y256899D03*
Y266899D03*
Y276899D03*
Y286899D03*
Y296899D03*
Y306899D03*
Y316899D03*
D02*
D73*
X101131D03*
D02*
D74*
X255521Y129439D03*
D02*
D75*
Y105817D03*
D02*
D76*
X274025Y117628D03*
D02*
D77*
X54586Y249871D03*
Y254971D03*
X54635Y267833D03*
Y272933D03*
X54734Y133286D03*
Y138386D03*
Y153463D03*
Y158563D03*
D02*
D78*
X57616Y54635D03*
Y63494D03*
X66616Y54635D03*
Y63494D03*
X69427Y213592D03*
Y221958D03*
Y235246D03*
X69919Y170285D03*
Y179635D03*
Y188494D03*
X70411Y123533D03*
X70903Y292824D03*
Y301683D03*
X71084Y284458D03*
X78427Y213592D03*
Y221958D03*
Y235246D03*
X78919Y170285D03*
Y179635D03*
Y188494D03*
X79411Y123533D03*
X79903Y292824D03*
Y301683D03*
X80084Y284458D03*
D02*
D79*
X291446Y121112D03*
Y141702D03*
X0Y0D02*
M02*
