G04 DesignSpark PCB Gerber Version 10.0 Build 5299*
G04 #@! TF.Part,Single*
G04 #@! TF.FileFunction,Copper,L2,Bot*
G04 #@! TF.FilePolarity,Positive*
%FSLAX35Y35*%
%MOIN*%
G04 #@! TA.AperFunction,ComponentPad*
%ADD76O,0.08858X0.17717*%
%ADD73R,0.06024X0.06024*%
G04 #@! TD.AperFunction*
%ADD10C,0.01000*%
%ADD27C,0.01200*%
G04 #@! TA.AperFunction,ViaPad*
%ADD28C,0.04000*%
G04 #@! TA.AperFunction,ComponentPad*
%ADD14C,0.06000*%
%ADD72C,0.06024*%
%ADD75O,0.17717X0.08858*%
%ADD74O,0.19685X0.09843*%
G04 #@! TD.AperFunction*
X0Y0D02*
D02*
D10*
X35009Y78750D02*
X32909D01*
X35009Y157982D02*
X32909D01*
X35009Y237214D02*
X32909D01*
X35009Y316446D02*
X32909D01*
X37509Y70876D02*
X52273D01*
X62116Y80718D01*
Y111722D01*
X67037Y116643D01*
X74911D01*
X37509Y134360D02*
X48336D01*
X50797Y136820D01*
Y177667D01*
X52765Y179635D01*
X62116D01*
X37509Y142234D02*
X45876D01*
X47352Y143710D01*
Y186525D01*
X49320Y188494D01*
X62116D01*
X37509Y150108D02*
X33572D01*
X30620Y147155D01*
Y73828D01*
X33572Y70876D01*
X37509D01*
Y229340D02*
X32588D01*
X30620Y227372D01*
Y152569D01*
X33080Y150108D01*
X37509D01*
Y245088D02*
X50305D01*
X54734Y249517D01*
Y261328D01*
X37509Y292824D02*
X63100D01*
X37509Y300698D02*
X54734D01*
X55718Y301683D01*
X63100D01*
X37509Y308572D02*
X33572D01*
X30620Y305620D01*
Y232293D01*
X33572Y229340D01*
X37509D01*
X40009Y78750D02*
X42109D01*
X40009Y157982D02*
X42109D01*
X40009Y237214D02*
X42109D01*
X40009Y316446D02*
X42109D01*
X54734Y127962D02*
Y102372D01*
X46860Y94498D01*
X37509D01*
X67998Y252470D02*
X65898D01*
X69498Y250970D02*
Y248870D01*
Y252470D02*
X81309D01*
X82982Y254143D01*
Y260049D01*
X69498Y253970D02*
Y256070D01*
X70998Y252470D02*
X73098D01*
X74911Y116643D02*
X100895D01*
X101131Y116880D01*
Y116899D01*
X74911Y116643D02*
Y151092D01*
X81482Y260049D02*
X79382D01*
X82429Y268878D02*
Y285748D01*
X83678Y286998D01*
X100605D01*
X100704Y286899D01*
X101131D01*
X82982Y258549D02*
Y256449D01*
Y261549D02*
Y263649D01*
X84482Y260049D02*
X86582D01*
X89183Y164380D02*
Y129439D01*
Y164380D02*
Y243886D01*
X89302Y279143D02*
Y244005D01*
X89183Y243886D01*
X91643Y63494D02*
Y104832D01*
X98533Y111722D01*
X176781D01*
X181702Y116643D01*
Y137470D01*
X191131Y146899D01*
X101131Y104387D02*
Y102287D01*
Y106899D02*
X191131D01*
X101131Y136899D02*
X96151D01*
X94104Y134852D01*
Y127470D01*
X92135Y125502D01*
X85246D01*
X82785Y127962D01*
Y158474D01*
X103643Y106899D02*
X105743D01*
X188620D02*
X186520D01*
X188620Y116899D02*
X186520D01*
X188620Y316899D02*
X186520D01*
X191131Y104387D02*
Y102287D01*
Y109411D02*
Y111511D01*
Y114387D02*
Y112287D01*
Y116899D02*
Y106899D01*
Y116899D02*
X198198D01*
X209261Y127962D01*
X191131Y119411D02*
Y121511D01*
Y314387D02*
Y312287D01*
Y319411D02*
Y321511D01*
X193643Y106899D02*
X195743D01*
X193643Y116899D02*
X195743D01*
X193643Y316899D02*
X195743D01*
X206761Y90561D02*
X204661D01*
X206761Y127962D02*
X204661D01*
X206761Y250009D02*
X204661D01*
X209261Y88061D02*
Y85961D01*
Y93061D02*
Y95161D01*
Y125462D02*
Y123362D01*
Y130462D02*
Y132562D01*
Y247509D02*
Y245409D01*
Y252509D02*
Y254609D01*
X211761Y90561D02*
X213861D01*
X211761Y127962D02*
X213861D01*
X211761Y250009D02*
X213861D01*
X224261Y90561D02*
X224517D01*
X235836Y101880D01*
Y136584D01*
X259261Y160009D01*
X224261Y127962D02*
Y232529D01*
X232391Y240659D01*
X279911D01*
X289261Y250009D01*
X236761Y160009D02*
X234661D01*
X239261Y157509D02*
Y155409D01*
Y162509D02*
Y164609D01*
X241761Y160009D02*
X243861D01*
X247163Y105817D02*
X245065D01*
X255521Y101887D02*
Y99789D01*
Y109746D02*
Y111844D01*
X263880Y105817D02*
X265978D01*
X288946Y94655D02*
X286846D01*
X291446Y92155D02*
Y90055D01*
Y97155D02*
Y99255D01*
X293946Y94655D02*
X296046D01*
D02*
D14*
X37509Y55128D03*
Y63002D03*
Y70876D03*
Y78750D03*
Y86624D03*
Y94498D03*
Y134360D03*
Y142234D03*
Y150108D03*
Y157982D03*
Y165856D03*
Y173730D03*
Y213592D03*
Y221466D03*
Y229340D03*
Y237214D03*
Y245088D03*
Y252962D03*
Y292824D03*
Y300698D03*
Y308572D03*
Y316446D03*
Y324320D03*
Y332194D03*
X209261Y90561D03*
Y127962D03*
Y160009D03*
Y250009D03*
X224261Y90561D03*
Y127962D03*
X239261Y160009D03*
X249261Y250009D03*
X259261Y160009D03*
X289261Y250009D03*
X291446Y84655D03*
Y94655D03*
Y104655D03*
D02*
D27*
X303257Y42332D02*
Y344990D01*
G75*
G03*
X292923Y355324I-10335J0D01*
G01*
X34065D01*
G75*
G03*
X24222Y345482I0J-9843D01*
G01*
Y42824D01*
G75*
G03*
X34557Y32490I10335J0D01*
G01*
X293415D01*
G75*
G03*
X303257Y42332I0J9843D01*
G01*
X97078Y289098D02*
G75*
G02*
X105743Y286899I4054J-2198D01*
G01*
G75*
G02*
X96977Y284898I-4612J0D01*
G01*
X84548D01*
X84529Y284878D01*
Y271802D01*
G75*
G02*
X86029Y268878I-2100J-2924D01*
G01*
G75*
G02*
X78829I-3600J0D01*
G01*
G75*
G02*
X80329Y271802I3600J0D01*
G01*
Y285748D01*
G75*
G02*
X80944Y287233I2100J0D01*
G01*
X82193Y288483D01*
G75*
G02*
X83681Y289098I1485J-1485D01*
G01*
X97078D01*
X97026Y138999D02*
G75*
G02*
X105743Y136899I4106J-2100D01*
G01*
G75*
G02*
X97026Y134799I-4612J0D01*
G01*
X97021D01*
X96204Y133982D01*
Y127470D01*
G75*
G02*
X95589Y125985I-2100J0D01*
G01*
X93620Y124017D01*
G75*
G02*
X92133Y123402I-1485J1485D01*
G01*
X85248D01*
G75*
G02*
X83761Y124017I-3J2100D01*
G01*
X81300Y126477D01*
G75*
G02*
X80685Y127962I1485J1485D01*
G01*
Y155550D01*
G75*
G02*
X79185Y158474I2100J2924D01*
G01*
G75*
G02*
X86385I3600J0D01*
G01*
G75*
G02*
X84885Y155550I-3600J0D01*
G01*
Y128832D01*
X86047Y127670D01*
G75*
G02*
X87083Y132363I3136J1769D01*
G01*
Y161456D01*
G75*
G02*
Y167304I2100J2924D01*
G01*
Y240962D01*
G75*
G02*
X87202Y246892I2100J2924D01*
G01*
Y276219D01*
G75*
G02*
X85702Y279143I2100J2924D01*
G01*
G75*
G02*
X92902I3600J0D01*
G01*
G75*
G02*
X91402Y276219I-3600J0D01*
G01*
Y246721D01*
G75*
G02*
X91283Y240962I-2219J-2835D01*
G01*
Y167304D01*
G75*
G02*
Y161456I-2100J-2924D01*
G01*
Y132363D01*
G75*
G02*
X92004Y131675I-2100J-2924D01*
G01*
Y134852D01*
G75*
G02*
X92619Y136337I2100J0D01*
G01*
X94666Y138384D01*
G75*
G02*
X96154Y138999I1485J-1485D01*
G01*
X97026D01*
X96520Y126899D02*
G75*
G02*
X105743I4612J0D01*
G01*
G75*
G02*
X96520I-4612J0D01*
G01*
Y146899D02*
G75*
G02*
X105743I4612J0D01*
G01*
G75*
G02*
X96520I-4612J0D01*
G01*
Y156899D02*
G75*
G02*
X105743I4612J0D01*
G01*
G75*
G02*
X96520I-4612J0D01*
G01*
Y166899D02*
G75*
G02*
X105743I4612J0D01*
G01*
G75*
G02*
X96520I-4612J0D01*
G01*
Y176899D02*
G75*
G02*
X105743I4612J0D01*
G01*
G75*
G02*
X96520I-4612J0D01*
G01*
Y186899D02*
G75*
G02*
X105743I4612J0D01*
G01*
G75*
G02*
X96520I-4612J0D01*
G01*
Y196899D02*
G75*
G02*
X105743I4612J0D01*
G01*
G75*
G02*
X96520I-4612J0D01*
G01*
Y206899D02*
G75*
G02*
X105743I4612J0D01*
G01*
G75*
G02*
X96520I-4612J0D01*
G01*
Y216899D02*
G75*
G02*
X105743I4612J0D01*
G01*
G75*
G02*
X96520I-4612J0D01*
G01*
Y226899D02*
G75*
G02*
X105743I4612J0D01*
G01*
G75*
G02*
X96520I-4612J0D01*
G01*
Y236899D02*
G75*
G02*
X105743I4612J0D01*
G01*
G75*
G02*
X96520I-4612J0D01*
G01*
Y246899D02*
G75*
G02*
X105743I4612J0D01*
G01*
G75*
G02*
X96520I-4612J0D01*
G01*
Y256899D02*
G75*
G02*
X105743I4612J0D01*
G01*
G75*
G02*
X96520I-4612J0D01*
G01*
Y266899D02*
G75*
G02*
X105743I4612J0D01*
G01*
G75*
G02*
X96520I-4612J0D01*
G01*
Y276899D02*
G75*
G02*
X105743I4612J0D01*
G01*
G75*
G02*
X96520I-4612J0D01*
G01*
X79382Y260049D02*
G75*
G02*
X86582I3600J0D01*
G01*
G75*
G02*
X79382I-3600J0D01*
G01*
X96520Y296899D02*
G75*
G02*
X105743I4612J0D01*
G01*
G75*
G02*
X96520I-4612J0D01*
G01*
Y306899D02*
G75*
G02*
X105743I4612J0D01*
G01*
G75*
G02*
X96520I-4612J0D01*
G01*
X96521Y321509D02*
X105742D01*
Y312289D01*
X96521D01*
Y321509D01*
X186520Y146899D02*
G75*
G02*
X195743I4612J0D01*
G01*
G75*
G02*
X189713Y142511I-4612J0D01*
G01*
X183802Y136600D01*
Y116643D01*
G75*
G02*
X183187Y115158I-2100J0D01*
G01*
X178266Y110237D01*
G75*
G02*
X176779Y109622I-1485J1485D01*
G01*
X104854D01*
G75*
G02*
X105743Y106899I-3722J-2723D01*
G01*
G75*
G02*
X96522Y106741I-4612J0D01*
G01*
X93743Y103963D01*
Y66418D01*
G75*
G02*
X95243Y63494I-2100J-2924D01*
G01*
G75*
G02*
X88043I-3600J0D01*
G01*
G75*
G02*
X89543Y66418I3600J0D01*
G01*
Y104832D01*
G75*
G02*
X90158Y106317I2100J0D01*
G01*
X97048Y113207D01*
G75*
G02*
X97815Y113695I1485J-1486D01*
G01*
G75*
G02*
X97167Y114543I3317J3204D01*
G01*
X77835D01*
G75*
G02*
X71987I-2924J2100D01*
G01*
X67907D01*
X64216Y110852D01*
Y80718D01*
G75*
G02*
X63601Y79233I-2100J0D01*
G01*
X53758Y69391D01*
G75*
G02*
X52271Y68776I-1485J1485D01*
G01*
X41602D01*
G75*
G02*
X39889Y66939I-4093J2100D01*
G01*
G75*
G02*
Y59065I-2379J-3937D01*
G01*
G75*
G02*
X42109Y55128I-2379J-3937D01*
G01*
G75*
G02*
X32909I-4600J0D01*
G01*
G75*
G02*
X35130Y59065I4600J0D01*
G01*
G75*
G02*
Y66939I2379J3937D01*
G01*
G75*
G02*
X33414Y68781I2379J3937D01*
G01*
G75*
G02*
X32087Y69391I159J2094D01*
G01*
X29135Y72343D01*
G75*
G02*
X28520Y73828I1485J1485D01*
G01*
Y147155D01*
G75*
G02*
X29135Y148640I2100J0D01*
G01*
X30357Y149862D01*
X29135Y151083D01*
G75*
G02*
X28520Y152569I1485J1485D01*
G01*
Y227372D01*
G75*
G02*
X29135Y228857I2100J0D01*
G01*
X30111Y229832D01*
X29135Y230808D01*
G75*
G02*
X28520Y232293I1485J1485D01*
G01*
Y305620D01*
G75*
G02*
X29135Y307105I2100J0D01*
G01*
X32087Y310057D01*
G75*
G02*
X33414Y310667I1485J-1485D01*
G01*
G75*
G02*
X35130Y312509I4096J-2094D01*
G01*
G75*
G02*
Y320383I2379J3937D01*
G01*
G75*
G02*
Y328257I2379J3937D01*
G01*
G75*
G02*
X32909Y332194I2379J3937D01*
G01*
G75*
G02*
X42109I4600J0D01*
G01*
G75*
G02*
X39889Y328257I-4600J0D01*
G01*
G75*
G02*
Y320383I-2379J-3937D01*
G01*
G75*
G02*
Y312509I-2379J-3937D01*
G01*
G75*
G02*
Y304635I-2379J-3937D01*
G01*
G75*
G02*
X41602Y302798I-2379J-3937D01*
G01*
X53864D01*
X54233Y303168D01*
G75*
G02*
X55720Y303783I1485J-1485D01*
G01*
X60176D01*
G75*
G02*
X66700Y301683I2924J-2100D01*
G01*
G75*
G02*
X60176Y299583I-3600J0D01*
G01*
X56588D01*
X56219Y299213D01*
G75*
G02*
X54731Y298598I-1485J1485D01*
G01*
X41602D01*
G75*
G02*
X39889Y296761I-4093J2100D01*
G01*
G75*
G02*
X41602Y294924I-2379J-3937D01*
G01*
X60176D01*
G75*
G02*
X66700Y292824I2924J-2100D01*
G01*
G75*
G02*
X60176Y290724I-3600J0D01*
G01*
X41602D01*
G75*
G02*
X32909Y292824I-4093J2100D01*
G01*
G75*
G02*
X35130Y296761I4600J0D01*
G01*
G75*
G02*
Y304635I2379J3937D01*
G01*
G75*
G02*
X33809Y305839I2379J3937D01*
G01*
X32720Y304750D01*
Y233163D01*
X33809Y232073D01*
G75*
G02*
X35130Y233277I3700J-2733D01*
G01*
G75*
G02*
Y241151I2379J3937D01*
G01*
G75*
G02*
Y249025I2379J3937D01*
G01*
G75*
G02*
X32909Y252962I2379J3937D01*
G01*
G75*
G02*
X42109I4600J0D01*
G01*
G75*
G02*
X39889Y249025I-4600J0D01*
G01*
G75*
G02*
X41602Y247188I-2379J-3937D01*
G01*
X49435D01*
X52634Y250387D01*
Y258404D01*
G75*
G02*
X51134Y261328I2100J2924D01*
G01*
G75*
G02*
X58334I3600J0D01*
G01*
G75*
G02*
X56834Y258404I-3600J0D01*
G01*
Y249517D01*
G75*
G02*
X56219Y248032I-2100J0D01*
G01*
X51790Y243603D01*
G75*
G02*
X50302Y242988I-1485J1485D01*
G01*
X41602D01*
G75*
G02*
X39889Y241151I-4093J2100D01*
G01*
G75*
G02*
Y233277I-2379J-3937D01*
G01*
G75*
G02*
Y225403I-2379J-3937D01*
G01*
G75*
G02*
Y217529I-2379J-3937D01*
G01*
G75*
G02*
X42109Y213592I-2379J-3937D01*
G01*
G75*
G02*
X32909I-4600J0D01*
G01*
G75*
G02*
X35130Y217529I4600J0D01*
G01*
G75*
G02*
Y225403I2379J3937D01*
G01*
G75*
G02*
X33431Y227213I2379J3937D01*
G01*
X32720Y226502D01*
Y153438D01*
X33610Y152548D01*
G75*
G02*
X35130Y154045I3900J-2441D01*
G01*
G75*
G02*
Y161919I2379J3937D01*
G01*
G75*
G02*
Y169793I2379J3937D01*
G01*
G75*
G02*
X32909Y173730I2379J3937D01*
G01*
G75*
G02*
X42109I4600J0D01*
G01*
G75*
G02*
X39889Y169793I-4600J0D01*
G01*
G75*
G02*
Y161919I-2379J-3937D01*
G01*
G75*
G02*
Y154045I-2379J-3937D01*
G01*
G75*
G02*
Y146171I-2379J-3937D01*
G01*
G75*
G02*
X41602Y144334I-2379J-3937D01*
G01*
X45006D01*
X45252Y144580D01*
Y186525D01*
G75*
G02*
X45867Y188010I2100J0D01*
G01*
X47835Y189979D01*
G75*
G02*
X49323Y190594I1485J-1485D01*
G01*
X59192D01*
G75*
G02*
X65716Y188494I2924J-2100D01*
G01*
G75*
G02*
X59192Y186394I-3600J0D01*
G01*
X50190D01*
X49452Y185656D01*
Y179292D01*
X51280Y181120D01*
G75*
G02*
X52768Y181735I1485J-1485D01*
G01*
X59192D01*
G75*
G02*
X65716Y179635I2924J-2100D01*
G01*
G75*
G02*
X59192Y177535I-3600J0D01*
G01*
X53635D01*
X52897Y176797D01*
Y136820D01*
G75*
G02*
X52282Y135335I-2100J0D01*
G01*
X49821Y132875D01*
G75*
G02*
X48334Y132260I-1485J1485D01*
G01*
X41602D01*
G75*
G02*
X32909Y134360I-4093J2100D01*
G01*
G75*
G02*
X35130Y138297I4600J0D01*
G01*
G75*
G02*
Y146171I2379J3937D01*
G01*
G75*
G02*
X33809Y147375I2379J3937D01*
G01*
X32720Y146285D01*
Y74698D01*
X33809Y73609D01*
G75*
G02*
X35130Y74813I3700J-2733D01*
G01*
G75*
G02*
Y82687I2379J3937D01*
G01*
G75*
G02*
Y90561I2379J3937D01*
G01*
G75*
G02*
X32909Y94498I2379J3937D01*
G01*
G75*
G02*
X41602Y96598I4600J0D01*
G01*
X45990D01*
X52634Y103241D01*
Y125038D01*
G75*
G02*
X51134Y127962I2100J2924D01*
G01*
G75*
G02*
X58334I3600J0D01*
G01*
G75*
G02*
X56834Y125038I-3600J0D01*
G01*
Y102372D01*
G75*
G02*
X56219Y100887I-2100J0D01*
G01*
X48345Y93013D01*
G75*
G02*
X46857Y92398I-1485J1485D01*
G01*
X41602D01*
G75*
G02*
X39889Y90561I-4093J2100D01*
G01*
G75*
G02*
Y82687I-2379J-3937D01*
G01*
G75*
G02*
Y74813I-2379J-3937D01*
G01*
G75*
G02*
X41602Y72976I-2379J-3937D01*
G01*
X51404D01*
X60016Y81588D01*
Y111722D01*
G75*
G02*
X60631Y113207I2100J0D01*
G01*
X65552Y118128D01*
G75*
G02*
X67039Y118743I1485J-1485D01*
G01*
X71987D01*
G75*
G02*
X72811Y119567I2924J-2100D01*
G01*
Y148168D01*
G75*
G02*
X71311Y151092I2100J2924D01*
G01*
G75*
G02*
X78511I3600J0D01*
G01*
G75*
G02*
X77011Y148168I-3600J0D01*
G01*
Y119567D01*
G75*
G02*
X77835Y118743I-2100J-2924D01*
G01*
X96904D01*
G75*
G02*
X105743Y116899I4227J-1844D01*
G01*
G75*
G02*
X104567Y113822I-4612J0D01*
G01*
X175911D01*
X179602Y117513D01*
Y137470D01*
G75*
G02*
X180217Y138955I2100J0D01*
G01*
X186743Y145481D01*
G75*
G02*
X186520Y146899I4389J1419D01*
G01*
Y106899D02*
G75*
G02*
X195743I4612J0D01*
G01*
G75*
G02*
X186520I-4612J0D01*
G01*
Y116899D02*
G75*
G02*
X195743I4612J0D01*
G01*
G75*
G02*
X186520I-4612J0D01*
G01*
Y126899D02*
G75*
G02*
X195743I4612J0D01*
G01*
G75*
G02*
X186520I-4612J0D01*
G01*
Y136899D02*
G75*
G02*
X195743I4612J0D01*
G01*
G75*
G02*
X186520I-4612J0D01*
G01*
X65898Y252470D02*
G75*
G02*
X73098I3600J0D01*
G01*
G75*
G02*
X65898I-3600J0D01*
G01*
X186520Y156899D02*
G75*
G02*
X195743I4612J0D01*
G01*
G75*
G02*
X186520I-4612J0D01*
G01*
Y166899D02*
G75*
G02*
X195743I4612J0D01*
G01*
G75*
G02*
X186520I-4612J0D01*
G01*
Y176899D02*
G75*
G02*
X195743I4612J0D01*
G01*
G75*
G02*
X186520I-4612J0D01*
G01*
Y186899D02*
G75*
G02*
X195743I4612J0D01*
G01*
G75*
G02*
X186520I-4612J0D01*
G01*
Y196899D02*
G75*
G02*
X195743I4612J0D01*
G01*
G75*
G02*
X186520I-4612J0D01*
G01*
Y206899D02*
G75*
G02*
X195743I4612J0D01*
G01*
G75*
G02*
X186520I-4612J0D01*
G01*
Y216899D02*
G75*
G02*
X195743I4612J0D01*
G01*
G75*
G02*
X186520I-4612J0D01*
G01*
Y226899D02*
G75*
G02*
X195743I4612J0D01*
G01*
G75*
G02*
X186520I-4612J0D01*
G01*
Y236899D02*
G75*
G02*
X195743I4612J0D01*
G01*
G75*
G02*
X186520I-4612J0D01*
G01*
Y246899D02*
G75*
G02*
X195743I4612J0D01*
G01*
G75*
G02*
X186520I-4612J0D01*
G01*
Y256899D02*
G75*
G02*
X195743I4612J0D01*
G01*
G75*
G02*
X186520I-4612J0D01*
G01*
Y266899D02*
G75*
G02*
X195743I4612J0D01*
G01*
G75*
G02*
X186520I-4612J0D01*
G01*
Y276899D02*
G75*
G02*
X195743I4612J0D01*
G01*
G75*
G02*
X186520I-4612J0D01*
G01*
Y286899D02*
G75*
G02*
X195743I4612J0D01*
G01*
G75*
G02*
X186520I-4612J0D01*
G01*
Y296899D02*
G75*
G02*
X195743I4612J0D01*
G01*
G75*
G02*
X186520I-4612J0D01*
G01*
Y306899D02*
G75*
G02*
X195743I4612J0D01*
G01*
G75*
G02*
X186520I-4612J0D01*
G01*
Y316899D02*
G75*
G02*
X195743I4612J0D01*
G01*
G75*
G02*
X186520I-4612J0D01*
G01*
X209261Y95161D02*
G75*
G02*
X213861Y90561I0J-4600D01*
G01*
G75*
G02*
X209261Y85961I-4600J0D01*
G01*
G75*
G02*
X204661Y90561I0J4600D01*
G01*
G75*
G02*
X209261Y95161I4600J0D01*
G01*
Y132562D02*
G75*
G02*
X213861Y127962I0J-4600D01*
G01*
G75*
G02*
X209261Y123362I-4600J0D01*
G01*
G75*
G02*
X204661Y127962I0J4600D01*
G01*
G75*
G02*
X209261Y132562I4600J0D01*
G01*
X204661Y160009D02*
G75*
G02*
X213861I4600J0D01*
G01*
G75*
G02*
X204661I-4600J0D01*
G01*
Y250009D02*
G75*
G02*
X213861I4600J0D01*
G01*
G75*
G02*
X204661I-4600J0D01*
G01*
X254661Y160009D02*
G75*
G02*
X263861I4600J0D01*
G01*
G75*
G02*
X257852Y155631I-4600J0D01*
G01*
X237936Y135715D01*
Y101880D01*
G75*
G02*
X237321Y100394I-2100J0D01*
G01*
X228699Y91772D01*
G75*
G02*
X224261Y85961I-4437J-1212D01*
G01*
G75*
G02*
X219661Y90561I0J4600D01*
G01*
G75*
G02*
X225861Y94874I4600J0D01*
G01*
X233736Y102749D01*
Y136584D01*
G75*
G02*
X234351Y138069I2100J0D01*
G01*
X254883Y158600D01*
G75*
G02*
X254661Y160009I4379J1409D01*
G01*
X260443Y135958D02*
G75*
G02*
Y122919I0J-6520D01*
G01*
X250600D01*
G75*
G02*
Y135958I0J6520D01*
G01*
X260443D01*
X259950Y111844D02*
G75*
G02*
Y99789I0J-6028D01*
G01*
X251092D01*
G75*
G02*
Y111844I0J6028D01*
G01*
X259950D01*
X284661Y250009D02*
G75*
G02*
X293861I4600J0D01*
G01*
G75*
G02*
X287852Y245631I-4600J0D01*
G01*
X281396Y239174D01*
G75*
G02*
X279909Y238559I-1485J1485D01*
G01*
X233261D01*
X226361Y231659D01*
Y132055D01*
G75*
G02*
X224261Y123362I-2100J-4093D01*
G01*
G75*
G02*
X222161Y132055I0J4600D01*
G01*
Y232529D01*
G75*
G02*
X222776Y234014I2100J0D01*
G01*
X230906Y242144D01*
G75*
G02*
X232394Y242759I1485J-1485D01*
G01*
X279041D01*
X284883Y248600D01*
G75*
G02*
X284661Y250009I4379J1409D01*
G01*
X286846Y84655D02*
G75*
G02*
X296046I4600J0D01*
G01*
G75*
G02*
X286846I-4600J0D01*
G01*
Y94655D02*
G75*
G02*
X296046I4600J0D01*
G01*
G75*
G02*
X286846I-4600J0D01*
G01*
Y104655D02*
G75*
G02*
X296046I4600J0D01*
G01*
G75*
G02*
X286846I-4600J0D01*
G01*
X234661Y160009D02*
G75*
G02*
X243861I4600J0D01*
G01*
G75*
G02*
X234661I-4600J0D01*
G01*
X267998Y122057D02*
G75*
G02*
X280053I6028J0D01*
G01*
Y113198D01*
G75*
G02*
X267998I-6028J0D01*
G01*
Y122057D01*
X244661Y250009D02*
G75*
G02*
X253861I4600J0D01*
G01*
G75*
G02*
X244661I-4600J0D01*
G01*
X24822Y84655D02*
G36*
X24822Y84655D02*
Y39354D01*
G75*
G03*
X31087Y33090I9735J3470D01*
G01*
X296799D01*
G75*
G03*
X302657Y38948I-3384J9242D01*
G01*
Y84655D01*
X296046D01*
G75*
G02*
X286846I-4600J0D01*
G01*
X93743D01*
Y66418D01*
G75*
G02*
X95243Y63494I-2099J-2924D01*
G01*
Y63494D01*
G75*
G02*
X88043I-3600J0D01*
G01*
Y63494D01*
G75*
G02*
X89543Y66418I3599J0D01*
G01*
Y84655D01*
X64216D01*
Y80718D01*
G75*
G02*
X63601Y79233I-2102J0D01*
G01*
X53758Y69391D01*
G75*
G02*
X52271Y68776I-1485J1486D01*
G01*
X41602D01*
G75*
G02*
X39889Y66939I-4090J2097D01*
G01*
G75*
G02*
X42109Y63002I-2379J-3937D01*
G01*
G75*
G02*
X39889Y59065I-4600J0D01*
G01*
G75*
G02*
X42109Y55128I-2378J-3936D01*
G01*
G75*
G02*
X32909Y55128I-4600J-1D01*
G01*
G75*
G02*
X35130Y59065I4599J1D01*
G01*
G75*
G02*
X32909Y63002I2379J3937D01*
G01*
G75*
G02*
X35130Y66939I4600J0D01*
G01*
G75*
G02*
X33414Y68781I2376J3933D01*
G01*
G75*
G02*
X32087Y69391I158J2093D01*
G01*
X29135Y72343D01*
G75*
G02*
X28520Y73828I1487J1485D01*
G01*
Y84655D01*
X24822D01*
G37*
X32720D02*
G36*
X32720Y84655D02*
Y74698D01*
X33809Y73609D01*
G75*
G02*
X35130Y74813I3699J-2732D01*
G01*
G75*
G02*
X32909Y78750I2379J3937D01*
G01*
G75*
G02*
X35130Y82687I4600J0D01*
G01*
G75*
G02*
X33352Y84655I2379J3937D01*
G01*
X32720D01*
G37*
X39889Y74813D02*
G36*
X39889Y74813D02*
G75*
G02*
X41602Y72976I-2377J-3934D01*
G01*
X51404D01*
X60016Y81588D01*
Y84655D01*
X41667D01*
G75*
G02*
X39889Y82687I-4157J1969D01*
G01*
G75*
G02*
X42109Y78750I-2379J-3937D01*
G01*
G75*
G02*
X39889Y74813I-4600J0D01*
G01*
G37*
X24822Y90561D02*
G36*
X24822Y90561D02*
Y84655D01*
X28520D01*
Y90561D01*
X24822D01*
G37*
X32720D02*
G36*
X32720Y90561D02*
Y84655D01*
X33352D01*
G75*
G02*
X32909Y86624I4157J1969D01*
G01*
G75*
G02*
X35130Y90561I4600J0D01*
G01*
X32720D01*
G37*
X42109Y86624D02*
G36*
X42109Y86624D02*
G75*
G02*
X41667Y84655I-4600J0D01*
G01*
X60016D01*
Y90561D01*
X39889D01*
G75*
G02*
X42109Y86624I-2379J-3937D01*
G01*
G37*
X64216Y90561D02*
G36*
X64216Y90561D02*
Y84655D01*
X89543D01*
Y90561D01*
X64216D01*
G37*
X93743D02*
G36*
X93743Y90561D02*
Y84655D01*
X286846D01*
G75*
G02*
X296046I4600J0D01*
G01*
X302657D01*
Y90561D01*
X293543D01*
G75*
G02*
X289350I-2096J4094D01*
G01*
X228861D01*
G75*
G02*
X224261Y85961I-4600J0D01*
G01*
G75*
G02*
X219661Y90560I0J4600D01*
G01*
Y90561D01*
X213861D01*
Y90560D01*
G75*
G02*
X209261Y85961I-4600J0D01*
G01*
G75*
G02*
X204661Y90560I0J4600D01*
G01*
Y90561D01*
X93743D01*
G37*
X24822Y94655D02*
G36*
X24822Y94655D02*
Y90561D01*
X28520D01*
Y94655D01*
X24822D01*
G37*
X32720D02*
G36*
X32720Y94655D02*
Y90561D01*
X35130D01*
G75*
G02*
X32909Y94497I2378J3936D01*
G01*
G75*
G02*
Y94498I4101J0D01*
G01*
G75*
G02*
X32912Y94655I4602J-2D01*
G01*
X32720D01*
G37*
X41602Y92398D02*
G36*
X41602Y92398D02*
G75*
G02*
X39889Y90561I-4090J2097D01*
G01*
X60016D01*
Y94655D01*
X49987D01*
X48345Y93013D01*
G75*
G02*
X46857Y92398I-1485J1486D01*
G01*
X41602D01*
G37*
X64216Y94655D02*
G36*
X64216Y94655D02*
Y90561D01*
X89543D01*
Y94655D01*
X64216D01*
G37*
X93743D02*
G36*
X93743Y94655D02*
Y90561D01*
X204661D01*
Y90561D01*
G75*
G02*
X207165Y94655I4600J0D01*
G01*
X93743D01*
G37*
X213861Y90561D02*
G36*
X213861Y90561D02*
Y90561D01*
X219661D01*
G75*
G02*
X222165Y94655I4600J0D01*
G01*
X211358D01*
G75*
G02*
X213861Y90561I-2096J-4094D01*
G01*
G37*
X228699Y91772D02*
G36*
X228699Y91772D02*
G75*
G02*
X228861Y90561I-4437J-1212D01*
G01*
X289350D01*
G75*
G02*
X286846Y94655I2096J4094D01*
G01*
X231581D01*
X228699Y91772D01*
G37*
X296046Y94655D02*
G36*
X296046Y94655D02*
G75*
G02*
X293543Y90561I-4600J0D01*
G01*
X302657D01*
Y94655D01*
X296046D01*
G37*
X24822Y106899D02*
G36*
X24822Y106899D02*
Y94655D01*
X28520D01*
Y106899D01*
X24822D01*
G37*
X32720D02*
G36*
X32720Y106899D02*
Y94655D01*
X32912D01*
G75*
G02*
X41602Y96598I4597J-157D01*
G01*
X45990D01*
X52634Y103241D01*
Y106899D01*
X32720D01*
G37*
X56219Y100887D02*
G36*
X56219Y100887D02*
X49987Y94655D01*
X60016D01*
Y106899D01*
X56834D01*
Y102372D01*
G75*
G02*
X56219Y100887I-2102J0D01*
G01*
G37*
X64216Y106899D02*
G36*
X64216Y106899D02*
Y94655D01*
X89543D01*
Y104832D01*
G75*
G02*
X90158Y106317I2102J0D01*
G01*
X90740Y106899D01*
X64216D01*
G37*
X93743Y103963D02*
G36*
X93743Y103963D02*
Y94655D01*
X207165D01*
G75*
G02*
X209261Y95161I2096J-4094D01*
G01*
G75*
G02*
X211358Y94655I0J-4600D01*
G01*
X222165D01*
G75*
G02*
X225861Y94874I2096J-4094D01*
G01*
X233736Y102749D01*
Y106899D01*
X195743D01*
G75*
G02*
X186520I-4612J0D01*
G01*
X105743D01*
G75*
G02*
X96522Y106741I-4612J0D01*
G01*
X93743Y103963D01*
G37*
X237321Y100394D02*
G36*
X237321Y100394D02*
X231581Y94655D01*
X286846D01*
G75*
G02*
X296046I4600J0D01*
G01*
X302657D01*
Y106899D01*
X295462D01*
G75*
G02*
X296046Y104655I-4015J-2244D01*
G01*
G75*
G02*
X286846I-4600J0D01*
G01*
G75*
G02*
X287431Y106899I4600J0D01*
G01*
X265880D01*
G75*
G02*
X265978Y105817I-5930J-1083D01*
G01*
G75*
G02*
X259950Y99789I-6028J0D01*
G01*
X251092D01*
G75*
G02*
X245065Y105817I0J6028D01*
G01*
G75*
G02*
X245163Y106899I6028J0D01*
G01*
X237936D01*
Y101880D01*
G75*
G02*
X237321Y100394I-2102J0D01*
G01*
G37*
X24822Y116899D02*
G36*
X24822Y116899D02*
Y106899D01*
X28520D01*
Y116899D01*
X24822D01*
G37*
X32720D02*
G36*
X32720Y116899D02*
Y106899D01*
X52634D01*
Y116899D01*
X32720D01*
G37*
X56834D02*
G36*
X56834Y116899D02*
Y106899D01*
X60016D01*
Y111722D01*
G75*
G02*
X60631Y113207I2102J0D01*
G01*
X64323Y116899D01*
X56834D01*
G37*
X64216Y110852D02*
G36*
X64216Y110852D02*
Y106899D01*
X90740D01*
X97048Y113207D01*
G75*
G02*
X97815Y113695I1483J-1483D01*
G01*
G75*
G02*
X97167Y114543I3310J3199D01*
G01*
X77835D01*
G75*
G02*
X71987I-2924J2100D01*
G01*
X67907D01*
X64216Y110852D01*
G37*
X105743Y116899D02*
G36*
X105743Y116899D02*
G75*
G02*
X104567Y113822I-4613J0D01*
G01*
X175911D01*
X178989Y116899D01*
X105743D01*
G37*
Y106900D02*
G36*
X105743Y106900D02*
G75*
G02*
Y106899I-4511J0D01*
G01*
X186520D01*
G75*
G02*
X195743I4612J0D01*
G01*
X233736D01*
Y116899D01*
X195743D01*
G75*
G02*
X186520I-4612J0D01*
G01*
X183802D01*
Y116643D01*
G75*
G02*
X183187Y115158I-2102J0D01*
G01*
X178266Y110237D01*
G75*
G02*
X176779Y109622I-1485J1486D01*
G01*
X104854D01*
G75*
G02*
X105743Y106900I-3719J-2722D01*
G01*
G37*
X237936Y116899D02*
G36*
X237936Y116899D02*
Y106899D01*
X245163D01*
G75*
G02*
X251092Y111844I5930J-1083D01*
G01*
X259950D01*
G75*
G02*
X265880Y106899I0J-6028D01*
G01*
X287431D01*
G75*
G02*
X295462I4015J-2244D01*
G01*
X302657D01*
Y116899D01*
X280053D01*
Y113198D01*
G75*
G02*
X267998I-6028J0D01*
G01*
Y116899D01*
X237936D01*
G37*
X24822Y126899D02*
G36*
X24822Y126899D02*
Y116899D01*
X28520D01*
Y126899D01*
X24822D01*
G37*
X32720D02*
G36*
X32720Y126899D02*
Y116899D01*
X52634D01*
Y125038D01*
G75*
G02*
X51294Y126899I2099J2923D01*
G01*
X32720D01*
G37*
X56834Y125038D02*
G36*
X56834Y125038D02*
Y116899D01*
X64323D01*
X65552Y118128D01*
G75*
G02*
X67039Y118743I1485J-1486D01*
G01*
X71987D01*
G75*
G02*
X72811Y119567I2917J-2093D01*
G01*
Y126899D01*
X58173D01*
G75*
G02*
X56834Y125038I-3439J1062D01*
G01*
G37*
X77011Y126899D02*
G36*
X77011Y126899D02*
Y119567D01*
G75*
G02*
X77835Y118743I-2093J-2917D01*
G01*
X96904D01*
G75*
G02*
X105743Y116899I4227J-1844D01*
G01*
X178989D01*
X179602Y117513D01*
Y126899D01*
X105743D01*
G75*
G02*
X96520I-4612J0D01*
G01*
X96125D01*
G75*
G02*
X95589Y125985I-2022J571D01*
G01*
X93620Y124017D01*
G75*
G02*
X92133Y123402I-1485J1486D01*
G01*
X85248D01*
G75*
G02*
X83761Y124017I-2J2101D01*
G01*
X81300Y126477D01*
G75*
G02*
X80974Y126899I1487J1485D01*
G01*
X77011D01*
G37*
X183802D02*
G36*
X183802Y126899D02*
Y116899D01*
X186520D01*
G75*
G02*
X195743I4612J0D01*
G01*
X233736D01*
Y126899D01*
X228737D01*
G75*
G02*
X224261Y123362I-4476J1063D01*
G01*
G75*
G02*
X219786Y126899I0J4600D01*
G01*
X213737D01*
G75*
G02*
X209261Y123362I-4475J1063D01*
G01*
G75*
G02*
X204786Y126899I0J4600D01*
G01*
X195743D01*
G75*
G02*
X186520I-4612J0D01*
G01*
X183802D01*
G37*
X237936D02*
G36*
X237936Y126899D02*
Y116899D01*
X267998D01*
Y122057D01*
G75*
G02*
X270436Y126899I6028J0D01*
G01*
X266447D01*
G75*
G02*
X260443Y122919I-6005J2539D01*
G01*
X250600D01*
G75*
G02*
X244595Y126899I0J6520D01*
G01*
X237936D01*
G37*
X280053Y122057D02*
G36*
X280053Y122057D02*
Y116899D01*
X302657D01*
Y126899D01*
X277614D01*
G75*
G02*
X280053Y122057I-3589J-4843D01*
G01*
G37*
X24822Y136899D02*
G36*
X24822Y136899D02*
Y126899D01*
X28520D01*
Y136899D01*
X24822D01*
G37*
X32720D02*
G36*
X32720Y136899D02*
Y126899D01*
X51294D01*
G75*
G02*
X51134Y127962I3439J1063D01*
G01*
Y127962D01*
G75*
G02*
X58334I3600J0D01*
G01*
Y127962D01*
G75*
G02*
X58173Y126899I-3599J1D01*
G01*
X72811D01*
Y136899D01*
X52897D01*
Y136820D01*
G75*
G02*
X52282Y135335I-2102J0D01*
G01*
X49821Y132875D01*
G75*
G02*
X48334Y132260I-1485J1486D01*
G01*
X41602D01*
G75*
G02*
X32909Y134360I-4093J2100D01*
G01*
G75*
G02*
Y134361I4101J0D01*
G01*
G75*
G02*
X33674Y136899I4599J0D01*
G01*
X32720D01*
G37*
X77011D02*
G36*
X77011Y136899D02*
Y126899D01*
X80974D01*
G75*
G02*
X80685Y127962I1813J1063D01*
G01*
Y136899D01*
X77011D01*
G37*
X84885D02*
G36*
X84885Y136899D02*
Y128832D01*
X86047Y127670D01*
G75*
G02*
X85583Y129439I3137J1769D01*
G01*
G75*
G02*
X87083Y132363I3600J0D01*
G01*
Y136899D01*
X84885D01*
G37*
X91283D02*
G36*
X91283Y136899D02*
Y132363D01*
G75*
G02*
X92004Y131675I-2099J-2924D01*
G01*
Y134852D01*
G75*
G02*
X92619Y136337I2102J0D01*
G01*
X93181Y136899D01*
X91283D01*
G37*
X96204Y127470D02*
G36*
X96204Y127470D02*
G75*
G02*
X96125Y126899I-2102J0D01*
G01*
X96520D01*
G75*
G02*
X105743I4612J0D01*
G01*
X179602D01*
Y136899D01*
X105743D01*
G75*
G02*
X97026Y134799I-4612J0D01*
G01*
X97021D01*
X96204Y133982D01*
Y127470D01*
G37*
X183802Y136600D02*
G36*
X183802Y136600D02*
Y126899D01*
X186520D01*
G75*
G02*
X195743I4612J0D01*
G01*
X204786D01*
G75*
G02*
X204661Y127962I4475J1063D01*
G01*
Y127962D01*
Y127963D01*
G75*
G02*
X209261Y132562I4600J0D01*
G01*
G75*
G02*
X213861Y127963I0J-4600D01*
G01*
Y127962D01*
Y127962D01*
G75*
G02*
X213737Y126899I-4599J0D01*
G01*
X219786D01*
G75*
G02*
X219661Y127962I4476J1063D01*
G01*
G75*
G02*
X222161Y132055I4600J0D01*
G01*
Y136899D01*
X195743D01*
G75*
G02*
X186520I-4612J0D01*
G01*
X184101D01*
X183802Y136600D01*
G37*
X226361Y136899D02*
G36*
X226361Y136899D02*
Y132055D01*
G75*
G02*
X228861Y127962I-2100J-4093D01*
G01*
G75*
G02*
X228737Y126899I-4600J0D01*
G01*
X233736D01*
Y136584D01*
G75*
G02*
X233760Y136899I2101J1D01*
G01*
X226361D01*
G37*
X237936Y135715D02*
G36*
X237936Y135715D02*
Y126899D01*
X244595D01*
G75*
G02*
X244080Y129439I6005J2540D01*
G01*
G75*
G02*
X250600Y135958I6520J0D01*
G01*
X260443D01*
G75*
G02*
X266962Y129439I0J-6520D01*
G01*
G75*
G02*
X266447Y126899I-6520J0D01*
G01*
X270436D01*
G75*
G02*
X277614I3589J-4843D01*
G01*
X302657D01*
Y136899D01*
X239121D01*
X237936Y135715D01*
G37*
X24822Y146899D02*
G36*
X24822Y146899D02*
Y136899D01*
X28520D01*
Y146899D01*
X24822D01*
G37*
X32720Y146285D02*
G36*
X32720Y146285D02*
Y136899D01*
X33674D01*
G75*
G02*
X35130Y138297I3834J-2539D01*
G01*
G75*
G02*
X32909Y142234I2379J3937D01*
G01*
G75*
G02*
X35130Y146171I4600J0D01*
G01*
G75*
G02*
X34213Y146899I2378J3936D01*
G01*
X33334D01*
X32720Y146285D01*
G37*
X40806Y146899D02*
G36*
X40806Y146899D02*
G75*
G02*
X39889Y146171I-3296J3209D01*
G01*
G75*
G02*
X41602Y144334I-2377J-3934D01*
G01*
X45006D01*
X45252Y144580D01*
Y146899D01*
X40806D01*
G37*
X52897D02*
G36*
X52897Y146899D02*
Y136899D01*
X72811D01*
Y146899D01*
X52897D01*
G37*
X77011D02*
G36*
X77011Y146899D02*
Y136899D01*
X80685D01*
Y146899D01*
X77011D01*
G37*
X84885D02*
G36*
X84885Y146899D02*
Y136899D01*
X87083D01*
Y146899D01*
X84885D01*
G37*
X91283D02*
G36*
X91283Y146899D02*
Y136899D01*
X93181D01*
X94666Y138384D01*
G75*
G02*
X96154Y138999I1485J-1486D01*
G01*
X97026D01*
G75*
G02*
X105743Y136899I4106J-2100D01*
G01*
X179602D01*
Y137470D01*
G75*
G02*
X180217Y138955I2102J0D01*
G01*
X186743Y145481D01*
G75*
G02*
X186520Y146899I4390J1419D01*
G01*
X105743D01*
G75*
G02*
X96520I-4612J0D01*
G01*
X91283D01*
G37*
X184101Y136899D02*
G36*
X184101Y136899D02*
X186520D01*
G75*
G02*
X195743I4612J0D01*
G01*
X222161D01*
Y146899D01*
X195743D01*
G75*
G02*
X189713Y142511I-4612J1D01*
G01*
X184101Y136899D01*
G37*
X226361Y146899D02*
G36*
X226361Y146899D02*
Y136899D01*
X233760D01*
G75*
G02*
X234351Y138069I2078J-316D01*
G01*
X243181Y146899D01*
X226361D01*
G37*
X249121D02*
G36*
X249121Y146899D02*
X239121Y136899D01*
X302657D01*
Y146899D01*
X249121D01*
G37*
X24822Y156899D02*
G36*
X24822Y156899D02*
Y146899D01*
X28520D01*
Y147155D01*
G75*
G02*
X29135Y148640I2102J0D01*
G01*
X30357Y149862D01*
X29135Y151083D01*
G75*
G02*
X28520Y152569I1487J1485D01*
G01*
Y156899D01*
X24822D01*
G37*
X32720D02*
G36*
X32720Y156899D02*
Y153438D01*
X33610Y152548D01*
G75*
G02*
X35130Y154045I3903J-2444D01*
G01*
G75*
G02*
X33039Y156899I2379J3937D01*
G01*
X32720D01*
G37*
X33809Y147375D02*
G36*
X33809Y147375D02*
X33334Y146899D01*
X34213D01*
G75*
G02*
X33809Y147375I3296J3208D01*
G01*
G37*
X41980Y156899D02*
G36*
X41980Y156899D02*
G75*
G02*
X39889Y154045I-4471J1083D01*
G01*
G75*
G02*
X42109Y150108I-2379J-3937D01*
G01*
G75*
G02*
X40806Y146899I-4600J0D01*
G01*
X45252D01*
Y156899D01*
X41980D01*
G37*
X52897D02*
G36*
X52897Y156899D02*
Y146899D01*
X72811D01*
Y148168D01*
G75*
G02*
X71311Y151092I2099J2924D01*
G01*
Y151092D01*
G75*
G02*
X78511I3600J0D01*
G01*
Y151092D01*
G75*
G02*
X77011Y148168I-3599J0D01*
G01*
Y146899D01*
X80685D01*
Y155550D01*
G75*
G02*
X79548Y156899I2099J2924D01*
G01*
X52897D01*
G37*
X84885Y155550D02*
G36*
X84885Y155550D02*
Y146899D01*
X87083D01*
Y156899D01*
X86022D01*
G75*
G02*
X84885Y155550I-3237J1574D01*
G01*
G37*
X91283Y156899D02*
G36*
X91283Y156899D02*
Y146899D01*
X96520D01*
G75*
G02*
X105743I4612J0D01*
G01*
X186520D01*
G75*
G02*
X195743I4612J0D01*
G01*
X222161D01*
Y156899D01*
X212650D01*
G75*
G02*
X205872I-3389J3110D01*
G01*
X195743D01*
G75*
G02*
X186520I-4612J0D01*
G01*
X105743D01*
G75*
G02*
X96520I-4612J0D01*
G01*
X91283D01*
G37*
X226361D02*
G36*
X226361Y156899D02*
Y146899D01*
X243181D01*
X253181Y156899D01*
X242650D01*
G75*
G02*
X235872I-3389J3110D01*
G01*
X226361D01*
G37*
X257852Y155631D02*
G36*
X257852Y155631D02*
X249121Y146899D01*
X302657D01*
Y156899D01*
X262651D01*
G75*
G02*
X257852Y155631I-3389J3110D01*
G01*
G37*
X24822Y166899D02*
G36*
X24822Y166899D02*
Y156899D01*
X28520D01*
Y166899D01*
X24822D01*
G37*
X32720D02*
G36*
X32720Y166899D02*
Y156899D01*
X33039D01*
G75*
G02*
X32909Y157982I4471J1082D01*
G01*
G75*
G02*
X35130Y161919I4600J0D01*
G01*
G75*
G02*
X32909Y165856I2379J3937D01*
G01*
G75*
G02*
X33029Y166899I4600J1D01*
G01*
X32720D01*
G37*
X42109Y157982D02*
G36*
X42109Y157982D02*
G75*
G02*
X41980Y156899I-4600J0D01*
G01*
X45252D01*
Y166899D01*
X41990D01*
G75*
G02*
X42109Y165856I-4481J-1043D01*
G01*
G75*
G02*
X39889Y161919I-4600J0D01*
G01*
G75*
G02*
X42109Y157982I-2379J-3937D01*
G01*
G37*
X52897Y166899D02*
G36*
X52897Y166899D02*
Y156899D01*
X79548D01*
G75*
G02*
X79185Y158474I3237J1574D01*
G01*
Y158474D01*
G75*
G02*
X86385I3600J0D01*
G01*
Y158474D01*
G75*
G02*
X86022Y156899I-3599J0D01*
G01*
X87083D01*
Y161456D01*
G75*
G02*
X85583Y164380I2100J2924D01*
G01*
G75*
G02*
X86611Y166899I3600J0D01*
G01*
X52897D01*
G37*
X91283Y161456D02*
G36*
X91283Y161456D02*
Y156899D01*
X96520D01*
G75*
G02*
X105743I4612J0D01*
G01*
X186520D01*
G75*
G02*
X195743I4612J0D01*
G01*
X205872D01*
G75*
G02*
X204661Y160009I3389J3111D01*
G01*
G75*
G02*
X213861I4600J0D01*
G01*
G75*
G02*
X212650Y156899I-4600J0D01*
G01*
X222161D01*
Y166899D01*
X195743D01*
G75*
G02*
X186520I-4612J0D01*
G01*
X105743D01*
G75*
G02*
X96520I-4612J0D01*
G01*
X91754D01*
G75*
G02*
X92783Y164380I-2571J-2520D01*
G01*
G75*
G02*
X91283Y161456I-3600J0D01*
G01*
G37*
X226361Y166899D02*
G36*
X226361Y166899D02*
Y156899D01*
X235872D01*
G75*
G02*
X234661Y160009I3389J3111D01*
G01*
G75*
G02*
X243861I4600J0D01*
G01*
G75*
G02*
X242650Y156899I-4600J0D01*
G01*
X253181D01*
X254883Y158600D01*
G75*
G02*
X254661Y160007I4362J1407D01*
G01*
G75*
G02*
Y160009I5013J1D01*
G01*
G75*
G02*
X263861I4600J0D01*
G01*
G75*
G02*
X262651Y156899I-4600J0D01*
G01*
X302657D01*
Y166899D01*
X226361D01*
G37*
X24822Y176899D02*
G36*
X24822Y176899D02*
Y166899D01*
X28520D01*
Y176899D01*
X24822D01*
G37*
X32720D02*
G36*
X32720Y176899D02*
Y166899D01*
X33029D01*
G75*
G02*
X35130Y169793I4480J-1044D01*
G01*
G75*
G02*
X32909Y173729I2378J3936D01*
G01*
G75*
G02*
Y173730I4101J0D01*
G01*
G75*
G02*
X34176Y176899I4600J0D01*
G01*
X32720D01*
G37*
X39889Y169793D02*
G36*
X39889Y169793D02*
G75*
G02*
X41990Y166899I-2379J-3937D01*
G01*
X45252D01*
Y176899D01*
X40843D01*
G75*
G02*
X42109Y173730I-3334J-3169D01*
G01*
G75*
G02*
Y173729I-4101J0D01*
G01*
G75*
G02*
X39889Y169793I-4599J0D01*
G01*
G37*
X52897Y176797D02*
G36*
X52897Y176797D02*
Y166899D01*
X86611D01*
G75*
G02*
X87083Y167304I2571J-2520D01*
G01*
Y176899D01*
X64455D01*
G75*
G02*
X59776I-2339J2736D01*
G01*
X52999D01*
X52897Y176797D01*
G37*
X91283Y176899D02*
G36*
X91283Y176899D02*
Y167304D01*
G75*
G02*
X91754Y166899I-2100J-2924D01*
G01*
X96520D01*
G75*
G02*
X105743I4612J0D01*
G01*
X186520D01*
G75*
G02*
X195743I4612J0D01*
G01*
X222161D01*
Y176899D01*
X195743D01*
G75*
G02*
X186520I-4612J0D01*
G01*
X105743D01*
G75*
G02*
X96520I-4612J0D01*
G01*
X91283D01*
G37*
X226361D02*
G36*
X226361Y176899D02*
Y166899D01*
X302657D01*
Y176899D01*
X226361D01*
G37*
X24822Y186899D02*
G36*
X24822Y186899D02*
Y176899D01*
X28520D01*
Y186899D01*
X24822D01*
G37*
X32720D02*
G36*
X32720Y186899D02*
Y176899D01*
X34176D01*
G75*
G02*
X40843I3334J-3169D01*
G01*
X45252D01*
Y186525D01*
G75*
G02*
X45285Y186899I2102J0D01*
G01*
X32720D01*
G37*
X49452Y185656D02*
G36*
X49452Y185656D02*
Y179292D01*
X51280Y181120D01*
G75*
G02*
X52768Y181735I1485J-1486D01*
G01*
X59192D01*
G75*
G02*
X65716Y179635I2924J-2100D01*
G01*
G75*
G02*
X64455Y176899I-3600J0D01*
G01*
X87083D01*
Y186899D01*
X65343D01*
G75*
G02*
X59192Y186394I-3228J1594D01*
G01*
X50190D01*
X49452Y185656D01*
G37*
X53635Y177535D02*
G36*
X53635Y177535D02*
X52999Y176899D01*
X59776D01*
G75*
G02*
X59192Y177535I2339J2737D01*
G01*
X53635D01*
G37*
X91283Y186899D02*
G36*
X91283Y186899D02*
Y176899D01*
X96520D01*
G75*
G02*
X105743I4612J0D01*
G01*
X186520D01*
G75*
G02*
X195743I4612J0D01*
G01*
X222161D01*
Y186899D01*
X195743D01*
G75*
G02*
X186520I-4612J0D01*
G01*
X105743D01*
G75*
G02*
X96520I-4612J0D01*
G01*
X91283D01*
G37*
X226361D02*
G36*
X226361Y186899D02*
Y176899D01*
X302657D01*
Y186899D01*
X226361D01*
G37*
X24822Y196899D02*
G36*
X24822Y196899D02*
Y186899D01*
X28520D01*
Y196899D01*
X24822D01*
G37*
X32720D02*
G36*
X32720Y196899D02*
Y186899D01*
X45285D01*
G75*
G02*
X45867Y188010I2068J-374D01*
G01*
X47835Y189979D01*
G75*
G02*
X49323Y190594I1485J-1486D01*
G01*
X59192D01*
G75*
G02*
X65716Y188494I2924J-2100D01*
G01*
G75*
G02*
X65343Y186899I-3600J0D01*
G01*
X87083D01*
Y196899D01*
X32720D01*
G37*
X91283D02*
G36*
X91283Y196899D02*
Y186899D01*
X96520D01*
G75*
G02*
X105743I4612J0D01*
G01*
X186520D01*
G75*
G02*
X195743I4612J0D01*
G01*
X222161D01*
Y196899D01*
X195743D01*
G75*
G02*
X186520I-4612J0D01*
G01*
X105743D01*
G75*
G02*
X96520I-4612J0D01*
G01*
X91283D01*
G37*
X226361D02*
G36*
X226361Y196899D02*
Y186899D01*
X302657D01*
Y196899D01*
X226361D01*
G37*
X24822Y206899D02*
G36*
X24822Y206899D02*
Y196899D01*
X28520D01*
Y206899D01*
X24822D01*
G37*
X32720D02*
G36*
X32720Y206899D02*
Y196899D01*
X87083D01*
Y206899D01*
X32720D01*
G37*
X91283D02*
G36*
X91283Y206899D02*
Y196899D01*
X96520D01*
G75*
G02*
X105743I4612J0D01*
G01*
X186520D01*
G75*
G02*
X195743I4612J0D01*
G01*
X222161D01*
Y206899D01*
X195743D01*
G75*
G02*
X186520I-4612J0D01*
G01*
X105743D01*
G75*
G02*
X96520I-4612J0D01*
G01*
X91283D01*
G37*
X226361D02*
G36*
X226361Y206899D02*
Y196899D01*
X302657D01*
Y206899D01*
X226361D01*
G37*
X24822Y216899D02*
G36*
X24822Y216899D02*
Y206899D01*
X28520D01*
Y216899D01*
X24822D01*
G37*
X32720D02*
G36*
X32720Y216899D02*
Y206899D01*
X87083D01*
Y216899D01*
X40707D01*
G75*
G02*
X42109Y213593I-3196J-3306D01*
G01*
G75*
G02*
Y213592I-4101J0D01*
G01*
G75*
G02*
X32909I-4600J0D01*
G01*
G75*
G02*
Y213593I4101J0D01*
G01*
G75*
G02*
X34312Y216899I4599J0D01*
G01*
X32720D01*
G37*
X91283D02*
G36*
X91283Y216899D02*
Y206899D01*
X96520D01*
G75*
G02*
X105743I4612J0D01*
G01*
X186520D01*
G75*
G02*
X195743I4612J0D01*
G01*
X222161D01*
Y216899D01*
X195743D01*
G75*
G02*
X186520I-4612J0D01*
G01*
X105743D01*
G75*
G02*
X96520I-4612J0D01*
G01*
X91283D01*
G37*
X226361D02*
G36*
X226361Y216899D02*
Y206899D01*
X302657D01*
Y216899D01*
X226361D01*
G37*
X24822Y226899D02*
G36*
X24822Y226899D02*
Y216899D01*
X28520D01*
Y226899D01*
X24822D01*
G37*
X32720Y226502D02*
G36*
X32720Y226502D02*
Y216899D01*
X34312D01*
G75*
G02*
X35130Y217529I3196J-3306D01*
G01*
G75*
G02*
X32909Y221466I2379J3937D01*
G01*
G75*
G02*
X35130Y225403I4600J0D01*
G01*
G75*
G02*
X33611Y226899I2383J3941D01*
G01*
X33117D01*
X32720Y226502D01*
G37*
X39889Y217529D02*
G36*
X39889Y217529D02*
G75*
G02*
X40707Y216899I-2378J-3936D01*
G01*
X87083D01*
Y226899D01*
X41408D01*
G75*
G02*
X39889Y225403I-3899J2441D01*
G01*
G75*
G02*
X42109Y221466I-2379J-3937D01*
G01*
G75*
G02*
X39889Y217529I-4600J0D01*
G01*
G37*
X91283Y226899D02*
G36*
X91283Y226899D02*
Y216899D01*
X96520D01*
G75*
G02*
X105743I4612J0D01*
G01*
X186520D01*
G75*
G02*
X195743I4612J0D01*
G01*
X222161D01*
Y226899D01*
X195743D01*
G75*
G02*
X186520I-4612J0D01*
G01*
X105743D01*
G75*
G02*
X96520I-4612J0D01*
G01*
X91283D01*
G37*
X226361D02*
G36*
X226361Y226899D02*
Y216899D01*
X302657D01*
Y226899D01*
X226361D01*
G37*
X24822Y236899D02*
G36*
X24822Y236899D02*
Y226899D01*
X28520D01*
Y227372D01*
G75*
G02*
X29135Y228857I2102J0D01*
G01*
X30111Y229832D01*
X29135Y230808D01*
G75*
G02*
X28520Y232293I1487J1485D01*
G01*
Y236899D01*
X24822D01*
G37*
X32720D02*
G36*
X32720Y236899D02*
Y233163D01*
X33809Y232073D01*
G75*
G02*
X35130Y233277I3699J-2732D01*
G01*
G75*
G02*
X32920Y236899I2379J3937D01*
G01*
X32720D01*
G37*
X33431Y227213D02*
G36*
X33431Y227213D02*
X33117Y226899D01*
X33611D01*
G75*
G02*
X33431Y227213I3903J2446D01*
G01*
G37*
X42099Y236899D02*
G36*
X42099Y236899D02*
G75*
G02*
X39889Y233277I-4589J315D01*
G01*
G75*
G02*
X42109Y229340I-2379J-3937D01*
G01*
G75*
G02*
X41408Y226899I-4600J0D01*
G01*
X87083D01*
Y236899D01*
X42099D01*
G37*
X91283D02*
G36*
X91283Y236899D02*
Y226899D01*
X96520D01*
G75*
G02*
X105743I4612J0D01*
G01*
X186520D01*
G75*
G02*
X195743I4612J0D01*
G01*
X222161D01*
Y232529D01*
G75*
G02*
X222776Y234014I2102J0D01*
G01*
X225661Y236899D01*
X195743D01*
G75*
G02*
X186520I-4612J0D01*
G01*
X105743D01*
G75*
G02*
X96520I-4612J0D01*
G01*
X91283D01*
G37*
X226361Y231659D02*
G36*
X226361Y231659D02*
Y226899D01*
X302657D01*
Y236899D01*
X231601D01*
X226361Y231659D01*
G37*
X24822Y246899D02*
G36*
X24822Y246899D02*
Y236899D01*
X28520D01*
Y246899D01*
X24822D01*
G37*
X32720D02*
G36*
X32720Y246899D02*
Y236899D01*
X32920D01*
G75*
G02*
X32909Y237214I4589J313D01*
G01*
G75*
G02*
X35130Y241151I4600J0D01*
G01*
G75*
G02*
X32909Y245088I2379J3937D01*
G01*
G75*
G02*
X33281Y246899I4600J0D01*
G01*
X32720D01*
G37*
X41602Y242988D02*
G36*
X41602Y242988D02*
G75*
G02*
X39889Y241151I-4090J2097D01*
G01*
G75*
G02*
X42109Y237214I-2379J-3937D01*
G01*
G75*
G02*
X42099Y236899I-4600J-2D01*
G01*
X87083D01*
Y240962D01*
G75*
G02*
X85583Y243886I2100J2924D01*
G01*
G75*
G02*
X87202Y246892I3600J0D01*
G01*
Y246899D01*
X55086D01*
X51790Y243603D01*
G75*
G02*
X50302Y242988I-1485J1486D01*
G01*
X41602D01*
G37*
X91283Y240962D02*
G36*
X91283Y240962D02*
Y236899D01*
X96520D01*
G75*
G02*
X105743I4612J0D01*
G01*
X186520D01*
G75*
G02*
X195743I4612J0D01*
G01*
X225661D01*
X230906Y242144D01*
G75*
G02*
X232394Y242759I1485J-1486D01*
G01*
X279041D01*
X283181Y246899D01*
X252650D01*
G75*
G02*
X245872I-3389J3110D01*
G01*
X212650D01*
G75*
G02*
X205872I-3389J3110D01*
G01*
X195743D01*
G75*
G02*
X186520I-4612J0D01*
G01*
X105743D01*
G75*
G02*
X96520I-4612J0D01*
G01*
X91402D01*
Y246721D01*
G75*
G02*
X92783Y243886I-2219J-2835D01*
G01*
G75*
G02*
X91283Y240962I-3600J0D01*
G01*
G37*
X233261Y238559D02*
G36*
X233261Y238559D02*
X231601Y236899D01*
X302657D01*
Y246899D01*
X292651D01*
G75*
G02*
X287852Y245631I-3389J3110D01*
G01*
X281396Y239174D01*
G75*
G02*
X279909Y238559I-1485J1486D01*
G01*
X233261D01*
G37*
X24822Y252470D02*
G36*
X24822Y252470D02*
Y246899D01*
X28520D01*
Y252470D01*
X24822D01*
G37*
X32720D02*
G36*
X32720Y252470D02*
Y246899D01*
X33281D01*
G75*
G02*
X35130Y249025I4228J-1811D01*
G01*
G75*
G02*
X32936Y252470I2378J3936D01*
G01*
X32720D01*
G37*
X39889Y249025D02*
G36*
X39889Y249025D02*
G75*
G02*
X41602Y247188I-2377J-3934D01*
G01*
X49435D01*
X52634Y250387D01*
Y252470D01*
X42083D01*
G75*
G02*
X39889Y249025I-4572J491D01*
G01*
G37*
X56219Y248032D02*
G36*
X56219Y248032D02*
X55086Y246899D01*
X87202D01*
Y252470D01*
X73098D01*
G75*
G02*
X65898I-3600J0D01*
G01*
X56834D01*
Y249517D01*
G75*
G02*
X56219Y248032I-2102J0D01*
G01*
G37*
X91402Y252470D02*
G36*
X91402Y252470D02*
Y246899D01*
X96520D01*
G75*
G02*
X105743I4612J0D01*
G01*
X186520D01*
G75*
G02*
X195743I4612J0D01*
G01*
X205872D01*
G75*
G02*
X204661Y250009I3389J3111D01*
G01*
G75*
G02*
X205375Y252470I4600J0D01*
G01*
X192417D01*
G75*
G02*
X189846I-1285J4429D01*
G01*
X102417D01*
G75*
G02*
X99846I-1285J4429D01*
G01*
X91402D01*
G37*
X213861Y250009D02*
G36*
X213861Y250009D02*
G75*
G02*
X212650Y246899I-4600J0D01*
G01*
X245872D01*
G75*
G02*
X244661Y250009I3389J3111D01*
G01*
G75*
G02*
X245375Y252470I4600J0D01*
G01*
X213148D01*
G75*
G02*
X213861Y250009I-3887J-2461D01*
G01*
G37*
X253861D02*
G36*
X253861Y250009D02*
G75*
G02*
X252650Y246899I-4600J0D01*
G01*
X283181D01*
X284883Y248600D01*
G75*
G02*
X284661Y250007I4362J1407D01*
G01*
G75*
G02*
Y250009I5013J1D01*
G01*
G75*
G02*
X285375Y252470I4600J0D01*
G01*
X253148D01*
G75*
G02*
X253861Y250009I-3887J-2461D01*
G01*
G37*
X293148Y252470D02*
G36*
X293148Y252470D02*
G75*
G02*
X293861Y250009I-3887J-2461D01*
G01*
G75*
G02*
X292651Y246899I-4600J0D01*
G01*
X302657D01*
Y252470D01*
X293148D01*
G37*
X24822Y256899D02*
G36*
X24822Y256899D02*
Y252470D01*
X28520D01*
Y256899D01*
X24822D01*
G37*
X32720D02*
G36*
X32720Y256899D02*
Y252470D01*
X32936D01*
G75*
G02*
X32909Y252961I4573J492D01*
G01*
G75*
G02*
Y252962I4101J0D01*
G01*
G75*
G02*
X35130Y256899I4600J0D01*
G01*
X32720D01*
G37*
X39889D02*
G36*
X39889Y256899D02*
G75*
G02*
X42109Y252962I-2379J-3937D01*
G01*
G75*
G02*
Y252961I-4101J0D01*
G01*
G75*
G02*
X42083Y252470I-4600J0D01*
G01*
X52634D01*
Y256899D01*
X39889D01*
G37*
X56834D02*
G36*
X56834Y256899D02*
Y252470D01*
X65898D01*
G75*
G02*
X73098I3600J0D01*
G01*
X87202D01*
Y256899D01*
X84726D01*
G75*
G02*
X81238I-1744J3150D01*
G01*
X56834D01*
G37*
X91402D02*
G36*
X91402Y256899D02*
Y252470D01*
X99846D01*
G75*
G02*
X96520Y256899I1285J4429D01*
G01*
X91402D01*
G37*
X105743D02*
G36*
X105743Y256899D02*
G75*
G02*
X102417Y252470I-4612J0D01*
G01*
X189846D01*
G75*
G02*
X186520Y256899I1285J4429D01*
G01*
X105743D01*
G37*
X195743D02*
G36*
X195743Y256899D02*
G75*
G02*
X192417Y252470I-4612J0D01*
G01*
X205375D01*
G75*
G02*
X213148I3887J-2461D01*
G01*
X245375D01*
G75*
G02*
X253148I3887J-2461D01*
G01*
X285375D01*
G75*
G02*
X293148I3887J-2461D01*
G01*
X302657D01*
Y256899D01*
X195743D01*
G37*
X24822Y260049D02*
G36*
X24822Y260049D02*
Y256899D01*
X28520D01*
Y260049D01*
X24822D01*
G37*
X32720D02*
G36*
X32720Y260049D02*
Y256899D01*
X35130D01*
G75*
G02*
X39889I2379J-3937D01*
G01*
X52634D01*
Y258404D01*
G75*
G02*
X51369Y260049I2099J2924D01*
G01*
X32720D01*
G37*
X56834Y258404D02*
G36*
X56834Y258404D02*
Y256899D01*
X81238D01*
G75*
G02*
X79382Y260049I1744J3150D01*
G01*
X58099D01*
G75*
G02*
X56834Y258404I-3364J1279D01*
G01*
G37*
X86582Y260049D02*
G36*
X86582Y260049D02*
G75*
G02*
X84726Y256899I-3600J0D01*
G01*
X87202D01*
Y260049D01*
X86582D01*
G37*
X91402D02*
G36*
X91402Y260049D02*
Y256899D01*
X96520D01*
G75*
G02*
X97763Y260049I4612J0D01*
G01*
X91402D01*
G37*
X104500D02*
G36*
X104500Y260049D02*
G75*
G02*
X105743Y256899I-3369J-3150D01*
G01*
X186520D01*
G75*
G02*
X187763Y260049I4612J0D01*
G01*
X104500D01*
G37*
X194500D02*
G36*
X194500Y260049D02*
G75*
G02*
X195743Y256899I-3369J-3150D01*
G01*
X302657D01*
Y260049D01*
X194500D01*
G37*
X24822Y266899D02*
G36*
X24822Y266899D02*
Y260049D01*
X28520D01*
Y266899D01*
X24822D01*
G37*
X32720D02*
G36*
X32720Y266899D02*
Y260049D01*
X51369D01*
G75*
G02*
X51134Y261328I3364J1280D01*
G01*
Y261328D01*
G75*
G02*
X58334I3600J0D01*
G01*
Y261328D01*
G75*
G02*
X58099Y260049I-3599J0D01*
G01*
X79382D01*
G75*
G02*
X86582I3600J0D01*
G01*
X87202D01*
Y266899D01*
X85436D01*
G75*
G02*
X79422I-3007J1979D01*
G01*
X32720D01*
G37*
X91402D02*
G36*
X91402Y266899D02*
Y260049D01*
X97763D01*
G75*
G02*
X104500I3369J-3150D01*
G01*
X187763D01*
G75*
G02*
X194500I3369J-3150D01*
G01*
X302657D01*
Y266899D01*
X195743D01*
G75*
G02*
X186520I-4612J0D01*
G01*
X105743D01*
G75*
G02*
X96520I-4612J0D01*
G01*
X91402D01*
G37*
X24822Y278394D02*
G36*
X24822Y278394D02*
Y266899D01*
X28520D01*
Y278394D01*
X24822D01*
G37*
X32720D02*
G36*
X32720Y278394D02*
Y266899D01*
X79422D01*
G75*
G02*
X78829Y268878I3007J1979D01*
G01*
Y268879D01*
G75*
G02*
X80329Y271802I3599J0D01*
G01*
Y278394D01*
X32720D01*
G37*
X84529D02*
G36*
X84529Y278394D02*
Y271802D01*
G75*
G02*
X86029Y268879I-2099J-2924D01*
G01*
Y268878D01*
G75*
G02*
X85436Y266899I-3600J0D01*
G01*
X87202D01*
Y276219D01*
G75*
G02*
X85780Y278394I2099J2924D01*
G01*
X84529D01*
G37*
X91402Y276219D02*
G36*
X91402Y276219D02*
Y266899D01*
X96520D01*
G75*
G02*
X105743I4612J0D01*
G01*
X186520D01*
G75*
G02*
X195743I4612J0D01*
G01*
X302657D01*
Y278394D01*
X195494D01*
G75*
G02*
X195743Y276899I-4363J-1496D01*
G01*
G75*
G02*
X186520I-4612J0D01*
G01*
G75*
G02*
X186769Y278394I4612J0D01*
G01*
X105494D01*
G75*
G02*
X105743Y276899I-4363J-1496D01*
G01*
G75*
G02*
X96520I-4612J0D01*
G01*
G75*
G02*
X96769Y278394I4612J0D01*
G01*
X92823D01*
G75*
G02*
X91402Y276219I-3520J748D01*
G01*
G37*
X24822Y286899D02*
G36*
X24822Y286899D02*
Y278394D01*
X28520D01*
Y286899D01*
X24822D01*
G37*
X32720D02*
G36*
X32720Y286899D02*
Y278394D01*
X80329D01*
Y285748D01*
G75*
G02*
X80672Y286899I2102J0D01*
G01*
X32720D01*
G37*
X84529Y284878D02*
G36*
X84529Y284878D02*
Y278394D01*
X85780D01*
G75*
G02*
X85702Y279143I3521J749D01*
G01*
Y279143D01*
G75*
G02*
X92902I3600J0D01*
G01*
Y279143D01*
G75*
G02*
X92823Y278394I-3600J0D01*
G01*
X96769D01*
G75*
G02*
X105494I4363J-1495D01*
G01*
X186769D01*
G75*
G02*
X195494I4363J-1495D01*
G01*
X302657D01*
Y286899D01*
X195743D01*
G75*
G02*
X186520I-4612J0D01*
G01*
X105743D01*
G75*
G02*
X96977Y284898I-4612J0D01*
G01*
X84548D01*
X84529Y284878D01*
G37*
X24822Y296899D02*
G36*
X24822Y296899D02*
Y286899D01*
X28520D01*
Y296899D01*
X24822D01*
G37*
X32720D02*
G36*
X32720Y296899D02*
Y286899D01*
X80672D01*
G75*
G02*
X80944Y287233I1758J-1151D01*
G01*
X82193Y288483D01*
G75*
G02*
X83681Y289098I1485J-1486D01*
G01*
X97078D01*
G75*
G02*
X105743Y286899I4054J-2198D01*
G01*
X186520D01*
G75*
G02*
X195743I4612J0D01*
G01*
X302657D01*
Y296899D01*
X195743D01*
G75*
G02*
X186520I-4612J0D01*
G01*
X105743D01*
G75*
G02*
X96520I-4612J0D01*
G01*
X40103D01*
G75*
G02*
X39889Y296761I-2592J3800D01*
G01*
G75*
G02*
X41602Y294924I-2377J-3934D01*
G01*
X60176D01*
G75*
G02*
X66700Y292824I2924J-2100D01*
G01*
G75*
G02*
X60176Y290724I-3600J0D01*
G01*
X41602D01*
G75*
G02*
X32909Y292824I-4093J2100D01*
G01*
G75*
G02*
Y292825I4101J0D01*
G01*
G75*
G02*
X35130Y296761I4599J0D01*
G01*
G75*
G02*
X34916Y296899I2380J3941D01*
G01*
X32720D01*
G37*
X24822Y306899D02*
G36*
X24822Y306899D02*
Y296899D01*
X28520D01*
Y305620D01*
G75*
G02*
X28954Y306899I2101J0D01*
G01*
X24822D01*
G37*
X32720Y304750D02*
G36*
X32720Y304750D02*
Y296899D01*
X34916D01*
G75*
G02*
X32909Y300698I2594J3799D01*
G01*
G75*
G02*
X35130Y304635I4600J0D01*
G01*
G75*
G02*
X33809Y305839I2378J3936D01*
G01*
X32720Y304750D01*
G37*
X41602Y298598D02*
G36*
X41602Y298598D02*
G75*
G02*
X40103Y296899I-4090J2097D01*
G01*
X96520D01*
G75*
G02*
X105743I4612J0D01*
G01*
X186520D01*
G75*
G02*
X195743I4612J0D01*
G01*
X302657D01*
Y306899D01*
X195743D01*
G75*
G02*
X186520I-4612J0D01*
G01*
X105743D01*
G75*
G02*
X96520I-4612J0D01*
G01*
X41794D01*
G75*
G02*
X39889Y304635I-4285J1674D01*
G01*
G75*
G02*
X41602Y302798I-2377J-3934D01*
G01*
X53864D01*
X54233Y303168D01*
G75*
G02*
X55720Y303783I1485J-1486D01*
G01*
X60176D01*
G75*
G02*
X66700Y301683I2924J-2100D01*
G01*
G75*
G02*
X60176Y299583I-3600J0D01*
G01*
X56588D01*
X56219Y299213D01*
G75*
G02*
X54731Y298598I-1485J1486D01*
G01*
X41602D01*
G37*
X24822Y316899D02*
G36*
X24822Y316899D02*
Y306899D01*
X28954D01*
G75*
G02*
X29135Y307105I1667J-1281D01*
G01*
X32087Y310057D01*
G75*
G02*
X33414Y310667I1484J-1483D01*
G01*
G75*
G02*
X35130Y312509I4092J-2091D01*
G01*
G75*
G02*
X32909Y316446I2379J3937D01*
G01*
G75*
G02*
X32932Y316899I4600J-1D01*
G01*
X24822D01*
G37*
X42109Y308572D02*
G36*
X42109Y308572D02*
G75*
G02*
X41794Y306899I-4600J0D01*
G01*
X96520D01*
G75*
G02*
X105743I4612J0D01*
G01*
X186520D01*
G75*
G02*
X195743I4612J0D01*
G01*
X302657D01*
Y316899D01*
X195743D01*
G75*
G02*
X186520I-4612J0D01*
G01*
X105742D01*
Y312289D01*
X96521D01*
Y316899D01*
X42087D01*
G75*
G02*
X42109Y316446I-4578J-454D01*
G01*
G75*
G02*
X39889Y312509I-4600J0D01*
G01*
G75*
G02*
X42109Y308572I-2379J-3937D01*
G01*
G37*
X24822Y348866D02*
G36*
X24822Y348866D02*
Y316899D01*
X32932D01*
G75*
G02*
X35130Y320383I4578J-453D01*
G01*
G75*
G02*
X32909Y324320I2379J3937D01*
G01*
G75*
G02*
X35130Y328257I4600J0D01*
G01*
G75*
G02*
X32909Y332194I2378J3936D01*
G01*
G75*
G02*
X42109Y332194I4600J1D01*
G01*
G75*
G02*
X39889Y328257I-4599J-1D01*
G01*
G75*
G02*
X42109Y324320I-2379J-3937D01*
G01*
G75*
G02*
X39889Y320383I-4600J0D01*
G01*
G75*
G02*
X42087Y316899I-2379J-3937D01*
G01*
X96521D01*
Y321509D01*
X105742D01*
Y316899D01*
X186520D01*
G75*
G02*
X195743I4612J0D01*
G01*
X302657D01*
Y348460D01*
G75*
G03*
X296393Y354724I-9735J-3470D01*
G01*
X30680D01*
G75*
G03*
X24822Y348866I3384J-9242D01*
G01*
G37*
D02*
D28*
X54734Y127962D03*
Y261328D03*
X62116Y179635D03*
Y188494D03*
X63100Y292824D03*
Y301683D03*
X69498Y252470D03*
X74911Y116643D03*
Y151092D03*
X82429Y268878D03*
X82785Y158474D03*
X82982Y260049D03*
X89183Y129439D03*
Y164380D03*
Y243886D03*
X89302Y279143D03*
X91643Y63494D03*
D02*
D72*
X101131Y106899D03*
Y116899D03*
Y126899D03*
Y136899D03*
Y146899D03*
Y156899D03*
Y166899D03*
Y176899D03*
Y186899D03*
Y196899D03*
Y206899D03*
Y216899D03*
Y226899D03*
Y236899D03*
Y246899D03*
Y256899D03*
Y266899D03*
Y276899D03*
Y286899D03*
Y296899D03*
Y306899D03*
X191131Y106899D03*
Y116899D03*
Y126899D03*
Y136899D03*
Y146899D03*
Y156899D03*
Y166899D03*
Y176899D03*
Y186899D03*
Y196899D03*
Y206899D03*
Y216899D03*
Y226899D03*
Y236899D03*
Y246899D03*
Y256899D03*
Y266899D03*
Y276899D03*
Y286899D03*
Y296899D03*
Y306899D03*
Y316899D03*
D02*
D73*
X101131D03*
D02*
D74*
X255521Y129439D03*
D02*
D75*
Y105817D03*
D02*
D76*
X274025Y117628D03*
X0Y0D02*
M02*
