G04 DesignSpark PCB Gerber Version 10.0 Build 5299*
G04 #@! TF.Part,Single*
G04 #@! TF.FileFunction,Legend,Top*
G04 #@! TF.FilePolarity,Positive*
%FSLAX35Y35*%
%MOIN*%
%ADD21C,0.00001*%
%ADD96C,0.00000*%
%ADD94C,0.00197*%
%ADD20C,0.00500*%
%ADD95C,0.00787*%
%ADD93C,0.00800*%
%ADD97C,0.01575*%
G04 #@! TD.AperFunction*
X0Y0D02*
D02*
D20*
X1584Y180179D02*
Y183929D01*
X3147Y182054D01*
X4709Y183929D01*
Y180179D01*
X6584Y181117D02*
X6897Y180492D01*
X7522Y180179D01*
X8147D01*
X8772Y180492D01*
X9084Y181117D01*
Y181742D01*
X8772Y182367D01*
X8147Y182679D01*
X7522D01*
X6897Y182367D01*
X6584Y181742D01*
Y181117D01*
X12105Y182679D02*
X13563D01*
X12834Y183304D02*
Y180492D01*
X13147Y180179D01*
X13459D01*
X13772Y180492D01*
X16584Y181117D02*
X16897Y180492D01*
X17522Y180179D01*
X18147D01*
X18772Y180492D01*
X19084Y181117D01*
Y181742D01*
X18772Y182367D01*
X18147Y182679D01*
X17522D01*
X16897Y182367D01*
X16584Y181742D01*
Y181117D01*
X21584Y180179D02*
Y182679D01*
Y181742D02*
X21897Y182367D01*
X22522Y182679D01*
X23147D01*
X23772Y182367D01*
X26897Y180492D02*
X27522Y180179D01*
X28147D01*
X28772Y180492D01*
X29084Y181117D01*
X28772Y181742D01*
X28147Y182054D01*
X27522D01*
X28147D02*
X28772Y182367D01*
X29084Y182992D01*
X28772Y183617D01*
X28147Y183929D01*
X27522D01*
X26897Y183617D01*
X1584Y259411D02*
Y263161D01*
X3147Y261287D01*
X4709Y263161D01*
Y259411D01*
X6584Y260349D02*
X6897Y259724D01*
X7522Y259411D01*
X8147D01*
X8772Y259724D01*
X9084Y260349D01*
Y260974D01*
X8772Y261599D01*
X8147Y261911D01*
X7522D01*
X6897Y261599D01*
X6584Y260974D01*
Y260349D01*
X12105Y261911D02*
X13563D01*
X12834Y262537D02*
Y259724D01*
X13147Y259411D01*
X13459D01*
X13772Y259724D01*
X16584Y260349D02*
X16897Y259724D01*
X17522Y259411D01*
X18147D01*
X18772Y259724D01*
X19084Y260349D01*
Y260974D01*
X18772Y261599D01*
X18147Y261911D01*
X17522D01*
X16897Y261599D01*
X16584Y260974D01*
Y260349D01*
X21584Y259411D02*
Y261911D01*
Y260974D02*
X21897Y261599D01*
X22522Y261911D01*
X23147D01*
X23772Y261599D01*
X29084Y259411D02*
X26584D01*
X28772Y261599D01*
X29084Y262224D01*
X28772Y262849D01*
X28147Y263161D01*
X27209D01*
X26584Y262849D01*
X2076Y100947D02*
Y104697D01*
X3639Y102822D01*
X5202Y104697D01*
Y100947D01*
X7076Y101885D02*
X7389Y101259D01*
X8014Y100947D01*
X8639D01*
X9264Y101259D01*
X9576Y101885D01*
Y102509D01*
X9264Y103135D01*
X8639Y103447D01*
X8014D01*
X7389Y103135D01*
X7076Y102509D01*
Y101885D01*
X12597Y103447D02*
X14056D01*
X13326Y104072D02*
Y101259D01*
X13639Y100947D01*
X13952D01*
X14264Y101259D01*
X17076Y101885D02*
X17389Y101259D01*
X18014Y100947D01*
X18639D01*
X19264Y101259D01*
X19576Y101885D01*
Y102509D01*
X19264Y103135D01*
X18639Y103447D01*
X18014D01*
X17389Y103135D01*
X17076Y102509D01*
Y101885D01*
X22076Y100947D02*
Y103447D01*
Y102509D02*
X22389Y103135D01*
X23014Y103447D01*
X23639D01*
X24264Y103135D01*
X28639Y100947D02*
Y104697D01*
X27076Y102197D01*
X29576D01*
X2076Y338644D02*
Y342394D01*
X3639Y340519D01*
X5202Y342394D01*
Y338644D01*
X7076Y339581D02*
X7389Y338956D01*
X8014Y338644D01*
X8639D01*
X9264Y338956D01*
X9576Y339581D01*
Y340206D01*
X9264Y340831D01*
X8639Y341144D01*
X8014D01*
X7389Y340831D01*
X7076Y340206D01*
Y339581D01*
X12597Y341144D02*
X14056D01*
X13326Y341769D02*
Y338956D01*
X13639Y338644D01*
X13952D01*
X14264Y338956D01*
X17076Y339581D02*
X17389Y338956D01*
X18014Y338644D01*
X18639D01*
X19264Y338956D01*
X19576Y339581D01*
Y340206D01*
X19264Y340831D01*
X18639Y341144D01*
X18014D01*
X17389Y340831D01*
X17076Y340206D01*
Y339581D01*
X22076Y338644D02*
Y341144D01*
Y340206D02*
X22389Y340831D01*
X23014Y341144D01*
X23639D01*
X24264Y340831D01*
X27702Y338644D02*
X28952D01*
X28326D02*
Y342394D01*
X27702Y341769D01*
X29635Y40954D02*
X45383D01*
Y119694D01*
X29635D01*
Y40954D01*
Y120187D02*
X45383D01*
Y198927D01*
X29635D01*
Y120187D01*
Y199419D02*
X45383D01*
Y278159D01*
X29635D01*
Y199419D01*
Y278651D02*
X45383D01*
Y357391D01*
X29635D01*
Y278651D01*
X53922Y147832D02*
X53609Y147519D01*
X52984Y147207D01*
X52047D01*
X51422Y147519D01*
X51109Y147832D01*
X50797Y148457D01*
Y149707D01*
X51109Y150332D01*
X51422Y150644D01*
X52047Y150957D01*
X52984D01*
X53609Y150644D01*
X53922Y150332D01*
X57359Y147207D02*
Y150957D01*
X55797Y148457D01*
X58297D01*
X53922Y168009D02*
X53609Y167696D01*
X52984Y167384D01*
X52047D01*
X51422Y167696D01*
X51109Y168009D01*
X50797Y168634D01*
Y169884D01*
X51109Y170509D01*
X51422Y170822D01*
X52047Y171134D01*
X52984D01*
X53609Y170822D01*
X53922Y170509D01*
X56109Y167696D02*
X56734Y167384D01*
X57359D01*
X57984Y167696D01*
X58297Y168322D01*
X57984Y168946D01*
X57359Y169259D01*
X56734D01*
X57359D02*
X57984Y169572D01*
X58297Y170196D01*
X57984Y170822D01*
X57359Y171134D01*
X56734D01*
X56109Y170822D01*
X53922Y264466D02*
X53609Y264153D01*
X52984Y263841D01*
X52047D01*
X51422Y264153D01*
X51109Y264466D01*
X50797Y265091D01*
Y266341D01*
X51109Y266966D01*
X51422Y267278D01*
X52047Y267591D01*
X52984D01*
X53609Y267278D01*
X53922Y266966D01*
X58297Y263841D02*
X55797D01*
X57984Y266028D01*
X58297Y266653D01*
X57984Y267278D01*
X57359Y267591D01*
X56422D01*
X55797Y267278D01*
X53922Y282674D02*
X53609Y282362D01*
X52984Y282049D01*
X52047D01*
X51422Y282362D01*
X51109Y282674D01*
X50797Y283299D01*
Y284549D01*
X51109Y285174D01*
X51422Y285487D01*
X52047Y285799D01*
X52984D01*
X53609Y285487D01*
X53922Y285174D01*
X56422Y282049D02*
X57672D01*
X57047D02*
Y285799D01*
X56422Y285174D01*
X54116Y56647D02*
X70116D01*
Y63647D01*
X54116D01*
Y56647D01*
Y65506D02*
X70116D01*
Y72506D01*
X54116D01*
Y65506D01*
X56486Y253133D02*
X52686D01*
Y262733D01*
X56486D01*
Y253133D01*
X56535Y271095D02*
X52735D01*
Y280695D01*
X56535D01*
Y271095D01*
X56634Y136548D02*
X52834D01*
Y146148D01*
X56634D01*
Y136548D01*
Y156725D02*
X52834D01*
Y166325D01*
X56634D01*
Y156725D01*
X60726Y241569D02*
X60413Y241882D01*
X60100Y242507D01*
Y243444D01*
X60413Y244069D01*
X60726Y244382D01*
X61350Y244694D01*
X62600D01*
X63226Y244382D01*
X63538Y244069D01*
X63850Y243444D01*
Y242507D01*
X63538Y241882D01*
X63226Y241569D01*
X60413Y239694D02*
X60100Y239069D01*
Y238132D01*
X60413Y237507D01*
X61038Y237194D01*
X61350D01*
X61976Y237507D01*
X62288Y238132D01*
Y239694D01*
X63850D01*
Y237194D01*
X61085Y222549D02*
X64835D01*
Y220361D01*
X64522Y219736D01*
X63897Y219424D01*
X63272Y219736D01*
X62960Y220361D01*
Y222549D01*
Y220361D02*
X61085Y219424D01*
Y215986D02*
X64835D01*
X62335Y217549D01*
Y215049D01*
X61085Y231407D02*
X64835D01*
Y229220D01*
X64522Y228594D01*
X63897Y228282D01*
X63272Y228594D01*
X62960Y229220D01*
Y231407D01*
Y229220D02*
X61085Y228282D01*
X61397Y226094D02*
X61085Y225470D01*
Y224844D01*
X61397Y224220D01*
X62022Y223907D01*
X62647Y224220D01*
X62960Y224844D01*
Y225470D01*
Y224844D02*
X63272Y224220D01*
X63897Y223907D01*
X64522Y224220D01*
X64835Y224844D01*
Y225470D01*
X64522Y226094D01*
X62561Y302273D02*
X66311D01*
Y300086D01*
X65999Y299461D01*
X65374Y299148D01*
X64749Y299461D01*
X64436Y300086D01*
Y302273D01*
Y300086D02*
X62561Y299148D01*
Y294773D02*
Y297273D01*
X64749Y295086D01*
X65374Y294773D01*
X65999Y295086D01*
X66311Y295711D01*
Y296648D01*
X65999Y297273D01*
X62561Y310639D02*
X66311D01*
Y308452D01*
X65999Y307827D01*
X65374Y307514D01*
X64749Y307827D01*
X64436Y308452D01*
Y310639D01*
Y308452D02*
X62561Y307514D01*
Y305014D02*
Y303764D01*
Y304389D02*
X66311D01*
X65686Y305014D01*
X63678Y290290D02*
X63366Y290602D01*
X63053Y291228D01*
Y292165D01*
X63366Y292790D01*
X63678Y293102D01*
X64303Y293415D01*
X65553D01*
X66178Y293102D01*
X66491Y292790D01*
X66803Y292165D01*
Y291228D01*
X66491Y290602D01*
X66178Y290290D01*
X63991Y288415D02*
X64616Y288102D01*
X64928Y287478D01*
Y286852D01*
X64616Y286228D01*
X63991Y285915D01*
X63366Y286228D01*
X63053Y286852D01*
Y287478D01*
X63366Y288102D01*
X63991Y288415D01*
X64928D01*
X65866Y288102D01*
X66491Y287478D01*
X66803Y286852D01*
X65927Y237257D02*
X81927D01*
Y244257D01*
X65927D01*
Y237257D01*
X66419Y181647D02*
X82419D01*
Y188647D01*
X66419D01*
Y181647D01*
Y190506D02*
X82419D01*
Y197506D01*
X66419D01*
Y190506D01*
X67482Y153112D02*
X68732D01*
X68107D02*
Y156862D01*
X67482D02*
X68732D01*
X74670Y153737D02*
X74357Y153425D01*
X73732Y153112D01*
X72795D01*
X72170Y153425D01*
X71857Y153737D01*
X71545Y154362D01*
Y155612D01*
X71857Y156237D01*
X72170Y156550D01*
X72795Y156862D01*
X73732D01*
X74357Y156550D01*
X74670Y156237D01*
X79045Y153112D02*
X76545D01*
X78732Y155300D01*
X79045Y155925D01*
X78732Y156550D01*
X78107Y156862D01*
X77170D01*
X76545Y156550D01*
X66911Y125545D02*
X82911D01*
Y132545D01*
X66911D01*
Y125545D01*
X68976Y266580D02*
X70226D01*
X69601D02*
Y270330D01*
X68976D02*
X70226D01*
X76163Y267206D02*
X75851Y266893D01*
X75226Y266580D01*
X74288D01*
X73663Y266893D01*
X73351Y267206D01*
X73038Y267830D01*
Y269080D01*
X73351Y269706D01*
X73663Y270018D01*
X74288Y270330D01*
X75226D01*
X75851Y270018D01*
X76163Y269706D01*
X78663Y266580D02*
X79913D01*
X79288D02*
Y270330D01*
X78663Y269706D01*
X75678Y64006D02*
X71928D01*
Y66193D01*
X72241Y66818D01*
X72866Y67131D01*
X73491Y66818D01*
X73803Y66193D01*
Y64006D01*
Y66193D02*
X75678Y67131D01*
Y69006D02*
X71928Y71506D01*
Y69006D01*
X76178Y55147D02*
X72428D01*
Y57335D01*
X72741Y57960D01*
X73366Y58272D01*
X73991Y57960D01*
X74303Y57335D01*
Y55147D01*
Y57335D02*
X76178Y58272D01*
X74303Y61085D02*
Y61710D01*
X73991Y62335D01*
X73366Y62647D01*
X72741Y62335D01*
X72428Y61710D01*
Y61085D01*
X72741Y60460D01*
X73366Y60147D01*
X73991Y60460D01*
X74303Y61085D01*
X74616Y60460D01*
X75241Y60147D01*
X75866Y60460D01*
X76178Y61085D01*
Y61710D01*
X75866Y62335D01*
X75241Y62647D01*
X74616Y62335D01*
X74303Y61710D01*
X81927Y222604D02*
X65927D01*
Y215604D01*
X81927D01*
Y222604D01*
Y230970D02*
X65927D01*
Y223970D01*
X81927D01*
Y230970D01*
X82419Y179297D02*
X66419D01*
Y172297D01*
X82419D01*
Y179297D01*
X83403Y301836D02*
X67403D01*
Y294836D01*
X83403D01*
Y301836D01*
Y310694D02*
X67403D01*
Y303694D01*
X83403D01*
Y310694D01*
X83584Y293470D02*
X67584D01*
Y286470D01*
X83584D01*
Y293470D01*
X87128Y128233D02*
X87441Y127920D01*
X87753Y127295D01*
Y126358D01*
X87441Y125733D01*
X87128Y125420D01*
X86503Y125108D01*
X85253D01*
X84628Y125420D01*
X84315Y125733D01*
X84003Y126358D01*
Y127295D01*
X84315Y127920D01*
X84628Y128233D01*
X85878Y131045D02*
Y131670D01*
X85565Y132295D01*
X84941Y132608D01*
X84315Y132295D01*
X84003Y131670D01*
Y131045D01*
X84315Y130420D01*
X84941Y130108D01*
X85565Y130420D01*
X85878Y131045D01*
X86191Y130420D01*
X86815Y130108D01*
X87441Y130420D01*
X87753Y131045D01*
Y131670D01*
X87441Y132295D01*
X86815Y132608D01*
X86191Y132295D01*
X85878Y131670D01*
X87981Y180147D02*
X84231D01*
Y182335D01*
X84544Y182960D01*
X85169Y183272D01*
X85794Y182960D01*
X86106Y182335D01*
Y180147D01*
Y182335D02*
X87981Y183272D01*
X87044Y185147D02*
X86419Y185460D01*
X86106Y186085D01*
Y186710D01*
X86419Y187335D01*
X87044Y187647D01*
X87669Y187335D01*
X87981Y186710D01*
Y186085D01*
X87669Y185460D01*
X87044Y185147D01*
X86106D01*
X85169Y185460D01*
X84544Y186085D01*
X84231Y186710D01*
X87981Y189006D02*
X84231D01*
Y191193D01*
X84544Y191818D01*
X85169Y192131D01*
X85794Y191818D01*
X86106Y191193D01*
Y189006D01*
Y191193D02*
X87981Y192131D01*
X87669Y194006D02*
X87981Y194631D01*
Y195568D01*
X87669Y196193D01*
X87044Y196506D01*
X86731D01*
X86106Y196193D01*
X85794Y195568D01*
Y194006D01*
X84231D01*
Y196506D01*
X87620Y174985D02*
X87933Y174672D01*
X88245Y174047D01*
Y173110D01*
X87933Y172485D01*
X87620Y172172D01*
X86995Y171860D01*
X85745D01*
X85120Y172172D01*
X84807Y172485D01*
X84495Y173110D01*
Y174047D01*
X84807Y174672D01*
X85120Y174985D01*
X88245Y176860D02*
X84495Y179360D01*
Y176860D01*
X95147Y333535D02*
Y330723D01*
X95460Y330098D01*
X96085Y329785D01*
X97335D01*
X97960Y330098D01*
X98272Y330723D01*
Y333535D01*
X100772Y329785D02*
X102022D01*
X101397D02*
Y333535D01*
X100772Y332911D01*
X96131Y80915D02*
Y327923D01*
X196131D01*
Y80915D01*
X96131D01*
X199261Y155521D02*
X299261D01*
Y265521D01*
X199261D01*
Y155521D01*
X200403Y264638D02*
Y261826D01*
X200716Y261200D01*
X201341Y260888D01*
X202591D01*
X203216Y261200D01*
X203528Y261826D01*
Y264638D01*
X205403Y261826D02*
X205716Y262450D01*
X206341Y262763D01*
X206966D01*
X207591Y262450D01*
X207903Y261826D01*
X207591Y261200D01*
X206966Y260888D01*
X206341D01*
X205716Y261200D01*
X205403Y261826D01*
Y262763D01*
X205716Y263700D01*
X206341Y264326D01*
X206966Y264638D01*
X200761Y96072D02*
G75*
G02*
X216761Y112072I16000J0D01*
G01*
G75*
G02*
X232761Y96072I0J-16000D01*
G01*
G75*
G02*
X216761Y80072I-16000J0D01*
G01*
G75*
G02*
X200761Y96072I0J16000D01*
G01*
Y133474D02*
G75*
G02*
X216761Y149474I16000J0D01*
G01*
G75*
G02*
X232761Y133474I0J-16000D01*
G01*
G75*
G02*
X216761Y117474I-16000J0D01*
G01*
G75*
G02*
X200761Y133474I0J16000D01*
G01*
X206761Y105260D02*
X209261D01*
X208011Y104010D02*
Y106510D01*
X206761Y142661D02*
X209261D01*
X208011Y141411D02*
Y143911D01*
X224690Y77635D02*
X224377Y77322D01*
X223752Y77010D01*
X222815D01*
X222190Y77322D01*
X221877Y77635D01*
X221565Y78260D01*
Y79510D01*
X221877Y80135D01*
X222190Y80448D01*
X222815Y80760D01*
X223752D01*
X224377Y80448D01*
X224690Y80135D01*
X227190Y77010D02*
X228440D01*
X227815D02*
Y80760D01*
X227190Y80135D01*
X231877Y77322D02*
X232502Y77010D01*
X233127D01*
X233752Y77322D01*
X234065Y77948D01*
Y79822D01*
X233752Y80448D01*
X233127Y80760D01*
X232502D01*
X231877Y80448D01*
X231565Y79822D01*
Y77948D01*
X231877Y77322D01*
X233752Y80448D01*
X228135Y116808D02*
X227822Y116496D01*
X227197Y116183D01*
X226259D01*
X225635Y116496D01*
X225322Y116808D01*
X225009Y117433D01*
Y118683D01*
X225322Y119308D01*
X225635Y119621D01*
X226259Y119933D01*
X227197D01*
X227822Y119621D01*
X228135Y119308D01*
X230947Y116183D02*
X231572Y116496D01*
X232197Y117121D01*
X232509Y118058D01*
Y118996D01*
X232197Y119621D01*
X231572Y119933D01*
X230947D01*
X230322Y119621D01*
X230009Y118996D01*
X230322Y118371D01*
X230947Y118058D01*
X231572D01*
X232197Y118371D01*
X232509Y118996D01*
X245088Y137706D02*
X237805D01*
Y81013D01*
X273238D01*
Y113100D01*
X257490Y144387D02*
X257802Y144074D01*
X258427Y143762D01*
X259052Y144074D01*
X259365Y144387D01*
Y147512D01*
X259990D01*
X259365D02*
X258115D01*
X263115Y143762D02*
X264365D01*
X263740D02*
Y147512D01*
X263115Y146887D01*
X273238Y133179D02*
Y137706D01*
X265561D01*
X274222Y147699D02*
Y151449D01*
X277347D01*
X276722Y149574D02*
X274222D01*
X279847Y147699D02*
X281097D01*
X280472D02*
Y151449D01*
X279847Y150824D01*
X285147Y132588D02*
Y141250D01*
X288002Y77630D02*
Y74818D01*
X288314Y74193D01*
X288939Y73880D01*
X290189D01*
X290814Y74193D01*
X291127Y74818D01*
Y77630D01*
X295502Y73880D02*
X293002D01*
X295189Y76068D01*
X295502Y76693D01*
X295189Y77318D01*
X294564Y77630D01*
X293627D01*
X293002Y77318D01*
X297746Y141250D02*
Y132588D01*
X299714Y152076D02*
X283179D01*
Y121761D01*
X299714D01*
Y152076D01*
X301446Y120167D02*
X281446D01*
Y80167D01*
X301446D01*
Y120167D01*
D02*
D21*
X68513Y164902D02*
G75*
G03*
Y168384I0J1741D01*
G01*
G75*
G03*
Y164902I0J-1741D01*
G01*
Y279154D02*
G75*
G03*
Y282636I0J1741D01*
G01*
G75*
G03*
Y279154I0J-1741D01*
G01*
X206112Y315265D02*
X209655D01*
Y316446D01*
X206112D01*
Y315265D01*
G36*
X206112Y315265D02*
X209655D01*
Y316446D01*
X206112D01*
Y315265D01*
G37*
Y316446D02*
X209655D01*
Y317628D01*
X206112D01*
Y316446D01*
G36*
X206112Y316446D02*
X209655D01*
Y317628D01*
X206112D01*
Y316446D01*
G37*
X207293Y314084D02*
X210836D01*
Y315265D01*
X207293D01*
Y314084D01*
G36*
X207293Y314084D02*
X210836D01*
Y315265D01*
X207293D01*
Y314084D01*
G37*
Y317628D02*
X210836D01*
Y318809D01*
X207293D01*
Y317628D01*
G36*
X207293Y317628D02*
X210836D01*
Y318809D01*
X207293D01*
Y317628D01*
G37*
X208474Y312903D02*
X212017D01*
Y314084D01*
X208474D01*
Y312903D01*
G36*
X208474Y312903D02*
X212017D01*
Y314084D01*
X208474D01*
Y312903D01*
G37*
Y318809D02*
X212017D01*
Y319990D01*
X208474D01*
Y318809D01*
G36*
X208474Y318809D02*
X212017D01*
Y319990D01*
X208474D01*
Y318809D01*
G37*
X209655Y277470D02*
X212017D01*
Y278651D01*
X209655D01*
Y277470D01*
G36*
X209655Y277470D02*
X212017D01*
Y278651D01*
X209655D01*
Y277470D01*
G37*
Y278651D02*
X213198D01*
Y279832D01*
X209655D01*
Y278651D01*
G36*
X209655Y278651D02*
X213198D01*
Y279832D01*
X209655D01*
Y278651D01*
G37*
Y311722D02*
X213198D01*
Y312903D01*
X209655D01*
Y311722D01*
G36*
X209655Y311722D02*
X213198D01*
Y312903D01*
X209655D01*
Y311722D01*
G37*
Y319990D02*
X213198D01*
Y321171D01*
X209655D01*
Y319990D01*
G36*
X209655Y319990D02*
X213198D01*
Y321171D01*
X209655D01*
Y319990D01*
G37*
Y355423D02*
X213198D01*
Y356604D01*
X209655D01*
Y355423D01*
G36*
X209655Y355423D02*
X213198D01*
Y356604D01*
X209655D01*
Y355423D01*
G37*
Y356604D02*
X212017D01*
Y357785D01*
X209655D01*
Y356604D01*
G36*
X209655Y356604D02*
X212017D01*
Y357785D01*
X209655D01*
Y356604D01*
G37*
X210836Y279832D02*
X214380D01*
Y281013D01*
X210836D01*
Y279832D01*
G36*
X210836Y279832D02*
X214380D01*
Y281013D01*
X210836D01*
Y279832D01*
G37*
Y310541D02*
X214380D01*
Y311722D01*
X210836D01*
Y310541D01*
G36*
X210836Y310541D02*
X214380D01*
Y311722D01*
X210836D01*
Y310541D01*
G37*
Y321171D02*
X214380D01*
Y322352D01*
X210836D01*
Y321171D01*
G36*
X210836Y321171D02*
X214380D01*
Y322352D01*
X210836D01*
Y321171D01*
G37*
Y354242D02*
X214380D01*
Y355423D01*
X210836D01*
Y354242D01*
G36*
X210836Y354242D02*
X214380D01*
Y355423D01*
X210836D01*
Y354242D01*
G37*
X212017Y281013D02*
X215561D01*
Y282194D01*
X212017D01*
Y281013D01*
G36*
X212017Y281013D02*
X215561D01*
Y282194D01*
X212017D01*
Y281013D01*
G37*
Y309360D02*
X215561D01*
Y310541D01*
X212017D01*
Y309360D01*
G36*
X212017Y309360D02*
X215561D01*
Y310541D01*
X212017D01*
Y309360D01*
G37*
Y322352D02*
X215561D01*
Y323533D01*
X212017D01*
Y322352D01*
G36*
X212017Y322352D02*
X215561D01*
Y323533D01*
X212017D01*
Y322352D01*
G37*
Y353061D02*
X215561D01*
Y354242D01*
X212017D01*
Y353061D01*
G36*
X212017Y353061D02*
X215561D01*
Y354242D01*
X212017D01*
Y353061D01*
G37*
X213198Y282194D02*
X216742D01*
Y283376D01*
X213198D01*
Y282194D01*
G36*
X213198Y282194D02*
X216742D01*
Y283376D01*
X213198D01*
Y282194D01*
G37*
Y308179D02*
X220285D01*
Y309360D01*
X213198D01*
Y308179D01*
G36*
X213198Y308179D02*
X220285D01*
Y309360D01*
X213198D01*
Y308179D01*
G37*
Y323533D02*
X220285D01*
Y324714D01*
X213198D01*
Y323533D01*
G36*
X213198Y323533D02*
X220285D01*
Y324714D01*
X213198D01*
Y323533D01*
G37*
Y351880D02*
X216742D01*
Y353061D01*
X213198D01*
Y351880D01*
G36*
X213198Y351880D02*
X216742D01*
Y353061D01*
X213198D01*
Y351880D01*
G37*
X214380Y283376D02*
X217923D01*
Y284557D01*
X214380D01*
Y283376D01*
G36*
X214380Y283376D02*
X217923D01*
Y284557D01*
X214380D01*
Y283376D01*
G37*
Y306998D02*
X219104D01*
Y308179D01*
X214380D01*
Y306998D01*
G36*
X214380Y306998D02*
X219104D01*
Y308179D01*
X214380D01*
Y306998D01*
G37*
Y324714D02*
X219104D01*
Y325895D01*
X214380D01*
Y324714D01*
G36*
X214380Y324714D02*
X219104D01*
Y325895D01*
X214380D01*
Y324714D01*
G37*
Y350698D02*
X217923D01*
Y351880D01*
X214380D01*
Y350698D01*
G36*
X214380Y350698D02*
X217923D01*
Y351880D01*
X214380D01*
Y350698D01*
G37*
X215561Y284557D02*
X219104D01*
Y285738D01*
X215561D01*
Y284557D01*
G36*
X215561Y284557D02*
X219104D01*
Y285738D01*
X215561D01*
Y284557D01*
G37*
Y305817D02*
X217923D01*
Y306998D01*
X215561D01*
Y305817D01*
G36*
X215561Y305817D02*
X217923D01*
Y306998D01*
X215561D01*
Y305817D01*
G37*
Y325895D02*
X217923D01*
Y327076D01*
X215561D01*
Y325895D01*
G36*
X215561Y325895D02*
X217923D01*
Y327076D01*
X215561D01*
Y325895D01*
G37*
Y349517D02*
X219104D01*
Y350698D01*
X215561D01*
Y349517D01*
G36*
X215561Y349517D02*
X219104D01*
Y350698D01*
X215561D01*
Y349517D01*
G37*
X216742Y285738D02*
X220285D01*
Y286919D01*
X216742D01*
Y285738D01*
G36*
X216742Y285738D02*
X220285D01*
Y286919D01*
X216742D01*
Y285738D01*
G37*
Y348336D02*
X220285D01*
Y349517D01*
X216742D01*
Y348336D01*
G36*
X216742Y348336D02*
X220285D01*
Y349517D01*
X216742D01*
Y348336D01*
G37*
X217923Y286919D02*
X221466D01*
Y288100D01*
X217923D01*
Y286919D01*
G36*
X217923Y286919D02*
X221466D01*
Y288100D01*
X217923D01*
Y286919D01*
G37*
Y309360D02*
X221466D01*
Y310541D01*
X217923D01*
Y309360D01*
G36*
X217923Y309360D02*
X221466D01*
Y310541D01*
X217923D01*
Y309360D01*
G37*
Y322352D02*
X221466D01*
Y323533D01*
X217923D01*
Y322352D01*
G36*
X217923Y322352D02*
X221466D01*
Y323533D01*
X217923D01*
Y322352D01*
G37*
Y347155D02*
X221466D01*
Y348336D01*
X217923D01*
Y347155D01*
G36*
X217923Y347155D02*
X221466D01*
Y348336D01*
X217923D01*
Y347155D01*
G37*
X219104Y288100D02*
X222647D01*
Y289281D01*
X219104D01*
Y288100D01*
G36*
X219104Y288100D02*
X222647D01*
Y289281D01*
X219104D01*
Y288100D01*
G37*
Y310541D02*
X222647D01*
Y311722D01*
X219104D01*
Y310541D01*
G36*
X219104Y310541D02*
X222647D01*
Y311722D01*
X219104D01*
Y310541D01*
G37*
Y321171D02*
X222647D01*
Y322352D01*
X219104D01*
Y321171D01*
G36*
X219104Y321171D02*
X222647D01*
Y322352D01*
X219104D01*
Y321171D01*
G37*
Y345974D02*
X222647D01*
Y347155D01*
X219104D01*
Y345974D01*
G36*
X219104Y345974D02*
X222647D01*
Y347155D01*
X219104D01*
Y345974D01*
G37*
X220285Y289281D02*
X223828D01*
Y290462D01*
X220285D01*
Y289281D01*
G36*
X220285Y289281D02*
X223828D01*
Y290462D01*
X220285D01*
Y289281D01*
G37*
Y311722D02*
X223828D01*
Y312903D01*
X220285D01*
Y311722D01*
G36*
X220285Y311722D02*
X223828D01*
Y312903D01*
X220285D01*
Y311722D01*
G37*
Y319990D02*
X223828D01*
Y321171D01*
X220285D01*
Y319990D01*
G36*
X220285Y319990D02*
X223828D01*
Y321171D01*
X220285D01*
Y319990D01*
G37*
Y344793D02*
X223828D01*
Y345974D01*
X220285D01*
Y344793D01*
G36*
X220285Y344793D02*
X223828D01*
Y345974D01*
X220285D01*
Y344793D01*
G37*
X221466Y290462D02*
X225009D01*
Y291643D01*
X221466D01*
Y290462D01*
G36*
X221466Y290462D02*
X225009D01*
Y291643D01*
X221466D01*
Y290462D01*
G37*
Y312903D02*
X225009D01*
Y314084D01*
X221466D01*
Y312903D01*
G36*
X221466Y312903D02*
X225009D01*
Y314084D01*
X221466D01*
Y312903D01*
G37*
Y318809D02*
X225009D01*
Y319990D01*
X221466D01*
Y318809D01*
G36*
X221466Y318809D02*
X225009D01*
Y319990D01*
X221466D01*
Y318809D01*
G37*
Y343612D02*
X225009D01*
Y344793D01*
X221466D01*
Y343612D01*
G36*
X221466Y343612D02*
X225009D01*
Y344793D01*
X221466D01*
Y343612D01*
G37*
X222647Y291643D02*
X226191D01*
Y292824D01*
X222647D01*
Y291643D01*
G36*
X222647Y291643D02*
X226191D01*
Y292824D01*
X222647D01*
Y291643D01*
G37*
Y314084D02*
X226191D01*
Y315265D01*
X222647D01*
Y314084D01*
G36*
X222647Y314084D02*
X226191D01*
Y315265D01*
X222647D01*
Y314084D01*
G37*
Y317628D02*
X226191D01*
Y318809D01*
X222647D01*
Y317628D01*
G36*
X222647Y317628D02*
X226191D01*
Y318809D01*
X222647D01*
Y317628D01*
G37*
Y342431D02*
X226191D01*
Y343612D01*
X222647D01*
Y342431D01*
G36*
X222647Y342431D02*
X226191D01*
Y343612D01*
X222647D01*
Y342431D01*
G37*
X223828Y292824D02*
X227372D01*
Y294006D01*
X223828D01*
Y292824D01*
G36*
X223828Y292824D02*
X227372D01*
Y294006D01*
X223828D01*
Y292824D01*
G37*
Y315265D02*
X227372D01*
Y316446D01*
X223828D01*
Y315265D01*
G36*
X223828Y315265D02*
X227372D01*
Y316446D01*
X223828D01*
Y315265D01*
G37*
Y316446D02*
X227372D01*
Y317628D01*
X223828D01*
Y316446D01*
G36*
X223828Y316446D02*
X227372D01*
Y317628D01*
X223828D01*
Y316446D01*
G37*
Y341250D02*
X227372D01*
Y342431D01*
X223828D01*
Y341250D01*
G36*
X223828Y341250D02*
X227372D01*
Y342431D01*
X223828D01*
Y341250D01*
G37*
X225009Y294006D02*
X228553D01*
Y295187D01*
X225009D01*
Y294006D01*
G36*
X225009Y294006D02*
X228553D01*
Y295187D01*
X225009D01*
Y294006D01*
G37*
Y340069D02*
X228553D01*
Y341250D01*
X225009D01*
Y340069D01*
G36*
X225009Y340069D02*
X228553D01*
Y341250D01*
X225009D01*
Y340069D01*
G37*
X226191Y295187D02*
X229734D01*
Y296368D01*
X226191D01*
Y295187D01*
G36*
X226191Y295187D02*
X229734D01*
Y296368D01*
X226191D01*
Y295187D01*
G37*
Y338887D02*
X229734D01*
Y340069D01*
X226191D01*
Y338887D01*
G36*
X226191Y338887D02*
X229734D01*
Y340069D01*
X226191D01*
Y338887D01*
G37*
X227372Y296368D02*
X230915D01*
Y297549D01*
X227372D01*
Y296368D01*
G36*
X227372Y296368D02*
X230915D01*
Y297549D01*
X227372D01*
Y296368D01*
G37*
Y337706D02*
X230915D01*
Y338887D01*
X227372D01*
Y337706D01*
G36*
X227372Y337706D02*
X230915D01*
Y338887D01*
X227372D01*
Y337706D01*
G37*
X228553Y297549D02*
X232096D01*
Y298730D01*
X228553D01*
Y297549D01*
G36*
X228553Y297549D02*
X232096D01*
Y298730D01*
X228553D01*
Y297549D01*
G37*
Y336525D02*
X232096D01*
Y337706D01*
X228553D01*
Y336525D01*
G36*
X228553Y336525D02*
X232096D01*
Y337706D01*
X228553D01*
Y336525D01*
G37*
X229734Y298730D02*
X233277D01*
Y299911D01*
X229734D01*
Y298730D01*
G36*
X229734Y298730D02*
X233277D01*
Y299911D01*
X229734D01*
Y298730D01*
G37*
Y335344D02*
X233277D01*
Y336525D01*
X229734D01*
Y335344D01*
G36*
X229734Y335344D02*
X233277D01*
Y336525D01*
X229734D01*
Y335344D01*
G37*
X230915Y299911D02*
X234458D01*
Y301092D01*
X230915D01*
Y299911D01*
G36*
X230915Y299911D02*
X234458D01*
Y301092D01*
X230915D01*
Y299911D01*
G37*
Y334163D02*
X234458D01*
Y335344D01*
X230915D01*
Y334163D01*
G36*
X230915Y334163D02*
X234458D01*
Y335344D01*
X230915D01*
Y334163D01*
G37*
X232096Y301092D02*
X235639D01*
Y302273D01*
X232096D01*
Y301092D01*
G36*
X232096Y301092D02*
X235639D01*
Y302273D01*
X232096D01*
Y301092D01*
G37*
Y332982D02*
X235639D01*
Y334163D01*
X232096D01*
Y332982D01*
G36*
X232096Y332982D02*
X235639D01*
Y334163D01*
X232096D01*
Y332982D01*
G37*
X233277Y270383D02*
X239183D01*
Y271565D01*
X233277D01*
Y270383D01*
G36*
X233277Y270383D02*
X239183D01*
Y271565D01*
X233277D01*
Y270383D01*
G37*
Y271565D02*
X239183D01*
Y272746D01*
X233277D01*
Y271565D01*
G36*
X233277Y271565D02*
X239183D01*
Y272746D01*
X233277D01*
Y271565D01*
G37*
Y284557D02*
X239183D01*
Y285738D01*
X233277D01*
Y284557D01*
G36*
X233277Y284557D02*
X239183D01*
Y285738D01*
X233277D01*
Y284557D01*
G37*
Y285738D02*
X239183D01*
Y286919D01*
X233277D01*
Y285738D01*
G36*
X233277Y285738D02*
X239183D01*
Y286919D01*
X233277D01*
Y285738D01*
G37*
Y302273D02*
X235639D01*
Y303454D01*
X233277D01*
Y302273D01*
G36*
X233277Y302273D02*
X235639D01*
Y303454D01*
X233277D01*
Y302273D01*
G37*
Y331801D02*
X235639D01*
Y332982D01*
X233277D01*
Y331801D01*
G36*
X233277Y331801D02*
X235639D01*
Y332982D01*
X233277D01*
Y331801D01*
G37*
X234458Y272746D02*
X238002D01*
Y273927D01*
X234458D01*
Y272746D01*
G36*
X234458Y272746D02*
X238002D01*
Y273927D01*
X234458D01*
Y272746D01*
G37*
Y273927D02*
X238002D01*
Y275108D01*
X234458D01*
Y273927D01*
G36*
X234458Y273927D02*
X238002D01*
Y275108D01*
X234458D01*
Y273927D01*
G37*
Y275108D02*
X238002D01*
Y276289D01*
X234458D01*
Y275108D01*
G36*
X234458Y275108D02*
X238002D01*
Y276289D01*
X234458D01*
Y275108D01*
G37*
Y276289D02*
X238002D01*
Y277470D01*
X234458D01*
Y276289D01*
G36*
X234458Y276289D02*
X238002D01*
Y277470D01*
X234458D01*
Y276289D01*
G37*
Y277470D02*
X238002D01*
Y278651D01*
X234458D01*
Y277470D01*
G36*
X234458Y277470D02*
X238002D01*
Y278651D01*
X234458D01*
Y277470D01*
G37*
Y278651D02*
X238002D01*
Y279832D01*
X234458D01*
Y278651D01*
G36*
X234458Y278651D02*
X238002D01*
Y279832D01*
X234458D01*
Y278651D01*
G37*
Y279832D02*
X238002D01*
Y281013D01*
X234458D01*
Y279832D01*
G36*
X234458Y279832D02*
X238002D01*
Y281013D01*
X234458D01*
Y279832D01*
G37*
Y281013D02*
X238002D01*
Y282194D01*
X234458D01*
Y281013D01*
G36*
X234458Y281013D02*
X238002D01*
Y282194D01*
X234458D01*
Y281013D01*
G37*
Y282194D02*
X238002D01*
Y283376D01*
X234458D01*
Y282194D01*
G36*
X234458Y282194D02*
X238002D01*
Y283376D01*
X234458D01*
Y282194D01*
G37*
Y283376D02*
X238002D01*
Y284557D01*
X234458D01*
Y283376D01*
G36*
X234458Y283376D02*
X238002D01*
Y284557D01*
X234458D01*
Y283376D01*
G37*
X236820Y309360D02*
X239183D01*
Y310541D01*
X236820D01*
Y309360D01*
G36*
X236820Y309360D02*
X239183D01*
Y310541D01*
X236820D01*
Y309360D01*
G37*
Y310541D02*
X239183D01*
Y311722D01*
X236820D01*
Y310541D01*
G36*
X236820Y310541D02*
X239183D01*
Y311722D01*
X236820D01*
Y310541D01*
G37*
Y314084D02*
X239183D01*
Y315265D01*
X236820D01*
Y314084D01*
G36*
X236820Y314084D02*
X239183D01*
Y315265D01*
X236820D01*
Y314084D01*
G37*
Y315265D02*
X239183D01*
Y316446D01*
X236820D01*
Y315265D01*
G36*
X236820Y315265D02*
X239183D01*
Y316446D01*
X236820D01*
Y315265D01*
G37*
Y318809D02*
X239183D01*
Y319990D01*
X236820D01*
Y318809D01*
G36*
X236820Y318809D02*
X239183D01*
Y319990D01*
X236820D01*
Y318809D01*
G37*
Y319990D02*
X239183D01*
Y321171D01*
X236820D01*
Y319990D01*
G36*
X236820Y319990D02*
X239183D01*
Y321171D01*
X236820D01*
Y319990D01*
G37*
Y323533D02*
X239183D01*
Y324714D01*
X236820D01*
Y323533D01*
G36*
X236820Y323533D02*
X239183D01*
Y324714D01*
X236820D01*
Y323533D01*
G37*
Y324714D02*
X239183D01*
Y325895D01*
X236820D01*
Y324714D01*
G36*
X236820Y324714D02*
X239183D01*
Y325895D01*
X236820D01*
Y324714D01*
G37*
X240364Y308179D02*
X259261D01*
Y309360D01*
X240364D01*
Y308179D01*
G36*
X240364Y308179D02*
X259261D01*
Y309360D01*
X240364D01*
Y308179D01*
G37*
Y309360D02*
X259261D01*
Y310541D01*
X240364D01*
Y309360D01*
G36*
X240364Y309360D02*
X259261D01*
Y310541D01*
X240364D01*
Y309360D01*
G37*
Y310541D02*
X252175D01*
Y311722D01*
X240364D01*
Y310541D01*
G36*
X240364Y310541D02*
X252175D01*
Y311722D01*
X240364D01*
Y310541D01*
G37*
Y311722D02*
X252175D01*
Y312903D01*
X240364D01*
Y311722D01*
G36*
X240364Y311722D02*
X252175D01*
Y312903D01*
X240364D01*
Y311722D01*
G37*
Y312903D02*
X252175D01*
Y314084D01*
X240364D01*
Y312903D01*
G36*
X240364Y312903D02*
X252175D01*
Y314084D01*
X240364D01*
Y312903D01*
G37*
Y314084D02*
X252175D01*
Y315265D01*
X240364D01*
Y314084D01*
G36*
X240364Y314084D02*
X252175D01*
Y315265D01*
X240364D01*
Y314084D01*
G37*
Y315265D02*
X259261D01*
Y316446D01*
X240364D01*
Y315265D01*
G36*
X240364Y315265D02*
X259261D01*
Y316446D01*
X240364D01*
Y315265D01*
G37*
Y316446D02*
X259261D01*
Y317628D01*
X240364D01*
Y316446D01*
G36*
X240364Y316446D02*
X259261D01*
Y317628D01*
X240364D01*
Y316446D01*
G37*
Y317628D02*
X259261D01*
Y318809D01*
X240364D01*
Y317628D01*
G36*
X240364Y317628D02*
X259261D01*
Y318809D01*
X240364D01*
Y317628D01*
G37*
Y318809D02*
X259261D01*
Y319990D01*
X240364D01*
Y318809D01*
G36*
X240364Y318809D02*
X259261D01*
Y319990D01*
X240364D01*
Y318809D01*
G37*
Y319990D02*
X259261D01*
Y321171D01*
X240364D01*
Y319990D01*
G36*
X240364Y319990D02*
X259261D01*
Y321171D01*
X240364D01*
Y319990D01*
G37*
Y321171D02*
X242726D01*
Y322352D01*
X240364D01*
Y321171D01*
G36*
X240364Y321171D02*
X242726D01*
Y322352D01*
X240364D01*
Y321171D01*
G37*
Y322352D02*
X242726D01*
Y323533D01*
X240364D01*
Y322352D01*
G36*
X240364Y322352D02*
X242726D01*
Y323533D01*
X240364D01*
Y322352D01*
G37*
Y323533D02*
X242726D01*
Y324714D01*
X240364D01*
Y323533D01*
G36*
X240364Y323533D02*
X242726D01*
Y324714D01*
X240364D01*
Y323533D01*
G37*
Y324714D02*
X242726D01*
Y325895D01*
X240364D01*
Y324714D01*
G36*
X240364Y324714D02*
X242726D01*
Y325895D01*
X240364D01*
Y324714D01*
G37*
Y325895D02*
X259261D01*
Y327076D01*
X240364D01*
Y325895D01*
G36*
X240364Y325895D02*
X259261D01*
Y327076D01*
X240364D01*
Y325895D01*
G37*
Y327076D02*
X259261D01*
Y328257D01*
X240364D01*
Y327076D01*
G36*
X240364Y327076D02*
X259261D01*
Y328257D01*
X240364D01*
Y327076D01*
G37*
X241545Y304635D02*
X243907D01*
Y305817D01*
X241545D01*
Y304635D01*
G36*
X241545Y304635D02*
X243907D01*
Y305817D01*
X241545D01*
Y304635D01*
G37*
Y305817D02*
X243907D01*
Y306998D01*
X241545D01*
Y305817D01*
G36*
X241545Y305817D02*
X243907D01*
Y306998D01*
X241545D01*
Y305817D01*
G37*
Y329439D02*
X243907D01*
Y330620D01*
X241545D01*
Y329439D01*
G36*
X241545Y329439D02*
X243907D01*
Y330620D01*
X241545D01*
Y329439D01*
G37*
Y330620D02*
X243907D01*
Y331801D01*
X241545D01*
Y330620D01*
G36*
X241545Y330620D02*
X243907D01*
Y331801D01*
X241545D01*
Y330620D01*
G37*
X242726Y271565D02*
X252175D01*
Y272746D01*
X242726D01*
Y271565D01*
G36*
X242726Y271565D02*
X252175D01*
Y272746D01*
X242726D01*
Y271565D01*
G37*
Y272746D02*
X246269D01*
Y273927D01*
X242726D01*
Y272746D01*
G36*
X242726Y272746D02*
X246269D01*
Y273927D01*
X242726D01*
Y272746D01*
G37*
Y273927D02*
X245088D01*
Y275108D01*
X242726D01*
Y273927D01*
G36*
X242726Y273927D02*
X245088D01*
Y275108D01*
X242726D01*
Y273927D01*
G37*
Y275108D02*
X246269D01*
Y276289D01*
X242726D01*
Y275108D01*
G36*
X242726Y275108D02*
X246269D01*
Y276289D01*
X242726D01*
Y275108D01*
G37*
X243907Y270383D02*
X248631D01*
Y271565D01*
X243907D01*
Y270383D01*
G36*
X243907Y270383D02*
X248631D01*
Y271565D01*
X243907D01*
Y270383D01*
G37*
Y276289D02*
X252175D01*
Y277470D01*
X243907D01*
Y276289D01*
G36*
X243907Y276289D02*
X252175D01*
Y277470D01*
X243907D01*
Y276289D01*
G37*
Y279832D02*
X250994D01*
Y281013D01*
X243907D01*
Y279832D01*
G36*
X243907Y279832D02*
X250994D01*
Y281013D01*
X243907D01*
Y279832D01*
G37*
Y281013D02*
X250994D01*
Y282194D01*
X243907D01*
Y281013D01*
G36*
X243907Y281013D02*
X250994D01*
Y282194D01*
X243907D01*
Y281013D01*
G37*
X246269Y304635D02*
X248631D01*
Y305817D01*
X246269D01*
Y304635D01*
G36*
X246269Y304635D02*
X248631D01*
Y305817D01*
X246269D01*
Y304635D01*
G37*
Y305817D02*
X248631D01*
Y306998D01*
X246269D01*
Y305817D01*
G36*
X246269Y305817D02*
X248631D01*
Y306998D01*
X246269D01*
Y305817D01*
G37*
Y329439D02*
X248631D01*
Y330620D01*
X246269D01*
Y329439D01*
G36*
X246269Y329439D02*
X248631D01*
Y330620D01*
X246269D01*
Y329439D01*
G37*
Y330620D02*
X248631D01*
Y331801D01*
X246269D01*
Y330620D01*
G36*
X246269Y330620D02*
X248631D01*
Y331801D01*
X246269D01*
Y330620D01*
G37*
X247450Y321171D02*
X259261D01*
Y322352D01*
X247450D01*
Y321171D01*
G36*
X247450Y321171D02*
X259261D01*
Y322352D01*
X247450D01*
Y321171D01*
G37*
Y322352D02*
X259261D01*
Y323533D01*
X247450D01*
Y322352D01*
G36*
X247450Y322352D02*
X259261D01*
Y323533D01*
X247450D01*
Y322352D01*
G37*
Y323533D02*
X259261D01*
Y324714D01*
X247450D01*
Y323533D01*
G36*
X247450Y323533D02*
X259261D01*
Y324714D01*
X247450D01*
Y323533D01*
G37*
Y324714D02*
X259261D01*
Y325895D01*
X247450D01*
Y324714D01*
G36*
X247450Y324714D02*
X259261D01*
Y325895D01*
X247450D01*
Y324714D01*
G37*
X248631Y272746D02*
X252175D01*
Y273927D01*
X248631D01*
Y272746D01*
G36*
X248631Y272746D02*
X252175D01*
Y273927D01*
X248631D01*
Y272746D01*
G37*
Y273927D02*
X252175D01*
Y275108D01*
X248631D01*
Y273927D01*
G36*
X248631Y273927D02*
X252175D01*
Y275108D01*
X248631D01*
Y273927D01*
G37*
Y275108D02*
X252175D01*
Y276289D01*
X248631D01*
Y275108D01*
G36*
X248631Y275108D02*
X252175D01*
Y276289D01*
X248631D01*
Y275108D01*
G37*
Y277470D02*
X252175D01*
Y278651D01*
X248631D01*
Y277470D01*
G36*
X248631Y277470D02*
X252175D01*
Y278651D01*
X248631D01*
Y277470D01*
G37*
Y278651D02*
X252175D01*
Y279832D01*
X248631D01*
Y278651D01*
G36*
X248631Y278651D02*
X252175D01*
Y279832D01*
X248631D01*
Y278651D01*
G37*
X249813Y270383D02*
X252175D01*
Y271565D01*
X249813D01*
Y270383D01*
G36*
X249813Y270383D02*
X252175D01*
Y271565D01*
X249813D01*
Y270383D01*
G37*
X250994Y304635D02*
X253356D01*
Y305817D01*
X250994D01*
Y304635D01*
G36*
X250994Y304635D02*
X253356D01*
Y305817D01*
X250994D01*
Y304635D01*
G37*
Y305817D02*
X253356D01*
Y306998D01*
X250994D01*
Y305817D01*
G36*
X250994Y305817D02*
X253356D01*
Y306998D01*
X250994D01*
Y305817D01*
G37*
Y329439D02*
X253356D01*
Y330620D01*
X250994D01*
Y329439D01*
G36*
X250994Y329439D02*
X253356D01*
Y330620D01*
X250994D01*
Y329439D01*
G37*
Y330620D02*
X253356D01*
Y331801D01*
X250994D01*
Y330620D01*
G36*
X250994Y330620D02*
X253356D01*
Y331801D01*
X250994D01*
Y330620D01*
G37*
X255718Y304635D02*
X258080D01*
Y305817D01*
X255718D01*
Y304635D01*
G36*
X255718Y304635D02*
X258080D01*
Y305817D01*
X255718D01*
Y304635D01*
G37*
Y305817D02*
X258080D01*
Y306998D01*
X255718D01*
Y305817D01*
G36*
X255718Y305817D02*
X258080D01*
Y306998D01*
X255718D01*
Y305817D01*
G37*
Y329439D02*
X258080D01*
Y330620D01*
X255718D01*
Y329439D01*
G36*
X255718Y329439D02*
X258080D01*
Y330620D01*
X255718D01*
Y329439D01*
G37*
Y330620D02*
X258080D01*
Y331801D01*
X255718D01*
Y330620D01*
G36*
X255718Y330620D02*
X258080D01*
Y331801D01*
X255718D01*
Y330620D01*
G37*
X256899Y270383D02*
X259261D01*
Y271565D01*
X256899D01*
Y270383D01*
G36*
X256899Y270383D02*
X259261D01*
Y271565D01*
X256899D01*
Y270383D01*
G37*
Y271565D02*
X259261D01*
Y272746D01*
X256899D01*
Y271565D01*
G36*
X256899Y271565D02*
X259261D01*
Y272746D01*
X256899D01*
Y271565D01*
G37*
Y272746D02*
X259261D01*
Y273927D01*
X256899D01*
Y272746D01*
G36*
X256899Y272746D02*
X259261D01*
Y273927D01*
X256899D01*
Y272746D01*
G37*
Y273927D02*
X259261D01*
Y275108D01*
X256899D01*
Y273927D01*
G36*
X256899Y273927D02*
X259261D01*
Y275108D01*
X256899D01*
Y273927D01*
G37*
Y275108D02*
X259261D01*
Y276289D01*
X256899D01*
Y275108D01*
G36*
X256899Y275108D02*
X259261D01*
Y276289D01*
X256899D01*
Y275108D01*
G37*
Y276289D02*
X259261D01*
Y277470D01*
X256899D01*
Y276289D01*
G36*
X256899Y276289D02*
X259261D01*
Y277470D01*
X256899D01*
Y276289D01*
G37*
Y277470D02*
X259261D01*
Y278651D01*
X256899D01*
Y277470D01*
G36*
X256899Y277470D02*
X259261D01*
Y278651D01*
X256899D01*
Y277470D01*
G37*
Y278651D02*
X260443D01*
Y279832D01*
X256899D01*
Y278651D01*
G36*
X256899Y278651D02*
X260443D01*
Y279832D01*
X256899D01*
Y278651D01*
G37*
Y279832D02*
X266348D01*
Y281013D01*
X256899D01*
Y279832D01*
G36*
X256899Y279832D02*
X266348D01*
Y281013D01*
X256899D01*
Y279832D01*
G37*
Y281013D02*
X265167D01*
Y282194D01*
X256899D01*
Y281013D01*
G36*
X256899Y281013D02*
X265167D01*
Y282194D01*
X256899D01*
Y281013D01*
G37*
Y282194D02*
X259261D01*
Y283376D01*
X256899D01*
Y282194D01*
G36*
X256899Y282194D02*
X259261D01*
Y283376D01*
X256899D01*
Y282194D01*
G37*
Y310541D02*
X259261D01*
Y311722D01*
X256899D01*
Y310541D01*
G36*
X256899Y310541D02*
X259261D01*
Y311722D01*
X256899D01*
Y310541D01*
G37*
Y311722D02*
X259261D01*
Y312903D01*
X256899D01*
Y311722D01*
G36*
X256899Y311722D02*
X259261D01*
Y312903D01*
X256899D01*
Y311722D01*
G37*
Y312903D02*
X259261D01*
Y314084D01*
X256899D01*
Y312903D01*
G36*
X256899Y312903D02*
X259261D01*
Y314084D01*
X256899D01*
Y312903D01*
G37*
Y314084D02*
X259261D01*
Y315265D01*
X256899D01*
Y314084D01*
G36*
X256899Y314084D02*
X259261D01*
Y315265D01*
X256899D01*
Y314084D01*
G37*
X260443Y309360D02*
X262805D01*
Y310541D01*
X260443D01*
Y309360D01*
G36*
X260443Y309360D02*
X262805D01*
Y310541D01*
X260443D01*
Y309360D01*
G37*
Y310541D02*
X262805D01*
Y311722D01*
X260443D01*
Y310541D01*
G36*
X260443Y310541D02*
X262805D01*
Y311722D01*
X260443D01*
Y310541D01*
G37*
Y314084D02*
X262805D01*
Y315265D01*
X260443D01*
Y314084D01*
G36*
X260443Y314084D02*
X262805D01*
Y315265D01*
X260443D01*
Y314084D01*
G37*
Y315265D02*
X262805D01*
Y316446D01*
X260443D01*
Y315265D01*
G36*
X260443Y315265D02*
X262805D01*
Y316446D01*
X260443D01*
Y315265D01*
G37*
Y318809D02*
X262805D01*
Y319990D01*
X260443D01*
Y318809D01*
G36*
X260443Y318809D02*
X262805D01*
Y319990D01*
X260443D01*
Y318809D01*
G37*
Y319990D02*
X262805D01*
Y321171D01*
X260443D01*
Y319990D01*
G36*
X260443Y319990D02*
X262805D01*
Y321171D01*
X260443D01*
Y319990D01*
G37*
Y323533D02*
X262805D01*
Y324714D01*
X260443D01*
Y323533D01*
G36*
X260443Y323533D02*
X262805D01*
Y324714D01*
X260443D01*
Y323533D01*
G37*
Y324714D02*
X262805D01*
Y325895D01*
X260443D01*
Y324714D01*
G36*
X260443Y324714D02*
X262805D01*
Y325895D01*
X260443D01*
Y324714D01*
G37*
X262805Y270383D02*
X266348D01*
Y271565D01*
X262805D01*
Y270383D01*
G36*
X262805Y270383D02*
X266348D01*
Y271565D01*
X262805D01*
Y270383D01*
G37*
Y271565D02*
X266348D01*
Y272746D01*
X262805D01*
Y271565D01*
G36*
X262805Y271565D02*
X266348D01*
Y272746D01*
X262805D01*
Y271565D01*
G37*
Y272746D02*
X266348D01*
Y273927D01*
X262805D01*
Y272746D01*
G36*
X262805Y272746D02*
X266348D01*
Y273927D01*
X262805D01*
Y272746D01*
G37*
Y273927D02*
X266348D01*
Y275108D01*
X262805D01*
Y273927D01*
G36*
X262805Y273927D02*
X266348D01*
Y275108D01*
X262805D01*
Y273927D01*
G37*
Y275108D02*
X266348D01*
Y276289D01*
X262805D01*
Y275108D01*
G36*
X262805Y275108D02*
X266348D01*
Y276289D01*
X262805D01*
Y275108D01*
G37*
Y276289D02*
X266348D01*
Y277470D01*
X262805D01*
Y276289D01*
G36*
X262805Y276289D02*
X266348D01*
Y277470D01*
X262805D01*
Y276289D01*
G37*
Y277470D02*
X266348D01*
Y278651D01*
X262805D01*
Y277470D01*
G36*
X262805Y277470D02*
X266348D01*
Y278651D01*
X262805D01*
Y277470D01*
G37*
Y278651D02*
X266348D01*
Y279832D01*
X262805D01*
Y278651D01*
G36*
X262805Y278651D02*
X266348D01*
Y279832D01*
X262805D01*
Y278651D01*
G37*
X263986Y301092D02*
X267529D01*
Y302273D01*
X263986D01*
Y301092D01*
G36*
X263986Y301092D02*
X267529D01*
Y302273D01*
X263986D01*
Y301092D01*
G37*
Y302273D02*
X266348D01*
Y303454D01*
X263986D01*
Y302273D01*
G36*
X263986Y302273D02*
X266348D01*
Y303454D01*
X263986D01*
Y302273D01*
G37*
Y331801D02*
X266348D01*
Y332982D01*
X263986D01*
Y331801D01*
G36*
X263986Y331801D02*
X266348D01*
Y332982D01*
X263986D01*
Y331801D01*
G37*
Y332982D02*
X267529D01*
Y334163D01*
X263986D01*
Y332982D01*
G36*
X263986Y332982D02*
X267529D01*
Y334163D01*
X263986D01*
Y332982D01*
G37*
X265167Y299911D02*
X268710D01*
Y301092D01*
X265167D01*
Y299911D01*
G36*
X265167Y299911D02*
X268710D01*
Y301092D01*
X265167D01*
Y299911D01*
G37*
Y334163D02*
X268710D01*
Y335344D01*
X265167D01*
Y334163D01*
G36*
X265167Y334163D02*
X268710D01*
Y335344D01*
X265167D01*
Y334163D01*
G37*
X266348Y298730D02*
X269891D01*
Y299911D01*
X266348D01*
Y298730D01*
G36*
X266348Y298730D02*
X269891D01*
Y299911D01*
X266348D01*
Y298730D01*
G37*
Y335344D02*
X269891D01*
Y336525D01*
X266348D01*
Y335344D01*
G36*
X266348Y335344D02*
X269891D01*
Y336525D01*
X266348D01*
Y335344D01*
G37*
X267529Y297549D02*
X271072D01*
Y298730D01*
X267529D01*
Y297549D01*
G36*
X267529Y297549D02*
X271072D01*
Y298730D01*
X267529D01*
Y297549D01*
G37*
Y336525D02*
X271072D01*
Y337706D01*
X267529D01*
Y336525D01*
G36*
X267529Y336525D02*
X271072D01*
Y337706D01*
X267529D01*
Y336525D01*
G37*
X268710Y296368D02*
X272254D01*
Y297549D01*
X268710D01*
Y296368D01*
G36*
X268710Y296368D02*
X272254D01*
Y297549D01*
X268710D01*
Y296368D01*
G37*
Y337706D02*
X272254D01*
Y338887D01*
X268710D01*
Y337706D01*
G36*
X268710Y337706D02*
X272254D01*
Y338887D01*
X268710D01*
Y337706D01*
G37*
X269891Y295187D02*
X273435D01*
Y296368D01*
X269891D01*
Y295187D01*
G36*
X269891Y295187D02*
X273435D01*
Y296368D01*
X269891D01*
Y295187D01*
G37*
Y338887D02*
X273435D01*
Y340069D01*
X269891D01*
Y338887D01*
G36*
X269891Y338887D02*
X273435D01*
Y340069D01*
X269891D01*
Y338887D01*
G37*
X271072Y294006D02*
X274616D01*
Y295187D01*
X271072D01*
Y294006D01*
G36*
X271072Y294006D02*
X274616D01*
Y295187D01*
X271072D01*
Y294006D01*
G37*
Y340069D02*
X274616D01*
Y341250D01*
X271072D01*
Y340069D01*
G36*
X271072Y340069D02*
X274616D01*
Y341250D01*
X271072D01*
Y340069D01*
G37*
X272254Y292824D02*
X275797D01*
Y294006D01*
X272254D01*
Y292824D01*
G36*
X272254Y292824D02*
X275797D01*
Y294006D01*
X272254D01*
Y292824D01*
G37*
Y315265D02*
X275797D01*
Y316446D01*
X272254D01*
Y315265D01*
G36*
X272254Y315265D02*
X275797D01*
Y316446D01*
X272254D01*
Y315265D01*
G37*
Y316446D02*
X275797D01*
Y317628D01*
X272254D01*
Y316446D01*
G36*
X272254Y316446D02*
X275797D01*
Y317628D01*
X272254D01*
Y316446D01*
G37*
Y341250D02*
X275797D01*
Y342431D01*
X272254D01*
Y341250D01*
G36*
X272254Y341250D02*
X275797D01*
Y342431D01*
X272254D01*
Y341250D01*
G37*
X273435Y291643D02*
X276978D01*
Y292824D01*
X273435D01*
Y291643D01*
G36*
X273435Y291643D02*
X276978D01*
Y292824D01*
X273435D01*
Y291643D01*
G37*
Y314084D02*
X276978D01*
Y315265D01*
X273435D01*
Y314084D01*
G36*
X273435Y314084D02*
X276978D01*
Y315265D01*
X273435D01*
Y314084D01*
G37*
Y317628D02*
X276978D01*
Y318809D01*
X273435D01*
Y317628D01*
G36*
X273435Y317628D02*
X276978D01*
Y318809D01*
X273435D01*
Y317628D01*
G37*
Y342431D02*
X276978D01*
Y343612D01*
X273435D01*
Y342431D01*
G36*
X273435Y342431D02*
X276978D01*
Y343612D01*
X273435D01*
Y342431D01*
G37*
X274616Y290462D02*
X278159D01*
Y291643D01*
X274616D01*
Y290462D01*
G36*
X274616Y290462D02*
X278159D01*
Y291643D01*
X274616D01*
Y290462D01*
G37*
Y312903D02*
X278159D01*
Y314084D01*
X274616D01*
Y312903D01*
G36*
X274616Y312903D02*
X278159D01*
Y314084D01*
X274616D01*
Y312903D01*
G37*
Y318809D02*
X278159D01*
Y319990D01*
X274616D01*
Y318809D01*
G36*
X274616Y318809D02*
X278159D01*
Y319990D01*
X274616D01*
Y318809D01*
G37*
Y343612D02*
X278159D01*
Y344793D01*
X274616D01*
Y343612D01*
G36*
X274616Y343612D02*
X278159D01*
Y344793D01*
X274616D01*
Y343612D01*
G37*
X275797Y289281D02*
X279340D01*
Y290462D01*
X275797D01*
Y289281D01*
G36*
X275797Y289281D02*
X279340D01*
Y290462D01*
X275797D01*
Y289281D01*
G37*
Y311722D02*
X279340D01*
Y312903D01*
X275797D01*
Y311722D01*
G36*
X275797Y311722D02*
X279340D01*
Y312903D01*
X275797D01*
Y311722D01*
G37*
Y319990D02*
X279340D01*
Y321171D01*
X275797D01*
Y319990D01*
G36*
X275797Y319990D02*
X279340D01*
Y321171D01*
X275797D01*
Y319990D01*
G37*
Y344793D02*
X279340D01*
Y345974D01*
X275797D01*
Y344793D01*
G36*
X275797Y344793D02*
X279340D01*
Y345974D01*
X275797D01*
Y344793D01*
G37*
X276978Y288100D02*
X280521D01*
Y289281D01*
X276978D01*
Y288100D01*
G36*
X276978Y288100D02*
X280521D01*
Y289281D01*
X276978D01*
Y288100D01*
G37*
Y310541D02*
X280521D01*
Y311722D01*
X276978D01*
Y310541D01*
G36*
X276978Y310541D02*
X280521D01*
Y311722D01*
X276978D01*
Y310541D01*
G37*
Y321171D02*
X280521D01*
Y322352D01*
X276978D01*
Y321171D01*
G36*
X276978Y321171D02*
X280521D01*
Y322352D01*
X276978D01*
Y321171D01*
G37*
Y345974D02*
X280521D01*
Y347155D01*
X276978D01*
Y345974D01*
G36*
X276978Y345974D02*
X280521D01*
Y347155D01*
X276978D01*
Y345974D01*
G37*
X278159Y286919D02*
X281702D01*
Y288100D01*
X278159D01*
Y286919D01*
G36*
X278159Y286919D02*
X281702D01*
Y288100D01*
X278159D01*
Y286919D01*
G37*
Y309360D02*
X281702D01*
Y310541D01*
X278159D01*
Y309360D01*
G36*
X278159Y309360D02*
X281702D01*
Y310541D01*
X278159D01*
Y309360D01*
G37*
Y322352D02*
X281702D01*
Y323533D01*
X278159D01*
Y322352D01*
G36*
X278159Y322352D02*
X281702D01*
Y323533D01*
X278159D01*
Y322352D01*
G37*
Y347155D02*
X281702D01*
Y348336D01*
X278159D01*
Y347155D01*
G36*
X278159Y347155D02*
X281702D01*
Y348336D01*
X278159D01*
Y347155D01*
G37*
X279340Y285738D02*
X282883D01*
Y286919D01*
X279340D01*
Y285738D01*
G36*
X279340Y285738D02*
X282883D01*
Y286919D01*
X279340D01*
Y285738D01*
G37*
Y308179D02*
X286427D01*
Y309360D01*
X279340D01*
Y308179D01*
G36*
X279340Y308179D02*
X286427D01*
Y309360D01*
X279340D01*
Y308179D01*
G37*
Y323533D02*
X286427D01*
Y324714D01*
X279340D01*
Y323533D01*
G36*
X279340Y323533D02*
X286427D01*
Y324714D01*
X279340D01*
Y323533D01*
G37*
Y348336D02*
X282883D01*
Y349517D01*
X279340D01*
Y348336D01*
G36*
X279340Y348336D02*
X282883D01*
Y349517D01*
X279340D01*
Y348336D01*
G37*
X280521Y284557D02*
X284065D01*
Y285738D01*
X280521D01*
Y284557D01*
G36*
X280521Y284557D02*
X284065D01*
Y285738D01*
X280521D01*
Y284557D01*
G37*
Y306998D02*
X285246D01*
Y308179D01*
X280521D01*
Y306998D01*
G36*
X280521Y306998D02*
X285246D01*
Y308179D01*
X280521D01*
Y306998D01*
G37*
Y324714D02*
X285246D01*
Y325895D01*
X280521D01*
Y324714D01*
G36*
X280521Y324714D02*
X285246D01*
Y325895D01*
X280521D01*
Y324714D01*
G37*
Y349517D02*
X284065D01*
Y350698D01*
X280521D01*
Y349517D01*
G36*
X280521Y349517D02*
X284065D01*
Y350698D01*
X280521D01*
Y349517D01*
G37*
X281702Y283376D02*
X285246D01*
Y284557D01*
X281702D01*
Y283376D01*
G36*
X281702Y283376D02*
X285246D01*
Y284557D01*
X281702D01*
Y283376D01*
G37*
Y305817D02*
X284065D01*
Y306998D01*
X281702D01*
Y305817D01*
G36*
X281702Y305817D02*
X284065D01*
Y306998D01*
X281702D01*
Y305817D01*
G37*
Y325895D02*
X284065D01*
Y327076D01*
X281702D01*
Y325895D01*
G36*
X281702Y325895D02*
X284065D01*
Y327076D01*
X281702D01*
Y325895D01*
G37*
Y350698D02*
X285246D01*
Y351880D01*
X281702D01*
Y350698D01*
G36*
X281702Y350698D02*
X285246D01*
Y351880D01*
X281702D01*
Y350698D01*
G37*
X282883Y282194D02*
X286427D01*
Y283376D01*
X282883D01*
Y282194D01*
G36*
X282883Y282194D02*
X286427D01*
Y283376D01*
X282883D01*
Y282194D01*
G37*
Y351880D02*
X286427D01*
Y353061D01*
X282883D01*
Y351880D01*
G36*
X282883Y351880D02*
X286427D01*
Y353061D01*
X282883D01*
Y351880D01*
G37*
X284065Y281013D02*
X287608D01*
Y282194D01*
X284065D01*
Y281013D01*
G36*
X284065Y281013D02*
X287608D01*
Y282194D01*
X284065D01*
Y281013D01*
G37*
Y309360D02*
X287608D01*
Y310541D01*
X284065D01*
Y309360D01*
G36*
X284065Y309360D02*
X287608D01*
Y310541D01*
X284065D01*
Y309360D01*
G37*
Y322352D02*
X287608D01*
Y323533D01*
X284065D01*
Y322352D01*
G36*
X284065Y322352D02*
X287608D01*
Y323533D01*
X284065D01*
Y322352D01*
G37*
Y353061D02*
X287608D01*
Y354242D01*
X284065D01*
Y353061D01*
G36*
X284065Y353061D02*
X287608D01*
Y354242D01*
X284065D01*
Y353061D01*
G37*
X285246Y279832D02*
X288789D01*
Y281013D01*
X285246D01*
Y279832D01*
G36*
X285246Y279832D02*
X288789D01*
Y281013D01*
X285246D01*
Y279832D01*
G37*
Y310541D02*
X288789D01*
Y311722D01*
X285246D01*
Y310541D01*
G36*
X285246Y310541D02*
X288789D01*
Y311722D01*
X285246D01*
Y310541D01*
G37*
Y321171D02*
X288789D01*
Y322352D01*
X285246D01*
Y321171D01*
G36*
X285246Y321171D02*
X288789D01*
Y322352D01*
X285246D01*
Y321171D01*
G37*
Y354242D02*
X288789D01*
Y355423D01*
X285246D01*
Y354242D01*
G36*
X285246Y354242D02*
X288789D01*
Y355423D01*
X285246D01*
Y354242D01*
G37*
X286427Y278651D02*
X289970D01*
Y279832D01*
X286427D01*
Y278651D01*
G36*
X286427Y278651D02*
X289970D01*
Y279832D01*
X286427D01*
Y278651D01*
G37*
Y311722D02*
X289970D01*
Y312903D01*
X286427D01*
Y311722D01*
G36*
X286427Y311722D02*
X289970D01*
Y312903D01*
X286427D01*
Y311722D01*
G37*
Y319990D02*
X289970D01*
Y321171D01*
X286427D01*
Y319990D01*
G36*
X286427Y319990D02*
X289970D01*
Y321171D01*
X286427D01*
Y319990D01*
G37*
Y355423D02*
X289970D01*
Y356604D01*
X286427D01*
Y355423D01*
G36*
X286427Y355423D02*
X289970D01*
Y356604D01*
X286427D01*
Y355423D01*
G37*
X287608Y277470D02*
X289970D01*
Y278651D01*
X287608D01*
Y277470D01*
G36*
X287608Y277470D02*
X289970D01*
Y278651D01*
X287608D01*
Y277470D01*
G37*
Y312903D02*
X291151D01*
Y314084D01*
X287608D01*
Y312903D01*
G36*
X287608Y312903D02*
X291151D01*
Y314084D01*
X287608D01*
Y312903D01*
G37*
Y318809D02*
X291151D01*
Y319990D01*
X287608D01*
Y318809D01*
G36*
X287608Y318809D02*
X291151D01*
Y319990D01*
X287608D01*
Y318809D01*
G37*
Y356604D02*
X289970D01*
Y357785D01*
X287608D01*
Y356604D01*
G36*
X287608Y356604D02*
X289970D01*
Y357785D01*
X287608D01*
Y356604D01*
G37*
X288789Y314084D02*
X292332D01*
Y315265D01*
X288789D01*
Y314084D01*
G36*
X288789Y314084D02*
X292332D01*
Y315265D01*
X288789D01*
Y314084D01*
G37*
Y317628D02*
X292332D01*
Y318809D01*
X288789D01*
Y317628D01*
G36*
X288789Y317628D02*
X292332D01*
Y318809D01*
X288789D01*
Y317628D01*
G37*
X289970Y315265D02*
X293513D01*
Y316446D01*
X289970D01*
Y315265D01*
G36*
X289970Y315265D02*
X293513D01*
Y316446D01*
X289970D01*
Y315265D01*
G37*
Y316446D02*
X293513D01*
Y317628D01*
X289970D01*
Y316446D01*
G36*
X289970Y316446D02*
X293513D01*
Y317628D01*
X289970D01*
Y316446D01*
G37*
X298927Y150592D02*
G75*
G03*
Y151592I0J500D01*
G01*
G75*
G03*
Y150592I0J-500D01*
G01*
D02*
D93*
X64675Y170187D02*
Y135147D01*
X85147D01*
Y170187D01*
X64675D01*
Y284439D02*
Y249399D01*
X85147D01*
Y284439D01*
X64675D01*
D02*
D94*
X95147Y328907D02*
Y79931D01*
X197116D01*
Y328907D01*
X95147D01*
X246269Y138887D02*
X236820D01*
Y79832D01*
X274222D01*
Y113100D01*
X279537D01*
Y133179D01*
X274222D01*
Y138887D01*
X264380D01*
Y141053D01*
X246269D01*
Y138887D01*
D02*
D95*
X92525Y322419D02*
G75*
G03*
X91738I-394J0D01*
G01*
G75*
G03*
X92525I394J0D01*
G01*
D02*
D96*
X248631Y132982D02*
Y136919D01*
X262411D01*
Y132982D01*
X248631D01*
X249616Y109360D02*
Y113297D01*
X261427D01*
Y109360D01*
X249616D01*
X272057Y129045D02*
X275994D01*
Y117234D01*
X272057D01*
Y129045D01*
D02*
D97*
X255521Y142037D02*
G75*
G03*
Y143612I0J787D01*
G01*
G75*
G03*
Y142037I0J-787D01*
G01*
X0Y0D02*
M02*
