G05
M48
;#@! TF.GenerationSoftware,DesignSpark,DesignSpark PCB,10.0.5344
;#@! TF.CreationDate,2023-03-26T10:31:39--8:00*
;#@! TF.FileFunction,Plated,1,2,PTH
;FILE_FORMAT=3:5
;TYPE=PLATED
INCH,TZ
FMAT,2
T1C000.02400
T2C000.03200
T3C000.03500
T4C000.03937
T5C000.04016
%
T001
X0.54734Y1.33474
X0.54734Y2.66840
X0.62116Y1.85147
X0.62116Y1.94006
X0.63100Y2.98336
X0.63100Y3.07194
X0.69498Y2.57982
X0.74911Y1.22155
X0.74911Y1.56604
X0.82429Y2.74390
X0.82785Y1.63986
X0.82982Y2.65561
X0.89183Y1.34950
X0.89183Y1.69891
X0.89183Y2.49398
X0.89302Y2.84655
X0.91643Y0.69006
T002
X2.09261Y0.96072
X2.09261Y1.33474
X2.24261Y0.96072
X2.24261Y1.33474
T003
X0.37509Y0.60639
X0.37509Y0.68513
X0.37509Y0.76387
X0.37509Y0.84261
X0.37509Y0.92135
X0.37509Y1.00009
X0.37509Y1.39872
X0.37509Y1.47746
X0.37509Y1.55620
X0.37509Y1.63494
X0.37509Y1.71368
X0.37509Y1.79242
X0.37509Y2.19104
X0.37509Y2.26978
X0.37509Y2.34852
X0.37509Y2.42726
X0.37509Y2.50600
X0.37509Y2.58474
X0.37509Y2.98336
X0.37509Y3.06210
X0.37509Y3.14084
X0.37509Y3.21958
X0.37509Y3.29832
X0.37509Y3.37706
X2.09261Y1.65521
X2.09261Y2.55521
X2.39261Y1.65521
X2.49261Y2.55521
X2.59261Y1.65521
X2.89261Y2.55521
X2.91446Y0.90167
X2.91446Y1.00167
X2.91446Y1.10167
T004
X2.55521Y1.11328
X2.55521Y1.34950
X2.74025Y1.23139
T005
X1.01131Y1.12411
X1.01131Y1.22411
X1.01131Y1.32411
X1.01131Y1.42411
X1.01131Y1.52411
X1.01131Y1.62411
X1.01131Y1.72411
X1.01131Y1.82411
X1.01131Y1.92411
X1.01131Y2.02411
X1.01131Y2.12411
X1.01131Y2.22411
X1.01131Y2.32411
X1.01131Y2.42411
X1.01131Y2.52411
X1.01131Y2.62411
X1.01131Y2.72411
X1.01131Y2.82411
X1.01131Y2.92411
X1.01131Y3.02411
X1.01131Y3.12411
X1.01131Y3.22411
X1.91131Y1.12411
X1.91131Y1.22411
X1.91131Y1.32411
X1.91131Y1.42411
X1.91131Y1.52411
X1.91131Y1.62411
X1.91131Y1.72411
X1.91131Y1.82411
X1.91131Y1.92411
X1.91131Y2.02411
X1.91131Y2.12411
X1.91131Y2.22411
X1.91131Y2.32411
X1.91131Y2.42411
X1.91131Y2.52411
X1.91131Y2.62411
X1.91131Y2.72411
X1.91131Y2.82411
X1.91131Y2.92411
X1.91131Y3.02411
X1.91131Y3.12411
X1.91131Y3.22411
M30
