G04 DesignSpark PCB Gerber Version 10.0 Build 5299*
G04 #@! TF.Part,Single*
G04 #@! TF.FileFunction,Soldermask,Top*
G04 #@! TF.FilePolarity,Negative*
%FSLAX35Y35*%
%MOIN*%
G04 #@! TA.AperFunction,ComponentPad*
%ADD85O,0.09858X0.18717*%
G04 #@! TA.AperFunction,SMDPad,CuDef*
%ADD86R,0.03800X0.04500*%
G04 #@! TA.AperFunction,ComponentPad*
%ADD82R,0.07024X0.07024*%
%ADD84O,0.18717X0.09858*%
%ADD83O,0.20685X0.10843*%
G04 #@! TA.AperFunction,SMDPad,CuDef*
%ADD80R,0.05921X0.02575*%
G04 #@! TA.AperFunction,ComponentPad*
%ADD19C,0.07000*%
%ADD81C,0.07024*%
G04 #@! TA.AperFunction,SMDPad,CuDef*
%ADD87R,0.07000X0.06500*%
%ADD88R,0.13402X0.08008*%
G04 #@! TD.AperFunction*
X0Y0D02*
D02*
D19*
X37509Y60639D03*
Y68513D03*
Y76387D03*
Y84261D03*
Y92135D03*
Y100009D03*
Y139872D03*
Y147746D03*
Y155620D03*
Y163494D03*
Y171368D03*
Y179242D03*
Y219104D03*
Y226978D03*
Y234852D03*
Y242726D03*
Y250600D03*
Y258474D03*
Y298336D03*
Y306210D03*
Y314084D03*
Y321958D03*
Y329832D03*
Y337706D03*
X209261Y96072D03*
Y133474D03*
Y165521D03*
Y255521D03*
X224261Y96072D03*
Y133474D03*
X239261Y165521D03*
X249261Y255521D03*
X259261Y165521D03*
X289261Y255521D03*
X291446Y90167D03*
Y100167D03*
Y110167D03*
D02*
D80*
X60639Y138592D03*
Y141151D03*
Y143710D03*
Y146269D03*
Y148828D03*
Y151387D03*
Y153946D03*
Y156506D03*
Y159065D03*
Y161624D03*
Y164183D03*
Y166742D03*
Y252844D03*
Y255403D03*
Y257962D03*
Y260521D03*
Y263080D03*
Y265639D03*
Y268198D03*
Y270757D03*
Y273317D03*
Y275876D03*
Y278435D03*
Y280994D03*
X89183Y138592D03*
Y141151D03*
Y143710D03*
Y146269D03*
Y148828D03*
Y151387D03*
Y153946D03*
Y156506D03*
Y159065D03*
Y161624D03*
Y164183D03*
Y166742D03*
Y252844D03*
Y255403D03*
Y257962D03*
Y260521D03*
Y263080D03*
Y265639D03*
Y268198D03*
Y270757D03*
Y273317D03*
Y275876D03*
Y278435D03*
Y280994D03*
D02*
D81*
X101131Y112411D03*
Y122411D03*
Y132411D03*
Y142411D03*
Y152411D03*
Y162411D03*
Y172411D03*
Y182411D03*
Y192411D03*
Y202411D03*
Y212411D03*
Y222411D03*
Y232411D03*
Y242411D03*
Y252411D03*
Y262411D03*
Y272411D03*
Y282411D03*
Y292411D03*
Y302411D03*
Y312411D03*
X191131Y112411D03*
Y122411D03*
Y132411D03*
Y142411D03*
Y152411D03*
Y162411D03*
Y172411D03*
Y182411D03*
Y192411D03*
Y202411D03*
Y212411D03*
Y222411D03*
Y232411D03*
Y242411D03*
Y252411D03*
Y262411D03*
Y272411D03*
Y282411D03*
Y292411D03*
Y302411D03*
Y312411D03*
Y322411D03*
D02*
D82*
X101131D03*
D02*
D83*
X255521Y134950D03*
D02*
D84*
Y111328D03*
D02*
D85*
X274025Y123139D03*
D02*
D86*
X54586Y255383D03*
Y260483D03*
X54635Y273345D03*
Y278445D03*
X54734Y138798D03*
Y143898D03*
Y158975D03*
Y164075D03*
D02*
D87*
X57616Y60147D03*
Y69006D03*
X66616Y60147D03*
Y69006D03*
X69427Y219104D03*
Y227470D03*
Y240757D03*
X69919Y175797D03*
Y185147D03*
Y194006D03*
X70411Y129045D03*
X70903Y298336D03*
Y307194D03*
X71084Y289970D03*
X78427Y219104D03*
Y227470D03*
Y240757D03*
X78919Y175797D03*
Y185147D03*
Y194006D03*
X79411Y129045D03*
X79903Y298336D03*
Y307194D03*
X80084Y289970D03*
D02*
D88*
X291446Y126624D03*
Y147214D03*
X0Y0D02*
M02*
