G04 DesignSpark PCB Gerber Version 10.0 Build 5299*
G04 #@! TF.Part,Single*
G04 #@! TF.FileFunction,Paste,Top*
G04 #@! TF.FilePolarity,Positive*
%FSLAX35Y35*%
%MOIN*%
G04 #@! TA.AperFunction,SMDPad,CuDef*
%ADD90R,0.02400X0.03100*%
%ADD89R,0.04521X0.01175*%
%ADD91R,0.05600X0.05100*%
%ADD92R,0.12002X0.06608*%
G04 #@! TD.AperFunction*
X0Y0D02*
D02*
D89*
X60639Y138592D03*
Y141151D03*
Y143710D03*
Y146269D03*
Y148828D03*
Y151387D03*
Y153946D03*
Y156506D03*
Y159065D03*
Y161624D03*
Y164183D03*
Y166742D03*
Y252844D03*
Y255403D03*
Y257962D03*
Y260521D03*
Y263080D03*
Y265639D03*
Y268198D03*
Y270757D03*
Y273317D03*
Y275876D03*
Y278435D03*
Y280994D03*
X89183Y138592D03*
Y141151D03*
Y143710D03*
Y146269D03*
Y148828D03*
Y151387D03*
Y153946D03*
Y156506D03*
Y159065D03*
Y161624D03*
Y164183D03*
Y166742D03*
Y252844D03*
Y255403D03*
Y257962D03*
Y260521D03*
Y263080D03*
Y265639D03*
Y268198D03*
Y270757D03*
Y273317D03*
Y275876D03*
Y278435D03*
Y280994D03*
D02*
D90*
X54586Y255383D03*
Y260483D03*
X54635Y273345D03*
Y278445D03*
X54734Y138798D03*
Y143898D03*
Y158975D03*
Y164075D03*
D02*
D91*
X57616Y60147D03*
Y69006D03*
X66616Y60147D03*
Y69006D03*
X69427Y219104D03*
Y227470D03*
Y240757D03*
X69919Y175797D03*
Y185147D03*
Y194006D03*
X70411Y129045D03*
X70903Y298336D03*
Y307194D03*
X71084Y289970D03*
X78427Y219104D03*
Y227470D03*
Y240757D03*
X78919Y175797D03*
Y185147D03*
Y194006D03*
X79411Y129045D03*
X79903Y298336D03*
Y307194D03*
X80084Y289970D03*
D02*
D92*
X291446Y126624D03*
Y147214D03*
X0Y0D02*
M02*
