G04 DesignSpark PCB Gerber Version 10.0 Build 5299*
G04 #@! TF.Part,Single*
G04 #@! TF.FileFunction,Drillmap*
G04 #@! TF.FilePolarity,Positive*
%FSLAX35Y35*%
%MOIN*%
%ADD20C,0.00500*%
G04 #@! TA.AperFunction,ComponentPad*
%ADD26C,0.10000*%
G04 #@! TD.AperFunction*
X0Y0D02*
D02*
D20*
X49697Y62628D02*
X50635D01*
Y62315D01*
X50322Y61690D01*
X50009Y61378D01*
X49385Y61065D01*
X48759D01*
X48135Y61378D01*
X47822Y61690D01*
X47509Y62315D01*
Y63565D01*
X47822Y64190D01*
X48135Y64503D01*
X48759Y64815D01*
X49385D01*
X50009Y64503D01*
X50322Y64190D01*
X50635Y63565D01*
X49697Y70502D02*
X50635D01*
Y70189D01*
X50322Y69564D01*
X50009Y69252D01*
X49385Y68939D01*
X48759D01*
X48135Y69252D01*
X47822Y69564D01*
X47509Y70189D01*
Y71439D01*
X47822Y72064D01*
X48135Y72377D01*
X48759Y72689D01*
X49385D01*
X50009Y72377D01*
X50322Y72064D01*
X50635Y71439D01*
X49697Y78376D02*
X50635D01*
Y78063D01*
X50322Y77438D01*
X50009Y77126D01*
X49385Y76813D01*
X48759D01*
X48135Y77126D01*
X47822Y77438D01*
X47509Y78063D01*
Y79313D01*
X47822Y79938D01*
X48135Y80251D01*
X48759Y80563D01*
X49385D01*
X50009Y80251D01*
X50322Y79938D01*
X50635Y79313D01*
X49697Y86250D02*
X50635D01*
Y85937D01*
X50322Y85312D01*
X50009Y85000D01*
X49385Y84687D01*
X48759D01*
X48135Y85000D01*
X47822Y85312D01*
X47509Y85937D01*
Y87187D01*
X47822Y87812D01*
X48135Y88125D01*
X48759Y88437D01*
X49385D01*
X50009Y88125D01*
X50322Y87812D01*
X50635Y87187D01*
X49697Y94124D02*
X50635D01*
Y93811D01*
X50322Y93186D01*
X50009Y92874D01*
X49385Y92561D01*
X48759D01*
X48135Y92874D01*
X47822Y93186D01*
X47509Y93811D01*
Y95061D01*
X47822Y95686D01*
X48135Y95999D01*
X48759Y96311D01*
X49385D01*
X50009Y95999D01*
X50322Y95686D01*
X50635Y95061D01*
X49697Y101998D02*
X50635D01*
Y101685D01*
X50322Y101060D01*
X50009Y100748D01*
X49385Y100435D01*
X48759D01*
X48135Y100748D01*
X47822Y101060D01*
X47509Y101685D01*
Y102935D01*
X47822Y103560D01*
X48135Y103873D01*
X48759Y104185D01*
X49385D01*
X50009Y103873D01*
X50322Y103560D01*
X50635Y102935D01*
X49697Y141860D02*
X50635D01*
Y141547D01*
X50322Y140922D01*
X50009Y140610D01*
X49385Y140297D01*
X48759D01*
X48135Y140610D01*
X47822Y140922D01*
X47509Y141547D01*
Y142797D01*
X47822Y143422D01*
X48135Y143735D01*
X48759Y144047D01*
X49385D01*
X50009Y143735D01*
X50322Y143422D01*
X50635Y142797D01*
X49697Y149734D02*
X50635D01*
Y149421D01*
X50322Y148796D01*
X50009Y148484D01*
X49385Y148171D01*
X48759D01*
X48135Y148484D01*
X47822Y148796D01*
X47509Y149421D01*
Y150671D01*
X47822Y151296D01*
X48135Y151609D01*
X48759Y151921D01*
X49385D01*
X50009Y151609D01*
X50322Y151296D01*
X50635Y150671D01*
X49697Y157608D02*
X50635D01*
Y157295D01*
X50322Y156670D01*
X50009Y156358D01*
X49385Y156045D01*
X48759D01*
X48135Y156358D01*
X47822Y156670D01*
X47509Y157295D01*
Y158545D01*
X47822Y159170D01*
X48135Y159483D01*
X48759Y159795D01*
X49385D01*
X50009Y159483D01*
X50322Y159170D01*
X50635Y158545D01*
X49697Y165482D02*
X50635D01*
Y165169D01*
X50322Y164544D01*
X50009Y164232D01*
X49385Y163919D01*
X48759D01*
X48135Y164232D01*
X47822Y164544D01*
X47509Y165169D01*
Y166419D01*
X47822Y167044D01*
X48135Y167357D01*
X48759Y167669D01*
X49385D01*
X50009Y167357D01*
X50322Y167044D01*
X50635Y166419D01*
X49697Y173356D02*
X50635D01*
Y173043D01*
X50322Y172419D01*
X50009Y172106D01*
X49385Y171793D01*
X48759D01*
X48135Y172106D01*
X47822Y172419D01*
X47509Y173043D01*
Y174293D01*
X47822Y174919D01*
X48135Y175231D01*
X48759Y175543D01*
X49385D01*
X50009Y175231D01*
X50322Y174919D01*
X50635Y174293D01*
X49697Y181230D02*
X50635D01*
Y180917D01*
X50322Y180293D01*
X50009Y179980D01*
X49385Y179667D01*
X48759D01*
X48135Y179980D01*
X47822Y180293D01*
X47509Y180917D01*
Y182167D01*
X47822Y182793D01*
X48135Y183105D01*
X48759Y183417D01*
X49385D01*
X50009Y183105D01*
X50322Y182793D01*
X50635Y182167D01*
X49697Y221092D02*
X50635D01*
Y220780D01*
X50322Y220155D01*
X50009Y219842D01*
X49385Y219530D01*
X48759D01*
X48135Y219842D01*
X47822Y220155D01*
X47509Y220780D01*
Y222030D01*
X47822Y222655D01*
X48135Y222967D01*
X48759Y223280D01*
X49385D01*
X50009Y222967D01*
X50322Y222655D01*
X50635Y222030D01*
X49697Y228966D02*
X50635D01*
Y228654D01*
X50322Y228029D01*
X50009Y227716D01*
X49385Y227404D01*
X48759D01*
X48135Y227716D01*
X47822Y228029D01*
X47509Y228654D01*
Y229904D01*
X47822Y230529D01*
X48135Y230841D01*
X48759Y231154D01*
X49385D01*
X50009Y230841D01*
X50322Y230529D01*
X50635Y229904D01*
X49697Y236840D02*
X50635D01*
Y236528D01*
X50322Y235903D01*
X50009Y235590D01*
X49385Y235278D01*
X48759D01*
X48135Y235590D01*
X47822Y235903D01*
X47509Y236528D01*
Y237778D01*
X47822Y238403D01*
X48135Y238715D01*
X48759Y239028D01*
X49385D01*
X50009Y238715D01*
X50322Y238403D01*
X50635Y237778D01*
X49697Y244714D02*
X50635D01*
Y244402D01*
X50322Y243777D01*
X50009Y243464D01*
X49385Y243152D01*
X48759D01*
X48135Y243464D01*
X47822Y243777D01*
X47509Y244402D01*
Y245652D01*
X47822Y246277D01*
X48135Y246589D01*
X48759Y246902D01*
X49385D01*
X50009Y246589D01*
X50322Y246277D01*
X50635Y245652D01*
X49697Y252588D02*
X50635D01*
Y252276D01*
X50322Y251651D01*
X50009Y251338D01*
X49385Y251026D01*
X48759D01*
X48135Y251338D01*
X47822Y251651D01*
X47509Y252276D01*
Y253526D01*
X47822Y254151D01*
X48135Y254463D01*
X48759Y254776D01*
X49385D01*
X50009Y254463D01*
X50322Y254151D01*
X50635Y253526D01*
X49697Y260462D02*
X50635D01*
Y260150D01*
X50322Y259525D01*
X50009Y259212D01*
X49385Y258900D01*
X48759D01*
X48135Y259212D01*
X47822Y259525D01*
X47509Y260150D01*
Y261400D01*
X47822Y262025D01*
X48135Y262337D01*
X48759Y262650D01*
X49385D01*
X50009Y262337D01*
X50322Y262025D01*
X50635Y261400D01*
X49697Y300324D02*
X50635D01*
Y300012D01*
X50322Y299387D01*
X50009Y299074D01*
X49385Y298762D01*
X48759D01*
X48135Y299074D01*
X47822Y299387D01*
X47509Y300012D01*
Y301262D01*
X47822Y301887D01*
X48135Y302200D01*
X48759Y302512D01*
X49385D01*
X50009Y302200D01*
X50322Y301887D01*
X50635Y301262D01*
X49697Y308198D02*
X50635D01*
Y307886D01*
X50322Y307261D01*
X50009Y306948D01*
X49385Y306636D01*
X48759D01*
X48135Y306948D01*
X47822Y307261D01*
X47509Y307886D01*
Y309136D01*
X47822Y309761D01*
X48135Y310074D01*
X48759Y310386D01*
X49385D01*
X50009Y310074D01*
X50322Y309761D01*
X50635Y309136D01*
X49697Y316072D02*
X50635D01*
Y315760D01*
X50322Y315135D01*
X50009Y314822D01*
X49385Y314510D01*
X48759D01*
X48135Y314822D01*
X47822Y315135D01*
X47509Y315760D01*
Y317010D01*
X47822Y317635D01*
X48135Y317948D01*
X48759Y318260D01*
X49385D01*
X50009Y317948D01*
X50322Y317635D01*
X50635Y317010D01*
X49697Y323946D02*
X50635D01*
Y323634D01*
X50322Y323009D01*
X50009Y322696D01*
X49385Y322384D01*
X48759D01*
X48135Y322696D01*
X47822Y323009D01*
X47509Y323634D01*
Y324884D01*
X47822Y325509D01*
X48135Y325822D01*
X48759Y326134D01*
X49385D01*
X50009Y325822D01*
X50322Y325509D01*
X50635Y324884D01*
X49697Y331820D02*
X50635D01*
Y331508D01*
X50322Y330883D01*
X50009Y330570D01*
X49385Y330258D01*
X48759D01*
X48135Y330570D01*
X47822Y330883D01*
X47509Y331508D01*
Y332758D01*
X47822Y333383D01*
X48135Y333696D01*
X48759Y334008D01*
X49385D01*
X50009Y333696D01*
X50322Y333383D01*
X50635Y332758D01*
X49697Y339694D02*
X50635D01*
Y339382D01*
X50322Y338757D01*
X50009Y338444D01*
X49385Y338132D01*
X48759D01*
X48135Y338444D01*
X47822Y338757D01*
X47509Y339382D01*
Y340632D01*
X47822Y341257D01*
X48135Y341570D01*
X48759Y341882D01*
X49385D01*
X50009Y341570D01*
X50322Y341257D01*
X50635Y340632D01*
X64734Y133900D02*
Y137650D01*
X67859D01*
X67234Y135775D02*
X64734D01*
Y133900D02*
X67859D01*
X64734Y267266D02*
Y271016D01*
X67859D01*
X67234Y269141D02*
X64734D01*
Y267266D02*
X67859D01*
X72116Y185573D02*
Y189323D01*
X75241D01*
X74616Y187448D02*
X72116D01*
Y185573D02*
X75241D01*
X72116Y194431D02*
Y198181D01*
X75241D01*
X74616Y196306D02*
X72116D01*
Y194431D02*
X75241D01*
X73100Y298762D02*
Y302512D01*
X76225D01*
X75600Y300637D02*
X73100D01*
Y298762D02*
X76225D01*
X73100Y307620D02*
Y311370D01*
X76225D01*
X75600Y309495D02*
X73100D01*
Y307620D02*
X76225D01*
X79498Y258407D02*
Y262157D01*
X82623D01*
X81998Y260283D02*
X79498D01*
Y258407D02*
X82623D01*
X84911Y122581D02*
Y126331D01*
X88036D01*
X87411Y124456D02*
X84911D01*
Y122581D02*
X88036D01*
X84911Y157030D02*
Y160780D01*
X88036D01*
X87411Y158905D02*
X84911D01*
Y157030D02*
X88036D01*
X92429Y274816D02*
Y278566D01*
X95554D01*
X94929Y276691D02*
X92429D01*
Y274816D02*
X95554D01*
X92785Y164411D02*
Y168161D01*
X95910D01*
X95285Y166287D02*
X92785D01*
Y164411D02*
X95910D01*
X92982Y265986D02*
Y269736D01*
X96107D01*
X95482Y267861D02*
X92982D01*
Y265986D02*
X96107D01*
X99183Y135376D02*
Y139126D01*
X102308D01*
X101683Y137251D02*
X99183D01*
Y135376D02*
X102308D01*
X99183Y170317D02*
Y174067D01*
X102308D01*
X101683Y172192D02*
X99183D01*
Y170317D02*
X102308D01*
X99183Y249824D02*
Y253574D01*
X102308D01*
X101683Y251699D02*
X99183D01*
Y249824D02*
X102308D01*
X99302Y285081D02*
Y288831D01*
X102427D01*
X101802Y286956D02*
X99302D01*
Y285081D02*
X102427D01*
X101643Y69431D02*
Y73181D01*
X104769D01*
X104143Y71306D02*
X101643D01*
Y69431D02*
X104769D01*
X111131Y112837D02*
Y116587D01*
X114257D01*
X113631Y114712D02*
X111131D01*
Y122837D02*
Y126587D01*
X114257D01*
X113631Y124712D02*
X111131D01*
Y132837D02*
Y136587D01*
X114257D01*
X113631Y134712D02*
X111131D01*
Y142837D02*
Y146587D01*
X114257D01*
X113631Y144712D02*
X111131D01*
Y152837D02*
Y156587D01*
X114257D01*
X113631Y154712D02*
X111131D01*
Y162837D02*
Y166587D01*
X114257D01*
X113631Y164712D02*
X111131D01*
Y172837D02*
Y176587D01*
X114257D01*
X113631Y174712D02*
X111131D01*
Y182837D02*
Y186587D01*
X114257D01*
X113631Y184712D02*
X111131D01*
Y192837D02*
Y196587D01*
X114257D01*
X113631Y194712D02*
X111131D01*
Y202837D02*
Y206587D01*
X114257D01*
X113631Y204712D02*
X111131D01*
Y212837D02*
Y216587D01*
X114257D01*
X113631Y214712D02*
X111131D01*
Y222837D02*
Y226587D01*
X114257D01*
X113631Y224712D02*
X111131D01*
Y232837D02*
Y236587D01*
X114257D01*
X113631Y234712D02*
X111131D01*
Y242837D02*
Y246587D01*
X114257D01*
X113631Y244712D02*
X111131D01*
Y252837D02*
Y256587D01*
X114257D01*
X113631Y254712D02*
X111131D01*
Y262837D02*
Y266587D01*
X114257D01*
X113631Y264712D02*
X111131D01*
Y272837D02*
Y276587D01*
X114257D01*
X113631Y274712D02*
X111131D01*
Y282837D02*
Y286587D01*
X114257D01*
X113631Y284712D02*
X111131D01*
Y292837D02*
Y296587D01*
X114257D01*
X113631Y294712D02*
X111131D01*
Y302837D02*
Y306587D01*
X114257D01*
X113631Y304712D02*
X111131D01*
Y312837D02*
Y316587D01*
X114257D01*
X113631Y314712D02*
X111131D01*
Y322837D02*
Y326587D01*
X114257D01*
X113631Y324712D02*
X111131D01*
X201131Y112837D02*
Y116587D01*
X204257D01*
X203631Y114712D02*
X201131D01*
Y122837D02*
Y126587D01*
X204257D01*
X203631Y124712D02*
X201131D01*
Y132837D02*
Y136587D01*
X204257D01*
X203631Y134712D02*
X201131D01*
Y142837D02*
Y146587D01*
X204257D01*
X203631Y144712D02*
X201131D01*
Y152837D02*
Y156587D01*
X204257D01*
X203631Y154712D02*
X201131D01*
Y162837D02*
Y166587D01*
X204257D01*
X203631Y164712D02*
X201131D01*
Y172837D02*
Y176587D01*
X204257D01*
X203631Y174712D02*
X201131D01*
Y182837D02*
Y186587D01*
X204257D01*
X203631Y184712D02*
X201131D01*
Y192837D02*
Y196587D01*
X204257D01*
X203631Y194712D02*
X201131D01*
Y202837D02*
Y206587D01*
X204257D01*
X203631Y204712D02*
X201131D01*
Y212837D02*
Y216587D01*
X204257D01*
X203631Y214712D02*
X201131D01*
Y222837D02*
Y226587D01*
X204257D01*
X203631Y224712D02*
X201131D01*
Y232837D02*
Y236587D01*
X204257D01*
X203631Y234712D02*
X201131D01*
Y242837D02*
Y246587D01*
X204257D01*
X203631Y244712D02*
X201131D01*
Y252837D02*
Y256587D01*
X204257D01*
X203631Y254712D02*
X201131D01*
Y262837D02*
Y266587D01*
X204257D01*
X203631Y264712D02*
X201131D01*
Y272837D02*
Y276587D01*
X204257D01*
X203631Y274712D02*
X201131D01*
Y282837D02*
Y286587D01*
X204257D01*
X203631Y284712D02*
X201131D01*
Y292837D02*
Y296587D01*
X204257D01*
X203631Y294712D02*
X201131D01*
Y302837D02*
Y306587D01*
X204257D01*
X203631Y304712D02*
X201131D01*
Y312837D02*
Y316587D01*
X204257D01*
X203631Y314712D02*
X201131D01*
Y322837D02*
Y326587D01*
X204257D01*
X203631Y324712D02*
X201131D01*
X222387Y97123D02*
X222074Y96811D01*
X221449Y96498D01*
X220511D01*
X219887Y96811D01*
X219574Y97123D01*
X219261Y97748D01*
Y98998D01*
X219574Y99623D01*
X219887Y99936D01*
X220511Y100248D01*
X221449D01*
X222074Y99936D01*
X222387Y99623D01*
Y134525D02*
X222074Y134212D01*
X221449Y133900D01*
X220511D01*
X219887Y134212D01*
X219574Y134525D01*
X219261Y135150D01*
Y136400D01*
X219574Y137025D01*
X219887Y137337D01*
X220511Y137650D01*
X221449D01*
X222074Y137337D01*
X222387Y137025D01*
X221449Y167509D02*
X222387D01*
Y167197D01*
X222074Y166572D01*
X221761Y166259D01*
X221137Y165947D01*
X220511D01*
X219887Y166259D01*
X219574Y166572D01*
X219261Y167197D01*
Y168447D01*
X219574Y169072D01*
X219887Y169385D01*
X220511Y169697D01*
X221137D01*
X221761Y169385D01*
X222074Y169072D01*
X222387Y168447D01*
X221449Y257509D02*
X222387D01*
Y257197D01*
X222074Y256572D01*
X221761Y256259D01*
X221137Y255947D01*
X220511D01*
X219887Y256259D01*
X219574Y256572D01*
X219261Y257197D01*
Y258447D01*
X219574Y259072D01*
X219887Y259385D01*
X220511Y259697D01*
X221137D01*
X221761Y259385D01*
X222074Y259072D01*
X222387Y258447D01*
X237387Y97123D02*
X237074Y96811D01*
X236449Y96498D01*
X235511D01*
X234887Y96811D01*
X234574Y97123D01*
X234261Y97748D01*
Y98998D01*
X234574Y99623D01*
X234887Y99936D01*
X235511Y100248D01*
X236449D01*
X237074Y99936D01*
X237387Y99623D01*
Y134525D02*
X237074Y134212D01*
X236449Y133900D01*
X235511D01*
X234887Y134212D01*
X234574Y134525D01*
X234261Y135150D01*
Y136400D01*
X234574Y137025D01*
X234887Y137337D01*
X235511Y137650D01*
X236449D01*
X237074Y137337D01*
X237387Y137025D01*
X251449Y167509D02*
X252387D01*
Y167197D01*
X252074Y166572D01*
X251761Y166259D01*
X251137Y165947D01*
X250511D01*
X249887Y166259D01*
X249574Y166572D01*
X249261Y167197D01*
Y168447D01*
X249574Y169072D01*
X249887Y169385D01*
X250511Y169697D01*
X251137D01*
X251761Y169385D01*
X252074Y169072D01*
X252387Y168447D01*
X261449Y257509D02*
X262387D01*
Y257197D01*
X262074Y256572D01*
X261761Y256259D01*
X261137Y255947D01*
X260511D01*
X259887Y256259D01*
X259574Y256572D01*
X259261Y257197D01*
Y258447D01*
X259574Y259072D01*
X259887Y259385D01*
X260511Y259697D01*
X261137D01*
X261761Y259385D01*
X262074Y259072D01*
X262387Y258447D01*
X265521Y111754D02*
Y115504D01*
X267396D01*
X268021Y115192D01*
X268334Y114879D01*
X268646Y114254D01*
Y113004D01*
X268334Y112379D01*
X268021Y112067D01*
X267396Y111754D01*
X265521D01*
Y135376D02*
Y139126D01*
X267396D01*
X268021Y138814D01*
X268334Y138501D01*
X268646Y137876D01*
Y136626D01*
X268334Y136001D01*
X268021Y135689D01*
X267396Y135376D01*
X265521D01*
X271449Y167509D02*
X272387D01*
Y167197D01*
X272074Y166572D01*
X271761Y166259D01*
X271137Y165947D01*
X270511D01*
X269887Y166259D01*
X269574Y166572D01*
X269261Y167197D01*
Y168447D01*
X269574Y169072D01*
X269887Y169385D01*
X270511Y169697D01*
X271137D01*
X271761Y169385D01*
X272074Y169072D01*
X272387Y168447D01*
X284025Y123565D02*
Y127315D01*
X285900D01*
X286525Y127003D01*
X286838Y126690D01*
X287150Y126065D01*
Y124815D01*
X286838Y124190D01*
X286525Y123878D01*
X285900Y123565D01*
X284025D01*
X301449Y257509D02*
X302387D01*
Y257197D01*
X302074Y256572D01*
X301761Y256259D01*
X301137Y255947D01*
X300511D01*
X299887Y256259D01*
X299574Y256572D01*
X299261Y257197D01*
Y258447D01*
X299574Y259072D01*
X299887Y259385D01*
X300511Y259697D01*
X301137D01*
X301761Y259385D01*
X302074Y259072D01*
X302387Y258447D01*
X303634Y92155D02*
X304572D01*
Y91843D01*
X304259Y91218D01*
X303946Y90905D01*
X303322Y90593D01*
X302696D01*
X302072Y90905D01*
X301759Y91218D01*
X301446Y91843D01*
Y93093D01*
X301759Y93718D01*
X302072Y94030D01*
X302696Y94343D01*
X303322D01*
X303946Y94030D01*
X304259Y93718D01*
X304572Y93093D01*
X303634Y102155D02*
X304572D01*
Y101843D01*
X304259Y101218D01*
X303946Y100905D01*
X303322Y100593D01*
X302696D01*
X302072Y100905D01*
X301759Y101218D01*
X301446Y101843D01*
Y103093D01*
X301759Y103718D01*
X302072Y104030D01*
X302696Y104343D01*
X303322D01*
X303946Y104030D01*
X304259Y103718D01*
X304572Y103093D01*
X303634Y112155D02*
X304572D01*
Y111843D01*
X304259Y111218D01*
X303946Y110905D01*
X303322Y110593D01*
X302696D01*
X302072Y110905D01*
X301759Y111218D01*
X301446Y111843D01*
Y113093D01*
X301759Y113718D01*
X302072Y114030D01*
X302696Y114343D01*
X303322D01*
X303946Y114030D01*
X304259Y113718D01*
X304572Y113093D01*
D02*
D26*
X37509Y55128D03*
Y63002D03*
Y70876D03*
Y78750D03*
Y86624D03*
Y94498D03*
Y134360D03*
Y142234D03*
Y150108D03*
Y157982D03*
Y165856D03*
Y173730D03*
Y213592D03*
Y221466D03*
Y229340D03*
Y237214D03*
Y245088D03*
Y252962D03*
Y292824D03*
Y300698D03*
Y308572D03*
Y316446D03*
Y324320D03*
Y332194D03*
X54734Y127962D03*
Y261328D03*
X62116Y179635D03*
Y188494D03*
X63100Y292824D03*
Y301683D03*
X69498Y252470D03*
X74911Y116643D03*
Y151092D03*
X82429Y268878D03*
X82785Y158474D03*
X82982Y260049D03*
X89183Y129439D03*
Y164380D03*
Y243886D03*
X89302Y279143D03*
X91643Y63494D03*
X101131Y106899D03*
Y116899D03*
Y126899D03*
Y136899D03*
Y146899D03*
Y156899D03*
Y166899D03*
Y176899D03*
Y186899D03*
Y196899D03*
Y206899D03*
Y216899D03*
Y226899D03*
Y236899D03*
Y246899D03*
Y256899D03*
Y266899D03*
Y276899D03*
Y286899D03*
Y296899D03*
Y306899D03*
Y316899D03*
X191131Y106899D03*
Y116899D03*
Y126899D03*
Y136899D03*
Y146899D03*
Y156899D03*
Y166899D03*
Y176899D03*
Y186899D03*
Y196899D03*
Y206899D03*
Y216899D03*
Y226899D03*
Y236899D03*
Y246899D03*
Y256899D03*
Y266899D03*
Y276899D03*
Y286899D03*
Y296899D03*
Y306899D03*
Y316899D03*
X209261Y90561D03*
Y127962D03*
Y160009D03*
Y250009D03*
X224261Y90561D03*
Y127962D03*
X239261Y160009D03*
X249261Y250009D03*
X255521Y105817D03*
Y129439D03*
X259261Y160009D03*
X274025Y117628D03*
X289261Y250009D03*
X291446Y84655D03*
Y94655D03*
Y104655D03*
X0Y0D02*
M02*
