G05
M48
;#@! TF.GenerationSoftware,DesignSpark,DesignSpark PCB,10.0.5344
;#@! TF.CreationDate,2023-03-27T13:32:52--8:00*
;#@! TF.FileFunction,Plated,1,2,PTH
;FILE_FORMAT=3:5
;TYPE=PLATED
INCH,TZ
FMAT,2
T1C000.02400
T2C000.03200
T3C000.03500
T4C000.03937
T5C000.04016
%
T001
X0.54734Y1.27962
X0.54734Y2.61328
X0.62116Y1.79635
X0.62116Y1.88494
X0.63100Y2.92824
X0.63100Y3.01683
X0.69498Y2.52470
X0.74911Y1.16643
X0.74911Y1.51092
X0.82429Y2.68878
X0.82785Y1.58474
X0.82982Y2.60049
X0.89183Y1.29439
X0.89183Y1.64380
X0.89183Y2.43886
X0.89302Y2.79143
X0.91643Y0.63494
T002
X2.09261Y0.90561
X2.09261Y1.27962
X2.24261Y0.90561
X2.24261Y1.27962
T003
X0.37509Y0.55128
X0.37509Y0.63002
X0.37509Y0.70876
X0.37509Y0.78750
X0.37509Y0.86624
X0.37509Y0.94498
X0.37509Y1.34360
X0.37509Y1.42234
X0.37509Y1.50108
X0.37509Y1.57982
X0.37509Y1.65856
X0.37509Y1.73730
X0.37509Y2.13592
X0.37509Y2.21466
X0.37509Y2.29340
X0.37509Y2.37214
X0.37509Y2.45088
X0.37509Y2.52962
X0.37509Y2.92824
X0.37509Y3.00698
X0.37509Y3.08572
X0.37509Y3.16446
X0.37509Y3.24320
X0.37509Y3.32194
X2.09261Y1.60009
X2.09261Y2.50009
X2.39261Y1.60009
X2.49261Y2.50009
X2.59261Y1.60009
X2.89261Y2.50009
X2.91446Y0.84655
X2.91446Y0.94655
X2.91446Y1.04655
T004
X2.55521Y1.05817
X2.55521Y1.29439
X2.74025Y1.17628
T005
X1.01131Y1.06899
X1.01131Y1.16899
X1.01131Y1.26899
X1.01131Y1.36899
X1.01131Y1.46899
X1.01131Y1.56899
X1.01131Y1.66899
X1.01131Y1.76899
X1.01131Y1.86899
X1.01131Y1.96899
X1.01131Y2.06899
X1.01131Y2.16899
X1.01131Y2.26899
X1.01131Y2.36899
X1.01131Y2.46899
X1.01131Y2.56899
X1.01131Y2.66899
X1.01131Y2.76899
X1.01131Y2.86899
X1.01131Y2.96899
X1.01131Y3.06899
X1.01131Y3.16899
X1.91131Y1.06899
X1.91131Y1.16899
X1.91131Y1.26899
X1.91131Y1.36899
X1.91131Y1.46899
X1.91131Y1.56899
X1.91131Y1.66899
X1.91131Y1.76899
X1.91131Y1.86899
X1.91131Y1.96899
X1.91131Y2.06899
X1.91131Y2.16899
X1.91131Y2.26899
X1.91131Y2.36899
X1.91131Y2.46899
X1.91131Y2.56899
X1.91131Y2.66899
X1.91131Y2.76899
X1.91131Y2.86899
X1.91131Y2.96899
X1.91131Y3.06899
X1.91131Y3.16899
M30
