G04 DesignSpark PCB Gerber Version 10.0 Build 5299*
G04 #@! TF.Part,Single*
G04 #@! TF.FileFunction,Soldermask,Bot*
G04 #@! TF.FilePolarity,Negative*
%FSLAX35Y35*%
%MOIN*%
G04 #@! TA.AperFunction,ComponentPad*
%ADD85O,0.09858X0.18717*%
%ADD82R,0.07024X0.07024*%
%ADD84O,0.18717X0.09858*%
%ADD83O,0.20685X0.10843*%
%ADD19C,0.07000*%
%ADD81C,0.07024*%
G04 #@! TD.AperFunction*
X0Y0D02*
D02*
D19*
X37509Y60639D03*
Y68513D03*
Y76387D03*
Y84261D03*
Y92135D03*
Y100009D03*
Y139872D03*
Y147746D03*
Y155620D03*
Y163494D03*
Y171368D03*
Y179242D03*
Y219104D03*
Y226978D03*
Y234852D03*
Y242726D03*
Y250600D03*
Y258474D03*
Y298336D03*
Y306210D03*
Y314084D03*
Y321958D03*
Y329832D03*
Y337706D03*
X209261Y96072D03*
Y133474D03*
Y165521D03*
Y255521D03*
X224261Y96072D03*
Y133474D03*
X239261Y165521D03*
X249261Y255521D03*
X259261Y165521D03*
X289261Y255521D03*
X291446Y90167D03*
Y100167D03*
Y110167D03*
D02*
D81*
X101131Y112411D03*
Y122411D03*
Y132411D03*
Y142411D03*
Y152411D03*
Y162411D03*
Y172411D03*
Y182411D03*
Y192411D03*
Y202411D03*
Y212411D03*
Y222411D03*
Y232411D03*
Y242411D03*
Y252411D03*
Y262411D03*
Y272411D03*
Y282411D03*
Y292411D03*
Y302411D03*
Y312411D03*
X191131Y112411D03*
Y122411D03*
Y132411D03*
Y142411D03*
Y152411D03*
Y162411D03*
Y172411D03*
Y182411D03*
Y192411D03*
Y202411D03*
Y212411D03*
Y222411D03*
Y232411D03*
Y242411D03*
Y252411D03*
Y262411D03*
Y272411D03*
Y282411D03*
Y292411D03*
Y302411D03*
Y312411D03*
Y322411D03*
D02*
D82*
X101131D03*
D02*
D83*
X255521Y134950D03*
D02*
D84*
Y111328D03*
D02*
D85*
X274025Y123139D03*
X0Y0D02*
M02*
