G04 DesignSpark PCB Gerber Version 10.0 Build 5299*
G04 #@! TF.Part,Single*
G04 #@! TF.FileFunction,Copper,L1,Top*
G04 #@! TF.FilePolarity,Positive*
%FSLAX35Y35*%
%MOIN*%
G04 #@! TA.AperFunction,ComponentPad*
%ADD76O,0.08858X0.17717*%
G04 #@! TA.AperFunction,SMDPad,CuDef*
%ADD77R,0.02800X0.03500*%
G04 #@! TA.AperFunction,ComponentPad*
%ADD73R,0.06024X0.06024*%
G04 #@! TD.AperFunction*
%ADD10C,0.01000*%
%ADD27C,0.01200*%
G04 #@! TA.AperFunction,ViaPad*
%ADD28C,0.04000*%
G04 #@! TA.AperFunction,ComponentPad*
%ADD14C,0.06000*%
%ADD72C,0.06024*%
%ADD75O,0.17717X0.08858*%
%ADD74O,0.19685X0.09843*%
G04 #@! TA.AperFunction,SMDPad,CuDef*
%ADD29R,0.04921X0.01575*%
%ADD78R,0.06000X0.05500*%
%ADD79R,0.12402X0.07008*%
G04 #@! TD.AperFunction*
X0Y0D02*
D02*
D10*
X32096Y163494D02*
X37509D01*
X32096D02*
X30620Y164970D01*
Y240265D01*
X33080Y242726D01*
X37509D01*
X35009Y84261D02*
X32909D01*
X35009Y163494D02*
X32909D01*
X35009Y242726D02*
X32909D01*
X35009Y321958D02*
X32909D01*
X37509Y68513D02*
X57124D01*
X57616Y69006D01*
X37509Y84261D02*
X84261D01*
X100994Y100994D01*
Y112273D01*
X101131Y112411D01*
X37509Y84261D02*
X32588D01*
X30620Y86230D01*
Y162017D01*
X32096Y163494D01*
X37509Y171368D02*
X46368D01*
X48336Y169399D01*
Y162017D01*
X51289Y159065D01*
X54644D01*
X54734Y158975D01*
X37509Y226978D02*
X68935D01*
X69427Y227470D01*
X37509Y234852D02*
X72521D01*
X78427Y240757D01*
X37509Y242726D02*
X67458D01*
X69427Y240757D01*
X37509Y321958D02*
X33572D01*
X30620Y319006D01*
Y245679D01*
X33572Y242726D01*
X37509D01*
Y329832D02*
X42923D01*
X45383Y327372D01*
Y277175D01*
X49320Y273238D01*
X54528D01*
X54635Y273345D01*
X37509Y337706D02*
X47352D01*
X51289Y333769D01*
Y290462D01*
X40009Y84261D02*
X42109D01*
X40009Y163494D02*
X42109D01*
X40009Y242726D02*
X42109D01*
X40009Y321958D02*
X42109D01*
X54586Y255383D02*
X49459D01*
X46368Y258474D01*
X37509D01*
X54586Y255383D02*
X60619D01*
X60639Y255403D01*
X54586Y260483D02*
Y266693D01*
X54734Y266840D01*
X54635Y278445D02*
X60629D01*
X60639Y278435D01*
X54734Y138798D02*
Y133474D01*
Y138798D02*
X60433D01*
X60639Y138592D01*
X54734Y143898D02*
X52855D01*
X50305Y141348D01*
Y94596D01*
X47844Y92135D01*
X37509D01*
X54734Y164075D02*
Y176289D01*
X51781Y179242D01*
X37509D01*
X54734Y164075D02*
X60532D01*
X60639Y164183D01*
X57616Y60147D02*
X38002D01*
X37509Y60639D01*
X60639Y141151D02*
Y138592D01*
Y143710D02*
X68120D01*
X69990Y141840D01*
Y129466D01*
X70411Y129045D01*
X60639Y143710D02*
Y146269D01*
X79832D01*
X84754Y151191D01*
X88986D01*
X89183Y151387D01*
X60639Y148828D02*
X56309D01*
X55226Y147746D01*
Y144390D01*
X54734Y143898D01*
X60639Y151387D02*
Y148828D01*
Y153946D02*
Y156506D01*
X57204D01*
X54734Y158975D01*
X60639Y159065D02*
X63592D01*
X65069Y157588D01*
Y147254D01*
X64084Y146269D01*
X60639D01*
Y161624D02*
X67628D01*
X69990Y163986D01*
Y175376D01*
X69919Y175446D01*
Y175797D01*
X60639Y161624D02*
Y159065D01*
Y164183D02*
Y166742D01*
Y255403D02*
Y252844D01*
Y257962D02*
X69478D01*
X69498Y257982D01*
X60639Y260521D02*
Y257962D01*
Y263080D02*
X57184D01*
X54586Y260483D01*
X60639Y265639D02*
Y263080D01*
Y270757D02*
X57223D01*
X54635Y273345D01*
X60639Y270757D02*
Y268198D01*
Y273317D02*
Y275876D01*
Y273317D02*
X64133D01*
X64934Y272516D01*
Y261894D01*
X63685Y260644D01*
X60763D01*
X60639Y260521D01*
Y280994D02*
Y282096D01*
X57194Y285541D01*
X52765D01*
X51289Y287017D01*
Y290462D01*
X60639Y280994D02*
Y278435D01*
X61131Y280620D02*
Y280994D01*
X60639D01*
X62600Y143710D02*
X64698D01*
X62600Y146269D02*
X64698D01*
X62600Y159065D02*
X64698D01*
X62600Y161624D02*
X64698D01*
X62600Y257962D02*
X64698D01*
X62600Y260521D02*
X64698D01*
X62600Y273317D02*
X64698D01*
X62600Y275876D02*
X64698D01*
X63100Y298336D02*
X70903D01*
X63100Y307194D02*
X70903D01*
X66616Y69006D02*
X91643D01*
X66927Y240757D02*
X64828D01*
X67419Y175797D02*
X65320D01*
X67911Y129045D02*
X65813D01*
X67998Y257982D02*
X65898D01*
X68584Y289970D02*
X66486D01*
X69427Y219104D02*
X37509D01*
X69427Y243007D02*
Y245108D01*
Y257419D02*
Y257911D01*
X69498Y257982D01*
Y256482D02*
Y254382D01*
Y257982D02*
Y240828D01*
X69427Y240757D01*
X69498Y259482D02*
Y261582D01*
X69919Y173547D02*
Y171446D01*
Y175797D02*
Y174462D01*
X69990Y174391D01*
X69919Y178047D02*
Y180147D01*
Y185147D02*
X62116D01*
X69919Y194006D02*
X62116D01*
X69970Y257962D02*
X69517D01*
X69498Y257982D01*
X70411Y126795D02*
Y124694D01*
Y129045D02*
Y118781D01*
X73435Y115757D01*
X91151D01*
X94596Y112313D01*
X101033D01*
X101131Y112411D01*
X70411Y131295D02*
Y133395D01*
X70998Y257982D02*
X73098D01*
X71084Y287720D02*
Y285620D01*
Y289970D02*
Y276849D01*
X70172Y275937D01*
X60907D01*
X60846Y275876D01*
X60639D01*
X74911Y122155D02*
X76880D01*
X79340Y124616D01*
Y128974D01*
X79411Y129045D01*
X78427Y227470D02*
X179242D01*
X181702Y225009D01*
Y174813D01*
X184163Y172352D01*
X191072D01*
X191131Y172411D01*
X78427Y240757D02*
Y268329D01*
X80855Y270757D01*
X89183D01*
X78919Y175797D02*
X83277D01*
X89183Y169891D01*
X78919Y194006D02*
X90167D01*
X97057Y187116D01*
X161033D01*
X185639Y162509D01*
X191033D01*
X191131Y162411D01*
X79340Y128974D02*
X79411Y129045D01*
X79903Y307194D02*
X182194D01*
X184655Y304734D01*
Y185639D01*
X187608Y182687D01*
X190856D01*
X191131Y182411D01*
X82982Y264061D02*
Y261961D01*
X87222Y151387D02*
X85124D01*
X88933Y281263D02*
Y281243D01*
X89183Y280994D01*
X89027Y273141D02*
Y273161D01*
X89183Y273317D01*
Y134950D02*
Y138592D01*
Y141151D02*
Y138592D01*
Y143710D02*
X94694D01*
X96072Y142332D01*
Y132982D01*
X96565Y132490D01*
X100718D01*
X100797Y132411D01*
X101131D01*
X89183Y146269D02*
X95088D01*
X96072Y147254D01*
Y147352D01*
X101131Y152411D01*
X89183Y148828D02*
X94694D01*
X96072Y150206D01*
Y157352D01*
X101131Y162411D01*
X89183Y156506D02*
X75009D01*
X74911Y156604D01*
X89183Y159065D02*
X94104D01*
X96072Y161033D01*
Y164970D01*
X98041Y166939D01*
X107883D01*
X109852Y168907D01*
Y173691D01*
X101131Y182411D01*
X89183Y164183D02*
X82982D01*
X82785Y163986D01*
X89183Y169891D02*
Y166742D01*
Y252844D02*
Y249398D01*
Y255403D02*
Y252844D01*
Y257962D02*
X95115D01*
X96174Y256902D01*
Y244091D01*
X97854Y242411D01*
X101131D01*
X89183Y263080D02*
Y260521D01*
Y263080D02*
X94861D01*
X96174Y264393D01*
Y271266D01*
X97424Y272516D01*
X101027D01*
X101131Y272411D01*
X89183Y265639D02*
X83061D01*
X82982Y265561D01*
X89183Y273317D02*
X83502D01*
X82429Y274390D01*
X89183Y275876D02*
X95161D01*
X96174Y276889D01*
Y281263D01*
X97424Y282513D01*
X100608D01*
X100710Y282411D01*
X101131D01*
X89183Y278435D02*
X92721D01*
X93675Y279389D01*
Y285637D01*
X95550Y287511D01*
X104922D01*
X106171Y286261D01*
Y253772D01*
X104811Y252411D01*
X101131D01*
X89183Y280994D02*
X89139Y281038D01*
X81058D01*
X80056Y282040D01*
X80084Y282069D01*
Y289970D01*
X89302Y284655D02*
Y281113D01*
X89183Y280994D01*
X98620Y112411D02*
X96520D01*
X99840Y122718D02*
X100147Y122411D01*
X101131D01*
X100246Y112313D02*
X100344Y112411D01*
X101131D01*
Y109899D02*
Y107799D01*
Y122411D02*
X181958D01*
X186624Y127076D01*
X204832D01*
X210738Y121171D01*
X223533D01*
X224261Y121899D01*
Y133474D01*
X101131Y122411D02*
Y122647D01*
Y172411D02*
Y172352D01*
X95088D01*
X93612Y170876D01*
Y162509D01*
X92628Y161525D01*
X89281D01*
X89183Y161624D01*
X103643Y112411D02*
X105743D01*
X188620D02*
X186520D01*
X188620Y122411D02*
X186520D01*
X188620Y322411D02*
X186520D01*
X191131Y109899D02*
Y107799D01*
Y112411D02*
Y110757D01*
X205817Y96072D01*
X209261D01*
X191131Y114923D02*
Y117023D01*
Y119899D02*
Y117799D01*
Y319899D02*
Y317799D01*
Y322411D02*
X203887D01*
X209261Y317037D01*
Y255521D01*
X191131Y324923D02*
Y327023D01*
X191624Y321919D02*
X191131Y322411D01*
X193643Y112411D02*
X195743D01*
X193643Y122411D02*
X195743D01*
X193643Y322411D02*
X195743D01*
X206761Y96072D02*
X204661D01*
X206761Y133474D02*
X204661D01*
X206761Y255521D02*
X204661D01*
X209261Y93572D02*
Y91472D01*
Y96072D02*
X224517Y111328D01*
X255521D01*
X209261Y98572D02*
Y100672D01*
Y130974D02*
Y128874D01*
Y133474D02*
Y144793D01*
X229931Y165462D01*
X239202D01*
X239261Y165521D01*
X209261Y135974D02*
Y138074D01*
Y253021D02*
Y250921D01*
Y255521D02*
X232883D01*
X239281Y249124D01*
Y168454D01*
X239261Y168435D01*
Y165521D01*
X209261Y258021D02*
Y260121D01*
X211761Y96072D02*
X213861D01*
X211761Y133474D02*
X213861D01*
X211761Y255521D02*
X213861D01*
X224261Y96072D02*
X217372Y89183D01*
X202372D01*
X174320Y117234D01*
X98533D01*
X89183Y126584D01*
Y134950D01*
X224261Y96072D02*
X274222D01*
X280128Y90167D01*
X291446D01*
X236761Y165521D02*
X234661D01*
X239261Y163021D02*
Y160921D01*
Y168021D02*
Y170121D01*
X241761Y165521D02*
X243861D01*
X247163Y111328D02*
X245065D01*
X255521Y107399D02*
Y105301D01*
Y111328D02*
X271761D01*
X283080Y100009D01*
X291112D01*
X291269Y100167D01*
X291446D01*
X255521Y115257D02*
Y117356D01*
Y134950D02*
Y142332D01*
X260443Y147254D01*
X290423D01*
X290462Y147214D01*
X291446D01*
X263880Y111328D02*
X265978D01*
X285746Y126624D02*
X283647D01*
X288946Y100167D02*
X286846D01*
X291446Y97667D02*
Y95567D01*
Y100167D02*
X295541D01*
X296860Y101486D01*
Y121210D01*
X291446Y126624D01*
Y102667D02*
Y104767D01*
Y123620D02*
Y121521D01*
Y129628D02*
Y131726D01*
X293946Y100167D02*
X296046D01*
X297147Y126624D02*
X299246D01*
D02*
D14*
X37509Y60639D03*
Y68513D03*
Y76387D03*
Y84261D03*
Y92135D03*
Y100009D03*
Y139872D03*
Y147746D03*
Y155620D03*
Y163494D03*
Y171368D03*
Y179242D03*
Y219104D03*
Y226978D03*
Y234852D03*
Y242726D03*
Y250600D03*
Y258474D03*
Y298336D03*
Y306210D03*
Y314084D03*
Y321958D03*
Y329832D03*
Y337706D03*
X209261Y96072D03*
Y133474D03*
Y165521D03*
Y255521D03*
X224261Y96072D03*
Y133474D03*
X239261Y165521D03*
X249261Y255521D03*
X259261Y165521D03*
X289261Y255521D03*
X291446Y90167D03*
Y100167D03*
Y110167D03*
D02*
D27*
X303257Y47844D02*
Y350502D01*
G75*
G03*
X292923Y360836I-10335J0D01*
G01*
X34065D01*
G75*
G03*
X24222Y350994I0J-9843D01*
G01*
Y48336D01*
G75*
G03*
X34557Y38002I10335J0D01*
G01*
X293415D01*
G75*
G03*
X303257Y47844I0J9843D01*
G01*
X186755Y303866D02*
G75*
G02*
X195743Y302411I4376J-1455D01*
G01*
G75*
G02*
X186755Y300956I-4612J0D01*
G01*
Y293866D01*
G75*
G02*
X195743Y292411I4376J-1455D01*
G01*
G75*
G02*
X186755Y290956I-4612J0D01*
G01*
Y283866D01*
G75*
G02*
X195743Y282411I4376J-1455D01*
G01*
G75*
G02*
X186755Y280956I-4612J0D01*
G01*
Y273866D01*
G75*
G02*
X195743Y272411I4376J-1455D01*
G01*
G75*
G02*
X186755Y270956I-4612J0D01*
G01*
Y263866D01*
G75*
G02*
X195743Y262411I4376J-1455D01*
G01*
G75*
G02*
X186755Y260956I-4612J0D01*
G01*
Y253866D01*
G75*
G02*
X195743Y252411I4376J-1455D01*
G01*
G75*
G02*
X186755Y250956I-4612J0D01*
G01*
Y243866D01*
G75*
G02*
X195743Y242411I4376J-1455D01*
G01*
G75*
G02*
X186755Y240956I-4612J0D01*
G01*
Y233866D01*
G75*
G02*
X195743Y232411I4376J-1455D01*
G01*
G75*
G02*
X186755Y230956I-4612J0D01*
G01*
Y223866D01*
G75*
G02*
X195743Y222411I4376J-1455D01*
G01*
G75*
G02*
X186755Y220956I-4612J0D01*
G01*
Y213866D01*
G75*
G02*
X195743Y212411I4376J-1455D01*
G01*
G75*
G02*
X186755Y210956I-4612J0D01*
G01*
Y203866D01*
G75*
G02*
X195743Y202411I4376J-1455D01*
G01*
G75*
G02*
X186755Y200956I-4612J0D01*
G01*
Y193866D01*
G75*
G02*
X195743Y192411I4376J-1455D01*
G01*
G75*
G02*
X186755Y190956I-4612J0D01*
G01*
Y186509D01*
X187734Y185530D01*
G75*
G02*
X195743Y182411I3397J-3119D01*
G01*
G75*
G02*
X186835Y180734I-4612J0D01*
G01*
G75*
G02*
X186123Y181202I772J1953D01*
G01*
X183802Y183522D01*
Y175682D01*
X185033Y174452D01*
X186996D01*
G75*
G02*
X195743Y172411I4135J-2041D01*
G01*
G75*
G02*
X187056Y170252I-4612J0D01*
G01*
X184165D01*
G75*
G02*
X182678Y170867I-3J2100D01*
G01*
X180217Y173328D01*
G75*
G02*
X179602Y174813I1485J1485D01*
G01*
Y224140D01*
X178372Y225370D01*
X104669D01*
G75*
G02*
X105743Y222411I-3537J-2959D01*
G01*
G75*
G02*
X96520I-4612J0D01*
G01*
G75*
G02*
X97594Y225370I4612J0D01*
G01*
X83025D01*
Y214754D01*
X64828D01*
Y217004D01*
X41602D01*
G75*
G02*
X32909Y219104I-4093J2100D01*
G01*
G75*
G02*
X35130Y223041I4600J0D01*
G01*
G75*
G02*
Y230915I2379J3937D01*
G01*
G75*
G02*
Y238789I2379J3937D01*
G01*
G75*
G02*
Y246663I2379J3937D01*
G01*
G75*
G02*
Y254537I2379J3937D01*
G01*
G75*
G02*
X32909Y258474I2379J3937D01*
G01*
G75*
G02*
X41602Y260574I4600J0D01*
G01*
X46365D01*
G75*
G02*
X47853Y259959I3J-2100D01*
G01*
X50329Y257483D01*
X51586D01*
Y263832D01*
X52486D01*
Y264028D01*
G75*
G02*
X52997Y269994I2248J2812D01*
G01*
X51635D01*
Y271138D01*
X49323D01*
G75*
G02*
X47835Y271753I-3J2100D01*
G01*
X43898Y275690D01*
G75*
G02*
X43283Y277175I1485J1485D01*
G01*
Y326502D01*
X42053Y327732D01*
X41602D01*
G75*
G02*
X39889Y325895I-4093J2100D01*
G01*
G75*
G02*
Y318021I-2379J-3937D01*
G01*
G75*
G02*
Y310147I-2379J-3937D01*
G01*
G75*
G02*
Y302273I-2379J-3937D01*
G01*
G75*
G02*
X42109Y298336I-2379J-3937D01*
G01*
G75*
G02*
X32909I-4600J0D01*
G01*
G75*
G02*
X35130Y302273I4600J0D01*
G01*
G75*
G02*
Y310147I2379J3937D01*
G01*
G75*
G02*
Y318021I2379J3937D01*
G01*
G75*
G02*
Y325895I2379J3937D01*
G01*
G75*
G02*
Y333769I2379J3937D01*
G01*
G75*
G02*
X32909Y337706I2379J3937D01*
G01*
G75*
G02*
X41602Y339806I4600J0D01*
G01*
X47350D01*
G75*
G02*
X48837Y339191I3J-2100D01*
G01*
X52774Y335254D01*
G75*
G02*
X53389Y333769I-1485J-1485D01*
G01*
Y287887D01*
X53635Y287641D01*
X57192D01*
G75*
G02*
X58680Y287026I3J-2100D01*
G01*
X62124Y283581D01*
G75*
G02*
X62302Y283380I-1486J-1485D01*
G01*
X64698D01*
Y250458D01*
X56580D01*
Y252033D01*
X51586D01*
Y253283D01*
X49461D01*
G75*
G02*
X47974Y253898I-3J2100D01*
G01*
X45498Y256374D01*
X41602D01*
G75*
G02*
X39889Y254537I-4093J2100D01*
G01*
G75*
G02*
Y246663I-2379J-3937D01*
G01*
G75*
G02*
Y238789I-2379J-3937D01*
G01*
G75*
G02*
X41602Y236952I-2379J-3937D01*
G01*
X64828D01*
Y245108D01*
X76327D01*
Y268329D01*
G75*
G02*
X76942Y269814I2100J0D01*
G01*
X79370Y272243D01*
G75*
G02*
X79472Y272337I1487J-1490D01*
G01*
G75*
G02*
X85124Y276777I2957J2053D01*
G01*
Y278938D01*
X81061D01*
G75*
G02*
X79573Y279553I-3J2100D01*
G01*
X78583Y280543D01*
G75*
G02*
X77956Y282040I1473J1496D01*
G01*
G75*
G02*
X77984Y282385I2102J0D01*
G01*
Y285620D01*
X66486D01*
Y293986D01*
X66305D01*
Y296236D01*
X66024D01*
G75*
G02*
X59500Y298336I-2924J2100D01*
G01*
G75*
G02*
X66024Y300436I3600J0D01*
G01*
X66305D01*
Y302687D01*
X84502D01*
Y294320D01*
X84683D01*
Y285620D01*
X82184D01*
Y283138D01*
X85124D01*
Y283380D01*
X85935D01*
G75*
G02*
X92056Y286974I3367J1276D01*
G01*
G75*
G02*
X92190Y287122I1620J-1338D01*
G01*
X94065Y288996D01*
G75*
G02*
X95552Y289611I1485J-1485D01*
G01*
X97467D01*
G75*
G02*
X96520Y292411I3665J2800D01*
G01*
G75*
G02*
X105743I4612J0D01*
G01*
G75*
G02*
X104796Y289611I-4612J0D01*
G01*
X104919D01*
G75*
G02*
X106407Y288996I3J-2100D01*
G01*
X107656Y287746D01*
G75*
G02*
X108271Y286261I-1485J-1485D01*
G01*
Y253772D01*
G75*
G02*
X107656Y252287I-2100J0D01*
G01*
X106296Y250926D01*
G75*
G02*
X105262Y250360I-1485J1485D01*
G01*
G75*
G02*
X98274Y248791I-4131J2051D01*
G01*
Y246031D01*
G75*
G02*
X105743Y242411I2857J-3620D01*
G01*
G75*
G02*
X96921Y240530I-4612J0D01*
G01*
G75*
G02*
X96366Y240929I934J1881D01*
G01*
X94693Y242603D01*
G75*
G02*
X94074Y244091I1482J1488D01*
G01*
Y255862D01*
X93242D01*
Y250458D01*
X92623D01*
G75*
G02*
X92783Y249398I-3440J-1061D01*
G01*
G75*
G02*
X85583I-3600J0D01*
G01*
G75*
G02*
X85743Y250458I3600J-1D01*
G01*
X85124D01*
Y262667D01*
G75*
G02*
X80527Y262928I-2142J2894D01*
G01*
Y245108D01*
X83025D01*
Y236407D01*
X77046D01*
X74006Y233367D01*
G75*
G02*
X72519Y232752I-1485J1485D01*
G01*
X41602D01*
G75*
G02*
X39889Y230915I-4093J2100D01*
G01*
G75*
G02*
X41602Y229078I-2379J-3937D01*
G01*
X64828D01*
Y231820D01*
X83025D01*
Y229570D01*
X97498D01*
G75*
G02*
X96520Y232411I3633J2841D01*
G01*
G75*
G02*
X105743I4612J0D01*
G01*
G75*
G02*
X104765Y229570I-4612J0D01*
G01*
X179239D01*
G75*
G02*
X180727Y228955I3J-2100D01*
G01*
X182555Y227126D01*
Y303864D01*
X181325Y305094D01*
X104882D01*
G75*
G02*
X105743Y302411I-3751J-2683D01*
G01*
G75*
G02*
X96520I-4612J0D01*
G01*
G75*
G02*
X97381Y305094I4612J0D01*
G01*
X84502D01*
Y302844D01*
X66305D01*
Y305094D01*
X66024D01*
G75*
G02*
X59500Y307194I-2924J2100D01*
G01*
G75*
G02*
X66024Y309294I3600J0D01*
G01*
X66305D01*
Y311545D01*
X84502D01*
Y309294D01*
X97732D01*
G75*
G02*
X96520Y312411I3400J3116D01*
G01*
G75*
G02*
X105743I4612J0D01*
G01*
G75*
G02*
X104531Y309294I-4612J0D01*
G01*
X182192D01*
G75*
G02*
X183680Y308680I3J-2100D01*
G01*
X186140Y306219D01*
G75*
G02*
X186755Y304734I-1485J-1485D01*
G01*
Y303866D01*
X287354Y92267D02*
G75*
G02*
X296046Y90167I4093J-2100D01*
G01*
G75*
G02*
X287354Y88067I-4600J0D01*
G01*
X280130D01*
G75*
G02*
X278643Y88682I-3J2100D01*
G01*
X273352Y93972D01*
X228354D01*
G75*
G02*
X222852Y91694I-4093J2100D01*
G01*
X218857Y87698D01*
G75*
G02*
X217369Y87083I-1485J1485D01*
G01*
X202374D01*
G75*
G02*
X200887Y87698I-3J2100D01*
G01*
X173451Y115134D01*
X104854D01*
G75*
G02*
X105743Y112411I-3722J-2723D01*
G01*
G75*
G02*
X96520I-4612J0D01*
G01*
G75*
G02*
X97585Y115360I4612J0D01*
G01*
G75*
G02*
X97048Y115749I947J1874D01*
G01*
X87698Y125099D01*
G75*
G02*
X87083Y126584I1485J1485D01*
G01*
Y132026D01*
G75*
G02*
X85809Y136206I2100J2924D01*
G01*
X85124D01*
Y154406D01*
X77762D01*
G75*
G02*
X71311Y156604I-2851J2198D01*
G01*
G75*
G02*
X77903Y158606I3600J0D01*
G01*
X85124D01*
Y161249D01*
G75*
G02*
X79185Y163986I-2339J2737D01*
G01*
G75*
G02*
X85124Y166723I3600J0D01*
G01*
Y169128D01*
X85665D01*
G75*
G02*
X85630Y170474I3518J763D01*
G01*
X83517Y172587D01*
Y171446D01*
X65320D01*
Y180147D01*
X83517D01*
Y177883D01*
G75*
G02*
X84762Y177282I-240J-2086D01*
G01*
X88600Y173444D01*
G75*
G02*
X91964Y172177I583J-3552D01*
G01*
G75*
G02*
X92127Y172361I1649J-1301D01*
G01*
X93603Y173837D01*
G75*
G02*
X95091Y174452I1485J-1485D01*
G01*
X96996D01*
G75*
G02*
X105743Y172411I4135J-2041D01*
G01*
G75*
G02*
X104277Y169039I-4612J0D01*
G01*
X107014D01*
X107752Y169777D01*
Y172821D01*
X102550Y178023D01*
G75*
G02*
X97326Y185016I-1419J4388D01*
G01*
X97059D01*
G75*
G02*
X95572Y185631I-3J2100D01*
G01*
X89297Y191906D01*
X83517D01*
Y189655D01*
X65320D01*
Y191906D01*
X65040D01*
G75*
G02*
X58516Y194006I-2924J2100D01*
G01*
G75*
G02*
X65040Y196106I3600J0D01*
G01*
X65320D01*
Y198356D01*
X83517D01*
Y196106D01*
X90165D01*
G75*
G02*
X91652Y195491I3J-2100D01*
G01*
X97304Y189838D01*
G75*
G02*
X96520Y192411I3828J2573D01*
G01*
G75*
G02*
X105743I4612J0D01*
G01*
G75*
G02*
X104457Y189216I-4612J0D01*
G01*
X161031D01*
G75*
G02*
X162518Y188601I3J-2100D01*
G01*
X186509Y164609D01*
X187078D01*
G75*
G02*
X195743Y162411I4054J-2198D01*
G01*
G75*
G02*
X186977Y160409I-4612J0D01*
G01*
X185642D01*
G75*
G02*
X184154Y161024I-3J2100D01*
G01*
X160163Y185016D01*
X104937D01*
G75*
G02*
X105520Y180993I-3806J-2605D01*
G01*
X111337Y175176D01*
G75*
G02*
X111952Y173691I-1485J-1485D01*
G01*
Y168907D01*
G75*
G02*
X111337Y167422I-2100J0D01*
G01*
X109369Y165454D01*
G75*
G02*
X107881Y164839I-1485J1485D01*
G01*
X105053D01*
G75*
G02*
X99713Y158023I-3921J-2428D01*
G01*
X98172Y156482D01*
Y155948D01*
G75*
G02*
X105743Y152411I2959J-3537D01*
G01*
G75*
G02*
X99713Y148023I-4612J0D01*
G01*
X97887Y146197D01*
G75*
G02*
X97557Y145769I-1815J1057D01*
G01*
X96581Y144793D01*
X96972Y144403D01*
G75*
G02*
X105743Y142411I4159J-1992D01*
G01*
G75*
G02*
X98172Y138874I-4612J0D01*
G01*
Y135948D01*
G75*
G02*
X105743Y132411I2959J-3537D01*
G01*
G75*
G02*
X96986Y130390I-4612J0D01*
G01*
X96565D01*
G75*
G02*
X95077Y131008I0J2100D01*
G01*
X94591Y131494D01*
G75*
G02*
X93972Y132982I1482J1488D01*
G01*
Y141463D01*
X93825Y141610D01*
X93242D01*
Y136206D01*
X92557D01*
G75*
G02*
X91283Y132026I-3374J-1256D01*
G01*
Y127454D01*
X96524Y122213D01*
G75*
G02*
X96520Y122411I4604J200D01*
G01*
G75*
G02*
X105237Y124511I4612J0D01*
G01*
X181089D01*
X185139Y128561D01*
G75*
G02*
X186626Y129176I1485J-1485D01*
G01*
X187844D01*
G75*
G02*
X186520Y132411I3287J3234D01*
G01*
G75*
G02*
X195743I4612J0D01*
G01*
G75*
G02*
X194419Y129176I-4612J0D01*
G01*
X204830D01*
G75*
G02*
X206317Y128561I3J-2100D01*
G01*
X211607Y123271D01*
X222161D01*
Y129381D01*
G75*
G02*
X224261Y138074I2100J4093D01*
G01*
G75*
G02*
X226361Y129381I0J-4600D01*
G01*
Y121899D01*
G75*
G02*
X225743Y120411I-2100J0D01*
G01*
X225021Y119689D01*
G75*
G02*
X223533Y119071I-1488J1482D01*
G01*
X210740D01*
G75*
G02*
X209253Y119686I-3J2100D01*
G01*
X203963Y124976D01*
X194964D01*
G75*
G02*
X195743Y122411I-3832J-2566D01*
G01*
G75*
G02*
X186520I-4612J0D01*
G01*
G75*
G02*
X187023Y124506I4612J0D01*
G01*
X183443Y120926D01*
G75*
G02*
X181956Y120311I-1485J1485D01*
G01*
X105237D01*
G75*
G02*
X104567Y119334I-4106J2100D01*
G01*
X174318D01*
G75*
G02*
X175806Y118719I3J-2100D01*
G01*
X203241Y91283D01*
X216502D01*
X219883Y94663D01*
G75*
G02*
X228354Y98172I4379J1409D01*
G01*
X274220D01*
G75*
G02*
X275707Y97557I3J-2100D01*
G01*
X280997Y92267D01*
X287354D01*
X186520Y142411D02*
G75*
G02*
X195743I4612J0D01*
G01*
G75*
G02*
X186520I-4612J0D01*
G01*
Y152411D02*
G75*
G02*
X195743I4612J0D01*
G01*
G75*
G02*
X186520I-4612J0D01*
G01*
X209261Y100672D02*
G75*
G02*
X213861Y96072I0J-4600D01*
G01*
G75*
G02*
X209261Y91472I-4600J0D01*
G01*
G75*
G02*
X204661Y96072I0J4600D01*
G01*
G75*
G02*
X209261Y100672I4600J0D01*
G01*
X186520Y112411D02*
G75*
G02*
X195743I4612J0D01*
G01*
G75*
G02*
X186520I-4612J0D01*
G01*
X65813Y133395D02*
X84009D01*
Y124694D01*
X81440D01*
Y124616D01*
G75*
G02*
X80825Y123131I-2100J0D01*
G01*
X78365Y120670D01*
G75*
G02*
X78067Y120423I-1483J1486D01*
G01*
G75*
G02*
X71311Y122155I-3156J1732D01*
G01*
G75*
G02*
X72359Y124694I3600J0D01*
G01*
X65813D01*
Y133395D01*
X96520Y202411D02*
G75*
G02*
X105743I4612J0D01*
G01*
G75*
G02*
X96520I-4612J0D01*
G01*
Y212411D02*
G75*
G02*
X105743I4612J0D01*
G01*
G75*
G02*
X96520I-4612J0D01*
G01*
X65320Y189498D02*
X83517D01*
Y180797D01*
X65320D01*
Y183047D01*
X65040D01*
G75*
G02*
X58516Y185147I-2924J2100D01*
G01*
G75*
G02*
X65040Y187247I3600J0D01*
G01*
X65320D01*
Y189498D01*
X65898Y257982D02*
G75*
G02*
X73098I3600J0D01*
G01*
G75*
G02*
X65898I-3600J0D01*
G01*
X96521Y327021D02*
X105742D01*
Y317801D01*
X96521D01*
Y327021D01*
X186520Y312411D02*
G75*
G02*
X195743I4612J0D01*
G01*
G75*
G02*
X186520I-4612J0D01*
G01*
Y322411D02*
G75*
G02*
X195743I4612J0D01*
G01*
G75*
G02*
X186520I-4612J0D01*
G01*
X209261Y138074D02*
G75*
G02*
X213861Y133474I0J-4600D01*
G01*
G75*
G02*
X209261Y128874I-4600J0D01*
G01*
G75*
G02*
X204661Y133474I0J4600D01*
G01*
G75*
G02*
X209261Y138074I4600J0D01*
G01*
X204661Y165521D02*
G75*
G02*
X213861I4600J0D01*
G01*
G75*
G02*
X204661I-4600J0D01*
G01*
Y255521D02*
G75*
G02*
X213861I4600J0D01*
G01*
G75*
G02*
X204661I-4600J0D01*
G01*
X234661Y165521D02*
G75*
G02*
X243861I4600J0D01*
G01*
G75*
G02*
X234661I-4600J0D01*
G01*
X283647Y152317D02*
X299246D01*
Y142112D01*
X283647D01*
Y145154D01*
X261312D01*
X257629Y141470D01*
X260443D01*
G75*
G02*
Y128431I0J-6520D01*
G01*
X250600D01*
G75*
G02*
Y141470I0J6520D01*
G01*
X253421D01*
Y142332D01*
G75*
G02*
X254036Y143817I2100J0D01*
G01*
X258957Y148739D01*
G75*
G02*
X260445Y149354I1485J-1485D01*
G01*
X283647D01*
Y152317D01*
X267998Y127569D02*
G75*
G02*
X280053I6028J0D01*
G01*
Y118710D01*
G75*
G02*
X267998I-6028J0D01*
G01*
Y127569D01*
X283647Y131726D02*
X299246D01*
Y121521D01*
X283647D01*
Y131726D01*
X286846Y100167D02*
G75*
G02*
X296046I4600J0D01*
G01*
G75*
G02*
X286846I-4600J0D01*
G01*
Y110167D02*
G75*
G02*
X296046I4600J0D01*
G01*
G75*
G02*
X286846I-4600J0D01*
G01*
X259950Y117356D02*
G75*
G02*
Y105301I0J-6028D01*
G01*
X251092D01*
G75*
G02*
Y117356I0J6028D01*
G01*
X259950D01*
X244661Y255521D02*
G75*
G02*
X253861I4600J0D01*
G01*
G75*
G02*
X244661I-4600J0D01*
G01*
X254661Y165521D02*
G75*
G02*
X263861I4600J0D01*
G01*
G75*
G02*
X254661I-4600J0D01*
G01*
X284661Y255521D02*
G75*
G02*
X293861I4600J0D01*
G01*
G75*
G02*
X284661I-4600J0D01*
G01*
X88719Y71106D02*
G75*
G02*
X95243Y69006I2924J-2100D01*
G01*
G75*
G02*
X88719Y66906I-3600J0D01*
G01*
X71214D01*
Y64655D01*
X53017D01*
Y66413D01*
X41602D01*
G75*
G02*
X39889Y64576I-4093J2100D01*
G01*
G75*
G02*
X41819Y62247I-2379J-3937D01*
G01*
X53017D01*
Y64498D01*
X71214D01*
Y55797D01*
X53017D01*
Y58047D01*
X41309D01*
G75*
G02*
X32909Y60639I-3800J2592D01*
G01*
G75*
G02*
X35130Y64576I4600J0D01*
G01*
G75*
G02*
Y72450I2379J3937D01*
G01*
G75*
G02*
Y80324I2379J3937D01*
G01*
G75*
G02*
Y88198I2379J3937D01*
G01*
G75*
G02*
Y96072I2379J3937D01*
G01*
G75*
G02*
X32909Y100009I2379J3937D01*
G01*
G75*
G02*
X42109I4600J0D01*
G01*
G75*
G02*
X39889Y96072I-4600J0D01*
G01*
G75*
G02*
X41602Y94235I-2379J-3937D01*
G01*
X46974D01*
X48205Y95466D01*
Y141348D01*
G75*
G02*
X48820Y142833I2100J0D01*
G01*
X51370Y145383D01*
G75*
G02*
X51734Y145674I1485J-1485D01*
G01*
Y147250D01*
X53126D01*
Y147746D01*
G75*
G02*
X53744Y149233I2100J0D01*
G01*
X54821Y150310D01*
G75*
G02*
X56309Y150928I1488J-1482D01*
G01*
X56580D01*
Y154500D01*
G75*
G02*
X55719Y155020I623J2006D01*
G01*
X55116Y155624D01*
X51734D01*
Y156965D01*
X51291D01*
G75*
G02*
X49804Y157580I-3J2100D01*
G01*
X46851Y160532D01*
G75*
G02*
X46236Y162017I1485J1485D01*
G01*
Y168530D01*
X45498Y169268D01*
X41602D01*
G75*
G02*
X39889Y167431I-4093J2100D01*
G01*
G75*
G02*
Y159557I-2379J-3937D01*
G01*
G75*
G02*
Y151683I-2379J-3937D01*
G01*
G75*
G02*
Y143809I-2379J-3937D01*
G01*
G75*
G02*
X42109Y139872I-2379J-3937D01*
G01*
G75*
G02*
X32909I-4600J0D01*
G01*
G75*
G02*
X35130Y143809I4600J0D01*
G01*
G75*
G02*
Y151683I2379J3937D01*
G01*
G75*
G02*
Y159557I2379J3937D01*
G01*
G75*
G02*
Y167431I2379J3937D01*
G01*
G75*
G02*
Y175305I2379J3937D01*
G01*
G75*
G02*
X32909Y179242I2379J3937D01*
G01*
G75*
G02*
X41602Y181342I4600J0D01*
G01*
X51779D01*
G75*
G02*
X53266Y180727I3J-2100D01*
G01*
X56219Y177774D01*
G75*
G02*
X56834Y176289I-1485J-1485D01*
G01*
Y169128D01*
X64698D01*
Y136206D01*
X57734D01*
Y135464D01*
G75*
G02*
X52405Y130729I-3000J-1990D01*
G01*
Y94596D01*
G75*
G02*
X51790Y93111I-2100J0D01*
G01*
X49329Y90650D01*
G75*
G02*
X47842Y90035I-1485J1485D01*
G01*
X41602D01*
G75*
G02*
X39889Y88198I-4093J2100D01*
G01*
G75*
G02*
Y80324I-2379J-3937D01*
G01*
G75*
G02*
Y72450I-2379J-3937D01*
G01*
G75*
G02*
X41602Y70613I-2379J-3937D01*
G01*
X53017D01*
Y73356D01*
X71214D01*
Y71106D01*
X88719D01*
X24822Y96072D02*
G36*
X24822Y96072D02*
Y44866D01*
G75*
G03*
X31087Y38602I9735J3470D01*
G01*
X296799D01*
G75*
G03*
X302657Y44460I-3384J9242D01*
G01*
Y96072D01*
X293543D01*
G75*
G02*
X289350I-2096J4094D01*
G01*
X277192D01*
X280997Y92267D01*
X287354D01*
G75*
G02*
X296046Y90167I4093J-2100D01*
G01*
G75*
G02*
X287354Y88067I-4600J0D01*
G01*
X280130D01*
G75*
G02*
X278643Y88682I-2J2101D01*
G01*
X273352Y93972D01*
X228354D01*
G75*
G02*
X222852Y91694I-4093J2100D01*
G01*
X218857Y87698D01*
G75*
G02*
X217369Y87083I-1485J1486D01*
G01*
X202374D01*
G75*
G02*
X200887Y87698I-2J2101D01*
G01*
X192512Y96072D01*
X52405D01*
Y94596D01*
G75*
G02*
X51790Y93111I-2102J0D01*
G01*
X49329Y90650D01*
G75*
G02*
X47842Y90035I-1485J1486D01*
G01*
X41602D01*
G75*
G02*
X39889Y88198I-4090J2097D01*
G01*
G75*
G02*
X42109Y84261I-2379J-3937D01*
G01*
G75*
G02*
X39889Y80324I-4600J0D01*
G01*
G75*
G02*
X42109Y76387I-2379J-3937D01*
G01*
G75*
G02*
X39889Y72450I-4600J0D01*
G01*
G75*
G02*
X41602Y70613I-2377J-3934D01*
G01*
X53017D01*
Y73356D01*
X71214D01*
Y71106D01*
X88719D01*
G75*
G02*
X95243Y69006I2924J-2100D01*
G01*
G75*
G02*
X88719Y66906I-3600J0D01*
G01*
X71214D01*
Y64655D01*
X53017D01*
Y66413D01*
X41602D01*
G75*
G02*
X39889Y64576I-4090J2097D01*
G01*
G75*
G02*
X41819Y62247I-2379J-3937D01*
G01*
X53017D01*
Y64498D01*
X71214D01*
Y55797D01*
X53017D01*
Y58047D01*
X41309D01*
G75*
G02*
X32909Y60639I-3800J2593D01*
G01*
G75*
G02*
Y60640I4101J0D01*
G01*
G75*
G02*
X35130Y64576I4599J0D01*
G01*
G75*
G02*
X32909Y68513I2379J3937D01*
G01*
G75*
G02*
X35130Y72450I4600J0D01*
G01*
G75*
G02*
X32909Y76387I2379J3937D01*
G01*
G75*
G02*
X35130Y80324I4600J0D01*
G01*
G75*
G02*
X32909Y84261I2379J3937D01*
G01*
G75*
G02*
X35130Y88198I4600J0D01*
G01*
G75*
G02*
X32909Y92135I2379J3937D01*
G01*
G75*
G02*
X35130Y96072I4600J0D01*
G01*
X24822D01*
G37*
X39889D02*
G36*
X39889Y96072D02*
G75*
G02*
X41602Y94235I-2377J-3934D01*
G01*
X46974D01*
X48205Y95466D01*
Y96072D01*
X39889D01*
G37*
X198452D02*
G36*
X198452Y96072D02*
X203241Y91283D01*
X216502D01*
X219883Y94663D01*
G75*
G02*
X219661Y96072I4379J1409D01*
G01*
X213861D01*
Y96072D01*
G75*
G02*
X209261Y91472I-4600J0D01*
G01*
G75*
G02*
X204661Y96072I0J4600D01*
G01*
Y96072D01*
X198452D01*
G37*
X24822Y100167D02*
G36*
X24822Y100167D02*
Y96072D01*
X35130D01*
G75*
G02*
X32909Y100009I2378J3936D01*
G01*
G75*
G02*
X32912Y100167I4602J-1D01*
G01*
X24822D01*
G37*
X42107D02*
G36*
X42107Y100167D02*
G75*
G02*
X42109Y100009I-4599J-159D01*
G01*
G75*
G02*
X39889Y96072I-4599J-1D01*
G01*
X48205D01*
Y100167D01*
X42107D01*
G37*
X52405D02*
G36*
X52405Y100167D02*
Y96072D01*
X192512D01*
X188417Y100167D01*
X52405D01*
G37*
X194357D02*
G36*
X194357Y100167D02*
X198452Y96072D01*
X204661D01*
Y96073D01*
G75*
G02*
X207165Y100167I4600J0D01*
G01*
X194357D01*
G37*
X213861Y96073D02*
G36*
X213861Y96073D02*
Y96072D01*
X219661D01*
G75*
G02*
X222165Y100167I4600J0D01*
G01*
X211358D01*
G75*
G02*
X213861Y96073I-2096J-4094D01*
G01*
G37*
X226357Y100167D02*
G36*
X226357Y100167D02*
G75*
G02*
X228354Y98172I-2096J-4094D01*
G01*
X274220D01*
G75*
G02*
X275707Y97557I2J-2101D01*
G01*
X277192Y96072D01*
X289350D01*
G75*
G02*
X286846Y100167I2096J4094D01*
G01*
X226357D01*
G37*
X296046D02*
G36*
X296046Y100167D02*
G75*
G02*
X293543Y96072I-4600J0D01*
G01*
X302657D01*
Y100167D01*
X296046D01*
G37*
X24822Y112411D02*
G36*
X24822Y112411D02*
Y100167D01*
X32912D01*
G75*
G02*
X42107I4597J-157D01*
G01*
X48205D01*
Y112411D01*
X24822D01*
G37*
X52405D02*
G36*
X52405Y112411D02*
Y100167D01*
X188417D01*
X176174Y112411D01*
X105743D01*
G75*
G02*
X96520I-4612J0D01*
G01*
X52405D01*
G37*
X186520D02*
G36*
X186520Y112411D02*
X182113D01*
X194357Y100167D01*
X207165D01*
G75*
G02*
X209261Y100672I2096J-4094D01*
G01*
G75*
G02*
X211358Y100167I0J-4600D01*
G01*
X222165D01*
G75*
G02*
X226357I2096J-4095D01*
G01*
X286846D01*
G75*
G02*
X296046I4600J0D01*
G01*
X302657D01*
Y112411D01*
X295462D01*
G75*
G02*
X296046Y110167I-4015J-2244D01*
G01*
G75*
G02*
X286846I-4600J0D01*
G01*
G75*
G02*
X287431Y112411I4600J0D01*
G01*
X265880D01*
G75*
G02*
X265978Y111328I-5930J-1083D01*
G01*
G75*
G02*
X259950Y105301I-6028J0D01*
G01*
X251092D01*
G75*
G02*
X245065Y111328I0J6028D01*
G01*
G75*
G02*
X245163Y112411I6028J0D01*
G01*
X195743D01*
G75*
G02*
X186520I-4612J0D01*
G01*
G37*
X24822Y125975D02*
G36*
X24822Y125975D02*
Y112411D01*
X48205D01*
Y125975D01*
X24822D01*
G37*
X52405D02*
G36*
X52405Y125975D02*
Y112411D01*
X96520D01*
G75*
G02*
Y112412I5639J1D01*
G01*
G75*
G02*
X97585Y115360I4609J0D01*
G01*
G75*
G02*
X97048Y115749I948J1876D01*
G01*
X87698Y125099D01*
G75*
G02*
X87173Y125975I1486J1486D01*
G01*
X84009D01*
Y124694D01*
X81440D01*
Y124616D01*
G75*
G02*
X80825Y123131I-2102J0D01*
G01*
X78365Y120670D01*
G75*
G02*
X78067Y120423I-1499J1504D01*
G01*
G75*
G02*
X71311Y122155I-3156J1732D01*
G01*
G75*
G02*
X72359Y124694I3602J0D01*
G01*
X65813D01*
Y125975D01*
X52405D01*
G37*
X92761D02*
G36*
X92761Y125975D02*
X96524Y122213D01*
G75*
G02*
X96520Y122411I4961J207D01*
G01*
G75*
G02*
X98205Y125975I4612J0D01*
G01*
X92761D01*
G37*
X105237Y120311D02*
G36*
X105237Y120311D02*
G75*
G02*
X104567Y119334I-4107J2101D01*
G01*
X174318D01*
G75*
G02*
X175806Y118719I2J-2101D01*
G01*
X182113Y112411D01*
X186520D01*
G75*
G02*
X195743I4612J0D01*
G01*
X245163D01*
G75*
G02*
X251092Y117356I5930J-1083D01*
G01*
X259950D01*
G75*
G02*
X265880Y112411I0J-6028D01*
G01*
X287431D01*
G75*
G02*
X295462I4015J-2244D01*
G01*
X302657D01*
Y125975D01*
X299246D01*
Y121521D01*
X283647D01*
Y125975D01*
X280053D01*
Y118710D01*
G75*
G02*
X267998I-6028J0D01*
G01*
Y125975D01*
X226361D01*
Y121899D01*
G75*
G02*
X225743Y120411I-2100J0D01*
G01*
X225021Y119689D01*
G75*
G02*
X223533Y119071I-1488J1481D01*
G01*
X210740D01*
G75*
G02*
X209253Y119686I-2J2101D01*
G01*
X203963Y124976D01*
X194964D01*
G75*
G02*
X195743Y122411I-3832J-2566D01*
G01*
G75*
G02*
X186520I-4612J0D01*
G01*
G75*
G02*
X187023Y124506I4613J0D01*
G01*
X183443Y120926D01*
G75*
G02*
X181956Y120311I-1485J1486D01*
G01*
X105237D01*
G37*
X104058Y125975D02*
G36*
X104058Y125975D02*
G75*
G02*
X105237Y124511I-2926J-3565D01*
G01*
X181089D01*
X182553Y125975D01*
X104058D01*
G37*
X105743Y112412D02*
G36*
X105743Y112412D02*
G75*
G02*
Y112411I-4511J0D01*
G01*
X176174D01*
X173451Y115134D01*
X104854D01*
G75*
G02*
X105743Y112412I-3719J-2722D01*
G01*
G37*
X208904Y125975D02*
G36*
X208904Y125975D02*
X211607Y123271D01*
X222161D01*
Y125975D01*
X208904D01*
G37*
X24822Y133474D02*
G36*
X24822Y133474D02*
Y125975D01*
X48205D01*
Y133474D01*
X24822D01*
G37*
X52405Y130729D02*
G36*
X52405Y130729D02*
Y125975D01*
X65813D01*
Y133395D01*
X84009D01*
Y125975D01*
X87173D01*
G75*
G02*
X87083Y126584I2011J609D01*
G01*
Y132026D01*
G75*
G02*
X85899Y133474I2100J2924D01*
G01*
X58334D01*
G75*
G02*
X52405Y130729I-3600J0D01*
G01*
G37*
X91283Y132026D02*
G36*
X91283Y132026D02*
Y127454D01*
X92761Y125975D01*
X98205D01*
G75*
G02*
X104058I2926J-3564D01*
G01*
X182553D01*
X185139Y128561D01*
G75*
G02*
X186626Y129176I1485J-1486D01*
G01*
X187844D01*
G75*
G02*
X186520Y132410I3285J3233D01*
G01*
G75*
G02*
Y132411I5206J1D01*
G01*
G75*
G02*
X186644Y133474I4612J1D01*
G01*
X105619D01*
G75*
G02*
X105743Y132411I-4487J-1062D01*
G01*
Y132411D01*
G75*
G02*
X96986Y130390I-4612J0D01*
G01*
X96565D01*
G75*
G02*
X95077Y131008I0J2099D01*
G01*
X94591Y131494D01*
G75*
G02*
X93972Y132982I1481J1488D01*
G01*
Y133474D01*
X92466D01*
G75*
G02*
X91283Y132026I-3283J1476D01*
G01*
G37*
X195619Y133474D02*
G36*
X195619Y133474D02*
G75*
G02*
X195743Y132411I-4488J-1062D01*
G01*
G75*
G02*
Y132410I-5206J0D01*
G01*
G75*
G02*
X194419Y129176I-4609J0D01*
G01*
X204830D01*
G75*
G02*
X206317Y128561I2J-2101D01*
G01*
X208904Y125975D01*
X222161D01*
Y129381D01*
G75*
G02*
X219661Y133474I2100J4093D01*
G01*
X213861D01*
Y133474D01*
G75*
G02*
X209261Y128874I-4600J0D01*
G01*
G75*
G02*
X204661Y133474I0J4600D01*
G01*
Y133474D01*
X195619D01*
G37*
X226361Y129381D02*
G36*
X226361Y129381D02*
Y125975D01*
X267998D01*
Y127569D01*
G75*
G02*
X272819Y133474I6028J0D01*
G01*
X266793D01*
G75*
G02*
X260443Y128431I-6350J1476D01*
G01*
X250600D01*
G75*
G02*
X244250Y133474I0J6520D01*
G01*
X228861D01*
G75*
G02*
X226361Y129381I-4600J0D01*
G01*
G37*
X280053Y127569D02*
G36*
X280053Y127569D02*
Y125975D01*
X283647D01*
Y131726D01*
X299246D01*
Y125975D01*
X302657D01*
Y133474D01*
X275232D01*
G75*
G02*
X280053Y127569I-1207J-5906D01*
G01*
G37*
X24822Y141961D02*
G36*
X24822Y141961D02*
Y133474D01*
X48205D01*
Y141348D01*
G75*
G02*
X48296Y141961I2102J-1D01*
G01*
X41607D01*
G75*
G02*
X42109Y139872I-4097J-2089D01*
G01*
G75*
G02*
X32909Y139872I-4600J-1D01*
G01*
G75*
G02*
X33411Y141961I4599J0D01*
G01*
X24822D01*
G37*
X57734Y136206D02*
G36*
X57734Y136206D02*
Y135464D01*
G75*
G02*
X58334Y133474I-3000J-1990D01*
G01*
X85899D01*
G75*
G02*
X85583Y134950I3283J1476D01*
G01*
G75*
G02*
X85809Y136206I3600J0D01*
G01*
X85124D01*
Y141961D01*
X64698D01*
Y136206D01*
X57734D01*
G37*
X92783Y134950D02*
G36*
X92783Y134950D02*
G75*
G02*
X92466Y133474I-3600J0D01*
G01*
X93972D01*
Y141463D01*
X93825Y141610D01*
X93242D01*
Y136206D01*
X92557D01*
G75*
G02*
X92783Y134950I-3374J-1256D01*
G01*
G37*
X98172Y138874D02*
G36*
X98172Y138874D02*
Y135948D01*
G75*
G02*
X105619Y133474I2959J-3537D01*
G01*
X186644D01*
G75*
G02*
X195619I4488J-1063D01*
G01*
X204661D01*
Y133474D01*
G75*
G02*
X209261Y138074I4600J0D01*
G01*
G75*
G02*
X213861Y133474I0J-4600D01*
G01*
Y133474D01*
X219661D01*
G75*
G02*
X224261Y138074I4600J0D01*
G01*
G75*
G02*
X228861Y133474I0J-4600D01*
G01*
X244250D01*
G75*
G02*
X244080Y134950I6350J1476D01*
G01*
G75*
G02*
X250600Y141470I6520J0D01*
G01*
X253421D01*
Y141961D01*
X195721D01*
G75*
G02*
X186542I-4590J450D01*
G01*
X105721D01*
G75*
G02*
X98172Y138874I-4590J449D01*
G01*
G37*
X258120Y141961D02*
G36*
X258120Y141961D02*
X257629Y141470D01*
X260443D01*
G75*
G02*
X266962Y134950I0J-6520D01*
G01*
G75*
G02*
X266793Y133474I-6520J0D01*
G01*
X272819D01*
G75*
G02*
X275232I1207J-5905D01*
G01*
X302657D01*
Y141961D01*
X258120D01*
G37*
X24822Y152411D02*
G36*
X24822Y152411D02*
Y141961D01*
X33411D01*
G75*
G02*
X35130Y143809I4096J-2089D01*
G01*
G75*
G02*
X32909Y147746I2379J3937D01*
G01*
G75*
G02*
X35130Y151683I4600J0D01*
G01*
G75*
G02*
X34213Y152411I2380J3937D01*
G01*
X24822D01*
G37*
X40806D02*
G36*
X40806Y152411D02*
G75*
G02*
X39889Y151683I-3296J3209D01*
G01*
G75*
G02*
X42109Y147746I-2379J-3937D01*
G01*
G75*
G02*
X39889Y143809I-4600J0D01*
G01*
G75*
G02*
X41607Y141961I-2378J-3936D01*
G01*
X48296D01*
G75*
G02*
X48820Y142833I2010J-613D01*
G01*
X51370Y145383D01*
G75*
G02*
X51734Y145674I1494J-1497D01*
G01*
Y147250D01*
X53126D01*
Y147746D01*
G75*
G02*
X53744Y149233I2100J0D01*
G01*
X54821Y150310D01*
G75*
G02*
X56309Y150928I1488J-1481D01*
G01*
X56580D01*
Y152411D01*
X40806D01*
G37*
X64698D02*
G36*
X64698Y152411D02*
Y141961D01*
X85124D01*
Y152411D01*
X64698D01*
G37*
X96581Y144793D02*
G36*
X96581Y144793D02*
X96972Y144403D01*
G75*
G02*
X105743Y142411I4159J-1992D01*
G01*
Y142411D01*
G75*
G02*
X105721Y141961I-4611J1D01*
G01*
X186542D01*
G75*
G02*
X186520Y142411I4590J450D01*
G01*
G75*
G02*
X195743I4612J0D01*
G01*
G75*
G02*
X195721Y141961I-4612J1D01*
G01*
X253421D01*
Y142332D01*
G75*
G02*
X254036Y143817I2102J0D01*
G01*
X258957Y148739D01*
G75*
G02*
X260445Y149354I1485J-1486D01*
G01*
X283647D01*
Y152317D01*
X299246D01*
Y142112D01*
X283647D01*
Y145154D01*
X261312D01*
X258120Y141961D01*
X302657D01*
Y152411D01*
X195743D01*
G75*
G02*
X186520I-4612J0D01*
G01*
X105743D01*
G75*
G02*
X99713Y148023I-4612J1D01*
G01*
X97887Y146197D01*
G75*
G02*
X97557Y145769I-1822J1062D01*
G01*
X96581Y144793D01*
G37*
X24822Y165521D02*
G36*
X24822Y165521D02*
Y152411D01*
X34213D01*
G75*
G02*
X32909Y155620I3296J3209D01*
G01*
G75*
G02*
X35130Y159557I4600J0D01*
G01*
G75*
G02*
X32909Y163494I2379J3937D01*
G01*
G75*
G02*
X33380Y165521I4600J0D01*
G01*
X24822D01*
G37*
X42109Y155620D02*
G36*
X42109Y155620D02*
G75*
G02*
X40806Y152411I-4600J0D01*
G01*
X56580D01*
Y154500D01*
G75*
G02*
X55719Y155020I624J2006D01*
G01*
X55116Y155624D01*
X51734D01*
Y156965D01*
X51291D01*
G75*
G02*
X49804Y157580I-2J2101D01*
G01*
X46851Y160532D01*
G75*
G02*
X46236Y162017I1487J1485D01*
G01*
Y165521D01*
X41639D01*
G75*
G02*
X42109Y163494I-4129J-2028D01*
G01*
G75*
G02*
X39889Y159557I-4600J0D01*
G01*
G75*
G02*
X42109Y155620I-2379J-3937D01*
G01*
G37*
X64698Y165521D02*
G36*
X64698Y165521D02*
Y152411D01*
X85124D01*
Y154406D01*
X77762D01*
G75*
G02*
X71311Y156604I-2851J2198D01*
G01*
G75*
G02*
X77903Y158606I3600J0D01*
G01*
X85124D01*
Y161249D01*
G75*
G02*
X79185Y163986I-2339J2737D01*
G01*
G75*
G02*
X79529Y165521I3600J0D01*
G01*
X64698D01*
G37*
X98172Y156482D02*
G36*
X98172Y156482D02*
Y155948D01*
G75*
G02*
X105743Y152411I2959J-3537D01*
G01*
Y152411D01*
X186520D01*
G75*
G02*
X195743I4612J0D01*
G01*
X302657D01*
Y165521D01*
X263861D01*
G75*
G02*
X254661I-4600J0D01*
G01*
X243861D01*
G75*
G02*
X234661I-4600J0D01*
G01*
X213861D01*
G75*
G02*
X204661I-4600J0D01*
G01*
X194537D01*
G75*
G02*
X195743Y162411I-3405J-3110D01*
G01*
G75*
G02*
X186977Y160409I-4612J0D01*
G01*
X185642D01*
G75*
G02*
X184154Y161024I-2J2101D01*
G01*
X179657Y165521D01*
X109436D01*
X109369Y165454D01*
G75*
G02*
X107881Y164839I-1485J1486D01*
G01*
X105053D01*
G75*
G02*
X105743Y162411I-3922J-2428D01*
G01*
G75*
G02*
X99713Y158023I-4612J0D01*
G01*
X98172Y156482D01*
G37*
X185597Y165521D02*
G36*
X185597Y165521D02*
X186509Y164609D01*
X187078D01*
G75*
G02*
X187726Y165521I4054J-2198D01*
G01*
X185597D01*
G37*
X24822Y185147D02*
G36*
X24822Y185147D02*
Y165521D01*
X33380D01*
G75*
G02*
X35130Y167431I4129J-2028D01*
G01*
G75*
G02*
X32909Y171368I2379J3937D01*
G01*
G75*
G02*
X35130Y175305I4600J0D01*
G01*
G75*
G02*
X32909Y179241I2378J3936D01*
G01*
G75*
G02*
Y179242I4101J0D01*
G01*
G75*
G02*
X41602Y181342I4600J0D01*
G01*
X51779D01*
G75*
G02*
X53266Y180727I2J-2101D01*
G01*
X56219Y177774D01*
G75*
G02*
X56834Y176289I-1487J-1485D01*
G01*
Y169128D01*
X64698D01*
Y165521D01*
X79529D01*
G75*
G02*
X85124Y166723I3256J-1536D01*
G01*
Y169128D01*
X85665D01*
G75*
G02*
X85583Y169891I3515J763D01*
G01*
G75*
G02*
X85630Y170474I3598J0D01*
G01*
X83517Y172587D01*
Y171446D01*
X65320D01*
Y180147D01*
X83517D01*
Y177883D01*
G75*
G02*
X84762Y177282I-241J-2088D01*
G01*
X88600Y173444D01*
G75*
G02*
X91964Y172177I583J-3553D01*
G01*
G75*
G02*
X92127Y172361I1631J-1285D01*
G01*
X93603Y173837D01*
G75*
G02*
X95091Y174452I1485J-1486D01*
G01*
X96996D01*
G75*
G02*
X105743Y172411I4135J-2041D01*
G01*
Y172411D01*
G75*
G02*
X104277Y169039I-4611J0D01*
G01*
X107014D01*
X107752Y169777D01*
Y172821D01*
X102550Y178023D01*
G75*
G02*
X96520Y182411I-1419J4388D01*
G01*
G75*
G02*
X97326Y185016I4612J0D01*
G01*
X97059D01*
G75*
G02*
X96325Y185147I-2J2100D01*
G01*
X83517D01*
Y180797D01*
X65320D01*
Y183047D01*
X65040D01*
G75*
G02*
X58516Y185147I-2924J2100D01*
G01*
X24822D01*
G37*
X41602Y169268D02*
G36*
X41602Y169268D02*
G75*
G02*
X39889Y167431I-4090J2097D01*
G01*
G75*
G02*
X41639Y165521I-2379J-3937D01*
G01*
X46236D01*
Y168530D01*
X45498Y169268D01*
X41602D01*
G37*
X105743Y182411D02*
G36*
X105743Y182411D02*
G75*
G02*
X105520Y180993I-4613J0D01*
G01*
X111337Y175176D01*
G75*
G02*
X111952Y173691I-1487J-1485D01*
G01*
Y168907D01*
G75*
G02*
X111337Y167422I-2102J0D01*
G01*
X109436Y165521D01*
X179657D01*
X160163Y185016D01*
X104937D01*
G75*
G02*
X105743Y182411I-3807J-2605D01*
G01*
G37*
X179602Y174813D02*
G36*
X179602Y174813D02*
Y185147D01*
X165972D01*
X185597Y165521D01*
X187726D01*
G75*
G02*
X194537I3405J-3110D01*
G01*
X204661D01*
G75*
G02*
X213861I4600J0D01*
G01*
X234661D01*
G75*
G02*
X243861I4600J0D01*
G01*
X254661D01*
G75*
G02*
X263861I4600J0D01*
G01*
X302657D01*
Y185147D01*
X194844D01*
G75*
G02*
X195743Y182411I-3713J-2737D01*
G01*
G75*
G02*
X186835Y180734I-4612J0D01*
G01*
G75*
G02*
X186123Y181202I770J1950D01*
G01*
X183802Y183522D01*
Y175682D01*
X185033Y174452D01*
X186996D01*
G75*
G02*
X195743Y172411I4135J-2041D01*
G01*
G75*
G02*
X187056Y170252I-4612J0D01*
G01*
X184165D01*
G75*
G02*
X182678Y170867I-2J2101D01*
G01*
X180217Y173328D01*
G75*
G02*
X179602Y174813I1487J1485D01*
G01*
G37*
X24822Y202411D02*
G36*
X24822Y202411D02*
Y185147D01*
X58516D01*
G75*
G02*
X65040Y187247I3600J0D01*
G01*
X65320D01*
Y189498D01*
X83517D01*
Y185147D01*
X96325D01*
G75*
G02*
X95572Y185631I731J1969D01*
G01*
X89297Y191906D01*
X83517D01*
Y189655D01*
X65320D01*
Y191906D01*
X65040D01*
G75*
G02*
X58516Y194006I-2924J2100D01*
G01*
G75*
G02*
X65040Y196106I3600J0D01*
G01*
X65320D01*
Y198356D01*
X83517D01*
Y196106D01*
X90165D01*
G75*
G02*
X91652Y195491I2J-2101D01*
G01*
X97304Y189838D01*
G75*
G02*
X96520Y192411I3827J2572D01*
G01*
Y192411D01*
G75*
G02*
X105743I4612J0D01*
G01*
Y192411D01*
G75*
G02*
X104457Y189216I-4611J0D01*
G01*
X161031D01*
G75*
G02*
X162518Y188601I2J-2101D01*
G01*
X165972Y185147D01*
X179602D01*
Y202411D01*
X105743D01*
G75*
G02*
X96520I-4612J0D01*
G01*
X24822D01*
G37*
X186755Y190956D02*
G36*
X186755Y190956D02*
Y186509D01*
X187734Y185530D01*
G75*
G02*
X194844Y185147I3397J-3119D01*
G01*
X302657D01*
Y202411D01*
X195743D01*
Y202411D01*
G75*
G02*
X186755Y200956I-4612J0D01*
G01*
Y193866D01*
G75*
G02*
X195743Y192411I4376J-1455D01*
G01*
Y192411D01*
G75*
G02*
X186755Y190956I-4612J0D01*
G01*
G37*
X24822Y212411D02*
G36*
X24822Y212411D02*
Y202411D01*
X96520D01*
G75*
G02*
X105743I4612J0D01*
G01*
X179602D01*
Y212411D01*
X105743D01*
G75*
G02*
X96520I-4612J0D01*
G01*
X24822D01*
G37*
X186755Y210956D02*
G36*
X186755Y210956D02*
Y203866D01*
G75*
G02*
X195743Y202411I4376J-1455D01*
G01*
X302657D01*
Y212411D01*
X195743D01*
Y212411D01*
G75*
G02*
X186755Y210956I-4612J0D01*
G01*
G37*
X24822Y255053D02*
G36*
X24822Y255053D02*
Y212411D01*
X96520D01*
G75*
G02*
X105743I4612J0D01*
G01*
X179602D01*
Y224140D01*
X178372Y225370D01*
X104669D01*
G75*
G02*
X105743Y222412I-3535J-2958D01*
G01*
G75*
G02*
Y222411I-5013J0D01*
G01*
G75*
G02*
X96520I-4612J0D01*
G01*
G75*
G02*
Y222412I5013J0D01*
G01*
G75*
G02*
X97594Y225370I4610J0D01*
G01*
X83025D01*
Y214754D01*
X64828D01*
Y217004D01*
X41602D01*
G75*
G02*
X32909Y219104I-4093J2100D01*
G01*
G75*
G02*
Y219105I4101J0D01*
G01*
G75*
G02*
X35130Y223041I4599J0D01*
G01*
G75*
G02*
X32909Y226978I2379J3937D01*
G01*
G75*
G02*
X35130Y230915I4600J0D01*
G01*
G75*
G02*
X32909Y234852I2379J3937D01*
G01*
G75*
G02*
X35130Y238789I4600J0D01*
G01*
G75*
G02*
X32909Y242726I2379J3937D01*
G01*
G75*
G02*
X35130Y246663I4600J0D01*
G01*
G75*
G02*
X32909Y250600I2379J3937D01*
G01*
G75*
G02*
X35130Y254537I4600J0D01*
G01*
G75*
G02*
X34434Y255053I2378J3937D01*
G01*
X24822D01*
G37*
X40585D02*
G36*
X40585Y255053D02*
G75*
G02*
X39889Y254537I-3073J3419D01*
G01*
G75*
G02*
X42109Y250600I-2379J-3937D01*
G01*
G75*
G02*
X39889Y246663I-4600J0D01*
G01*
G75*
G02*
X42109Y242726I-2379J-3937D01*
G01*
G75*
G02*
X39889Y238789I-4600J0D01*
G01*
G75*
G02*
X41602Y236952I-2377J-3934D01*
G01*
X64828D01*
Y245108D01*
X76327D01*
Y255053D01*
X71591D01*
G75*
G02*
X67405I-2093J2929D01*
G01*
X64698D01*
Y250458D01*
X56580D01*
Y252033D01*
X51586D01*
Y253283D01*
X49461D01*
G75*
G02*
X47974Y253898I-2J2101D01*
G01*
X46819Y255053D01*
X40585D01*
G37*
X39889Y230915D02*
G36*
X39889Y230915D02*
G75*
G02*
X41602Y229078I-2377J-3934D01*
G01*
X64828D01*
Y231820D01*
X83025D01*
Y229570D01*
X97498D01*
G75*
G02*
X96520Y232411I3635J2841D01*
G01*
G75*
G02*
X105743I4612J0D01*
G01*
G75*
G02*
X104765Y229570I-4613J0D01*
G01*
X179239D01*
G75*
G02*
X180727Y228955I2J-2101D01*
G01*
X182555Y227126D01*
Y255053D01*
X108271D01*
Y253772D01*
G75*
G02*
X107656Y252287I-2102J0D01*
G01*
X106296Y250926D01*
G75*
G02*
X105262Y250360I-1487J1489D01*
G01*
G75*
G02*
X98274Y248791I-4131J2051D01*
G01*
Y246031D01*
G75*
G02*
X105743Y242411I2857J-3620D01*
G01*
Y242411D01*
G75*
G02*
X96921Y240530I-4612J0D01*
G01*
G75*
G02*
X96366Y240929I938J1887D01*
G01*
X94693Y242603D01*
G75*
G02*
X94074Y244091I1481J1488D01*
G01*
Y255053D01*
X93242D01*
Y250458D01*
X92623D01*
G75*
G02*
X92783Y249398I-3433J-1060D01*
G01*
Y249398D01*
G75*
G02*
X85583I-3600J0D01*
G01*
Y249398D01*
G75*
G02*
X85743Y250458I3593J0D01*
G01*
X85124D01*
Y255053D01*
X80527D01*
Y245108D01*
X83025D01*
Y236407D01*
X77046D01*
X74006Y233367D01*
G75*
G02*
X72519Y232752I-1485J1486D01*
G01*
X41602D01*
G75*
G02*
X39889Y230915I-4090J2097D01*
G01*
G37*
X186755Y220956D02*
G36*
X186755Y220956D02*
Y213866D01*
G75*
G02*
X195743Y212411I4376J-1455D01*
G01*
X302657D01*
Y255053D01*
X293837D01*
G75*
G02*
X284685I-4576J469D01*
G01*
X253837D01*
G75*
G02*
X244685I-4576J469D01*
G01*
X213837D01*
G75*
G02*
X204685I-4576J469D01*
G01*
X194912D01*
G75*
G02*
X195743Y252411I-3781J-2642D01*
G01*
Y252411D01*
G75*
G02*
X186755Y250956I-4612J0D01*
G01*
Y243866D01*
G75*
G02*
X195743Y242411I4376J-1455D01*
G01*
Y242411D01*
G75*
G02*
X186755Y240956I-4612J0D01*
G01*
Y233866D01*
G75*
G02*
X195743Y232411I4376J-1455D01*
G01*
Y232411D01*
G75*
G02*
X186755Y230956I-4612J0D01*
G01*
Y223866D01*
G75*
G02*
X195743Y222411I4376J-1455D01*
G01*
Y222411D01*
G75*
G02*
X186755Y220956I-4612J0D01*
G01*
G37*
Y255053D02*
G36*
X186755Y255053D02*
Y253866D01*
G75*
G02*
X187351Y255053I4376J-1455D01*
G01*
X186755D01*
G37*
X24822Y312411D02*
G36*
X24822Y312411D02*
Y255053D01*
X34434D01*
G75*
G02*
X32909Y258473I3074J3420D01*
G01*
G75*
G02*
Y258474I4101J0D01*
G01*
G75*
G02*
X41602Y260574I4600J0D01*
G01*
X46365D01*
G75*
G02*
X47853Y259959I2J-2101D01*
G01*
X50329Y257483D01*
X51586D01*
Y263832D01*
X52486D01*
Y264028D01*
G75*
G02*
X51134Y266840I2248J2812D01*
G01*
G75*
G02*
X52997Y269994I3600J0D01*
G01*
X51635D01*
Y271138D01*
X49323D01*
G75*
G02*
X47835Y271753I-2J2101D01*
G01*
X43898Y275690D01*
G75*
G02*
X43283Y277175I1487J1485D01*
G01*
Y312411D01*
X41794D01*
G75*
G02*
X39889Y310147I-4285J1674D01*
G01*
G75*
G02*
X42109Y306210I-2379J-3937D01*
G01*
G75*
G02*
X39889Y302273I-4600J0D01*
G01*
G75*
G02*
X42109Y298337I-2378J-3936D01*
G01*
G75*
G02*
Y298336I-4101J0D01*
G01*
G75*
G02*
X32909I-4600J0D01*
G01*
G75*
G02*
Y298337I4101J0D01*
G01*
G75*
G02*
X35130Y302273I4599J0D01*
G01*
G75*
G02*
X32909Y306210I2379J3937D01*
G01*
G75*
G02*
X35130Y310147I4600J0D01*
G01*
G75*
G02*
X33224Y312411I2379J3937D01*
G01*
X24822D01*
G37*
X41602Y256374D02*
G36*
X41602Y256374D02*
G75*
G02*
X40585Y255053I-4090J2097D01*
G01*
X46819D01*
X45498Y256374D01*
X41602D01*
G37*
X53389Y312411D02*
G36*
X53389Y312411D02*
Y287887D01*
X53635Y287641D01*
X57192D01*
G75*
G02*
X58680Y287026I2J-2101D01*
G01*
X62124Y283581D01*
G75*
G02*
X62302Y283380I-1526J-1520D01*
G01*
X64698D01*
Y255053D01*
X67405D01*
G75*
G02*
X65898Y257982I2093J2929D01*
G01*
G75*
G02*
X73098I3600J0D01*
G01*
G75*
G02*
X71591Y255053I-3600J0D01*
G01*
X76327D01*
Y268329D01*
G75*
G02*
X76942Y269814I2102J0D01*
G01*
X79370Y272243D01*
G75*
G02*
X79472Y272337I1362J-1357D01*
G01*
G75*
G02*
X78829Y274390I2957J2053D01*
G01*
G75*
G02*
X85124Y276777I3600J0D01*
G01*
Y278938D01*
X81061D01*
G75*
G02*
X79573Y279553I-2J2101D01*
G01*
X78583Y280543D01*
G75*
G02*
X77956Y282040I1474J1497D01*
G01*
Y282041D01*
G75*
G02*
X77984Y282385I2103J0D01*
G01*
Y285620D01*
X66486D01*
Y293986D01*
X66305D01*
Y296236D01*
X66024D01*
G75*
G02*
X59500Y298336I-2924J2100D01*
G01*
G75*
G02*
X66024Y300436I3600J0D01*
G01*
X66305D01*
Y302687D01*
X84502D01*
Y294320D01*
X84683D01*
Y285620D01*
X82184D01*
Y283138D01*
X85124D01*
Y283380D01*
X85935D01*
G75*
G02*
X85702Y284655I3367J1275D01*
G01*
G75*
G02*
X92056Y286974I3600J0D01*
G01*
G75*
G02*
X92190Y287122I1731J-1439D01*
G01*
X94065Y288996D01*
G75*
G02*
X95552Y289611I1485J-1486D01*
G01*
X97467D01*
G75*
G02*
X96520Y292411I3666J2800D01*
G01*
G75*
G02*
X105743I4612J0D01*
G01*
G75*
G02*
X104796Y289611I-4613J0D01*
G01*
X104919D01*
G75*
G02*
X106407Y288996I2J-2101D01*
G01*
X107656Y287746D01*
G75*
G02*
X108271Y286261I-1487J-1485D01*
G01*
Y255053D01*
X182555D01*
Y303864D01*
X181325Y305094D01*
X104882D01*
G75*
G02*
X105743Y302411I-3750J-2683D01*
G01*
Y302411D01*
G75*
G02*
X96520I-4612J0D01*
G01*
Y302411D01*
G75*
G02*
X97381Y305094I4611J0D01*
G01*
X84502D01*
Y302844D01*
X66305D01*
Y305094D01*
X66024D01*
G75*
G02*
X59500Y307194I-2924J2100D01*
G01*
G75*
G02*
X66024Y309294I3600J0D01*
G01*
X66305D01*
Y311545D01*
X84502D01*
Y309294D01*
X97732D01*
G75*
G02*
X96520Y312411I3401J3117D01*
G01*
X53389D01*
G37*
X80527Y262928D02*
G36*
X80527Y262928D02*
Y255053D01*
X85124D01*
Y262667D01*
G75*
G02*
X80527Y262928I-2142J2893D01*
G01*
G37*
X93242Y255862D02*
G36*
X93242Y255862D02*
Y255053D01*
X94074D01*
Y255862D01*
X93242D01*
G37*
X105743Y312411D02*
G36*
X105743Y312411D02*
G75*
G02*
X104531Y309294I-4613J0D01*
G01*
X182192D01*
G75*
G02*
X183680Y308680I2J-2101D01*
G01*
X186140Y306219D01*
G75*
G02*
X186755Y304734I-1487J-1485D01*
G01*
Y303866D01*
G75*
G02*
X195743Y302411I4376J-1455D01*
G01*
Y302411D01*
G75*
G02*
X186755Y300956I-4612J0D01*
G01*
Y293866D01*
G75*
G02*
X195743Y292411I4376J-1455D01*
G01*
Y292411D01*
G75*
G02*
X186755Y290956I-4612J0D01*
G01*
Y283866D01*
G75*
G02*
X195743Y282411I4376J-1455D01*
G01*
Y282411D01*
G75*
G02*
X186755Y280956I-4612J0D01*
G01*
Y273866D01*
G75*
G02*
X195743Y272411I4376J-1455D01*
G01*
Y272411D01*
G75*
G02*
X186755Y270956I-4612J0D01*
G01*
Y263866D01*
G75*
G02*
X195743Y262411I4376J-1455D01*
G01*
Y262411D01*
G75*
G02*
X186755Y260956I-4612J0D01*
G01*
Y255053D01*
X187351D01*
G75*
G02*
X194912I3780J-2642D01*
G01*
X204685D01*
G75*
G02*
X204661Y255521I4576J469D01*
G01*
G75*
G02*
X213861I4600J0D01*
G01*
G75*
G02*
X213837Y255053I-4600J1D01*
G01*
X244685D01*
G75*
G02*
X244661Y255521I4576J469D01*
G01*
G75*
G02*
X253861I4600J0D01*
G01*
G75*
G02*
X253837Y255053I-4600J1D01*
G01*
X284685D01*
G75*
G02*
X284661Y255521I4576J469D01*
G01*
G75*
G02*
X293861I4600J0D01*
G01*
G75*
G02*
X293837Y255053I-4600J1D01*
G01*
X302657D01*
Y312411D01*
X195743D01*
G75*
G02*
X186520I-4612J0D01*
G01*
X105743D01*
G37*
X24822Y322411D02*
G36*
X24822Y322411D02*
Y312411D01*
X33224D01*
G75*
G02*
X32909Y314084I4285J1673D01*
G01*
G75*
G02*
X35130Y318021I4600J0D01*
G01*
G75*
G02*
X32909Y321958I2379J3937D01*
G01*
G75*
G02*
X32932Y322411I4600J-1D01*
G01*
X24822D01*
G37*
X42109Y314084D02*
G36*
X42109Y314084D02*
G75*
G02*
X41794Y312411I-4600J0D01*
G01*
X43283D01*
Y322411D01*
X42087D01*
G75*
G02*
X42109Y321958I-4578J-454D01*
G01*
G75*
G02*
X39889Y318021I-4600J0D01*
G01*
G75*
G02*
X42109Y314084I-2379J-3937D01*
G01*
G37*
X53389Y322411D02*
G36*
X53389Y322411D02*
Y312411D01*
X96520D01*
G75*
G02*
X105743I4612J0D01*
G01*
X186520D01*
G75*
G02*
X195743I4612J0D01*
G01*
X302657D01*
Y322411D01*
X195743D01*
G75*
G02*
X186520I-4612J0D01*
G01*
X105742D01*
Y317801D01*
X96521D01*
Y322411D01*
X53389D01*
G37*
X24822Y354378D02*
G36*
X24822Y354378D02*
Y322411D01*
X32932D01*
G75*
G02*
X35130Y325895I4578J-453D01*
G01*
G75*
G02*
X32909Y329832I2379J3937D01*
G01*
G75*
G02*
X35130Y333769I4600J0D01*
G01*
G75*
G02*
X32909Y337706I2378J3936D01*
G01*
G75*
G02*
X41602Y339806I4600J1D01*
G01*
X47350D01*
G75*
G02*
X48837Y339191I2J-2101D01*
G01*
X52774Y335254D01*
G75*
G02*
X53389Y333769I-1487J-1485D01*
G01*
Y322411D01*
X96521D01*
Y327021D01*
X105742D01*
Y322411D01*
X186520D01*
G75*
G02*
X195743I4612J0D01*
G01*
X302657D01*
Y353972D01*
G75*
G03*
X296393Y360236I-9735J-3470D01*
G01*
X30680D01*
G75*
G03*
X24822Y354378I3384J-9242D01*
G01*
G37*
X41602Y327732D02*
G36*
X41602Y327732D02*
G75*
G02*
X39889Y325895I-4090J2097D01*
G01*
G75*
G02*
X42087Y322411I-2379J-3937D01*
G01*
X43283D01*
Y326502D01*
X42053Y327732D01*
X41602D01*
G37*
D02*
D28*
X54734Y133474D03*
Y266840D03*
X62116Y185147D03*
Y194006D03*
X63100Y298336D03*
Y307194D03*
X69498Y257982D03*
X74911Y122155D03*
Y156604D03*
X82429Y274390D03*
X82785Y163986D03*
X82982Y265561D03*
X89183Y134950D03*
Y169891D03*
Y249398D03*
X89302Y284655D03*
X91643Y69006D03*
D02*
D29*
X60639Y138592D03*
Y141151D03*
Y143710D03*
Y146269D03*
Y148828D03*
Y151387D03*
Y153946D03*
Y156506D03*
Y159065D03*
Y161624D03*
Y164183D03*
Y166742D03*
Y252844D03*
Y255403D03*
Y257962D03*
Y260521D03*
Y263080D03*
Y265639D03*
Y268198D03*
Y270757D03*
Y273317D03*
Y275876D03*
Y278435D03*
Y280994D03*
X89183Y138592D03*
Y141151D03*
Y143710D03*
Y146269D03*
Y148828D03*
Y151387D03*
Y153946D03*
Y156506D03*
Y159065D03*
Y161624D03*
Y164183D03*
Y166742D03*
Y252844D03*
Y255403D03*
Y257962D03*
Y260521D03*
Y263080D03*
Y265639D03*
Y268198D03*
Y270757D03*
Y273317D03*
Y275876D03*
Y278435D03*
Y280994D03*
D02*
D72*
X101131Y112411D03*
Y122411D03*
Y132411D03*
Y142411D03*
Y152411D03*
Y162411D03*
Y172411D03*
Y182411D03*
Y192411D03*
Y202411D03*
Y212411D03*
Y222411D03*
Y232411D03*
Y242411D03*
Y252411D03*
Y262411D03*
Y272411D03*
Y282411D03*
Y292411D03*
Y302411D03*
Y312411D03*
X191131Y112411D03*
Y122411D03*
Y132411D03*
Y142411D03*
Y152411D03*
Y162411D03*
Y172411D03*
Y182411D03*
Y192411D03*
Y202411D03*
Y212411D03*
Y222411D03*
Y232411D03*
Y242411D03*
Y252411D03*
Y262411D03*
Y272411D03*
Y282411D03*
Y292411D03*
Y302411D03*
Y312411D03*
Y322411D03*
D02*
D73*
X101131D03*
D02*
D74*
X255521Y134950D03*
D02*
D75*
Y111328D03*
D02*
D76*
X274025Y123139D03*
D02*
D77*
X54586Y255383D03*
Y260483D03*
X54635Y273345D03*
Y278445D03*
X54734Y138798D03*
Y143898D03*
Y158975D03*
Y164075D03*
D02*
D78*
X57616Y60147D03*
Y69006D03*
X66616Y60147D03*
Y69006D03*
X69427Y219104D03*
Y227470D03*
Y240757D03*
X69919Y175797D03*
Y185147D03*
Y194006D03*
X70411Y129045D03*
X70903Y298336D03*
Y307194D03*
X71084Y289970D03*
X78427Y219104D03*
Y227470D03*
Y240757D03*
X78919Y175797D03*
Y185147D03*
Y194006D03*
X79411Y129045D03*
X79903Y298336D03*
Y307194D03*
X80084Y289970D03*
D02*
D79*
X291446Y126624D03*
Y147214D03*
X0Y0D02*
M02*
