G04 DesignSpark PCB Gerber Version 10.0 Build 5299*
G04 #@! TF.Part,Single*
G04 #@! TF.FileFunction,Copper,L1,Top*
G04 #@! TF.FilePolarity,Positive*
%FSLAX35Y35*%
%MOIN*%
G04 #@! TA.AperFunction,ComponentPad*
%ADD11R,0.06555X0.06555*%
G04 #@! TD.AperFunction*
%ADD10C,0.01000*%
G04 #@! TA.AperFunction,ComponentPad*
%ADD14C,0.06000*%
%ADD12C,0.06555*%
%ADD13R,0.08000X0.06000*%
%ADD15C,0.07000*%
G04 #@! TD.AperFunction*
X0Y0D02*
D02*
D10*
X56506Y38002D02*
X68317D01*
X56506D02*
X80128D01*
X56506Y63986D02*
X56112D01*
X50994Y58868D01*
Y43513D01*
X56506Y38002D01*
Y63986D02*
X56112D01*
X56506Y89970D02*
X56112D01*
X50994Y84852D01*
Y69498D01*
X56506Y63986D01*
Y89970D02*
X55324D01*
X56506D02*
X80128D01*
X56506Y115954D02*
X56112D01*
X50994Y110836D01*
Y95482D01*
X56506Y89970D01*
Y115954D02*
X56112D01*
X56506D02*
X80128D01*
X56506Y141939D02*
Y141545D01*
X50994Y136033D01*
Y121466D01*
X56506Y115954D01*
Y141939D02*
X56112D01*
X56506D02*
X80128D01*
X56506Y167923D02*
Y167529D01*
X50994Y162017D01*
Y147450D01*
X56506Y141939D01*
Y167923D02*
X50994Y173435D01*
Y188789D01*
X56112Y193907D01*
X56506D01*
Y167923D02*
X80128D01*
X56506Y192332D02*
Y193907D01*
X50994Y199419D01*
Y213986D01*
X56506Y219498D01*
Y219891D01*
Y193907D02*
X58868D01*
X56506Y219891D02*
X80128D01*
Y63986D02*
X56506D01*
X80128Y193907D02*
X56506D01*
X102962Y67450D02*
X88868D01*
X87214Y69104D01*
Y97450D01*
X86427Y98238D01*
X80128D01*
X102962Y87450D02*
X90915D01*
X89576Y88789D01*
Y122647D01*
X88002Y124222D01*
X80128D01*
X102962Y107450D02*
X93750D01*
X91939Y109261D01*
Y148631D01*
X90364Y150206D01*
X80128D01*
X102962Y127450D02*
X96584D01*
X94301Y129734D01*
Y174616D01*
X92726Y176191D01*
X80128D01*
X102962Y147450D02*
X98631D01*
X96663Y149419D01*
Y199813D01*
X94301Y202175D01*
X80128D01*
X102962Y167450D02*
X105246D01*
X110049Y172254D01*
X166899D01*
X170679Y176033D01*
X244635D01*
X249301Y171368D01*
Y169950D01*
X162962Y57450D02*
Y54301D01*
X161230Y52569D01*
X100600D01*
X96663Y56506D01*
Y62805D01*
Y64380D01*
X95876Y65167D01*
X88002D01*
X84852Y68317D01*
Y72254D01*
X84065Y73041D01*
X80128D01*
Y72254D01*
X162962Y97450D02*
X165167D01*
X168317Y94301D01*
Y52569D01*
X165954Y50206D01*
X100600D01*
X96663Y46269D01*
X80128D01*
X162962Y117450D02*
X170679Y109734D01*
Y51781D01*
X166742Y47844D01*
X102175D01*
X98238Y43907D01*
X90364D01*
X86427Y39970D01*
Y21860D01*
X84852Y20285D01*
X80128D01*
D02*
D11*
X102962Y197450D03*
D02*
D12*
Y57450D03*
Y67450D03*
Y77450D03*
Y87450D03*
Y97450D03*
Y107450D03*
Y117450D03*
Y127450D03*
Y137450D03*
Y147450D03*
Y157450D03*
Y167450D03*
Y177450D03*
Y187450D03*
X162962Y57450D03*
Y67450D03*
Y77450D03*
Y87450D03*
Y97450D03*
Y107450D03*
Y117450D03*
Y127450D03*
Y137450D03*
Y147450D03*
Y157450D03*
Y167450D03*
Y177450D03*
Y187450D03*
Y197450D03*
D02*
D13*
X194301Y9950D03*
Y19950D03*
Y34950D03*
Y44950D03*
Y59950D03*
Y69950D03*
Y84950D03*
Y94950D03*
Y109950D03*
Y119950D03*
Y134950D03*
Y144950D03*
Y159950D03*
Y169950D03*
Y184950D03*
Y194950D03*
Y209950D03*
Y219950D03*
D02*
D14*
X6112Y20285D03*
Y46269D03*
Y72254D03*
Y98021D03*
Y124222D03*
Y150206D03*
Y176191D03*
Y202175D03*
X46112Y20285D03*
Y46269D03*
Y72254D03*
Y98021D03*
Y124222D03*
Y150206D03*
Y176191D03*
Y202175D03*
X209301Y19950D03*
Y44950D03*
Y69950D03*
Y94950D03*
Y119950D03*
Y144950D03*
Y169950D03*
Y194950D03*
Y219950D03*
X249301Y19950D03*
Y44950D03*
Y69950D03*
Y94950D03*
Y119950D03*
Y144950D03*
Y169950D03*
Y194950D03*
Y219950D03*
D02*
D15*
X56506Y20285D03*
Y38002D03*
Y46269D03*
Y63986D03*
Y72254D03*
Y89970D03*
Y98238D03*
Y115954D03*
Y124222D03*
Y141939D03*
Y150206D03*
Y167923D03*
Y176191D03*
Y193907D03*
Y202175D03*
Y219891D03*
X80128Y20285D03*
Y38002D03*
Y46269D03*
Y63986D03*
Y72254D03*
Y89970D03*
Y98238D03*
Y115954D03*
Y124222D03*
Y141939D03*
Y150206D03*
Y167923D03*
Y176191D03*
Y193907D03*
Y202175D03*
Y219891D03*
X0Y0D02*
M02*
