G04 DesignSpark PCB Gerber Version 10.0 Build 5299*
G04 #@! TF.Part,Single*
G04 #@! TF.FileFunction,Legend,Top*
G04 #@! TF.FilePolarity,Positive*
%FSLAX35Y35*%
%MOIN*%
%ADD71C,0.00394*%
%ADD20C,0.00500*%
G04 #@! TD.AperFunction*
X0Y0D02*
D02*
D71*
X97962Y197450D02*
Y211200D01*
X167962D01*
Y43700D01*
X97962D01*
Y57450D01*
Y197450D02*
Y57450D01*
D02*
D20*
X11112Y20285D02*
X16112D01*
X11112Y46269D02*
X16112D01*
X11112Y72254D02*
X16112D01*
X11112Y98021D02*
X16112D01*
X11112Y124222D02*
X16112D01*
X11112Y150206D02*
X16112D01*
X11112Y176191D02*
X16112D01*
X11112Y202175D02*
X16112D01*
Y15285D02*
Y25285D01*
X36112D01*
Y15285D01*
X16112D01*
Y41269D02*
Y51269D01*
X36112D01*
Y41269D01*
X16112D01*
Y67254D02*
Y77254D01*
X36112D01*
Y67254D01*
X16112D01*
Y93021D02*
Y103021D01*
X36112D01*
Y93021D01*
X16112D01*
Y119222D02*
Y129222D01*
X36112D01*
Y119222D01*
X16112D01*
Y145206D02*
Y155206D01*
X36112D01*
Y145206D01*
X16112D01*
Y171191D02*
Y181191D01*
X36112D01*
Y171191D01*
X16112D01*
Y197175D02*
Y207175D01*
X36112D01*
Y197175D01*
X16112D01*
X19399Y26970D02*
Y30720D01*
X21587D01*
X22212Y30408D01*
X22524Y29783D01*
X22212Y29158D01*
X21587Y28846D01*
X19399D01*
X21587D02*
X22524Y26970D01*
X25024D02*
X26274D01*
X25649D02*
Y30720D01*
X25024Y30096D01*
X29399Y26970D02*
X31899Y30720D01*
X29399D01*
X19399Y51970D02*
Y55720D01*
X21587D01*
X22212Y55408D01*
X22524Y54783D01*
X22212Y54158D01*
X21587Y53846D01*
X19399D01*
X21587D02*
X22524Y51970D01*
X25024D02*
X26274D01*
X25649D02*
Y55720D01*
X25024Y55096D01*
X29399Y52908D02*
X29712Y53533D01*
X30337Y53846D01*
X30962D01*
X31587Y53533D01*
X31899Y52908D01*
X31587Y52283D01*
X30962Y51970D01*
X30337D01*
X29712Y52283D01*
X29399Y52908D01*
Y53846D01*
X29712Y54783D01*
X30337Y55408D01*
X30962Y55720D01*
X19399Y79470D02*
Y83220D01*
X21587D01*
X22212Y82908D01*
X22524Y82283D01*
X22212Y81658D01*
X21587Y81346D01*
X19399D01*
X21587D02*
X22524Y79470D01*
X25024D02*
X26274D01*
X25649D02*
Y83220D01*
X25024Y82596D01*
X29399Y79783D02*
X30024Y79470D01*
X30962D01*
X31587Y79783D01*
X31899Y80408D01*
Y80720D01*
X31587Y81346D01*
X30962Y81658D01*
X29399D01*
Y83220D01*
X31899D01*
X19399Y104470D02*
Y108220D01*
X21587D01*
X22212Y107908D01*
X22524Y107283D01*
X22212Y106658D01*
X21587Y106346D01*
X19399D01*
X21587D02*
X22524Y104470D01*
X25024D02*
X26274D01*
X25649D02*
Y108220D01*
X25024Y107596D01*
X30962Y104470D02*
Y108220D01*
X29399Y105720D01*
X31899D01*
X19399Y131970D02*
Y135720D01*
X21587D01*
X22212Y135408D01*
X22524Y134783D01*
X22212Y134158D01*
X21587Y133846D01*
X19399D01*
X21587D02*
X22524Y131970D01*
X25024D02*
X26274D01*
X25649D02*
Y135720D01*
X25024Y135096D01*
X29712Y132283D02*
X30337Y131970D01*
X30962D01*
X31587Y132283D01*
X31899Y132908D01*
X31587Y133533D01*
X30962Y133846D01*
X30337D01*
X30962D02*
X31587Y134158D01*
X31899Y134783D01*
X31587Y135408D01*
X30962Y135720D01*
X30337D01*
X29712Y135408D01*
X19399Y156970D02*
Y160720D01*
X21587D01*
X22212Y160408D01*
X22524Y159783D01*
X22212Y159158D01*
X21587Y158846D01*
X19399D01*
X21587D02*
X22524Y156970D01*
X25024D02*
X26274D01*
X25649D02*
Y160720D01*
X25024Y160096D01*
X31899Y156970D02*
X29399D01*
X31587Y159158D01*
X31899Y159783D01*
X31587Y160408D01*
X30962Y160720D01*
X30024D01*
X29399Y160408D01*
X19399Y181970D02*
Y185720D01*
X21587D01*
X22212Y185408D01*
X22524Y184783D01*
X22212Y184158D01*
X21587Y183846D01*
X19399D01*
X21587D02*
X22524Y181970D01*
X25024D02*
X26274D01*
X25649D02*
Y185720D01*
X25024Y185096D01*
X30024Y181970D02*
X31274D01*
X30649D02*
Y185720D01*
X30024Y185096D01*
X19399Y209470D02*
Y213220D01*
X21587D01*
X22212Y212908D01*
X22524Y212283D01*
X22212Y211658D01*
X21587Y211346D01*
X19399D01*
X21587D02*
X22524Y209470D01*
X25024D02*
X26274D01*
X25649D02*
Y213220D01*
X25024Y212596D01*
X29712Y209783D02*
X30337Y209470D01*
X30962D01*
X31587Y209783D01*
X31899Y210408D01*
Y212283D01*
X31587Y212908D01*
X30962Y213220D01*
X30337D01*
X29712Y212908D01*
X29399Y212283D01*
Y210408D01*
X29712Y209783D01*
X31587Y212908D01*
X36112Y20285D02*
X41112D01*
X36112Y46269D02*
X41112D01*
X36112Y72254D02*
X41112D01*
X36112Y98021D02*
X41112D01*
X36112Y124222D02*
X41112D01*
X36112Y150206D02*
X41112D01*
X36112Y176191D02*
X41112D01*
X36112Y202175D02*
X41112D01*
X62903Y21269D02*
X73730D01*
G75*
G03*
X76683Y24222I0J2953D01*
G01*
Y34065D01*
G75*
G03*
X73730Y37017I-2953J0D01*
G01*
X62903D01*
G75*
G03*
X59950Y34065I0J-2953D01*
G01*
Y24222D01*
G75*
G03*
X62903Y21269I2953J0D01*
G01*
Y47254D02*
X73730D01*
G75*
G03*
X76683Y50206I0J2953D01*
G01*
Y60049D01*
G75*
G03*
X73730Y63002I-2953J0D01*
G01*
X62903D01*
G75*
G03*
X59950Y60049I0J-2953D01*
G01*
Y50206D01*
G75*
G03*
X62903Y47254I2953J0D01*
G01*
Y73238D02*
X73730D01*
G75*
G03*
X76683Y76191I0J2953D01*
G01*
Y86033D01*
G75*
G03*
X73730Y88986I-2953J0D01*
G01*
X62903D01*
G75*
G03*
X59950Y86033I0J-2953D01*
G01*
Y76191D01*
G75*
G03*
X62903Y73238I2953J0D01*
G01*
Y99222D02*
X73730D01*
G75*
G03*
X76683Y102175I0J2953D01*
G01*
Y112017D01*
G75*
G03*
X73730Y114970I-2953J0D01*
G01*
X62903D01*
G75*
G03*
X59950Y112017I0J-2953D01*
G01*
Y102175D01*
G75*
G03*
X62903Y99222I2953J0D01*
G01*
Y125206D02*
X73730D01*
G75*
G03*
X76683Y128159I0J2953D01*
G01*
Y138002D01*
G75*
G03*
X73730Y140954I-2953J0D01*
G01*
X62903D01*
G75*
G03*
X59950Y138002I0J-2953D01*
G01*
Y128159D01*
G75*
G03*
X62903Y125206I2953J0D01*
G01*
Y151191D02*
X73730D01*
G75*
G03*
X76683Y154143I0J2953D01*
G01*
Y163986D01*
G75*
G03*
X73730Y166939I-2953J0D01*
G01*
X62903D01*
G75*
G03*
X59950Y163986I0J-2953D01*
G01*
Y154143D01*
G75*
G03*
X62903Y151191I2953J0D01*
G01*
Y177175D02*
X73730D01*
G75*
G03*
X76683Y180128I0J2953D01*
G01*
Y189970D01*
G75*
G03*
X73730Y192923I-2953J0D01*
G01*
X62903D01*
G75*
G03*
X59950Y189970I0J-2953D01*
G01*
Y180128D01*
G75*
G03*
X62903Y177175I2953J0D01*
G01*
Y203159D02*
X73730D01*
G75*
G03*
X76683Y206112I0J2953D01*
G01*
Y215954D01*
G75*
G03*
X73730Y218907I-2953J0D01*
G01*
X62903D01*
G75*
G03*
X59950Y215954I0J-2953D01*
G01*
Y206112D01*
G75*
G03*
X62903Y203159I2953J0D01*
G01*
X68317Y35029D02*
G75*
G03*
Y23218I0J-5906D01*
G01*
G75*
G03*
Y35029I0J5906D01*
G01*
Y61013D02*
G75*
G03*
Y49202I0J-5906D01*
G01*
G75*
G03*
Y61013I0J5906D01*
G01*
Y86998D02*
G75*
G03*
Y75187I0J-5906D01*
G01*
G75*
G03*
Y86998I0J5906D01*
G01*
Y112982D02*
G75*
G03*
Y101171I0J-5906D01*
G01*
G75*
G03*
Y112982I0J5906D01*
G01*
Y138966D02*
G75*
G03*
Y127155I0J-5906D01*
G01*
G75*
G03*
Y138966I0J5906D01*
G01*
Y164950D02*
G75*
G03*
Y153139I0J-5906D01*
G01*
G75*
G03*
Y164950I0J5906D01*
G01*
Y190935D02*
G75*
G03*
Y179124I0J-5906D01*
G01*
G75*
G03*
Y190935I0J5906D01*
G01*
Y216919D02*
G75*
G03*
Y205108I0J-5906D01*
G01*
G75*
G03*
Y216919I0J5906D01*
G01*
X79399Y30034D02*
X79712Y29409D01*
X80337Y29096D01*
X81587D01*
X82212Y29409D01*
X82524Y30034D01*
X82212Y30659D01*
X81587Y30972D01*
X80337D01*
X79712Y31284D01*
X79399Y31909D01*
X79712Y32534D01*
X80337Y32846D01*
X81587D01*
X82212Y32534D01*
X82524Y31909D01*
X84399Y32846D02*
X84712Y29096D01*
X85962Y30972D01*
X87212Y29096D01*
X87524Y32846D01*
X90337Y30972D02*
X90962D01*
X91587Y31284D01*
X91899Y31909D01*
X91587Y32534D01*
X90962Y32846D01*
X90337D01*
X89712Y32534D01*
X89399Y31909D01*
X89712Y31284D01*
X90337Y30972D01*
X89712Y30659D01*
X89399Y30034D01*
X89712Y29409D01*
X90337Y29096D01*
X90962D01*
X91587Y29409D01*
X91899Y30034D01*
X91587Y30659D01*
X90962Y30972D01*
X79399Y56019D02*
X79712Y55393D01*
X80337Y55081D01*
X81587D01*
X82212Y55393D01*
X82524Y56019D01*
X82212Y56643D01*
X81587Y56956D01*
X80337D01*
X79712Y57269D01*
X79399Y57893D01*
X79712Y58519D01*
X80337Y58831D01*
X81587D01*
X82212Y58519D01*
X82524Y57893D01*
X84399Y58831D02*
X84712Y55081D01*
X85962Y56956D01*
X87212Y55081D01*
X87524Y58831D01*
X89399Y55081D02*
X91899Y58831D01*
X89399D01*
X79399Y80408D02*
X79712Y79783D01*
X80337Y79470D01*
X81587D01*
X82212Y79783D01*
X82524Y80408D01*
X82212Y81033D01*
X81587Y81346D01*
X80337D01*
X79712Y81658D01*
X79399Y82283D01*
X79712Y82908D01*
X80337Y83220D01*
X81587D01*
X82212Y82908D01*
X82524Y82283D01*
X84399Y83220D02*
X84712Y79470D01*
X85962Y81346D01*
X87212Y79470D01*
X87524Y83220D01*
X89399Y80408D02*
X89712Y81033D01*
X90337Y81346D01*
X90962D01*
X91587Y81033D01*
X91899Y80408D01*
X91587Y79783D01*
X90962Y79470D01*
X90337D01*
X89712Y79783D01*
X89399Y80408D01*
Y81346D01*
X89712Y82283D01*
X90337Y82908D01*
X90962Y83220D01*
X79399Y107987D02*
X79712Y107362D01*
X80337Y107049D01*
X81587D01*
X82212Y107362D01*
X82524Y107987D01*
X82212Y108612D01*
X81587Y108924D01*
X80337D01*
X79712Y109237D01*
X79399Y109862D01*
X79712Y110487D01*
X80337Y110799D01*
X81587D01*
X82212Y110487D01*
X82524Y109862D01*
X84399Y110799D02*
X84712Y107049D01*
X85962Y108924D01*
X87212Y107049D01*
X87524Y110799D01*
X89399Y107362D02*
X90024Y107049D01*
X90962D01*
X91587Y107362D01*
X91899Y107987D01*
Y108299D01*
X91587Y108924D01*
X90962Y109237D01*
X89399D01*
Y110799D01*
X91899D01*
X79399Y133971D02*
X79712Y133346D01*
X80337Y133033D01*
X81587D01*
X82212Y133346D01*
X82524Y133971D01*
X82212Y134596D01*
X81587Y134909D01*
X80337D01*
X79712Y135221D01*
X79399Y135846D01*
X79712Y136471D01*
X80337Y136783D01*
X81587D01*
X82212Y136471D01*
X82524Y135846D01*
X84399Y136783D02*
X84712Y133033D01*
X85962Y134909D01*
X87212Y133033D01*
X87524Y136783D01*
X90962Y133033D02*
Y136783D01*
X89399Y134283D01*
X91899D01*
X79399Y157908D02*
X79712Y157283D01*
X80337Y156970D01*
X81587D01*
X82212Y157283D01*
X82524Y157908D01*
X82212Y158533D01*
X81587Y158846D01*
X80337D01*
X79712Y159158D01*
X79399Y159783D01*
X79712Y160408D01*
X80337Y160720D01*
X81587D01*
X82212Y160408D01*
X82524Y159783D01*
X84399Y160720D02*
X84712Y156970D01*
X85962Y158846D01*
X87212Y156970D01*
X87524Y160720D01*
X89712Y157283D02*
X90337Y156970D01*
X90962D01*
X91587Y157283D01*
X91899Y157908D01*
X91587Y158533D01*
X90962Y158846D01*
X90337D01*
X90962D02*
X91587Y159158D01*
X91899Y159783D01*
X91587Y160408D01*
X90962Y160720D01*
X90337D01*
X89712Y160408D01*
X79399Y182908D02*
X79712Y182283D01*
X80337Y181970D01*
X81587D01*
X82212Y182283D01*
X82524Y182908D01*
X82212Y183533D01*
X81587Y183846D01*
X80337D01*
X79712Y184158D01*
X79399Y184783D01*
X79712Y185408D01*
X80337Y185720D01*
X81587D01*
X82212Y185408D01*
X82524Y184783D01*
X84399Y185720D02*
X84712Y181970D01*
X85962Y183846D01*
X87212Y181970D01*
X87524Y185720D01*
X91899Y181970D02*
X89399D01*
X91587Y184158D01*
X91899Y184783D01*
X91587Y185408D01*
X90962Y185720D01*
X90024D01*
X89399Y185408D01*
X79399Y210408D02*
X79712Y209783D01*
X80337Y209470D01*
X81587D01*
X82212Y209783D01*
X82524Y210408D01*
X82212Y211033D01*
X81587Y211346D01*
X80337D01*
X79712Y211658D01*
X79399Y212283D01*
X79712Y212908D01*
X80337Y213220D01*
X81587D01*
X82212Y212908D01*
X82524Y212283D01*
X84399Y213220D02*
X84712Y209470D01*
X85962Y211346D01*
X87212Y209470D01*
X87524Y213220D01*
X90024Y209470D02*
X91274D01*
X90649D02*
Y213220D01*
X90024Y212596D01*
X93900Y220888D02*
X95150D01*
X94525D02*
Y224638D01*
X93900D02*
X95150D01*
X101087Y221513D02*
X100775Y221200D01*
X100150Y220888D01*
X99212D01*
X98587Y221200D01*
X98275Y221513D01*
X97962Y222138D01*
Y223388D01*
X98275Y224013D01*
X98587Y224326D01*
X99212Y224638D01*
X100150D01*
X100775Y224326D01*
X101087Y224013D01*
X103587Y220888D02*
X104837D01*
X104212D02*
Y224638D01*
X103587Y224013D01*
X126712Y53700D02*
Y39950D01*
X139212D01*
Y53700D01*
X126712D01*
X183301Y14950D02*
G75*
G03*
X194301Y3950I11000J0D01*
G01*
G75*
G03*
X205301Y14950I0J11000D01*
G01*
G75*
G03*
X201001Y25250I-14583J-41D01*
G01*
X187601D01*
G75*
G03*
X183301Y14950I10283J-10341D01*
G01*
Y39950D02*
G75*
G03*
X194301Y28950I11000J0D01*
G01*
G75*
G03*
X205301Y39950I0J11000D01*
G01*
G75*
G03*
X201001Y50250I-14583J-41D01*
G01*
X187601D01*
G75*
G03*
X183301Y39950I10283J-10341D01*
G01*
Y64950D02*
G75*
G03*
X194301Y53950I11000J0D01*
G01*
G75*
G03*
X205301Y64950I0J11000D01*
G01*
G75*
G03*
X201001Y75250I-14583J-41D01*
G01*
X187601D01*
G75*
G03*
X183301Y64950I10283J-10341D01*
G01*
Y89950D02*
G75*
G03*
X194301Y78950I11000J0D01*
G01*
G75*
G03*
X205301Y89950I0J11000D01*
G01*
G75*
G03*
X201001Y100250I-14583J-41D01*
G01*
X187601D01*
G75*
G03*
X183301Y89950I10283J-10341D01*
G01*
Y114950D02*
G75*
G03*
X194301Y103950I11000J0D01*
G01*
G75*
G03*
X205301Y114950I0J11000D01*
G01*
G75*
G03*
X201001Y125250I-14583J-41D01*
G01*
X187601D01*
G75*
G03*
X183301Y114950I10283J-10341D01*
G01*
Y139950D02*
G75*
G03*
X194301Y128950I11000J0D01*
G01*
G75*
G03*
X205301Y139950I0J11000D01*
G01*
G75*
G03*
X201001Y150250I-14583J-41D01*
G01*
X187601D01*
G75*
G03*
X183301Y139950I10283J-10341D01*
G01*
Y164950D02*
G75*
G03*
X194301Y153950I11000J0D01*
G01*
G75*
G03*
X205301Y164950I0J11000D01*
G01*
G75*
G03*
X201001Y175250I-14583J-41D01*
G01*
X187601D01*
G75*
G03*
X183301Y164950I10283J-10341D01*
G01*
Y189950D02*
G75*
G03*
X194301Y178950I11000J0D01*
G01*
G75*
G03*
X205301Y189950I0J11000D01*
G01*
G75*
G03*
X201001Y200250I-14583J-41D01*
G01*
X187601D01*
G75*
G03*
X183301Y189950I10283J-10341D01*
G01*
Y214950D02*
G75*
G03*
X194301Y203950I11000J0D01*
G01*
G75*
G03*
X205301Y214950I0J11000D01*
G01*
G75*
G03*
X201001Y225250I-14583J-41D01*
G01*
X187601D01*
G75*
G03*
X183301Y214950I10283J-10341D01*
G01*
X201801Y7138D02*
Y3388D01*
X204926D01*
X206801D02*
Y7138D01*
X209926D01*
X209301Y5263D02*
X206801D01*
Y3388D02*
X209926D01*
X211801D02*
Y7138D01*
X213676D01*
X214301Y6826D01*
X214613Y6513D01*
X214926Y5888D01*
Y4638D01*
X214613Y4013D01*
X214301Y3700D01*
X213676Y3388D01*
X211801D01*
X217426D02*
X218676D01*
X218051D02*
Y7138D01*
X217426Y6513D01*
X201801Y32138D02*
Y28388D01*
X204926D01*
X206801D02*
Y32138D01*
X209926D01*
X209301Y30263D02*
X206801D01*
Y28388D02*
X209926D01*
X211801D02*
Y32138D01*
X213676D01*
X214301Y31826D01*
X214613Y31513D01*
X214926Y30888D01*
Y29638D01*
X214613Y29013D01*
X214301Y28700D01*
X213676Y28388D01*
X211801D01*
X219301D02*
X216801D01*
X218988Y30576D01*
X219301Y31200D01*
X218988Y31826D01*
X218363Y32138D01*
X217426D01*
X216801Y31826D01*
X201801Y57138D02*
Y53388D01*
X204926D01*
X206801D02*
Y57138D01*
X209926D01*
X209301Y55263D02*
X206801D01*
Y53388D02*
X209926D01*
X211801D02*
Y57138D01*
X213676D01*
X214301Y56826D01*
X214613Y56513D01*
X214926Y55888D01*
Y54638D01*
X214613Y54013D01*
X214301Y53700D01*
X213676Y53388D01*
X211801D01*
X217113Y53700D02*
X217738Y53388D01*
X218363D01*
X218988Y53700D01*
X219301Y54326D01*
X218988Y54950D01*
X218363Y55263D01*
X217738D01*
X218363D02*
X218988Y55576D01*
X219301Y56200D01*
X218988Y56826D01*
X218363Y57138D01*
X217738D01*
X217113Y56826D01*
X201801Y82138D02*
Y78388D01*
X204926D01*
X206801D02*
Y82138D01*
X209926D01*
X209301Y80263D02*
X206801D01*
Y78388D02*
X209926D01*
X211801D02*
Y82138D01*
X213676D01*
X214301Y81826D01*
X214613Y81513D01*
X214926Y80888D01*
Y79638D01*
X214613Y79013D01*
X214301Y78700D01*
X213676Y78388D01*
X211801D01*
X218363D02*
Y82138D01*
X216801Y79638D01*
X219301D01*
X201801Y107138D02*
Y103388D01*
X204926D01*
X206801D02*
Y107138D01*
X209926D01*
X209301Y105263D02*
X206801D01*
Y103388D02*
X209926D01*
X211801D02*
Y107138D01*
X213676D01*
X214301Y106826D01*
X214613Y106513D01*
X214926Y105888D01*
Y104638D01*
X214613Y104013D01*
X214301Y103700D01*
X213676Y103388D01*
X211801D01*
X216801Y103700D02*
X217426Y103388D01*
X218363D01*
X218988Y103700D01*
X219301Y104326D01*
Y104638D01*
X218988Y105263D01*
X218363Y105576D01*
X216801D01*
Y107138D01*
X219301D01*
X201801Y132138D02*
Y128388D01*
X204926D01*
X206801D02*
Y132138D01*
X209926D01*
X209301Y130263D02*
X206801D01*
Y128388D02*
X209926D01*
X211801D02*
Y132138D01*
X213676D01*
X214301Y131826D01*
X214613Y131513D01*
X214926Y130888D01*
Y129638D01*
X214613Y129013D01*
X214301Y128700D01*
X213676Y128388D01*
X211801D01*
X216801Y129326D02*
X217113Y129950D01*
X217738Y130263D01*
X218363D01*
X218988Y129950D01*
X219301Y129326D01*
X218988Y128700D01*
X218363Y128388D01*
X217738D01*
X217113Y128700D01*
X216801Y129326D01*
Y130263D01*
X217113Y131200D01*
X217738Y131826D01*
X218363Y132138D01*
X201801Y157138D02*
Y153388D01*
X204926D01*
X206801D02*
Y157138D01*
X209926D01*
X209301Y155263D02*
X206801D01*
Y153388D02*
X209926D01*
X211801D02*
Y157138D01*
X213676D01*
X214301Y156826D01*
X214613Y156513D01*
X214926Y155888D01*
Y154638D01*
X214613Y154013D01*
X214301Y153700D01*
X213676Y153388D01*
X211801D01*
X216801D02*
X219301Y157138D01*
X216801D01*
X201801Y182138D02*
Y178388D01*
X204926D01*
X206801D02*
Y182138D01*
X209926D01*
X209301Y180263D02*
X206801D01*
Y178388D02*
X209926D01*
X211801D02*
Y182138D01*
X213676D01*
X214301Y181826D01*
X214613Y181513D01*
X214926Y180888D01*
Y179638D01*
X214613Y179013D01*
X214301Y178700D01*
X213676Y178388D01*
X211801D01*
X217738Y180263D02*
X218363D01*
X218988Y180576D01*
X219301Y181200D01*
X218988Y181826D01*
X218363Y182138D01*
X217738D01*
X217113Y181826D01*
X216801Y181200D01*
X217113Y180576D01*
X217738Y180263D01*
X217113Y179950D01*
X216801Y179326D01*
X217113Y178700D01*
X217738Y178388D01*
X218363D01*
X218988Y178700D01*
X219301Y179326D01*
X218988Y179950D01*
X218363Y180263D01*
X201801Y207138D02*
Y203388D01*
X204926D01*
X206801D02*
Y207138D01*
X209926D01*
X209301Y205263D02*
X206801D01*
Y203388D02*
X209926D01*
X211801D02*
Y207138D01*
X213676D01*
X214301Y206826D01*
X214613Y206513D01*
X214926Y205888D01*
Y204638D01*
X214613Y204013D01*
X214301Y203700D01*
X213676Y203388D01*
X211801D01*
X217738D02*
X218363Y203700D01*
X218988Y204326D01*
X219301Y205263D01*
Y206200D01*
X218988Y206826D01*
X218363Y207138D01*
X217738D01*
X217113Y206826D01*
X216801Y206200D01*
X217113Y205576D01*
X217738Y205263D01*
X218363D01*
X218988Y205576D01*
X219301Y206200D01*
X214301Y19950D02*
X219301D01*
X214301Y44950D02*
X219301D01*
X214301Y69950D02*
X219301D01*
X214301Y94950D02*
X219301D01*
X214301Y119950D02*
X219301D01*
X214301Y144950D02*
X219301D01*
X214301Y169950D02*
X219301D01*
X214301Y194950D02*
X219301D01*
X214301Y219950D02*
X219301D01*
Y14950D02*
Y24950D01*
X239301D01*
Y14950D01*
X219301D01*
Y39950D02*
Y49950D01*
X239301D01*
Y39950D01*
X219301D01*
Y64950D02*
Y74950D01*
X239301D01*
Y64950D01*
X219301D01*
Y89950D02*
Y99950D01*
X239301D01*
Y89950D01*
X219301D01*
Y114950D02*
Y124950D01*
X239301D01*
Y114950D01*
X219301D01*
Y139950D02*
Y149950D01*
X239301D01*
Y139950D01*
X219301D01*
Y164950D02*
Y174950D01*
X239301D01*
Y164950D01*
X219301D01*
Y189950D02*
Y199950D01*
X239301D01*
Y189950D01*
X219301D01*
Y214950D02*
Y224950D01*
X239301D01*
Y214950D01*
X219301D01*
X224399Y151970D02*
Y155720D01*
X226587D01*
X227212Y155408D01*
X227524Y154783D01*
X227212Y154158D01*
X226587Y153846D01*
X224399D01*
X226587D02*
X227524Y151970D01*
X229399Y152908D02*
X229712Y153533D01*
X230337Y153846D01*
X230962D01*
X231587Y153533D01*
X231899Y152908D01*
X231587Y152283D01*
X230962Y151970D01*
X230337D01*
X229712Y152283D01*
X229399Y152908D01*
Y153846D01*
X229712Y154783D01*
X230337Y155408D01*
X230962Y155720D01*
X224399Y176970D02*
Y180720D01*
X226587D01*
X227212Y180408D01*
X227524Y179783D01*
X227212Y179158D01*
X226587Y178846D01*
X224399D01*
X226587D02*
X227524Y176970D01*
X229399D02*
X231899Y180720D01*
X229399D01*
X225551Y26970D02*
Y30720D01*
X227738D01*
X228363Y30408D01*
X228676Y29783D01*
X228363Y29158D01*
X227738Y28846D01*
X225551D01*
X227738D02*
X228676Y26970D01*
X231176D02*
X232426D01*
X231801D02*
Y30720D01*
X231176Y30096D01*
X225551Y51970D02*
Y55720D01*
X227738D01*
X228363Y55408D01*
X228676Y54783D01*
X228363Y54158D01*
X227738Y53846D01*
X225551D01*
X227738D02*
X228676Y51970D01*
X233051D02*
X230551D01*
X232738Y54158D01*
X233051Y54783D01*
X232738Y55408D01*
X232113Y55720D01*
X231176D01*
X230551Y55408D01*
X225551Y76970D02*
Y80720D01*
X227738D01*
X228363Y80408D01*
X228676Y79783D01*
X228363Y79158D01*
X227738Y78846D01*
X225551D01*
X227738D02*
X228676Y76970D01*
X230863Y77283D02*
X231488Y76970D01*
X232113D01*
X232738Y77283D01*
X233051Y77908D01*
X232738Y78533D01*
X232113Y78846D01*
X231488D01*
X232113D02*
X232738Y79158D01*
X233051Y79783D01*
X232738Y80408D01*
X232113Y80720D01*
X231488D01*
X230863Y80408D01*
X225551Y101970D02*
Y105720D01*
X227738D01*
X228363Y105408D01*
X228676Y104783D01*
X228363Y104158D01*
X227738Y103846D01*
X225551D01*
X227738D02*
X228676Y101970D01*
X232113D02*
Y105720D01*
X230551Y103220D01*
X233051D01*
X225551Y126970D02*
Y130720D01*
X227738D01*
X228363Y130408D01*
X228676Y129783D01*
X228363Y129158D01*
X227738Y128846D01*
X225551D01*
X227738D02*
X228676Y126970D01*
X230551Y127283D02*
X231176Y126970D01*
X232113D01*
X232738Y127283D01*
X233051Y127908D01*
Y128220D01*
X232738Y128846D01*
X232113Y129158D01*
X230551D01*
Y130720D01*
X233051D01*
X225551Y201970D02*
Y205720D01*
X227738D01*
X228363Y205408D01*
X228676Y204783D01*
X228363Y204158D01*
X227738Y203846D01*
X225551D01*
X227738D02*
X228676Y201970D01*
X231488Y203846D02*
X232113D01*
X232738Y204158D01*
X233051Y204783D01*
X232738Y205408D01*
X232113Y205720D01*
X231488D01*
X230863Y205408D01*
X230551Y204783D01*
X230863Y204158D01*
X231488Y203846D01*
X230863Y203533D01*
X230551Y202908D01*
X230863Y202283D01*
X231488Y201970D01*
X232113D01*
X232738Y202283D01*
X233051Y202908D01*
X232738Y203533D01*
X232113Y203846D01*
X225551Y226970D02*
Y230720D01*
X227738D01*
X228363Y230408D01*
X228676Y229783D01*
X228363Y229158D01*
X227738Y228846D01*
X225551D01*
X227738D02*
X228676Y226970D01*
X231488D02*
X232113Y227283D01*
X232738Y227908D01*
X233051Y228846D01*
Y229783D01*
X232738Y230408D01*
X232113Y230720D01*
X231488D01*
X230863Y230408D01*
X230551Y229783D01*
X230863Y229158D01*
X231488Y228846D01*
X232113D01*
X232738Y229158D01*
X233051Y229783D01*
X239301Y19950D02*
X244301D01*
X239301Y44950D02*
X244301D01*
X239301Y69950D02*
X244301D01*
X239301Y94950D02*
X244301D01*
X239301Y119950D02*
X244301D01*
X239301Y144950D02*
X244301D01*
X239301Y169950D02*
X244301D01*
X239301Y194950D02*
X244301D01*
X239301Y219950D02*
X244301D01*
X0Y0D02*
M02*
