G05
M48
;#@! TF.GenerationSoftware,DesignSpark,DesignSpark PCB,10.0.5344
;#@! TF.CreationDate,2022-11-21T11:37:53--8:00*
;#@! TF.FileFunction,Plated,1,2,PTH
;FILE_FORMAT=3:5
;TYPE=PLATED
INCH,TZ
FMAT,2
T1C000.03000
T2C000.03200
T3C000.03937
T4C000.04370
%
T001
X1.94301Y0.09950
X1.94301Y0.19950
X1.94301Y0.34950
X1.94301Y0.44950
X1.94301Y0.59950
X1.94301Y0.69950
X1.94301Y0.84950
X1.94301Y0.94950
X1.94301Y1.09950
X1.94301Y1.19950
X1.94301Y1.34950
X1.94301Y1.44950
X1.94301Y1.59950
X1.94301Y1.69950
X1.94301Y1.84950
X1.94301Y1.94950
X1.94301Y2.09950
X1.94301Y2.19950
T002
X0.06112Y0.20285
X0.06112Y0.46269
X0.06112Y0.72254
X0.06112Y0.98021
X0.06112Y1.24222
X0.06112Y1.50206
X0.06112Y1.76191
X0.06112Y2.02175
X0.46112Y0.20285
X0.46112Y0.46269
X0.46112Y0.72254
X0.46112Y0.98021
X0.46112Y1.24222
X0.46112Y1.50206
X0.46112Y1.76191
X0.46112Y2.02175
X2.09301Y0.19950
X2.09301Y0.44950
X2.09301Y0.69950
X2.09301Y0.94950
X2.09301Y1.19950
X2.09301Y1.44950
X2.09301Y1.69950
X2.09301Y1.94950
X2.09301Y2.19950
X2.49301Y0.19950
X2.49301Y0.44950
X2.49301Y0.69950
X2.49301Y0.94950
X2.49301Y1.19950
X2.49301Y1.44950
X2.49301Y1.69950
X2.49301Y1.94950
X2.49301Y2.19950
T003
X0.56506Y0.20285
X0.56506Y0.38002
X0.56506Y0.46269
X0.56506Y0.63986
X0.56506Y0.72254
X0.56506Y0.89970
X0.56506Y0.98238
X0.56506Y1.15954
X0.56506Y1.24222
X0.56506Y1.41939
X0.56506Y1.50206
X0.56506Y1.67923
X0.56506Y1.76191
X0.56506Y1.93907
X0.56506Y2.02175
X0.56506Y2.19891
X0.80128Y0.20285
X0.80128Y0.38002
X0.80128Y0.46269
X0.80128Y0.63986
X0.80128Y0.72254
X0.80128Y0.89970
X0.80128Y0.98238
X0.80128Y1.15954
X0.80128Y1.24222
X0.80128Y1.41939
X0.80128Y1.50206
X0.80128Y1.67923
X0.80128Y1.76191
X0.80128Y1.93907
X0.80128Y2.02175
X0.80128Y2.19891
T004
X1.02962Y0.57450
X1.02962Y0.67450
X1.02962Y0.77450
X1.02962Y0.87450
X1.02962Y0.97450
X1.02962Y1.07450
X1.02962Y1.17450
X1.02962Y1.27450
X1.02962Y1.37450
X1.02962Y1.47450
X1.02962Y1.57450
X1.02962Y1.67450
X1.02962Y1.77450
X1.02962Y1.87450
X1.02962Y1.97450
X1.62962Y0.57450
X1.62962Y0.67450
X1.62962Y0.77450
X1.62962Y0.87450
X1.62962Y0.97450
X1.62962Y1.07450
X1.62962Y1.17450
X1.62962Y1.27450
X1.62962Y1.37450
X1.62962Y1.47450
X1.62962Y1.57450
X1.62962Y1.67450
X1.62962Y1.77450
X1.62962Y1.87450
X1.62962Y1.97450
M30
