G04 DesignSpark PCB Gerber Version 10.0 Build 5299*
G04 #@! TF.Part,Single*
G04 #@! TF.FilePolarity,Positive*
%FSLAX35Y35*%
%MOIN*%
G04 #@! TA.AperFunction,ComponentDrill*
%ADD23C,0.03000*%
%ADD24C,0.03200*%
%ADD25C,0.03937*%
%ADD22C,0.04370*%
G04 #@! TD.AperFunction*
X0Y0D02*
D02*
D22*
X102962Y57450D03*
Y67450D03*
Y77450D03*
Y87450D03*
Y97450D03*
Y107450D03*
Y117450D03*
Y127450D03*
Y137450D03*
Y147450D03*
Y157450D03*
Y167450D03*
Y177450D03*
Y187450D03*
Y197450D03*
X162962Y57450D03*
Y67450D03*
Y77450D03*
Y87450D03*
Y97450D03*
Y107450D03*
Y117450D03*
Y127450D03*
Y137450D03*
Y147450D03*
Y157450D03*
Y167450D03*
Y177450D03*
Y187450D03*
Y197450D03*
D02*
D23*
X194301Y9950D03*
Y19950D03*
Y34950D03*
Y44950D03*
Y59950D03*
Y69950D03*
Y84950D03*
Y94950D03*
Y109950D03*
Y119950D03*
Y134950D03*
Y144950D03*
Y159950D03*
Y169950D03*
Y184950D03*
Y194950D03*
Y209950D03*
Y219950D03*
D02*
D24*
X6112Y20285D03*
Y46269D03*
Y72254D03*
Y98021D03*
Y124222D03*
Y150206D03*
Y176191D03*
Y202175D03*
X46112Y20285D03*
Y46269D03*
Y72254D03*
Y98021D03*
Y124222D03*
Y150206D03*
Y176191D03*
Y202175D03*
X209301Y19950D03*
Y44950D03*
Y69950D03*
Y94950D03*
Y119950D03*
Y144950D03*
Y169950D03*
Y194950D03*
Y219950D03*
X249301Y19950D03*
Y44950D03*
Y69950D03*
Y94950D03*
Y119950D03*
Y144950D03*
Y169950D03*
Y194950D03*
Y219950D03*
D02*
D25*
X56506Y20285D03*
Y38002D03*
Y46269D03*
Y63986D03*
Y72254D03*
Y89970D03*
Y98238D03*
Y115954D03*
Y124222D03*
Y141939D03*
Y150206D03*
Y167923D03*
Y176191D03*
Y193907D03*
Y202175D03*
Y219891D03*
X80128Y20285D03*
Y38002D03*
Y46269D03*
Y63986D03*
Y72254D03*
Y89970D03*
Y98238D03*
Y115954D03*
Y124222D03*
Y141939D03*
Y150206D03*
Y167923D03*
Y176191D03*
Y193907D03*
Y202175D03*
Y219891D03*
X0Y0D02*
M02*
