G04 DesignSpark PCB Gerber Version 10.0 Build 5299*
G04 #@! TF.Part,Single*
G04 #@! TF.FileFunction,Soldermask,Bot*
G04 #@! TF.FilePolarity,Negative*
%FSLAX35Y35*%
%MOIN*%
G04 #@! TA.AperFunction,ComponentPad*
%ADD16R,0.07555X0.07555*%
%ADD19C,0.07000*%
%ADD17C,0.07555*%
%ADD18R,0.09000X0.07000*%
%ADD70C,0.08000*%
G04 #@! TD.AperFunction*
X0Y0D02*
D02*
D16*
X102962Y197450D03*
D02*
D17*
Y57450D03*
Y67450D03*
Y77450D03*
Y87450D03*
Y97450D03*
Y107450D03*
Y117450D03*
Y127450D03*
Y137450D03*
Y147450D03*
Y157450D03*
Y167450D03*
Y177450D03*
Y187450D03*
X162962Y57450D03*
Y67450D03*
Y77450D03*
Y87450D03*
Y97450D03*
Y107450D03*
Y117450D03*
Y127450D03*
Y137450D03*
Y147450D03*
Y157450D03*
Y167450D03*
Y177450D03*
Y187450D03*
Y197450D03*
D02*
D18*
X194301Y9950D03*
Y19950D03*
Y34950D03*
Y44950D03*
Y59950D03*
Y69950D03*
Y84950D03*
Y94950D03*
Y109950D03*
Y119950D03*
Y134950D03*
Y144950D03*
Y159950D03*
Y169950D03*
Y184950D03*
Y194950D03*
Y209950D03*
Y219950D03*
D02*
D19*
X6112Y20285D03*
Y46269D03*
Y72254D03*
Y98021D03*
Y124222D03*
Y150206D03*
Y176191D03*
Y202175D03*
X46112Y20285D03*
Y46269D03*
Y72254D03*
Y98021D03*
Y124222D03*
Y150206D03*
Y176191D03*
Y202175D03*
X209301Y19950D03*
Y44950D03*
Y69950D03*
Y94950D03*
Y119950D03*
Y144950D03*
Y169950D03*
Y194950D03*
Y219950D03*
X249301Y19950D03*
Y44950D03*
Y69950D03*
Y94950D03*
Y119950D03*
Y144950D03*
Y169950D03*
Y194950D03*
Y219950D03*
D02*
D70*
X56506Y20285D03*
Y38002D03*
Y46269D03*
Y63986D03*
Y72254D03*
Y89970D03*
Y98238D03*
Y115954D03*
Y124222D03*
Y141939D03*
Y150206D03*
Y167923D03*
Y176191D03*
Y193907D03*
Y202175D03*
Y219891D03*
X80128Y20285D03*
Y38002D03*
Y46269D03*
Y63986D03*
Y72254D03*
Y89970D03*
Y98238D03*
Y115954D03*
Y124222D03*
Y141939D03*
Y150206D03*
Y167923D03*
Y176191D03*
Y193907D03*
Y202175D03*
Y219891D03*
X0Y0D02*
M02*
