G04 DesignSpark PCB Gerber Version 10.0 Build 5299*
G04 #@! TF.Part,Single*
G04 #@! TF.FileFunction,Drillmap*
G04 #@! TF.FilePolarity,Positive*
%FSLAX35Y35*%
%MOIN*%
%ADD20C,0.00500*%
G04 #@! TA.AperFunction,ComponentPad*
%ADD26C,0.10000*%
G04 #@! TD.AperFunction*
X0Y0D02*
D02*
D20*
X19237Y26848D02*
X18924Y26535D01*
X18299Y26222D01*
X17362D01*
X16737Y26535D01*
X16424Y26848D01*
X16112Y27472D01*
Y28722D01*
X16424Y29348D01*
X16737Y29660D01*
X17362Y29972D01*
X18299D01*
X18924Y29660D01*
X19237Y29348D01*
Y52832D02*
X18924Y52519D01*
X18299Y52207D01*
X17362D01*
X16737Y52519D01*
X16424Y52832D01*
X16112Y53457D01*
Y54707D01*
X16424Y55332D01*
X16737Y55644D01*
X17362Y55957D01*
X18299D01*
X18924Y55644D01*
X19237Y55332D01*
Y78816D02*
X18924Y78504D01*
X18299Y78191D01*
X17362D01*
X16737Y78504D01*
X16424Y78816D01*
X16112Y79441D01*
Y80691D01*
X16424Y81316D01*
X16737Y81629D01*
X17362Y81941D01*
X18299D01*
X18924Y81629D01*
X19237Y81316D01*
Y104584D02*
X18924Y104271D01*
X18299Y103959D01*
X17362D01*
X16737Y104271D01*
X16424Y104584D01*
X16112Y105209D01*
Y106459D01*
X16424Y107084D01*
X16737Y107396D01*
X17362Y107709D01*
X18299D01*
X18924Y107396D01*
X19237Y107084D01*
Y130785D02*
X18924Y130472D01*
X18299Y130159D01*
X17362D01*
X16737Y130472D01*
X16424Y130785D01*
X16112Y131409D01*
Y132659D01*
X16424Y133285D01*
X16737Y133597D01*
X17362Y133909D01*
X18299D01*
X18924Y133597D01*
X19237Y133285D01*
Y156769D02*
X18924Y156456D01*
X18299Y156144D01*
X17362D01*
X16737Y156456D01*
X16424Y156769D01*
X16112Y157394D01*
Y158644D01*
X16424Y159269D01*
X16737Y159581D01*
X17362Y159894D01*
X18299D01*
X18924Y159581D01*
X19237Y159269D01*
Y182753D02*
X18924Y182441D01*
X18299Y182128D01*
X17362D01*
X16737Y182441D01*
X16424Y182753D01*
X16112Y183378D01*
Y184628D01*
X16424Y185253D01*
X16737Y185566D01*
X17362Y185878D01*
X18299D01*
X18924Y185566D01*
X19237Y185253D01*
Y208737D02*
X18924Y208425D01*
X18299Y208112D01*
X17362D01*
X16737Y208425D01*
X16424Y208737D01*
X16112Y209362D01*
Y210612D01*
X16424Y211237D01*
X16737Y211550D01*
X17362Y211862D01*
X18299D01*
X18924Y211550D01*
X19237Y211237D01*
X59237Y26848D02*
X58924Y26535D01*
X58299Y26222D01*
X57362D01*
X56737Y26535D01*
X56424Y26848D01*
X56112Y27472D01*
Y28722D01*
X56424Y29348D01*
X56737Y29660D01*
X57362Y29972D01*
X58299D01*
X58924Y29660D01*
X59237Y29348D01*
Y52832D02*
X58924Y52519D01*
X58299Y52207D01*
X57362D01*
X56737Y52519D01*
X56424Y52832D01*
X56112Y53457D01*
Y54707D01*
X56424Y55332D01*
X56737Y55644D01*
X57362Y55957D01*
X58299D01*
X58924Y55644D01*
X59237Y55332D01*
Y78816D02*
X58924Y78504D01*
X58299Y78191D01*
X57362D01*
X56737Y78504D01*
X56424Y78816D01*
X56112Y79441D01*
Y80691D01*
X56424Y81316D01*
X56737Y81629D01*
X57362Y81941D01*
X58299D01*
X58924Y81629D01*
X59237Y81316D01*
Y104584D02*
X58924Y104271D01*
X58299Y103959D01*
X57362D01*
X56737Y104271D01*
X56424Y104584D01*
X56112Y105209D01*
Y106459D01*
X56424Y107084D01*
X56737Y107396D01*
X57362Y107709D01*
X58299D01*
X58924Y107396D01*
X59237Y107084D01*
Y130785D02*
X58924Y130472D01*
X58299Y130159D01*
X57362D01*
X56737Y130472D01*
X56424Y130785D01*
X56112Y131409D01*
Y132659D01*
X56424Y133285D01*
X56737Y133597D01*
X57362Y133909D01*
X58299D01*
X58924Y133597D01*
X59237Y133285D01*
Y156769D02*
X58924Y156456D01*
X58299Y156144D01*
X57362D01*
X56737Y156456D01*
X56424Y156769D01*
X56112Y157394D01*
Y158644D01*
X56424Y159269D01*
X56737Y159581D01*
X57362Y159894D01*
X58299D01*
X58924Y159581D01*
X59237Y159269D01*
Y182753D02*
X58924Y182441D01*
X58299Y182128D01*
X57362D01*
X56737Y182441D01*
X56424Y182753D01*
X56112Y183378D01*
Y184628D01*
X56424Y185253D01*
X56737Y185566D01*
X57362Y185878D01*
X58299D01*
X58924Y185566D01*
X59237Y185253D01*
Y208737D02*
X58924Y208425D01*
X58299Y208112D01*
X57362D01*
X56737Y208425D01*
X56424Y208737D01*
X56112Y209362D01*
Y210612D01*
X56424Y211237D01*
X56737Y211550D01*
X57362Y211862D01*
X58299D01*
X58924Y211550D01*
X59237Y211237D01*
X66506Y26222D02*
Y29972D01*
X68381D01*
X69006Y29660D01*
X69318Y29348D01*
X69631Y28722D01*
Y27472D01*
X69318Y26848D01*
X69006Y26535D01*
X68381Y26222D01*
X66506D01*
Y43939D02*
Y47689D01*
X68381D01*
X69006Y47377D01*
X69318Y47064D01*
X69631Y46439D01*
Y45189D01*
X69318Y44564D01*
X69006Y44252D01*
X68381Y43939D01*
X66506D01*
Y52207D02*
Y55957D01*
X68381D01*
X69006Y55644D01*
X69318Y55332D01*
X69631Y54707D01*
Y53457D01*
X69318Y52832D01*
X69006Y52519D01*
X68381Y52207D01*
X66506D01*
Y69923D02*
Y73673D01*
X68381D01*
X69006Y73361D01*
X69318Y73048D01*
X69631Y72423D01*
Y71173D01*
X69318Y70548D01*
X69006Y70236D01*
X68381Y69923D01*
X66506D01*
Y78191D02*
Y81941D01*
X68381D01*
X69006Y81629D01*
X69318Y81316D01*
X69631Y80691D01*
Y79441D01*
X69318Y78816D01*
X69006Y78504D01*
X68381Y78191D01*
X66506D01*
Y95907D02*
Y99657D01*
X68381D01*
X69006Y99345D01*
X69318Y99033D01*
X69631Y98407D01*
Y97157D01*
X69318Y96533D01*
X69006Y96220D01*
X68381Y95907D01*
X66506D01*
Y104175D02*
Y107925D01*
X68381D01*
X69006Y107613D01*
X69318Y107300D01*
X69631Y106675D01*
Y105425D01*
X69318Y104800D01*
X69006Y104488D01*
X68381Y104175D01*
X66506D01*
Y121892D02*
Y125642D01*
X68381D01*
X69006Y125330D01*
X69318Y125017D01*
X69631Y124392D01*
Y123142D01*
X69318Y122517D01*
X69006Y122204D01*
X68381Y121892D01*
X66506D01*
Y130159D02*
Y133909D01*
X68381D01*
X69006Y133597D01*
X69318Y133285D01*
X69631Y132659D01*
Y131409D01*
X69318Y130785D01*
X69006Y130472D01*
X68381Y130159D01*
X66506D01*
Y147876D02*
Y151626D01*
X68381D01*
X69006Y151314D01*
X69318Y151001D01*
X69631Y150376D01*
Y149126D01*
X69318Y148501D01*
X69006Y148189D01*
X68381Y147876D01*
X66506D01*
Y156144D02*
Y159894D01*
X68381D01*
X69006Y159581D01*
X69318Y159269D01*
X69631Y158644D01*
Y157394D01*
X69318Y156769D01*
X69006Y156456D01*
X68381Y156144D01*
X66506D01*
Y173860D02*
Y177610D01*
X68381D01*
X69006Y177298D01*
X69318Y176985D01*
X69631Y176360D01*
Y175110D01*
X69318Y174485D01*
X69006Y174173D01*
X68381Y173860D01*
X66506D01*
Y182128D02*
Y185878D01*
X68381D01*
X69006Y185566D01*
X69318Y185253D01*
X69631Y184628D01*
Y183378D01*
X69318Y182753D01*
X69006Y182441D01*
X68381Y182128D01*
X66506D01*
Y199844D02*
Y203594D01*
X68381D01*
X69006Y203282D01*
X69318Y202970D01*
X69631Y202344D01*
Y201094D01*
X69318Y200470D01*
X69006Y200157D01*
X68381Y199844D01*
X66506D01*
Y208112D02*
Y211862D01*
X68381D01*
X69006Y211550D01*
X69318Y211237D01*
X69631Y210612D01*
Y209362D01*
X69318Y208737D01*
X69006Y208425D01*
X68381Y208112D01*
X66506D01*
Y225829D02*
Y229579D01*
X68381D01*
X69006Y229267D01*
X69318Y228954D01*
X69631Y228329D01*
Y227079D01*
X69318Y226454D01*
X69006Y226141D01*
X68381Y225829D01*
X66506D01*
X90128Y26222D02*
Y29972D01*
X92003D01*
X92628Y29660D01*
X92940Y29348D01*
X93253Y28722D01*
Y27472D01*
X92940Y26848D01*
X92628Y26535D01*
X92003Y26222D01*
X90128D01*
Y43939D02*
Y47689D01*
X92003D01*
X92628Y47377D01*
X92940Y47064D01*
X93253Y46439D01*
Y45189D01*
X92940Y44564D01*
X92628Y44252D01*
X92003Y43939D01*
X90128D01*
Y52207D02*
Y55957D01*
X92003D01*
X92628Y55644D01*
X92940Y55332D01*
X93253Y54707D01*
Y53457D01*
X92940Y52832D01*
X92628Y52519D01*
X92003Y52207D01*
X90128D01*
Y69923D02*
Y73673D01*
X92003D01*
X92628Y73361D01*
X92940Y73048D01*
X93253Y72423D01*
Y71173D01*
X92940Y70548D01*
X92628Y70236D01*
X92003Y69923D01*
X90128D01*
Y78191D02*
Y81941D01*
X92003D01*
X92628Y81629D01*
X92940Y81316D01*
X93253Y80691D01*
Y79441D01*
X92940Y78816D01*
X92628Y78504D01*
X92003Y78191D01*
X90128D01*
Y95907D02*
Y99657D01*
X92003D01*
X92628Y99345D01*
X92940Y99033D01*
X93253Y98407D01*
Y97157D01*
X92940Y96533D01*
X92628Y96220D01*
X92003Y95907D01*
X90128D01*
Y104175D02*
Y107925D01*
X92003D01*
X92628Y107613D01*
X92940Y107300D01*
X93253Y106675D01*
Y105425D01*
X92940Y104800D01*
X92628Y104488D01*
X92003Y104175D01*
X90128D01*
Y121892D02*
Y125642D01*
X92003D01*
X92628Y125330D01*
X92940Y125017D01*
X93253Y124392D01*
Y123142D01*
X92940Y122517D01*
X92628Y122204D01*
X92003Y121892D01*
X90128D01*
Y130159D02*
Y133909D01*
X92003D01*
X92628Y133597D01*
X92940Y133285D01*
X93253Y132659D01*
Y131409D01*
X92940Y130785D01*
X92628Y130472D01*
X92003Y130159D01*
X90128D01*
Y147876D02*
Y151626D01*
X92003D01*
X92628Y151314D01*
X92940Y151001D01*
X93253Y150376D01*
Y149126D01*
X92940Y148501D01*
X92628Y148189D01*
X92003Y147876D01*
X90128D01*
Y156144D02*
Y159894D01*
X92003D01*
X92628Y159581D01*
X92940Y159269D01*
X93253Y158644D01*
Y157394D01*
X92940Y156769D01*
X92628Y156456D01*
X92003Y156144D01*
X90128D01*
Y173860D02*
Y177610D01*
X92003D01*
X92628Y177298D01*
X92940Y176985D01*
X93253Y176360D01*
Y175110D01*
X92940Y174485D01*
X92628Y174173D01*
X92003Y173860D01*
X90128D01*
Y182128D02*
Y185878D01*
X92003D01*
X92628Y185566D01*
X92940Y185253D01*
X93253Y184628D01*
Y183378D01*
X92940Y182753D01*
X92628Y182441D01*
X92003Y182128D01*
X90128D01*
Y199844D02*
Y203594D01*
X92003D01*
X92628Y203282D01*
X92940Y202970D01*
X93253Y202344D01*
Y201094D01*
X92940Y200470D01*
X92628Y200157D01*
X92003Y199844D01*
X90128D01*
Y208112D02*
Y211862D01*
X92003D01*
X92628Y211550D01*
X92940Y211237D01*
X93253Y210612D01*
Y209362D01*
X92940Y208737D01*
X92628Y208425D01*
X92003Y208112D01*
X90128D01*
Y225829D02*
Y229579D01*
X92003D01*
X92628Y229267D01*
X92940Y228954D01*
X93253Y228329D01*
Y227079D01*
X92940Y226454D01*
X92628Y226141D01*
X92003Y225829D01*
X90128D01*
X112962Y63388D02*
X114525Y67138D01*
X116087Y63388D01*
X113587Y64950D02*
X115462D01*
X112962Y73388D02*
X114525Y77138D01*
X116087Y73388D01*
X113587Y74950D02*
X115462D01*
X112962Y83388D02*
X114525Y87138D01*
X116087Y83388D01*
X113587Y84950D02*
X115462D01*
X112962Y93388D02*
X114525Y97138D01*
X116087Y93388D01*
X113587Y94950D02*
X115462D01*
X112962Y103388D02*
X114525Y107138D01*
X116087Y103388D01*
X113587Y104950D02*
X115462D01*
X112962Y113388D02*
X114525Y117138D01*
X116087Y113388D01*
X113587Y114950D02*
X115462D01*
X112962Y123388D02*
X114525Y127138D01*
X116087Y123388D01*
X113587Y124950D02*
X115462D01*
X112962Y133388D02*
X114525Y137138D01*
X116087Y133388D01*
X113587Y134950D02*
X115462D01*
X112962Y143388D02*
X114525Y147138D01*
X116087Y143388D01*
X113587Y144950D02*
X115462D01*
X112962Y153388D02*
X114525Y157138D01*
X116087Y153388D01*
X113587Y154950D02*
X115462D01*
X112962Y163388D02*
X114525Y167138D01*
X116087Y163388D01*
X113587Y164950D02*
X115462D01*
X112962Y173388D02*
X114525Y177138D01*
X116087Y173388D01*
X113587Y174950D02*
X115462D01*
X112962Y183388D02*
X114525Y187138D01*
X116087Y183388D01*
X113587Y184950D02*
X115462D01*
X112962Y193388D02*
X114525Y197138D01*
X116087Y193388D01*
X113587Y194950D02*
X115462D01*
X112962Y203388D02*
X114525Y207138D01*
X116087Y203388D01*
X113587Y204950D02*
X115462D01*
X172962Y63388D02*
X174525Y67138D01*
X176087Y63388D01*
X173587Y64950D02*
X175462D01*
X172962Y73388D02*
X174525Y77138D01*
X176087Y73388D01*
X173587Y74950D02*
X175462D01*
X172962Y83388D02*
X174525Y87138D01*
X176087Y83388D01*
X173587Y84950D02*
X175462D01*
X172962Y93388D02*
X174525Y97138D01*
X176087Y93388D01*
X173587Y94950D02*
X175462D01*
X172962Y103388D02*
X174525Y107138D01*
X176087Y103388D01*
X173587Y104950D02*
X175462D01*
X172962Y113388D02*
X174525Y117138D01*
X176087Y113388D01*
X173587Y114950D02*
X175462D01*
X172962Y123388D02*
X174525Y127138D01*
X176087Y123388D01*
X173587Y124950D02*
X175462D01*
X172962Y133388D02*
X174525Y137138D01*
X176087Y133388D01*
X173587Y134950D02*
X175462D01*
X172962Y143388D02*
X174525Y147138D01*
X176087Y143388D01*
X173587Y144950D02*
X175462D01*
X172962Y153388D02*
X174525Y157138D01*
X176087Y153388D01*
X173587Y154950D02*
X175462D01*
X172962Y163388D02*
X174525Y167138D01*
X176087Y163388D01*
X173587Y164950D02*
X175462D01*
X172962Y173388D02*
X174525Y177138D01*
X176087Y173388D01*
X173587Y174950D02*
X175462D01*
X172962Y183388D02*
X174525Y187138D01*
X176087Y183388D01*
X173587Y184950D02*
X175462D01*
X172962Y193388D02*
X174525Y197138D01*
X176087Y193388D01*
X173587Y194950D02*
X175462D01*
X172962Y203388D02*
X174525Y207138D01*
X176087Y203388D01*
X173587Y204950D02*
X175462D01*
X206488Y17763D02*
X207113Y17450D01*
X207426Y16826D01*
X207113Y16200D01*
X206488Y15888D01*
X204301D01*
Y19638D01*
X206488D01*
X207113Y19326D01*
X207426Y18700D01*
X207113Y18076D01*
X206488Y17763D01*
X204301D01*
X206488Y27763D02*
X207113Y27450D01*
X207426Y26826D01*
X207113Y26200D01*
X206488Y25888D01*
X204301D01*
Y29638D01*
X206488D01*
X207113Y29326D01*
X207426Y28700D01*
X207113Y28076D01*
X206488Y27763D01*
X204301D01*
X206488Y42763D02*
X207113Y42450D01*
X207426Y41826D01*
X207113Y41200D01*
X206488Y40888D01*
X204301D01*
Y44638D01*
X206488D01*
X207113Y44326D01*
X207426Y43700D01*
X207113Y43076D01*
X206488Y42763D01*
X204301D01*
X206488Y52763D02*
X207113Y52450D01*
X207426Y51826D01*
X207113Y51200D01*
X206488Y50888D01*
X204301D01*
Y54638D01*
X206488D01*
X207113Y54326D01*
X207426Y53700D01*
X207113Y53076D01*
X206488Y52763D01*
X204301D01*
X206488Y67763D02*
X207113Y67450D01*
X207426Y66826D01*
X207113Y66200D01*
X206488Y65888D01*
X204301D01*
Y69638D01*
X206488D01*
X207113Y69326D01*
X207426Y68700D01*
X207113Y68076D01*
X206488Y67763D01*
X204301D01*
X206488Y77763D02*
X207113Y77450D01*
X207426Y76826D01*
X207113Y76200D01*
X206488Y75888D01*
X204301D01*
Y79638D01*
X206488D01*
X207113Y79326D01*
X207426Y78700D01*
X207113Y78076D01*
X206488Y77763D01*
X204301D01*
X206488Y92763D02*
X207113Y92450D01*
X207426Y91826D01*
X207113Y91200D01*
X206488Y90888D01*
X204301D01*
Y94638D01*
X206488D01*
X207113Y94326D01*
X207426Y93700D01*
X207113Y93076D01*
X206488Y92763D01*
X204301D01*
X206488Y102763D02*
X207113Y102450D01*
X207426Y101826D01*
X207113Y101200D01*
X206488Y100888D01*
X204301D01*
Y104638D01*
X206488D01*
X207113Y104326D01*
X207426Y103700D01*
X207113Y103076D01*
X206488Y102763D01*
X204301D01*
X206488Y117763D02*
X207113Y117450D01*
X207426Y116826D01*
X207113Y116200D01*
X206488Y115888D01*
X204301D01*
Y119638D01*
X206488D01*
X207113Y119326D01*
X207426Y118700D01*
X207113Y118076D01*
X206488Y117763D01*
X204301D01*
X206488Y127763D02*
X207113Y127450D01*
X207426Y126826D01*
X207113Y126200D01*
X206488Y125888D01*
X204301D01*
Y129638D01*
X206488D01*
X207113Y129326D01*
X207426Y128700D01*
X207113Y128076D01*
X206488Y127763D01*
X204301D01*
X206488Y142763D02*
X207113Y142450D01*
X207426Y141826D01*
X207113Y141200D01*
X206488Y140888D01*
X204301D01*
Y144638D01*
X206488D01*
X207113Y144326D01*
X207426Y143700D01*
X207113Y143076D01*
X206488Y142763D01*
X204301D01*
X206488Y152763D02*
X207113Y152450D01*
X207426Y151826D01*
X207113Y151200D01*
X206488Y150888D01*
X204301D01*
Y154638D01*
X206488D01*
X207113Y154326D01*
X207426Y153700D01*
X207113Y153076D01*
X206488Y152763D01*
X204301D01*
X206488Y167763D02*
X207113Y167450D01*
X207426Y166826D01*
X207113Y166200D01*
X206488Y165888D01*
X204301D01*
Y169638D01*
X206488D01*
X207113Y169326D01*
X207426Y168700D01*
X207113Y168076D01*
X206488Y167763D01*
X204301D01*
X206488Y177763D02*
X207113Y177450D01*
X207426Y176826D01*
X207113Y176200D01*
X206488Y175888D01*
X204301D01*
Y179638D01*
X206488D01*
X207113Y179326D01*
X207426Y178700D01*
X207113Y178076D01*
X206488Y177763D01*
X204301D01*
X206488Y192763D02*
X207113Y192450D01*
X207426Y191826D01*
X207113Y191200D01*
X206488Y190888D01*
X204301D01*
Y194638D01*
X206488D01*
X207113Y194326D01*
X207426Y193700D01*
X207113Y193076D01*
X206488Y192763D01*
X204301D01*
X206488Y202763D02*
X207113Y202450D01*
X207426Y201826D01*
X207113Y201200D01*
X206488Y200888D01*
X204301D01*
Y204638D01*
X206488D01*
X207113Y204326D01*
X207426Y203700D01*
X207113Y203076D01*
X206488Y202763D01*
X204301D01*
X206488Y217763D02*
X207113Y217450D01*
X207426Y216826D01*
X207113Y216200D01*
X206488Y215888D01*
X204301D01*
Y219638D01*
X206488D01*
X207113Y219326D01*
X207426Y218700D01*
X207113Y218076D01*
X206488Y217763D01*
X204301D01*
X206488Y227763D02*
X207113Y227450D01*
X207426Y226826D01*
X207113Y226200D01*
X206488Y225888D01*
X204301D01*
Y229638D01*
X206488D01*
X207113Y229326D01*
X207426Y228700D01*
X207113Y228076D01*
X206488Y227763D01*
X204301D01*
X222426Y26513D02*
X222113Y26200D01*
X221488Y25888D01*
X220551D01*
X219926Y26200D01*
X219613Y26513D01*
X219301Y27138D01*
Y28388D01*
X219613Y29013D01*
X219926Y29326D01*
X220551Y29638D01*
X221488D01*
X222113Y29326D01*
X222426Y29013D01*
Y51513D02*
X222113Y51200D01*
X221488Y50888D01*
X220551D01*
X219926Y51200D01*
X219613Y51513D01*
X219301Y52138D01*
Y53388D01*
X219613Y54013D01*
X219926Y54326D01*
X220551Y54638D01*
X221488D01*
X222113Y54326D01*
X222426Y54013D01*
Y76513D02*
X222113Y76200D01*
X221488Y75888D01*
X220551D01*
X219926Y76200D01*
X219613Y76513D01*
X219301Y77138D01*
Y78388D01*
X219613Y79013D01*
X219926Y79326D01*
X220551Y79638D01*
X221488D01*
X222113Y79326D01*
X222426Y79013D01*
Y101513D02*
X222113Y101200D01*
X221488Y100888D01*
X220551D01*
X219926Y101200D01*
X219613Y101513D01*
X219301Y102138D01*
Y103388D01*
X219613Y104013D01*
X219926Y104326D01*
X220551Y104638D01*
X221488D01*
X222113Y104326D01*
X222426Y104013D01*
Y126513D02*
X222113Y126200D01*
X221488Y125888D01*
X220551D01*
X219926Y126200D01*
X219613Y126513D01*
X219301Y127138D01*
Y128388D01*
X219613Y129013D01*
X219926Y129326D01*
X220551Y129638D01*
X221488D01*
X222113Y129326D01*
X222426Y129013D01*
Y151513D02*
X222113Y151200D01*
X221488Y150888D01*
X220551D01*
X219926Y151200D01*
X219613Y151513D01*
X219301Y152138D01*
Y153388D01*
X219613Y154013D01*
X219926Y154326D01*
X220551Y154638D01*
X221488D01*
X222113Y154326D01*
X222426Y154013D01*
Y176513D02*
X222113Y176200D01*
X221488Y175888D01*
X220551D01*
X219926Y176200D01*
X219613Y176513D01*
X219301Y177138D01*
Y178388D01*
X219613Y179013D01*
X219926Y179326D01*
X220551Y179638D01*
X221488D01*
X222113Y179326D01*
X222426Y179013D01*
Y201513D02*
X222113Y201200D01*
X221488Y200888D01*
X220551D01*
X219926Y201200D01*
X219613Y201513D01*
X219301Y202138D01*
Y203388D01*
X219613Y204013D01*
X219926Y204326D01*
X220551Y204638D01*
X221488D01*
X222113Y204326D01*
X222426Y204013D01*
Y226513D02*
X222113Y226200D01*
X221488Y225888D01*
X220551D01*
X219926Y226200D01*
X219613Y226513D01*
X219301Y227138D01*
Y228388D01*
X219613Y229013D01*
X219926Y229326D01*
X220551Y229638D01*
X221488D01*
X222113Y229326D01*
X222426Y229013D01*
X262426Y26513D02*
X262113Y26200D01*
X261488Y25888D01*
X260551D01*
X259926Y26200D01*
X259613Y26513D01*
X259301Y27138D01*
Y28388D01*
X259613Y29013D01*
X259926Y29326D01*
X260551Y29638D01*
X261488D01*
X262113Y29326D01*
X262426Y29013D01*
Y51513D02*
X262113Y51200D01*
X261488Y50888D01*
X260551D01*
X259926Y51200D01*
X259613Y51513D01*
X259301Y52138D01*
Y53388D01*
X259613Y54013D01*
X259926Y54326D01*
X260551Y54638D01*
X261488D01*
X262113Y54326D01*
X262426Y54013D01*
Y76513D02*
X262113Y76200D01*
X261488Y75888D01*
X260551D01*
X259926Y76200D01*
X259613Y76513D01*
X259301Y77138D01*
Y78388D01*
X259613Y79013D01*
X259926Y79326D01*
X260551Y79638D01*
X261488D01*
X262113Y79326D01*
X262426Y79013D01*
Y101513D02*
X262113Y101200D01*
X261488Y100888D01*
X260551D01*
X259926Y101200D01*
X259613Y101513D01*
X259301Y102138D01*
Y103388D01*
X259613Y104013D01*
X259926Y104326D01*
X260551Y104638D01*
X261488D01*
X262113Y104326D01*
X262426Y104013D01*
Y126513D02*
X262113Y126200D01*
X261488Y125888D01*
X260551D01*
X259926Y126200D01*
X259613Y126513D01*
X259301Y127138D01*
Y128388D01*
X259613Y129013D01*
X259926Y129326D01*
X260551Y129638D01*
X261488D01*
X262113Y129326D01*
X262426Y129013D01*
Y151513D02*
X262113Y151200D01*
X261488Y150888D01*
X260551D01*
X259926Y151200D01*
X259613Y151513D01*
X259301Y152138D01*
Y153388D01*
X259613Y154013D01*
X259926Y154326D01*
X260551Y154638D01*
X261488D01*
X262113Y154326D01*
X262426Y154013D01*
Y176513D02*
X262113Y176200D01*
X261488Y175888D01*
X260551D01*
X259926Y176200D01*
X259613Y176513D01*
X259301Y177138D01*
Y178388D01*
X259613Y179013D01*
X259926Y179326D01*
X260551Y179638D01*
X261488D01*
X262113Y179326D01*
X262426Y179013D01*
Y201513D02*
X262113Y201200D01*
X261488Y200888D01*
X260551D01*
X259926Y201200D01*
X259613Y201513D01*
X259301Y202138D01*
Y203388D01*
X259613Y204013D01*
X259926Y204326D01*
X260551Y204638D01*
X261488D01*
X262113Y204326D01*
X262426Y204013D01*
Y226513D02*
X262113Y226200D01*
X261488Y225888D01*
X260551D01*
X259926Y226200D01*
X259613Y226513D01*
X259301Y227138D01*
Y228388D01*
X259613Y229013D01*
X259926Y229326D01*
X260551Y229638D01*
X261488D01*
X262113Y229326D01*
X262426Y229013D01*
D02*
D26*
X6112Y20285D03*
Y46269D03*
Y72254D03*
Y98021D03*
Y124222D03*
Y150206D03*
Y176191D03*
Y202175D03*
X46112Y20285D03*
Y46269D03*
Y72254D03*
Y98021D03*
Y124222D03*
Y150206D03*
Y176191D03*
Y202175D03*
X56506Y20285D03*
Y38002D03*
Y46269D03*
Y63986D03*
Y72254D03*
Y89970D03*
Y98238D03*
Y115954D03*
Y124222D03*
Y141939D03*
Y150206D03*
Y167923D03*
Y176191D03*
Y193907D03*
Y202175D03*
Y219891D03*
X80128Y20285D03*
Y38002D03*
Y46269D03*
Y63986D03*
Y72254D03*
Y89970D03*
Y98238D03*
Y115954D03*
Y124222D03*
Y141939D03*
Y150206D03*
Y167923D03*
Y176191D03*
Y193907D03*
Y202175D03*
Y219891D03*
X102962Y57450D03*
Y67450D03*
Y77450D03*
Y87450D03*
Y97450D03*
Y107450D03*
Y117450D03*
Y127450D03*
Y137450D03*
Y147450D03*
Y157450D03*
Y167450D03*
Y177450D03*
Y187450D03*
Y197450D03*
X162962Y57450D03*
Y67450D03*
Y77450D03*
Y87450D03*
Y97450D03*
Y107450D03*
Y117450D03*
Y127450D03*
Y137450D03*
Y147450D03*
Y157450D03*
Y167450D03*
Y177450D03*
Y187450D03*
Y197450D03*
X194301Y9950D03*
Y19950D03*
Y34950D03*
Y44950D03*
Y59950D03*
Y69950D03*
Y84950D03*
Y94950D03*
Y109950D03*
Y119950D03*
Y134950D03*
Y144950D03*
Y159950D03*
Y169950D03*
Y184950D03*
Y194950D03*
Y209950D03*
Y219950D03*
X209301Y19950D03*
Y44950D03*
Y69950D03*
Y94950D03*
Y119950D03*
Y144950D03*
Y169950D03*
Y194950D03*
Y219950D03*
X249301Y19950D03*
Y44950D03*
Y69950D03*
Y94950D03*
Y119950D03*
Y144950D03*
Y169950D03*
Y194950D03*
Y219950D03*
X0Y0D02*
M02*
